<?xml version="1.0" encoding="UTF-8"?>
<!-- Generator: Adobe Illustrator 10.0, SVG Export Plug-In . SVG Version: 3.0.0 Build 76)  -->
<!DOCTYPE svg PUBLIC "-//W3C//DTD SVG 1.0//EN" "http://www.w3.org/TR/2001/REC-SVG-20010904/DTD/svg10.dtd">
<svg xmlns="http://www.w3.org/2000/svg" xmlns:xlink="http://www.w3.org/1999/xlink" xmlns:a="http://ns.adobe.com/AdobeSVGViewerExtensions/3.0/" width="414.997" height="250" viewBox="0 0 414.997 250" overflow="visible" enable-background="new 0 0 414.997 250" xml:space="preserve">
	<g id="Layer_1">
		<path fill="#FFFCF3" d="M414.997,250H0V0h414.997V250z"/>
		<path fill="#FFFFFF" stroke="#000000" stroke-width="0.5" stroke-dasharray="6 3" d="M29.036,125.31h370.326"/>
		<path opacity="0.75" fill="#CCE2EF" stroke="#000000" stroke-width="0.75" d="M115.498,125.31    c0,29.423,4.319,55.556,12.332,82.373h2.781c7.582-26.147,11.666-53.781,11.666-82.373c0-28.593-4.088-56.225-11.674-82.372    h-3.087C120.352,68.412,115.498,97.545,115.498,125.31z"/>
		<path fill="none" stroke="#FF0000" d="M545.961,125.242"/>
		<path fill="none" stroke="#FF0000" d="M262.336,124.953"/>
		<g>
			<path d="M171.618,210.88l-0.906,9.88c-0.047,0.466-0.07,0.772-0.07,0.92c0,0.236,0.044,0.416,0.132,0.54     c0.111,0.171,0.262,0.298,0.453,0.381s0.511,0.124,0.962,0.124l-0.097,0.313h-4.653l0.097-0.313h0.202     c0.381,0,0.691-0.083,0.932-0.248c0.17-0.112,0.302-0.297,0.396-0.557c0.064-0.183,0.126-0.612,0.185-1.29l0.146-1.5h-3.422     l-1.207,1.642c-0.275,0.37-0.448,0.635-0.519,0.796s-0.105,0.312-0.105,0.453c0,0.188,0.076,0.349,0.229,0.484     s0.404,0.208,0.756,0.22l-0.097,0.313h-3.544l0.097-0.313c0.434-0.018,0.815-0.163,1.146-0.437s0.824-0.857,1.48-1.752     l7.099-9.655H171.618z M169.916,213.767l-3.507,4.77h3.043L169.916,213.767z"/>
			<path d="M180.334,221.138c-0.608,0.732-1.222,1.269-1.842,1.608c-0.62,0.339-1.275,0.509-1.965,0.509     c-0.831,0-1.478-0.235-1.943-0.705c-0.465-0.47-0.697-1.102-0.697-1.895c0-0.898,0.25-1.783,0.75-2.652s1.172-1.576,2.017-2.12     s1.674-0.815,2.487-0.815c0.637,0,1.113,0.133,1.429,0.397c0.315,0.265,0.474,0.59,0.474,0.974c0,0.361-0.111,0.67-0.332,0.926     c-0.163,0.198-0.364,0.297-0.603,0.297c-0.181,0-0.331-0.058-0.45-0.173s-0.179-0.26-0.179-0.434c0-0.11,0.021-0.211,0.065-0.304     s0.133-0.204,0.269-0.334c0.136-0.13,0.218-0.224,0.248-0.282c0.029-0.058,0.043-0.119,0.043-0.182     c0-0.122-0.056-0.223-0.168-0.304c-0.171-0.116-0.413-0.174-0.725-0.174c-0.578,0-1.149,0.203-1.715,0.608     c-0.565,0.406-1.049,0.982-1.449,1.728c-0.483,0.905-0.725,1.81-0.725,2.715c0,0.6,0.17,1.074,0.512,1.424     s0.807,0.524,1.396,0.524c0.454,0,0.903-0.113,1.348-0.338s0.944-0.634,1.498-1.226L180.334,221.138z"/>
			<path d="M186.595,210.537l-2.475,8.577c1.151-1.628,2.05-2.709,2.695-3.244s1.262-0.802,1.851-0.802     c0.304,0,0.557,0.108,0.759,0.324c0.202,0.216,0.304,0.504,0.304,0.865c0,0.384-0.092,0.849-0.275,1.395l-1.2,3.652     c-0.151,0.441-0.226,0.686-0.226,0.732c0,0.079,0.021,0.143,0.064,0.194s0.092,0.076,0.147,0.076c0.065,0,0.142-0.037,0.228-0.11     c0.288-0.253,0.573-0.608,0.855-1.065l0.272,0.167c-0.189,0.311-0.452,0.646-0.789,1.006c-0.337,0.36-0.626,0.609-0.868,0.746     s-0.458,0.206-0.646,0.206c-0.206,0-0.374-0.07-0.505-0.208c-0.131-0.139-0.196-0.318-0.196-0.538     c0-0.259,0.117-0.742,0.352-1.448l1.158-3.532c0.147-0.441,0.221-0.789,0.221-1.042c0-0.118-0.041-0.212-0.122-0.283     c-0.081-0.07-0.186-0.106-0.315-0.106c-0.188,0-0.402,0.065-0.641,0.194c-0.44,0.247-0.949,0.705-1.525,1.374     c-0.156,0.182-0.674,0.916-1.554,2.202c-0.272,0.411-0.479,0.862-0.621,1.354l-0.556,1.814h-1.299l2.915-10.094l0.308-1.092     c0-0.152-0.063-0.288-0.19-0.405s-0.282-0.176-0.467-0.176c-0.108,0-0.272,0.018-0.493,0.053l-0.188,0.026v-0.313     L186.595,210.537z"/>
			<path d="M191.268,215.568l2.955-0.5l-1.234,4.277c1.039-1.754,1.982-2.98,2.831-3.679c0.48-0.399,0.873-0.599,1.175-0.599     c0.195,0,0.35,0.057,0.462,0.17s0.169,0.278,0.169,0.493c0,0.384-0.1,0.751-0.299,1.1c-0.141,0.262-0.344,0.393-0.607,0.393     c-0.135,0-0.251-0.043-0.348-0.129s-0.157-0.219-0.18-0.398c-0.012-0.109-0.038-0.181-0.079-0.216     c-0.047-0.046-0.103-0.069-0.167-0.069c-0.1,0-0.194,0.023-0.282,0.07c-0.152,0.083-0.384,0.312-0.695,0.687     c-0.487,0.576-1.016,1.321-1.584,2.237c-0.247,0.388-0.458,0.825-0.634,1.313c-0.247,0.669-0.387,1.072-0.422,1.207l-0.307,1.111     h-1.299l1.579-5.469c0.188-0.636,0.281-1.089,0.281-1.361c0-0.105-0.044-0.194-0.132-0.265c-0.116-0.094-0.264-0.141-0.443-0.141     c-0.114,0-0.324,0.026-0.628,0.079L191.268,215.568z"/>
			<path d="M204.995,217.826c0,0.882-0.233,1.754-0.698,2.618c-0.465,0.864-1.113,1.548-1.943,2.054     c-0.831,0.505-1.638,0.758-2.421,0.758c-0.802,0-1.455-0.257-1.961-0.771s-0.759-1.18-0.759-1.997c0-0.863,0.247-1.73,0.741-2.6     c0.494-0.869,1.155-1.557,1.982-2.062s1.627-0.758,2.399-0.758s1.408,0.256,1.908,0.767S204.995,217.01,204.995,217.826z      M203.557,217.203c0-0.548-0.134-0.968-0.401-1.26c-0.268-0.292-0.612-0.438-1.035-0.438c-0.863,0-1.658,0.621-2.383,1.861     c-0.726,1.241-1.088,2.475-1.088,3.7c0,0.561,0.141,0.992,0.423,1.296c0.282,0.304,0.637,0.455,1.066,0.455     c0.828,0,1.604-0.617,2.33-1.853C203.194,219.73,203.557,218.477,203.557,217.203z"/>
			<path d="M209.624,215.068l-1.131,3.977c0.517-0.935,0.956-1.637,1.318-2.107c0.564-0.729,1.114-1.258,1.648-1.587     c0.314-0.188,0.644-0.282,0.989-0.282c0.297,0,0.543,0.098,0.74,0.292c0.196,0.195,0.294,0.444,0.294,0.748     c0,0.285-0.073,0.656-0.218,1.115l-0.673,2.212c1.014-1.79,1.976-3.046,2.885-3.769c0.504-0.399,1.001-0.599,1.494-0.599     c0.286,0,0.521,0.103,0.705,0.308c0.184,0.206,0.275,0.523,0.275,0.954c0,0.336-0.06,0.692-0.18,1.068l-1.098,3.379     c-0.24,0.735-0.359,1.144-0.359,1.225c0,0.08,0.023,0.148,0.07,0.205c0.031,0.04,0.073,0.06,0.125,0.06s0.143-0.054,0.272-0.162     c0.295-0.256,0.573-0.595,0.832-1.017l0.29,0.185c-0.14,0.234-0.388,0.553-0.743,0.954c-0.355,0.402-0.659,0.674-0.911,0.816     c-0.252,0.142-0.484,0.213-0.696,0.213c-0.196,0-0.359-0.071-0.491-0.213c-0.132-0.142-0.197-0.317-0.197-0.524     c0-0.282,0.139-0.851,0.417-1.704l0.926-2.834c0.21-0.653,0.322-1.016,0.335-1.086c0.021-0.111,0.031-0.22,0.031-0.327     c0-0.147-0.035-0.262-0.105-0.344c-0.077-0.082-0.163-0.124-0.258-0.124c-0.268,0-0.551,0.126-0.851,0.379     c-0.879,0.748-1.701,1.795-2.464,3.142c-0.503,0.889-0.975,2.027-1.414,3.416h-1.299l1.605-5.32     c0.175-0.574,0.263-0.958,0.263-1.152c0-0.158-0.033-0.275-0.099-0.352s-0.146-0.114-0.241-0.114     c-0.197,0-0.406,0.07-0.626,0.211c-0.358,0.229-0.819,0.718-1.383,1.468c-0.563,0.75-1,1.469-1.311,2.154     c-0.149,0.323-0.504,1.357-1.065,3.104h-1.299l1.645-5.699l0.213-0.739c0.041-0.114,0.062-0.198,0.062-0.252     c0-0.132-0.059-0.25-0.177-0.354s-0.268-0.156-0.451-0.156c-0.077,0-0.289,0.035-0.636,0.105l-0.079-0.313L209.624,215.068z"/>
			<path d="M227.637,215.193l-1.708,5.993l-0.191,0.8c-0.031,0.066-0.047,0.123-0.047,0.168c0,0.085,0.021,0.16,0.063,0.223     c0.034,0.048,0.076,0.072,0.127,0.072c0.055,0,0.127-0.042,0.216-0.127c0.165-0.158,0.384-0.504,0.66-1.038l0.299,0.211     c-0.344,0.594-0.698,1.036-1.063,1.325s-0.701,0.435-1.01,0.435c-0.215,0-0.38-0.063-0.497-0.189     c-0.117-0.126-0.175-0.311-0.175-0.552c0-0.288,0.064-0.668,0.193-1.139l0.192-0.653c-0.848,1.003-1.627,1.704-2.338,2.102     c-0.511,0.287-1.013,0.431-1.504,0.431c-0.472,0-0.879-0.175-1.222-0.525c-0.343-0.35-0.514-0.832-0.514-1.445     c0-0.92,0.305-1.89,0.914-2.912c0.609-1.021,1.383-1.838,2.322-2.452c0.734-0.486,1.426-0.729,2.078-0.729     c0.389,0,0.713,0.087,0.972,0.262c0.258,0.175,0.455,0.463,0.589,0.867l0.268-0.91L227.637,215.193z M224.376,215.63     c-0.411,0-0.847,0.173-1.309,0.52c-0.654,0.491-1.237,1.219-1.747,2.184s-0.765,1.837-0.765,2.616     c0,0.393,0.113,0.704,0.34,0.932c0.227,0.229,0.488,0.342,0.782,0.342c0.728,0,1.52-0.465,2.375-1.395     c1.038-1.236,1.541-2.504,1.506-3.804c0-0.491-0.106-0.846-0.318-1.065S224.741,215.63,224.376,215.63z"/>
			<path d="M232.566,212.912l-0.711,2.375h1.21l-0.156,0.563h-1.223l-1.584,5.181c-0.207,0.588-0.31,0.969-0.31,1.143     c0,0.095,0.021,0.168,0.062,0.218c0.041,0.051,0.089,0.076,0.146,0.076c0.128,0,0.296-0.098,0.506-0.294     c0.123-0.117,0.397-0.478,0.822-1.081l0.29,0.22c-0.505,0.776-0.983,1.317-1.433,1.625c-0.308,0.212-0.618,0.319-0.93,0.319     c-0.242,0-0.44-0.082-0.593-0.244c-0.154-0.163-0.23-0.371-0.23-0.625c0-0.316,0.098-0.799,0.295-1.45l1.541-5.087h-1.34     l0.088-0.348c0.645-0.178,1.191-0.441,1.64-0.789s0.957-0.948,1.524-1.801H232.566z"/>
			<path d="M237.065,215.068l-1.857,6.213c-0.125,0.42-0.188,0.671-0.188,0.753c0,0.091,0.025,0.166,0.075,0.222     c0.05,0.057,0.109,0.085,0.178,0.085c0.079,0,0.174-0.045,0.285-0.136c0.301-0.26,0.604-0.634,0.91-1.12l0.308,0.202     c-0.377,0.606-0.821,1.111-1.331,1.515c-0.377,0.302-0.738,0.453-1.082,0.453c-0.228,0-0.414-0.073-0.558-0.217     c-0.145-0.145-0.216-0.327-0.216-0.546c0-0.217,0.078-0.577,0.234-1.081l1.215-3.937c0.188-0.66,0.281-1.074,0.281-1.243     c0-0.132-0.045-0.24-0.136-0.323s-0.216-0.125-0.374-0.125c-0.129,0-0.397,0.032-0.802,0.097v-0.313L237.065,215.068z      M236.681,211.599c0.245,0,0.452,0.085,0.621,0.254s0.254,0.376,0.254,0.621c0,0.239-0.086,0.445-0.258,0.617     c-0.172,0.172-0.377,0.258-0.617,0.258s-0.445-0.086-0.617-0.258s-0.258-0.378-0.258-0.617c0-0.245,0.084-0.452,0.253-0.621     S236.436,211.599,236.681,211.599z"/>
			<path d="M244.662,221.138c-0.609,0.732-1.223,1.269-1.842,1.608c-0.621,0.339-1.275,0.509-1.965,0.509     c-0.831,0-1.479-0.235-1.943-0.705c-0.465-0.47-0.697-1.102-0.697-1.895c0-0.898,0.25-1.783,0.75-2.652s1.172-1.576,2.017-2.12     s1.674-0.815,2.487-0.815c0.637,0,1.113,0.133,1.429,0.397c0.315,0.265,0.474,0.59,0.474,0.974c0,0.361-0.111,0.67-0.332,0.926     c-0.162,0.198-0.363,0.297-0.602,0.297c-0.182,0-0.331-0.058-0.45-0.173s-0.179-0.26-0.179-0.434c0-0.11,0.021-0.211,0.064-0.304     c0.044-0.093,0.134-0.204,0.27-0.334c0.136-0.13,0.219-0.224,0.248-0.282c0.028-0.058,0.043-0.119,0.043-0.182     c0-0.122-0.057-0.223-0.168-0.304c-0.171-0.116-0.412-0.174-0.725-0.174c-0.578,0-1.149,0.203-1.715,0.608     c-0.565,0.406-1.049,0.982-1.449,1.728c-0.483,0.905-0.725,1.81-0.725,2.715c0,0.6,0.17,1.074,0.512,1.424     s0.808,0.524,1.396,0.524c0.454,0,0.903-0.113,1.348-0.338c0.445-0.226,0.945-0.634,1.498-1.226L244.662,221.138z"/>
			<path d="M260.556,210.443l-3.1,10.588c-0.168,0.574-0.252,0.951-0.252,1.13c0,0.052,0.017,0.102,0.051,0.148     c0.033,0.047,0.067,0.07,0.104,0.07c0.051,0,0.111-0.034,0.184-0.102c0.134-0.131,0.359-0.478,0.675-1.04l0.299,0.185     c-0.345,0.576-0.693,1.025-1.045,1.348s-0.681,0.484-0.987,0.484c-0.162,0-0.305-0.071-0.426-0.211     c-0.121-0.141-0.182-0.341-0.182-0.6c0-0.335,0.088-0.785,0.264-1.35l0.307-1.066c-0.935,1.306-1.785,2.21-2.553,2.711     c-0.529,0.344-1.035,0.516-1.519,0.516c-0.49,0-0.917-0.199-1.282-0.595c-0.363-0.396-0.546-0.936-0.546-1.617     c0-0.875,0.302-1.81,0.907-2.803s1.404-1.801,2.398-2.424c0.783-0.499,1.504-0.749,2.16-0.749c0.344,0,0.639,0.065,0.888,0.195     c0.248,0.13,0.493,0.346,0.735,0.647l0.833-2.886c0.091-0.321,0.165-0.577,0.222-0.769c0.07-0.24,0.105-0.438,0.105-0.595     c0-0.126-0.044-0.231-0.132-0.315c-0.125-0.101-0.286-0.152-0.481-0.152c-0.138,0-0.363,0.021-0.68,0.062v-0.313L260.556,210.443     z M257.153,216.761c0-0.377-0.12-0.681-0.36-0.911c-0.241-0.229-0.547-0.345-0.917-0.345c-0.819,0-1.673,0.613-2.56,1.839     c-0.888,1.226-1.331,2.399-1.331,3.519c0,0.442,0.113,0.78,0.341,1.012c0.227,0.233,0.498,0.349,0.814,0.349     c0.715,0,1.562-0.663,2.542-1.989S257.153,217.751,257.153,216.761z"/>
			<path d="M267.485,217.826c0,0.882-0.233,1.754-0.698,2.618c-0.465,0.864-1.112,1.548-1.942,2.054     c-0.831,0.505-1.638,0.758-2.421,0.758c-0.802,0-1.455-0.257-1.961-0.771s-0.759-1.18-0.759-1.997c0-0.863,0.247-1.73,0.741-2.6     c0.494-0.869,1.154-1.557,1.982-2.062s1.627-0.758,2.399-0.758s1.408,0.256,1.908,0.767S267.485,217.01,267.485,217.826z      M266.047,217.203c0-0.548-0.134-0.968-0.401-1.26s-0.611-0.438-1.034-0.438c-0.863,0-1.657,0.621-2.383,1.861     c-0.726,1.241-1.088,2.475-1.088,3.7c0,0.561,0.141,0.992,0.423,1.296c0.281,0.304,0.637,0.455,1.066,0.455     c0.827,0,1.604-0.617,2.329-1.853C265.685,219.73,266.047,218.477,266.047,217.203z"/>
			<path d="M276.826,215.287l-1.605,5.315c-0.24,0.791-0.359,1.291-0.359,1.499c0,0.099,0.015,0.171,0.045,0.217     c0.029,0.046,0.069,0.069,0.12,0.069c0.078,0,0.164-0.042,0.258-0.127c0.094-0.084,0.331-0.442,0.712-1.074l0.264,0.202     c-0.404,0.715-0.82,1.233-1.246,1.556c-0.282,0.207-0.554,0.311-0.815,0.311c-0.2,0-0.359-0.065-0.477-0.194     c-0.118-0.129-0.177-0.297-0.177-0.503c0-0.2,0.039-0.465,0.115-0.795c0.095-0.406,0.373-1.335,0.832-2.789     c-1.033,1.632-1.897,2.753-2.591,3.365s-1.335,0.917-1.923,0.917c-0.277,0-0.512-0.095-0.703-0.283     c-0.193-0.189-0.289-0.428-0.289-0.718c0-0.44,0.154-1.115,0.464-2.025l0.917-2.722c0.225-0.651,0.338-1.057,0.338-1.215     c0-0.07-0.031-0.13-0.09-0.18c-0.061-0.05-0.125-0.075-0.195-0.075c-0.147,0-0.295,0.044-0.442,0.132s-0.481,0.414-1.001,0.978     l-0.272-0.194c0.479-0.681,0.987-1.183,1.524-1.506c0.408-0.252,0.785-0.379,1.131-0.379c0.236,0,0.43,0.084,0.58,0.253     s0.226,0.387,0.226,0.652c0,0.313-0.138,0.87-0.411,1.674l-0.965,2.801c-0.267,0.763-0.4,1.246-0.4,1.448     c0,0.111,0.038,0.201,0.113,0.268c0.076,0.067,0.178,0.101,0.305,0.101c0.2,0,0.461-0.097,0.781-0.29     c0.321-0.193,0.75-0.624,1.285-1.291c0.537-0.667,0.979-1.292,1.327-1.877c0.349-0.584,0.72-1.514,1.116-2.79l0.211-0.732     H276.826z"/>
			<path d="M282.587,210.537l-1.76,6.066c0.539-0.588,1.01-0.99,1.41-1.208c0.402-0.218,0.821-0.327,1.26-0.327     c0.617,0,1.122,0.215,1.516,0.644c0.393,0.429,0.59,1.01,0.59,1.745c0,0.946-0.263,1.888-0.786,2.825     c-0.523,0.938-1.181,1.667-1.972,2.19s-1.57,0.784-2.339,0.784c-0.859,0-1.741-0.333-2.646-1l2.661-9.219     c0.205-0.709,0.307-1.125,0.307-1.248c0-0.152-0.047-0.267-0.141-0.343c-0.135-0.105-0.34-0.158-0.613-0.158     c-0.129,0-0.322,0.021-0.584,0.062v-0.313L282.587,210.537z M279.16,222.349c0.564,0.313,1.06,0.469,1.488,0.469     c0.496,0,1.01-0.188,1.543-0.566c0.532-0.377,0.994-1.013,1.387-1.909c0.391-0.895,0.588-1.799,0.588-2.711     c0-0.538-0.127-0.959-0.38-1.264s-0.552-0.457-0.896-0.457c-0.517,0-1.022,0.229-1.518,0.686     c-0.495,0.458-0.854,1.075-1.081,1.854L279.16,222.349z"/>
			<path d="M291.681,210.537l-3.121,10.503c-0.152,0.523-0.228,0.844-0.228,0.962c0,0.088,0.024,0.161,0.074,0.22     s0.11,0.088,0.185,0.088c0.099,0,0.205-0.05,0.32-0.149c0.271-0.247,0.556-0.634,0.854-1.163l0.25,0.273     c-0.526,0.788-1.012,1.338-1.454,1.649c-0.327,0.223-0.638,0.335-0.931,0.335c-0.211,0-0.387-0.077-0.527-0.231     c-0.142-0.154-0.212-0.332-0.212-0.533c0-0.211,0.097-0.645,0.291-1.301l2.466-8.248c0.193-0.679,0.29-1.068,0.29-1.169     c0-0.142-0.056-0.258-0.167-0.349c-0.112-0.091-0.287-0.137-0.526-0.137c-0.138,0-0.347,0.021-0.628,0.062v-0.313     L291.681,210.537z"/>
			<path d="M293.205,219.693c-0.042,0.295-0.063,0.539-0.063,0.733c0,0.524,0.189,0.971,0.568,1.339s0.838,0.552,1.379,0.552     c0.434,0,0.85-0.086,1.249-0.26s0.993-0.558,1.78-1.152l0.184,0.255c-1.396,1.397-2.73,2.095-3.998,2.095     c-0.86,0-1.509-0.27-1.945-0.811s-0.654-1.137-0.654-1.79c0-0.875,0.271-1.771,0.813-2.688c0.543-0.917,1.223-1.629,2.041-2.137     s1.661-0.763,2.527-0.763c0.624,0,1.086,0.126,1.387,0.377s0.451,0.549,0.451,0.893c0,0.485-0.197,0.949-0.592,1.393     c-0.521,0.578-1.287,1.045-2.299,1.401C295.362,219.372,294.419,219.559,293.205,219.693z M293.268,219.287     c0.893-0.1,1.619-0.27,2.181-0.511c0.74-0.323,1.297-0.709,1.668-1.159c0.371-0.449,0.557-0.877,0.557-1.282     c0-0.247-0.08-0.446-0.24-0.599s-0.387-0.229-0.683-0.229c-0.615,0-1.269,0.319-1.958,0.957     C294.101,217.1,293.593,218.041,293.268,219.287z"/>
			<path d="M304.047,212.912l-0.711,2.375h1.21l-0.156,0.563h-1.223l-1.584,5.181c-0.207,0.588-0.31,0.969-0.31,1.143     c0,0.095,0.021,0.168,0.062,0.218c0.041,0.051,0.09,0.076,0.146,0.076c0.127,0,0.296-0.098,0.506-0.294     c0.123-0.117,0.396-0.478,0.822-1.081l0.289,0.22c-0.505,0.776-0.982,1.317-1.433,1.625c-0.308,0.212-0.618,0.319-0.931,0.319     c-0.242,0-0.439-0.082-0.593-0.244c-0.153-0.163-0.23-0.371-0.23-0.625c0-0.316,0.099-0.799,0.296-1.45l1.541-5.087h-1.341     l0.088-0.348c0.645-0.178,1.19-0.441,1.64-0.789s0.957-0.948,1.524-1.801H304.047z"/>
		</g>
		<g>
			<path d="M55.642,11.693l-0.781,3.406H54.58l-0.032-0.859c-0.026-0.313-0.086-0.591-0.181-0.836     c-0.095-0.245-0.237-0.457-0.426-0.637s-0.428-0.32-0.717-0.422s-0.61-0.152-0.962-0.152c-0.941,0-1.764,0.256-2.469,0.768     c-0.899,0.653-1.604,1.575-2.113,2.767c-0.421,0.982-0.631,1.978-0.631,2.986c0,1.029,0.303,1.851,0.908,2.465     c0.605,0.614,1.393,0.921,2.362,0.921c0.731,0,1.383-0.161,1.955-0.482c0.571-0.321,1.102-0.817,1.592-1.486h0.371     c-0.575,0.912-1.212,1.582-1.912,2.012s-1.538,0.645-2.514,0.645c-0.867,0-1.635-0.182-2.303-0.543     c-0.668-0.362-1.178-0.873-1.527-1.53c-0.35-0.657-0.525-1.364-0.525-2.12c0-1.158,0.31-2.284,0.931-3.38     c0.621-1.095,1.472-1.956,2.555-2.582s2.174-0.939,3.275-0.939c0.516,0,1.095,0.125,1.737,0.373     c0.282,0.106,0.485,0.159,0.61,0.159s0.235-0.026,0.329-0.079s0.25-0.204,0.47-0.452H55.642z"/>
			<path d="M55.848,15.88l2.62-0.438l-1.094,3.803c0.924-1.56,1.764-2.649,2.52-3.271c0.428-0.354,0.776-0.532,1.046-0.532     c0.174,0,0.311,0.051,0.412,0.153s0.151,0.25,0.151,0.443c0,0.345-0.089,0.675-0.266,0.988c-0.125,0.235-0.306,0.353-0.541,0.353     c-0.12,0-0.224-0.04-0.31-0.12c-0.086-0.08-0.14-0.202-0.16-0.367c-0.011-0.101-0.034-0.167-0.071-0.199     c-0.042-0.042-0.091-0.064-0.148-0.064c-0.089,0-0.173,0.021-0.251,0.063c-0.136,0.073-0.342,0.277-0.619,0.612     c-0.434,0.514-0.903,1.179-1.409,1.995c-0.22,0.346-0.408,0.735-0.564,1.17c-0.22,0.597-0.345,0.956-0.376,1.076l-0.272,0.99     h-1.17l1.409-4.875c0.167-0.565,0.25-0.968,0.25-1.209c0-0.094-0.039-0.172-0.117-0.235c-0.103-0.083-0.234-0.125-0.393-0.125     c-0.101,0-0.286,0.023-0.556,0.07L55.848,15.88z"/>
			<path d="M68.072,17.896c0,0.784-0.208,1.56-0.622,2.328s-0.992,1.377-1.732,1.826s-1.46,0.674-2.158,0.674     c-0.715,0-1.297-0.229-1.749-0.686s-0.676-1.049-0.676-1.775c0-0.768,0.22-1.539,0.661-2.312s1.03-1.385,1.768-1.834     s1.451-0.674,2.14-0.674c0.688,0,1.255,0.228,1.701,0.682S68.072,17.17,68.072,17.896z M66.791,17.351     c0-0.485-0.119-0.856-0.357-1.115c-0.238-0.258-0.546-0.387-0.923-0.387c-0.77,0-1.479,0.549-2.125,1.646s-0.97,2.189-0.97,3.273     c0,0.496,0.125,0.877,0.377,1.146c0.251,0.269,0.568,0.403,0.951,0.403c0.738,0,1.431-0.546,2.077-1.639     C66.467,19.587,66.791,18.478,66.791,17.351z"/>
			<path d="M75.416,15.443l0.563,5.891c0.904-1.068,1.627-2.071,2.17-3.008c0.318-0.55,0.477-0.948,0.477-1.194     c0-0.115-0.026-0.217-0.078-0.306c-0.021-0.047-0.103-0.116-0.246-0.208c-0.143-0.092-0.243-0.186-0.3-0.283     s-0.085-0.2-0.085-0.311c0-0.162,0.06-0.299,0.18-0.412c0.12-0.112,0.273-0.169,0.461-0.169c0.213,0,0.395,0.08,0.543,0.239     s0.223,0.372,0.223,0.639c0,0.271-0.04,0.525-0.118,0.76c-0.157,0.449-0.463,1.029-0.917,1.74     c-0.555,0.852-1.126,1.643-1.714,2.371c-0.588,0.729-1.026,1.24-1.313,1.532h-0.281l-0.531-5.406l-3.248,5.406h-0.346     c-0.037-2.224-0.149-3.979-0.337-5.266c-0.079-0.536-0.209-0.888-0.392-1.055c-0.131-0.12-0.33-0.18-0.596-0.18     c-0.152,0-0.345,0.016-0.581,0.047v-0.297l2.272-0.531c0.316,0.873,0.522,2.212,0.618,4.02c0.031,0.685,0.058,1.115,0.079,1.293     l3.208-5.313H75.416z"/>
			<path d="M82.864,15.443l-1.027,3.565c1.047-1.457,1.849-2.416,2.407-2.875c0.557-0.459,1.093-0.689,1.609-0.689     c0.28,0,0.511,0.097,0.693,0.291c0.182,0.193,0.273,0.446,0.273,0.756c0,0.31-0.086,0.722-0.258,1.237l-1.085,3.255     c-0.125,0.376-0.187,0.606-0.187,0.688c0,0.07,0.019,0.129,0.057,0.177s0.078,0.071,0.121,0.071c0.057,0,0.126-0.033,0.207-0.098     c0.252-0.215,0.528-0.546,0.828-0.994l0.242,0.148c-0.471,0.685-0.917,1.169-1.337,1.456c-0.294,0.195-0.557,0.293-0.79,0.293     c-0.188,0-0.337-0.059-0.448-0.176s-0.167-0.274-0.167-0.473c0-0.25,0.102-0.68,0.305-1.289l1.042-3.141     c0.132-0.391,0.198-0.695,0.198-0.914c0-0.104-0.037-0.188-0.11-0.254c-0.074-0.065-0.164-0.098-0.271-0.098     c-0.159,0-0.348,0.063-0.569,0.188c-0.419,0.234-0.854,0.621-1.307,1.159c-0.453,0.539-0.931,1.227-1.434,2.065     c-0.266,0.442-0.487,0.927-0.662,1.452l-0.373,1.292h-1.17l1.418-4.906c0.167-0.585,0.25-0.938,0.25-1.057     c0-0.114-0.045-0.213-0.136-0.299c-0.091-0.085-0.202-0.128-0.333-0.128c-0.061,0-0.167,0.011-0.318,0.031l-0.288,0.047     l-0.082-0.281L82.864,15.443z"/>
		</g>
		<g>
			<path d="M195.493,12.474l-1.213,4.25h1.415c0.629,0,1.1-0.099,1.412-0.296c0.312-0.197,0.633-0.62,0.963-1.266h0.281     l-1.094,3.875h-0.281c0.078-0.313,0.117-0.573,0.117-0.777c0-0.319-0.107-0.566-0.321-0.741s-0.615-0.263-1.203-0.263h-1.45     l-0.972,3.36c-0.167,0.521-0.25,0.866-0.25,1.038c0,0.177,0.071,0.313,0.215,0.408c0.143,0.096,0.493,0.16,1.051,0.193     l-0.094,0.281h-4.116l0.102-0.281c0.406-0.01,0.677-0.047,0.813-0.11c0.208-0.089,0.362-0.209,0.461-0.361     c0.141-0.214,0.307-0.656,0.5-1.326l1.845-6.389c0.151-0.516,0.227-0.92,0.227-1.212c0-0.135-0.034-0.251-0.102-0.348     c-0.068-0.097-0.168-0.168-0.301-0.215s-0.397-0.07-0.793-0.07l0.094-0.281h8.27l-0.781,2.656h-0.281     c0.057-0.324,0.086-0.591,0.086-0.8c0-0.345-0.097-0.618-0.29-0.819s-0.441-0.343-0.744-0.427     c-0.213-0.052-0.688-0.079-1.427-0.079H195.493z"/>
			<path d="M205.04,11.412l-2.782,9.352c-0.136,0.466-0.204,0.752-0.204,0.856c0,0.078,0.022,0.144,0.066,0.195     c0.044,0.052,0.1,0.078,0.165,0.078c0.089,0,0.185-0.044,0.288-0.133c0.243-0.22,0.499-0.565,0.765-1.037l0.25,0.242     c-0.477,0.698-0.916,1.185-1.316,1.461c-0.296,0.198-0.577,0.297-0.843,0.297c-0.19,0-0.35-0.068-0.478-0.203     s-0.192-0.292-0.192-0.469c0-0.188,0.086-0.575,0.26-1.161l2.202-7.355c0.172-0.599,0.258-0.942,0.258-1.031     c0-0.125-0.05-0.228-0.149-0.309c-0.099-0.081-0.253-0.121-0.463-0.121c-0.121,0-0.305,0.019-0.552,0.055v-0.281L205.04,11.412z"/>
			<path d="M208.505,15.443l-1.659,5.535c-0.112,0.374-0.167,0.598-0.167,0.671c0,0.08,0.022,0.146,0.067,0.195     c0.045,0.05,0.098,0.075,0.16,0.075c0.071,0,0.156-0.04,0.256-0.12c0.27-0.23,0.542-0.562,0.817-0.994l0.273,0.18     c-0.339,0.538-0.737,0.985-1.195,1.341c-0.339,0.266-0.662,0.398-0.971,0.398c-0.204,0-0.371-0.064-0.5-0.191     s-0.194-0.288-0.194-0.48c0-0.193,0.069-0.516,0.209-0.966l1.087-3.519c0.167-0.583,0.25-0.948,0.25-1.096     c0-0.116-0.041-0.211-0.121-0.285c-0.081-0.074-0.191-0.111-0.33-0.111c-0.114,0-0.349,0.029-0.705,0.086V15.88L208.505,15.443z      M208.127,12.349c0.219,0,0.403,0.076,0.555,0.227c0.151,0.151,0.227,0.336,0.227,0.555c0,0.214-0.077,0.397-0.23,0.551     c-0.154,0.154-0.337,0.23-0.551,0.23c-0.214,0-0.397-0.077-0.551-0.23c-0.154-0.153-0.23-0.337-0.23-0.551     c0-0.219,0.075-0.403,0.227-0.555C207.723,12.425,207.908,12.349,208.127,12.349z"/>
			<path d="M212.551,15.443l-1.027,3.565c1.047-1.457,1.849-2.416,2.407-2.875c0.557-0.459,1.093-0.689,1.609-0.689     c0.28,0,0.511,0.097,0.693,0.291c0.182,0.193,0.273,0.446,0.273,0.756c0,0.31-0.086,0.722-0.258,1.237l-1.085,3.255     c-0.125,0.376-0.187,0.606-0.187,0.688c0,0.07,0.019,0.129,0.057,0.177s0.078,0.071,0.121,0.071c0.057,0,0.126-0.033,0.207-0.098     c0.252-0.215,0.528-0.546,0.828-0.994l0.242,0.148c-0.471,0.685-0.917,1.169-1.337,1.456c-0.294,0.195-0.557,0.293-0.79,0.293     c-0.188,0-0.337-0.059-0.448-0.176s-0.167-0.274-0.167-0.473c0-0.25,0.102-0.68,0.305-1.289l1.042-3.141     c0.132-0.391,0.198-0.695,0.198-0.914c0-0.104-0.037-0.188-0.11-0.254c-0.074-0.065-0.164-0.098-0.271-0.098     c-0.159,0-0.348,0.063-0.569,0.188c-0.419,0.234-0.854,0.621-1.307,1.159c-0.453,0.539-0.931,1.227-1.434,2.065     c-0.266,0.442-0.487,0.927-0.662,1.452l-0.373,1.292h-1.17l1.418-4.906c0.167-0.585,0.25-0.938,0.25-1.057     c0-0.114-0.045-0.213-0.136-0.299c-0.091-0.085-0.202-0.128-0.333-0.128c-0.061,0-0.167,0.011-0.318,0.031l-0.288,0.047     l-0.082-0.281L212.551,15.443z"/>
			<path d="M221.385,13.505l-0.638,2.125h1.029l-0.125,0.5h-1.054l-1.42,4.623c-0.181,0.522-0.271,0.86-0.271,1.014     c0,0.084,0.018,0.148,0.055,0.193c0.037,0.045,0.081,0.067,0.131,0.067c0.115,0,0.267-0.086,0.456-0.26     c0.11-0.104,0.357-0.424,0.739-0.961l0.258,0.195c-0.454,0.688-0.883,1.169-1.288,1.441c-0.276,0.188-0.555,0.282-0.836,0.282     c-0.217,0-0.395-0.072-0.533-0.215s-0.207-0.327-0.207-0.551c0-0.282,0.088-0.712,0.265-1.292l1.381-4.536h-1.194l0.078-0.31     c0.573-0.158,1.061-0.39,1.463-0.696s0.858-0.846,1.368-1.619H221.385z"/>
		</g>
		<path opacity="0.75" fill="#A1BFDC" stroke="#000000" stroke-width="0.75" d="M157.191,207.682h-26.58    c7.582-26.147,11.666-53.781,11.666-82.373c0-28.593-4.088-56.225-11.674-82.372h25.258L157.191,207.682z"/>
		<path fill="#FFFFFF" stroke="#000000" stroke-width="0.25" d="M141.879,27.051v199.926"/>
		<path fill="none" stroke="#FF0000" d="M59.736,198.083h65.378l9.112-4.095l22.771-12.095l176.654-92.165"/>
		<path fill="none" stroke="#008837" d="M59.736,197.362h65.187l10.085-6.735l21.962-13.401L332.066,87.56"/>
		<path fill="none" stroke="#0A55A3" d="M59.736,196.642h64.998l11.321-10.831l20.887-12.418L334.861,94.06"/>
		<path fill="none" stroke="#FF0000" d="M59.736,52.537h65.378l9.112,4.095l22.771,12.095l176.654,92.165"/>
		<path fill="none" stroke="#008837" d="M59.736,53.257h65.187l10.085,6.735l21.962,13.401l175.096,89.667"/>
		<path fill="none" stroke="#0A55A3" d="M59.736,53.977h64.998l11.321,10.831l20.887,12.418l177.919,79.333"/>
		<path fill="none" stroke="#000000" d="M129.146,47.655L90.361,20.06"/>
		<path d="M130.226,47.655c0,0.596-0.483,1.08-1.08,1.08s-1.08-0.484-1.08-1.08c0-0.597,0.483-1.08,1.08-1.08    S130.226,47.058,130.226,47.655z"/>
		<path fill="none" stroke="#000000" d="M151.627,47.471L187.88,19.54"/>
		<path d="M150.863,48.234c-0.421-0.421-0.422-1.105,0-1.527s1.106-0.421,1.528,0c0.422,0.422,0.422,1.105,0,1.527    C151.969,48.657,151.285,48.657,150.863,48.234z"/>
	</g>
</svg>