<?xml version="1.0" encoding="UTF-8" standalone="no"?>
<!-- Created with Inkscape (http://www.inkscape.org/) -->
<svg xmlns:dc="http://purl.org/dc/elements/1.1/" xmlns:cc="http://creativecommons.org/ns#" xmlns:rdf="http://www.w3.org/1999/02/22-rdf-syntax-ns#" xmlns:svg="http://www.w3.org/2000/svg" xmlns="http://www.w3.org/2000/svg" xmlns:sodipodi="http://sodipodi.sourceforge.net/DTD/sodipodi-0.dtd" xmlns:inkscape="http://www.inkscape.org/namespaces/inkscape" width="599.47943" height="213.13203" id="svg2" version="1.1" inkscape:version="0.47 r22583" sodipodi:docname="apochromat2.svg">
  <defs id="defs4"/>
  <sodipodi:namedview id="base" pagecolor="#ffffff" bordercolor="#666666" borderopacity="1.0" inkscape:pageopacity="0.0" inkscape:pageshadow="2" inkscape:zoom="2.8" inkscape:cx="173.57385" inkscape:cy="106.35812" inkscape:document-units="px" inkscape:current-layer="layer1" showgrid="false" inkscape:window-width="1920" inkscape:window-height="1024" inkscape:window-x="-4" inkscape:window-y="-4" inkscape:window-maximized="1"/>
  <metadata id="metadata7">
    <rdf:RDF>
      <cc:Work rdf:about="">
        <dc:format>image/svg+xml</dc:format>
        <dc:type rdf:resource="http://purl.org/dc/dcmitype/StillImage"/>
        <dc:title/>
      </cc:Work>
    </rdf:RDF>
  </metadata>
  <g inkscape:label="Layer 1" inkscape:groupmode="layer" id="layer1" transform="translate(-54.589286,-156.86702)">
    <path style="fill:none;stroke:#000000;stroke-width:1;stroke-linecap:butt;stroke-linejoin:miter;stroke-miterlimit:4;stroke-opacity:1;stroke-dasharray:2, 2;stroke-dashoffset:0" d="M 73.23606,263.93812 653.5687,263.93812" id="path2816" sodipodi:nodetypes="cc"/>
    <path style="fill:#bcecfc;fill-opacity:1;fill-rule:nonzero;stroke:#8887ff;stroke-width:1;stroke-miterlimit:4;stroke-opacity:1;stroke-dasharray:none;stroke-dashoffset:0" d="M 135.36043,157.36702 143.94673,157.36702 C 143.94673,157.36702 157.58379,228.0777 157.58379,263.43304 157.58379,298.78837 143.94673,369.49905 143.94673,369.49905 L 135.36043,369.49905 C 135.36043,369.49905 122.22845,323.75065 122.22845,263.43304 122.22845,204.12554 135.36043,157.36702 135.36043,157.36702 z" id="rect3590" sodipodi:nodetypes="ccccczc"/>
    <path sodipodi:nodetypes="ccccczc" id="path3594" d="M 146.47211,157.36702 180.8173,157.36702 C 180.8173,157.36702 170.88293,228.0777 170.88293,263.43304 170.88293,298.78837 180.8173,369.49905 180.8173,369.49905 L 146.47211,369.49905 C 146.47211,369.49905 159.09902,323.75065 159.09902,263.43304 159.09902,204.12554 146.47211,157.36702 146.47211,157.36702 z" style="fill:#5cd8fc;fill-opacity:1;fill-rule:nonzero;stroke:#8887ff;stroke-width:1;stroke-miterlimit:4;stroke-opacity:1;stroke-dasharray:none;stroke-dashoffset:0"/>
    <path sodipodi:nodetypes="ccccczc" id="path3596" d="M 186.43186,157.36702 195.01816,157.36702 C 195.01816,157.36702 195.08379,227.36341 195.08379,262.71875 195.08379,298.07408 195.01816,369.49905 195.01816,369.49905 L 186.43186,369.49905 C 186.43186,369.49905 173.29988,323.75065 173.29988,263.43304 173.29988,204.12554 186.43186,157.36702 186.43186,157.36702 z" style="fill:#9ce8fc;fill-opacity:1;fill-rule:nonzero;stroke:#8887ff;stroke-width:1;stroke-miterlimit:4;stroke-opacity:1;stroke-dasharray:none;stroke-dashoffset:0"/>
    <path style="fill:none;stroke:#ff0000;stroke-width:1px;stroke-linecap:butt;stroke-linejoin:miter;stroke-opacity:1" d="M 55.089286,184.53173 130,184.48709 148.92857,187.71932 153.57143,188.07647 176.78571,187.00504 181.42857,188.43361 195.35714,194.50504 C 264.15656,237.73149 370.8326,268.09108 452.78843,301.09949" id="path3598" sodipodi:nodetypes="cccccccc"/>
    <path sodipodi:nodetypes="cccccccc" id="path3600" d="M 55.089286,185.30861 130.71429,185.21932 150.35715,193.07646 154.28572,192.71933 176.07143,194.1479 178.92857,195.48981 195,210.57647 453.52811,298.51283" style="fill:none;stroke:#008000;stroke-width:1px;stroke-linecap:butt;stroke-linejoin:miter;stroke-opacity:1"/>
    <path style="fill:none;stroke:#0000ff;stroke-width:1px;stroke-linecap:butt;stroke-linejoin:miter;stroke-opacity:1" d="M 55.12627,185.95155 129.41199,185.95155 150.71429,201.29075 153.92858,202.00504 173.92857,207.71933 177.5,211.29075 195.35715,218.07646 453.75526,293.46951" id="path3602" sodipodi:nodetypes="cccccccs"/>
    <path style="fill:none;stroke:#000000;stroke-width:1;stroke-linecap:butt;stroke-linejoin:miter;stroke-miterlimit:4;stroke-opacity:1;stroke-dasharray:1, 2;stroke-dashoffset:0" d="M 353.21429,234.50504 353.21429,297.71933" id="path2843" sodipodi:nodetypes="cc"/>
    <text xml:space="preserve" style="font-size:16px;font-style:normal;font-weight:normal;fill:#000000;fill-opacity:1;stroke:none;font-family:Bitstream Vera Sans" x="350.71429" y="219.50504" id="text3617"><tspan sodipodi:role="line" id="tspan3619" x="350.71429" y="219.50504">f</tspan></text>
  </g>
</svg>