<?xml version="1.0" encoding="UTF-8" standalone="no"?>
<!-- Generator: Adobe Illustrator 10.0, SVG Export Plug-In . SVG Version: 3.0.0 Build 76)  -->
<svg xmlns:dc="http://purl.org/dc/elements/1.1/" xmlns:cc="http://creativecommons.org/ns#" xmlns:rdf="http://www.w3.org/1999/02/22-rdf-syntax-ns#" xmlns:svg="http://www.w3.org/2000/svg" xmlns="http://www.w3.org/2000/svg" xmlns:sodipodi="http://sodipodi.sourceforge.net/DTD/sodipodi-0.dtd" xmlns:inkscape="http://www.inkscape.org/namespaces/inkscape" width="414.997" height="250" viewBox="0 0 414.997 250" overflow="visible" enable-background="new 0 0 414.997 250" xml:space="preserve" id="svg3938" version="1.1" inkscape:version="0.47pre4 r22446" sodipodi:docname="field_curvature.svg"><metadata id="metadata4009"><rdf:RDF><cc:Work rdf:about=""><dc:format>image/svg+xml</dc:format><dc:type rdf:resource="http://purl.org/dc/dcmitype/StillImage"/><dc:title/></cc:Work></rdf:RDF></metadata><defs id="defs4007"><inkscape:perspective sodipodi:type="inkscape:persp3d" inkscape:vp_x="0 : 125 : 1" inkscape:vp_y="0 : 1000 : 0" inkscape:vp_z="414.99701 : 125 : 1" inkscape:persp3d-origin="207.4985 : 83.333333 : 1" id="perspective4011"/>
		
		
		
		
		
		
		
		
		
		
		
		
		
	<inkscape:perspective id="perspective4808" inkscape:persp3d-origin="0.5 : 0.33333333 : 1" inkscape:vp_z="1 : 0.5 : 1" inkscape:vp_y="0 : 1000 : 0" inkscape:vp_x="0 : 0.5 : 1" sodipodi:type="inkscape:persp3d"/><inkscape:perspective id="perspective4899" inkscape:persp3d-origin="0.5 : 0.33333333 : 1" inkscape:vp_z="1 : 0.5 : 1" inkscape:vp_y="0 : 1000 : 0" inkscape:vp_x="0 : 0.5 : 1" sodipodi:type="inkscape:persp3d"/></defs><sodipodi:namedview pagecolor="#ffffff" bordercolor="#666666" borderopacity="1" objecttolerance="10" gridtolerance="10" guidetolerance="10" inkscape:pageopacity="0" inkscape:pageshadow="2" inkscape:window-width="946" inkscape:window-height="792" id="namedview4005" showgrid="false" inkscape:zoom="1.3350176" inkscape:cx="174.22574" inkscape:cy="58.718427" inkscape:window-x="366" inkscape:window-y="204" inkscape:window-maximized="0" inkscape:current-layer="svg3938" inkscape:snap-grids="true"><inkscape:grid type="xygrid" id="grid4937"/></sodipodi:namedview>
	<path style="fill:#ffffff;stroke:#000000;stroke-width:0.5;stroke-dasharray:6, 3" id="path3943" d="M 29.036,125.31 H 399.362"/><path style="opacity:0.75;fill:#cce2ef;stroke:#000000;stroke-width:0.75" id="path3945" d="m 115.488,123.037 c 0,29.423 4.329,57.828 12.342,84.645 h 8.656 c 7.582,-26.147 11.666,-53.781 11.666,-82.373 0,-28.593 -4.088,-56.225 -11.674,-82.372 h -8.617 c -7.164,25.475 -12.373,52.336 -12.373,80.1 z"/><path style="fill:none;stroke:#ff0000" id="path3947" d="M 545.961,125.242"/><path style="fill:none;stroke:#ff0000" id="path3949" d="M 262.336,124.953"/><path style="fill:#ffffff;stroke:#000000;stroke-width:0.25" id="path3951" d="M 131.958,27.051 V 226.977"/><path style="fill:none;stroke:#ff0000" id="path3993" d="m 333.652,89.729 -193.473,103.938 -14.333,4.416 H 60.444"/><path style="fill:none;stroke:#ff0000" id="path3999" d="M 333.652,160.891 140.179,56.953 125.846,52.537 H 60.444"/>
<path style="fill:#ffffff;stroke:#000000;stroke-width:1.55;stroke-miterlimit:4;stroke-dasharray:none" id="path3951-3" d="M 268.16126,30.188392 V 230.1144"/><path style="fill:none;stroke:#ff0000;stroke-width:1px;stroke-linecap:butt;stroke-linejoin:miter;stroke-opacity:1" d="m 57.677142,124.90802 281.644228,0" id="path4935" transform="translate(-4.6386719e-6,0)" sodipodi:nodetypes="cc"/><path style="fill:none;stroke:#0000bb;stroke-width:1px;stroke-linecap:butt;stroke-linejoin:miter;stroke-opacity:1" d="M 40,180 115,132.02403 147.93812,120 260,50" id="path4939" transform="translate(-4.6386719e-6,0)" sodipodi:nodetypes="cccc"/><path style="fill:none;stroke:#0000bb;stroke-width:1px;stroke-linecap:butt;stroke-linejoin:miter;stroke-opacity:1" d="M 260,60 140,54 124,58 30,112.27093 30,110" id="path4941" transform="translate(-4.6386719e-6,0)" sodipodi:nodetypes="ccccc"/><path style="fill:none;stroke:#0000bb;stroke-width:1px;stroke-linecap:butt;stroke-linejoin:miter;stroke-opacity:1" d="M 260,40 140,190 125,205 64.378222,240 65,240" id="path4943" transform="translate(-4.6386719e-6,0)" sodipodi:nodetypes="ccccc"/><path style="fill:none;stroke:#000000;stroke-width:1;stroke-linecap:butt;stroke-linejoin:miter;stroke-opacity:1;stroke-miterlimit:4;stroke-dasharray:1,1;stroke-dashoffset:0" d="m 210,220 c 20,-10 57.75284,-45 57.75284,-95 C 267.75284,75 230,40 210,30" id="path4945" transform="translate(-4.6386719e-6,0)" sodipodi:nodetypes="csc"/></svg>