<?xml version="1.0" encoding="UTF-8"?>
<!DOCTYPE svg PUBLIC "-//W3C//DTD SVG 1.1//EN" "http://www.w3.org/Graphics/SVG/1.1/DTD/svg11.dtd">
<svg version="1.1" xmlns="http://www.w3.org/2000/svg" xmlns:xlink="http://www.w3.org/1999/xlink" x="0" y="0" width="553" height="406" viewBox="0 0 553 406" style="enable-background:new 0 0 553 406;">
<style type="text/css">
	.st0{fill:none;}
	.st1{fill:none;stroke:#231F20;stroke-width:0.3;stroke-linejoin:round;}
	.st2{opacity:0.7;}
	.st3{opacity:0.3;fill:#0ff;}
	.st4{opacity:0.5;fill:url(#Diagonal_Lines);}
	.st5{fill:none;stroke:#000;}
	.st6{fill:none;stroke:#000;stroke-dasharray:5,6;}
	.st7{fill:none;stroke:#000;stroke-width:2;}
	.st8{font-family:Liberation Serif, Times New Roman;}
	.st9{font-size:18px;}
	.st10{font-size:21px;}
	.st11{font-size:24px;}
	.st12{font-style:italic;}
</style>
<pattern x="236.5" y="163" width="72" height="72" patternUnits="userSpaceOnUse" id="Diagonal_Lines" viewBox="79.6 -148.6 72 72" style="overflow:visible;">
	<g>
		<polygon class="st0" points="79.6,-148.6 151.6,-148.6 151.6,-76.6 79.6,-76.6   "/>
		<g>
			<line class="st1" x1="144.1" y1="-66.1" x2="162.1" y2="-84.1"/>
			<line class="st1" x1="144.1" y1="-60.1" x2="168.1" y2="-84.1"/>
			<line class="st1" x1="144.1" y1="-54.1" x2="174.1" y2="-84.1"/>
			<line class="st1" x1="144.1" y1="-48.1" x2="180.1" y2="-84.1"/>
			<line class="st1" x1="144.1" y1="-42.1" x2="186.1" y2="-84.1"/>
			<line class="st1" x1="144.1" y1="-36.1" x2="192.1" y2="-84.1"/>
			<line class="st1" x1="144.1" y1="-30.1" x2="198.1" y2="-84.1"/>
			<line class="st1" x1="144.1" y1="-24.1" x2="204.1" y2="-84.1"/>
			<line class="st1" x1="144.1" y1="-18.1" x2="210.1" y2="-84.1"/>
			<line class="st1" x1="144.1" y1="-12.1" x2="216.1" y2="-84.1"/>
			<line class="st1" x1="144.1" y1="-6.1" x2="222.1" y2="-84.1"/>
			<line class="st1" x1="144.1" y1="-0.1" x2="228.1" y2="-84.1"/>
			<line class="st1" x1="150.1" y1="-0.1" x2="228.1" y2="-78.1"/>
		</g>
		<g>
			<line class="st1" x1="72.1" y1="-66.1" x2="90.1" y2="-84.1"/>
			<line class="st1" x1="72.1" y1="-60.1" x2="96.1" y2="-84.1"/>
			<line class="st1" x1="72.1" y1="-54.1" x2="102.1" y2="-84.1"/>
			<line class="st1" x1="72.1" y1="-48.1" x2="108.1" y2="-84.1"/>
			<line class="st1" x1="72.1" y1="-42.1" x2="114.1" y2="-84.1"/>
			<line class="st1" x1="72.1" y1="-36.1" x2="120.1" y2="-84.1"/>
			<line class="st1" x1="72.1" y1="-30.1" x2="126.1" y2="-84.1"/>
			<line class="st1" x1="72.1" y1="-24.1" x2="132.1" y2="-84.1"/>
			<line class="st1" x1="72.1" y1="-18.1" x2="138.1" y2="-84.1"/>
			<line class="st1" x1="72.1" y1="-12.1" x2="144.1" y2="-84.1"/>
			<line class="st1" x1="72.1" y1="-6.1" x2="150.1" y2="-84.1"/>
			<line class="st1" x1="72.1" y1="-0.1" x2="156.1" y2="-84.1"/>
			<line class="st1" x1="78.1" y1="-0.1" x2="156.1" y2="-78.1"/>
		</g>
		<g>
			<line class="st1" x1="0.1" y1="-0.1" x2="84.1" y2="-84.1"/>
			<line class="st1" x1="6.1" y1="-0.1" x2="84.1" y2="-78.1"/>
		</g>
		<g>
			<line class="st1" x1="144.1" y1="-138.1" x2="162.1" y2="-156.1"/>
			<line class="st1" x1="144.1" y1="-132.1" x2="168.1" y2="-156.1"/>
			<line class="st1" x1="144.1" y1="-126.1" x2="174.1" y2="-156.1"/>
			<line class="st1" x1="144.1" y1="-120.1" x2="180.1" y2="-156.1"/>
			<line class="st1" x1="144.1" y1="-114.1" x2="186.1" y2="-156.1"/>
			<line class="st1" x1="144.1" y1="-108.1" x2="192.1" y2="-156.1"/>
			<line class="st1" x1="144.1" y1="-102.1" x2="198.1" y2="-156.1"/>
			<line class="st1" x1="144.1" y1="-96.1" x2="204.1" y2="-156.1"/>
			<line class="st1" x1="144.1" y1="-90.1" x2="210.1" y2="-156.1"/>
			<line class="st1" x1="144.1" y1="-84.1" x2="216.1" y2="-156.1"/>
			<line class="st1" x1="144.1" y1="-78.1" x2="222.1" y2="-156.1"/>
			<line class="st1" x1="144.1" y1="-72.1" x2="228.1" y2="-156.1"/>
			<line class="st1" x1="150.1" y1="-72.1" x2="228.1" y2="-150.1"/>
		</g>
		<g>
			<line class="st1" x1="72.1" y1="-138.1" x2="90.1" y2="-156.1"/>
			<line class="st1" x1="72.1" y1="-132.1" x2="96.1" y2="-156.1"/>
			<line class="st1" x1="72.1" y1="-126.1" x2="102.1" y2="-156.1"/>
			<line class="st1" x1="72.1" y1="-120.1" x2="108.1" y2="-156.1"/>
			<line class="st1" x1="72.1" y1="-114.1" x2="114.1" y2="-156.1"/>
			<line class="st1" x1="72.1" y1="-108.1" x2="120.1" y2="-156.1"/>
			<line class="st1" x1="72.1" y1="-102.1" x2="126.1" y2="-156.1"/>
			<line class="st1" x1="72.1" y1="-96.1" x2="132.1" y2="-156.1"/>
			<line class="st1" x1="72.1" y1="-90.1" x2="138.1" y2="-156.1"/>
			<line class="st1" x1="72.1" y1="-84.1" x2="144.1" y2="-156.1"/>
			<line class="st1" x1="72.1" y1="-78.1" x2="150.1" y2="-156.1"/>
			<line class="st1" x1="72.1" y1="-72.1" x2="156.1" y2="-156.1"/>
			<line class="st1" x1="78.1" y1="-72.1" x2="156.1" y2="-150.1"/>
			<line class="st1" x1="84.1" y1="-72.1" x2="156.1" y2="-144.1"/>
			<line class="st1" x1="90.1" y1="-72.1" x2="156.1" y2="-138.1"/>
			<line class="st1" x1="96.1" y1="-72.1" x2="156.1" y2="-132.1"/>
			<line class="st1" x1="102.1" y1="-72.1" x2="156.1" y2="-126.1"/>
			<line class="st1" x1="108.1" y1="-72.1" x2="156.1" y2="-120.1"/>
			<line class="st1" x1="114.1" y1="-72.1" x2="156.1" y2="-114.1"/>
			<line class="st1" x1="120.1" y1="-72.1" x2="156.1" y2="-108.1"/>
			<line class="st1" x1="126.1" y1="-72.1" x2="156.1" y2="-102.1"/>
			<line class="st1" x1="132.1" y1="-72.1" x2="156.1" y2="-96.1"/>
			<line class="st1" x1="138.1" y1="-72.1" x2="156.1" y2="-90.1"/>
			<line class="st1" x1="144.1" y1="-72.1" x2="156.1" y2="-84.1"/>
		</g>
		<g>
			<line class="st1" x1="0.1" y1="-72.1" x2="84.1" y2="-156.1"/>
			<line class="st1" x1="6.1" y1="-72.1" x2="84.1" y2="-150.1"/>
			<line class="st1" x1="12.1" y1="-72.1" x2="84.1" y2="-144.1"/>
			<line class="st1" x1="18.1" y1="-72.1" x2="84.1" y2="-138.1"/>
			<line class="st1" x1="24.1" y1="-72.1" x2="84.1" y2="-132.1"/>
			<line class="st1" x1="30.1" y1="-72.1" x2="84.1" y2="-126.1"/>
			<line class="st1" x1="36.1" y1="-72.1" x2="84.1" y2="-120.1"/>
			<line class="st1" x1="42.1" y1="-72.1" x2="84.1" y2="-114.1"/>
			<line class="st1" x1="48.1" y1="-72.1" x2="84.1" y2="-108.1"/>
			<line class="st1" x1="54.1" y1="-72.1" x2="84.1" y2="-102.1"/>
			<line class="st1" x1="60.1" y1="-72.1" x2="84.1" y2="-96.1"/>
			<line class="st1" x1="66.1" y1="-72.1" x2="84.1" y2="-90.1"/>
			<line class="st1" x1="72.1" y1="-72.1" x2="84.1" y2="-84.1"/>
		</g>
		<g>
			<line class="st1" x1="144.1" y1="-144.1" x2="228.1" y2="-228.1"/>
			<line class="st1" x1="150.1" y1="-144.1" x2="228.1" y2="-222.1"/>
		</g>
		<g>
			<line class="st1" x1="72.1" y1="-144.1" x2="156.1" y2="-228.1"/>
			<line class="st1" x1="78.1" y1="-144.1" x2="156.1" y2="-222.1"/>
			<line class="st1" x1="84.1" y1="-144.1" x2="156.1" y2="-216.1"/>
			<line class="st1" x1="90.1" y1="-144.1" x2="156.1" y2="-210.1"/>
			<line class="st1" x1="96.1" y1="-144.1" x2="156.1" y2="-204.1"/>
			<line class="st1" x1="102.1" y1="-144.1" x2="156.1" y2="-198.1"/>
			<line class="st1" x1="108.1" y1="-144.1" x2="156.1" y2="-192.1"/>
			<line class="st1" x1="114.1" y1="-144.1" x2="156.1" y2="-186.1"/>
			<line class="st1" x1="120.1" y1="-144.1" x2="156.1" y2="-180.1"/>
			<line class="st1" x1="126.1" y1="-144.1" x2="156.1" y2="-174.1"/>
			<line class="st1" x1="132.1" y1="-144.1" x2="156.1" y2="-168.1"/>
			<line class="st1" x1="138.1" y1="-144.1" x2="156.1" y2="-162.1"/>
			<line class="st1" x1="144.1" y1="-144.1" x2="156.1" y2="-156.1"/>
		</g>
		<g>
			<line class="st1" x1="0.1" y1="-144.1" x2="84.1" y2="-228.1"/>
			<line class="st1" x1="6.1" y1="-144.1" x2="84.1" y2="-222.1"/>
			<line class="st1" x1="12.1" y1="-144.1" x2="84.1" y2="-216.1"/>
			<line class="st1" x1="18.1" y1="-144.1" x2="84.1" y2="-210.1"/>
			<line class="st1" x1="24.1" y1="-144.1" x2="84.1" y2="-204.1"/>
			<line class="st1" x1="30.1" y1="-144.1" x2="84.1" y2="-198.1"/>
			<line class="st1" x1="36.1" y1="-144.1" x2="84.1" y2="-192.1"/>
			<line class="st1" x1="42.1" y1="-144.1" x2="84.1" y2="-186.1"/>
			<line class="st1" x1="48.1" y1="-144.1" x2="84.1" y2="-180.1"/>
			<line class="st1" x1="54.1" y1="-144.1" x2="84.1" y2="-174.1"/>
			<line class="st1" x1="60.1" y1="-144.1" x2="84.1" y2="-168.1"/>
			<line class="st1" x1="66.1" y1="-144.1" x2="84.1" y2="-162.1"/>
			<line class="st1" x1="72.1" y1="-144.1" x2="84.1" y2="-156.1"/>
		</g>
	</g>
</pattern>
<g id="lenses">
	<g class="st2">
		<path class="st3" d="M95.6,171.7H80.1c0,0-16-42.7-16-69s16-71.8,16-71.8h15.5c0,0,16,38.4,16,71.6S95.6,171.7,95.6,171.7z"/>
		<path class="st4" d="M95.6,171.7H80.1c0,0-16-42.7-16-69s16-71.8,16-71.8h15.5c0,0,16,38.4,16,71.6S95.6,171.7,95.6,171.7z"/>
		<path class="st5" d="M95.6,171.7H80.1c0,0-16-42.7-16-69s16-71.8,16-71.8h15.5c0,0,16,38.4,16,71.6S95.6,171.7,95.6,171.7z"/>
	</g>
	<g class="st2">
		<path class="st3" d="M225.8,171.7H209c0,0-15.2-40-15.2-69S209,31,209,31h16.8c0,0,5.1,50,5.1,71.6S225.8,171.7,225.8,171.7z"/>
		<path class="st4" d="M225.8,171.7H209c0,0-15.2-40-15.2-69S209,31,209,31h16.8c0,0,5.1,50,5.1,71.6S225.8,171.7,225.8,171.7z"/>
		<path class="st5" d="M225.8,171.7H209c0,0-15.2-40-15.2-69S209,31,209,31h16.8c0,0,5.1,50,5.1,71.6S225.8,171.7,225.8,171.7z"/>
	</g>
	<g class="st2">
		<path class="st3" d="M330.1,171.7h20.1V31h-20.1c0,0-15.5,38.2-15.5,71.8S330.1,171.7,330.1,171.7z"/>
		<path class="st4" d="M330.1,171.7h20.1V31h-20.1c0,0-15.5,38.2-15.5,71.8S330.1,171.7,330.1,171.7z"/>
		<path class="st5" d="M330.1,171.7h20.1V31h-20.1c0,0-15.5,38.2-15.5,71.8S330.1,171.7,330.1,171.7z"/>
	</g>
	<g class="st2">
		<path class="st3" d="M460.4,171.7h19.1c0,0-7.7-42.1-7.7-69.4s7.7-71.4,7.7-71.4h-19.1c0,0-22.4,41.1-22.4,71.6    S460.4,171.7,460.4,171.7z"/>
		<path class="st4" d="M460.4,171.7h19.1c0,0-7.7-42.1-7.7-69.4s7.7-71.4,7.7-71.4h-19.1c0,0-22.4,41.1-22.4,71.6    S460.4,171.7,460.4,171.7z"/>
		<path class="st5" d="M460.4,171.7h19.1c0,0-7.7-42.1-7.7-69.4s7.7-71.4,7.7-71.4h-19.1c0,0-22.4,41.1-22.4,71.6    S460.4,171.7,460.4,171.7z"/>
	</g>
	<g class="st2">
		<path class="st3" d="M110.3,377.7H65.4c0,0,14-41.1,14-67.6s-14-68.3-14-68.3h44.9c0,0-9.3,36.2-9.3,68S110.3,377.7,110.3,377.7z"/>
		<path class="st4" d="M110.3,377.7H65.4c0,0,14-41.1,14-67.6s-14-68.3-14-68.3h44.9c0,0-9.3,36.2-9.3,68S110.3,377.7,110.3,377.7z"/>
		<path class="st5" d="M110.3,377.7H65.4c0,0,14-41.1,14-67.6s-14-68.3-14-68.3h44.9c0,0-9.3,36.2-9.3,68S110.3,377.7,110.3,377.7z"/>
	</g>
	<g class="st2">
		<path class="st3" d="M232.3,377.7h-43.5c0,0,3-44.2,3-67.7s-3-68.2-3-68.2h43.5c0,0-10,38.2-10,67.8S232.3,377.7,232.3,377.7z"/>
		<path class="st4" d="M232.3,377.7h-43.5c0,0,3-44.2,3-67.7s-3-68.2-3-68.2h43.5c0,0-10,38.2-10,67.8S232.3,377.7,232.3,377.7z"/>
		<path class="st5" d="M232.3,377.7h-43.5c0,0,3-44.2,3-67.7s-3-68.2-3-68.2h43.5c0,0-10,38.2-10,67.8S232.3,377.7,232.3,377.7z"/>
	</g>
	<g class="st2">
		<path class="st3" d="M359.5,377.7h-44.9V241.8h44.9c0,0-12.5,39.7-12.5,68.2C346.9,338.6,359.5,377.7,359.5,377.7z"/>
		<path class="st4" d="M359.5,377.7h-44.9V241.8h44.9c0,0-12.5,39.7-12.5,68.2C346.9,338.6,359.5,377.7,359.5,377.7z"/>
		<path class="st5" d="M359.5,377.7h-44.9V241.8h44.9c0,0-12.5,39.7-12.5,68.2C346.9,338.6,359.5,377.7,359.5,377.7z"/>
	</g>
	<g class="st2">
		<path class="st3" d="M495.8,377.7h-39.7c0,0-15-35.5-15-67.7s15-68.2,15-68.2h39.7c0,0-23,38.8-23,67.9S495.8,377.7,495.8,377.7z"/>
		<path class="st4" d="M495.8,377.7h-39.7c0,0-15-35.5-15-67.7s15-68.2,15-68.2h39.7c0,0-23,38.8-23,67.9S495.8,377.7,495.8,377.7z"/>
		<path class="st5" d="M495.8,377.7h-39.7c0,0-15-35.5-15-67.7s15-68.2,15-68.2h39.7c0,0-23,38.8-23,67.9S495.8,377.7,495.8,377.7z"/>
	</g>
</g>
<g id="lines">
	<line class="st5" x1="83.6" y1="11.3" x2="83.6" y2="183.1"/>
	<line class="st5" x1="93.5" y1="11.3" x2="93.5" y2="183.1"/>
	<line class="st5" x1="199.1" y1="11.3" x2="199.1" y2="183.1"/>
	<polyline class="st5" points="209,11.3 209,102.7 209,183.1  "/>
	<line class="st5" x1="314.6" y1="11.3" x2="314.6" y2="183.1"/>
	<line class="st5" x1="324.5" y1="11.3" x2="324.5" y2="183.1"/>
	<line class="st5" x1="422.6" y1="11.3" x2="422.6" y2="183.1"/>
	<line class="st5" x1="432.5" y1="11.3" x2="432.5" y2="183.1"/>
	<line class="st5" x1="83.6" y1="220" x2="83.6" y2="391.8"/>
	<line class="st5" x1="93.5" y1="220" x2="93.5" y2="391.8"/>
	<line class="st5" x1="209" y1="220" x2="209" y2="391.8"/>
	<line class="st5" x1="218.9" y1="220" x2="218.9" y2="391.8"/>
	<line class="st5" x1="337" y1="220" x2="337" y2="391.8"/>
	<line class="st5" x1="346.9" y1="220" x2="346.9" y2="391.8"/>
	<line class="st5" x1="476.7" y1="220" x2="476.7" y2="391.8"/>
	<line class="st5" x1="486.6" y1="220" x2="486.6" y2="391.8"/>
	<line class="st6" x1="38.2" y1="309.9" x2="535.5" y2="309.9"/>
	<g>
		<g>
			<line class="st7" x1="82.6" y1="54" x2="146.9" y2="83.1"/>
			<g>
				<polygon points="73.6,50 83.9,60.9 83.2,54.4 88.6,50.5     "/>
			</g>
		</g>
	</g>
	<g>
		<g>
			<line class="st7" x1="28.7" y1="116.2" x2="93.1" y2="145.2"/>
			<g>
				<polygon points="102.1,149.3 87,148.8 92.4,144.9 91.7,138.4     "/>
			</g>
		</g>
	</g>
	<g>
		<g>
			<line class="st7" x1="213.6" y1="54" x2="278" y2="83.1"/>
			<g>
				<polygon points="204.6,50 215,60.9 214.3,54.4 219.7,50.5     "/>
			</g>
		</g>
	</g>
	<g>
		<g>
			<line class="st7" x1="159.8" y1="116.2" x2="218.8" y2="142.8"/>
			<g>
				<polygon points="227.8,146.9 212.8,146.3 218.1,142.5 217.5,136     "/>
			</g>
		</g>
	</g>
	<g>
		<g>
			<line class="st7" x1="331.8" y1="54" x2="396.2" y2="83.1"/>
			<g>
				<polygon points="322.8,50 333.1,60.9 332.5,54.4 337.8,50.5     "/>
			</g>
		</g>
	</g>
	<g>
		<g>
			<line class="st7" x1="361.9" y1="137.6" x2="410.2" y2="137.6"/>
			<g>
				<polygon points="352,137.6 366,143.3 362.7,137.6 366,131.9     "/>
			</g>
		</g>
	</g>
	<g>
		<g>
			<line class="st7" x1="304" y1="260.5" x2="249.4" y2="260.5"/>
			<g>
				<polygon points="313.9,260.5 299.9,254.8 303.2,260.5 299.9,266.2     "/>
			</g>
		</g>
	</g>
	<g>
		<g>
			<line class="st7" x1="362.9" y1="354.3" x2="412.2" y2="331.8"/>
			<g>
				<polygon points="353.9,358.4 368.9,357.8 363.6,354 364.2,347.4     "/>
			</g>
		</g>
	</g>
	<g>
		<g>
			<line class="st7" x1="179.7" y1="266" x2="130.7" y2="287.2"/>
			<g>
				<polygon points="188.8,262.1 173.7,262.4 179,266.3 178.3,272.8     "/>
			</g>
		</g>
	</g>
	<g>
		<g>
			<line class="st7" x1="237.5" y1="351.1" x2="286.9" y2="329.3"/>
			<g>
				<polygon points="228.4,355.1 243.5,354.7 238.1,350.8 238.9,344.3     "/>
			</g>
		</g>
	</g>
	<g>
		<g>
			<line class="st7" x1="63.1" y1="265" x2="13.1" y2="287.7"/>
			<g>
				<polygon points="72.1,260.9 57.1,261.5 62.5,265.3 61.8,271.8     "/>
			</g>
		</g>
	</g>
	<g>
		<g>
			<line class="st7" x1="115.7" y1="350.4" x2="164.1" y2="328.4"/>
			<g>
				<polygon points="106.7,354.5 121.7,353.9 116.3,350.1 117,343.5     "/>
			</g>
		</g>
	</g>
	<g>
		<g>
			<line class="st7" x1="460.4" y1="54.2" x2="524.8" y2="83.3"/>
			<g>
				<polygon points="451.4,50.1 461.7,61 461.1,54.5 466.4,50.7     "/>
			</g>
		</g>
	</g>
	<g>
		<g>
			<line class="st7" x1="484.9" y1="143.1" x2="533.1" y2="121.8"/>
			<g>
				<polygon points="475.8,147.1 490.9,146.7 485.5,142.8 486.3,136.3     "/>
			</g>
		</g>
	</g>
	<g>
		<g>
			<line class="st7" x1="458.3" y1="265.5" x2="533.6" y2="299.6"/>
			<g>
				<polygon points="449.2,261.4 459.6,272.3 458.9,265.8 464.3,262     "/>
			</g>
		</g>
	</g>
	<g>
		<g>
			<line class="st7" x1="492.3" y1="351.8" x2="541.9" y2="329.6"/>
			<g>
				<polygon points="483.3,355.9 498.4,355.3 493,351.5 493.7,345     "/>
			</g>
		</g>
	</g>
</g>
<g id="text">
	<text transform="matrix(1 0 0 1 62.6958 25.5217)" class="st8 st12 st9">H</text>
	<text transform="matrix(0.8958 0.4444 -0.4444 0.8958 113.4131 55.6739)" class="st8 st12 st10">r</text>
	<text transform="matrix(0.5223 0.2591 -0.2591 0.5223 117.6268 65.5702)" class="st8 st12 st10">1 </text>
	<text transform="matrix(0.8958 0.4444 -0.4444 0.8958 128.9601 63.3856)" class="st8 st12 st10">(+)</text>
	<text transform="matrix(0.8958 0.4444 -0.4444 0.8958 23.4698 134.4837)" class="st8 st12 st10">r</text>
	<text transform="matrix(0.5223 0.2591 -0.2591 0.5223 27.6835 144.38)" class="st8 st12 st10">2 </text>
	<text transform="matrix(0.8958 0.4444 -0.4444 0.8958 39.0167 142.1954)" class="st8 st12 st10">(-)</text>
	<text transform="matrix(0.8958 0.4444 -0.4444 0.8958 155.5352 134.4837)" class="st8 st12 st10">r</text>
	<text transform="matrix(0.5223 0.2591 -0.2591 0.5223 159.7489 144.38)" class="st8 st12 st10">2 </text>
	<text transform="matrix(0.8958 0.4444 -0.4444 0.8958 171.0822 142.1954)" class="st8 st12 st10">(-)</text>
	<text transform="matrix(0.9354 -0.3535 0.3535 0.9354 500.1953 155.6783)" class="st8 st12 st10">r</text>
	<text transform="matrix(0.5454 -0.2061 0.2061 0.5454 510.3121 159.331)" class="st8 st12 st10">2 </text>
	<text transform="matrix(0.9354 -0.3535 0.3535 0.9354 516.4293 149.5435)" class="st8 st12 st10">(+)</text>
	<text transform="matrix(0.9354 -0.3535 0.3535 0.9354 126.2822 365.8304)" class="st8 st12 st10">r</text>
	<text transform="matrix(0.5454 -0.2061 0.2061 0.5454 136.399 369.4831)" class="st8 st12 st10">2 </text>
	<text transform="matrix(0.9354 -0.3535 0.3535 0.9354 142.5162 359.6956)" class="st8 st12 st10">(+)</text>
	<text transform="matrix(0.9354 -0.3535 0.3535 0.9354 249.3762 365.8304)" class="st8 st12 st10">r</text>
	<text transform="matrix(0.5454 -0.2061 0.2061 0.5454 259.493 369.4831)" class="st8 st12 st10">2 </text>
	<text transform="matrix(0.9354 -0.3535 0.3535 0.9354 265.6102 359.6956)" class="st8 st12 st10">(+)</text>
	<text transform="matrix(0.9354 -0.3535 0.3535 0.9354 381.1277 365.8304)" class="st8 st12 st10">r</text>
	<text transform="matrix(0.5454 -0.2061 0.2061 0.5454 391.2445 369.4831)" class="st8 st12 st10">2 </text>
	<text transform="matrix(0.9354 -0.3535 0.3535 0.9354 397.3617 359.6956)" class="st8 st12 st10">(+)</text>
	<text transform="matrix(0.9354 -0.3535 0.3535 0.9354 504.4414 365.8304)" class="st8 st12 st10">r</text>
	<text transform="matrix(0.5454 -0.2061 0.2061 0.5454 514.5582 369.4831)" class="st8 st12 st10">2 </text>
	<text transform="matrix(0.9354 -0.3535 0.3535 0.9354 520.6754 359.6956)" class="st8 st12 st10">(+)</text>
	<text transform="matrix(0.8958 0.4444 -0.4444 0.8958 241.3223 53.6739)" class="st8 st12 st10">r</text>
	<text transform="matrix(0.5223 0.2591 -0.2591 0.5223 245.536 63.5702)" class="st8 st12 st10">1 </text>
	<text transform="matrix(0.8958 0.4444 -0.4444 0.8958 256.8693 61.3856)" class="st8 st12 st10">(+)</text>
	<text transform="matrix(0.8958 0.4444 -0.4444 0.8958 359.4732 53.6739)" class="st8 st12 st10">r</text>
	<text transform="matrix(0.5223 0.2591 -0.2591 0.5223 363.6869 63.5702)" class="st8 st12 st10">1 </text>
	<text transform="matrix(0.8958 0.4444 -0.4444 0.8958 375.0202 61.3856)" class="st8 st12 st10">(+)</text>
	<text transform="matrix(1 1.525636e-003 -1.525636e-003 1 369.2647 127.9656)" class="st8 st12 st10">r</text>
	<text transform="matrix(0.583 8.894457e-004 -8.894457e-004 0.583 377.4264 134.9712)" class="st8 st12 st10">2 </text>
	<text transform="matrix(1 1.525636e-003 -1.525636e-003 1 386.6192 127.9921)" class="st8 st12 st10">(∞)</text>
	<text transform="matrix(1 1.525636e-003 -1.525636e-003 1 253.5038 249.4345)" class="st8 st12 st10">r</text>
	<text transform="matrix(0.583 8.894457e-004 -8.894457e-004 0.583 261.6655 256.4402)" class="st8 st12 st10">1 </text>
	<text transform="matrix(1 1.525636e-003 -1.525636e-003 1 270.8583 249.461)" class="st8 st12 st10">(∞)</text>
	<text transform="matrix(0.9106 -0.4134 0.4134 0.9106 13.1439 273.4983)" class="st8 st12 st10">r</text>
	<text transform="matrix(0.5309 -0.241 0.241 0.5309 23.4762 276.4875)" class="st8 st12 st10">1 </text>
	<text transform="matrix(0.9106 -0.4134 0.4134 0.9106 28.946 266.324)" class="st8 st12 st10">(-)</text>
	<text transform="matrix(0.9106 -0.4134 0.4134 0.9106 135.3768 273.4983)" class="st8 st12 st10">r</text>
	<text transform="matrix(0.5309 -0.241 0.241 0.5309 145.7091 276.4875)" class="st8 st12 st10">1 </text>
	<text transform="matrix(0.9106 -0.4134 0.4134 0.9106 151.179 266.324)" class="st8 st12 st10">(-)</text>
	<text transform="matrix(0.9102 0.4141 -0.4141 0.9102 499.8474 271.4986)" class="st8 st12 st10">r</text>
	<text transform="matrix(0.5307 0.2414 -0.2414 0.5307 504.3901 281.2483)" class="st8 st12 st10">1 </text>
	<text transform="matrix(0.9102 0.4141 -0.4141 0.9102 515.6439 278.6854)" class="st8 st12 st10">(-)</text>
	<text transform="matrix(0.8958 0.4444 -0.4444 0.8958 488.0821 53.6739)" class="st8 st12 st10">r</text>
	<text transform="matrix(0.5223 0.2591 -0.2591 0.5223 492.2958 63.5702)" class="st8 st12 st10">1 </text>
	<text transform="matrix(0.8958 0.4444 -0.4444 0.8958 503.6291 61.3856)" class="st8 st12 st10">(+)</text>
	<text transform="matrix(1 0 0 1 98.5654 25.5217)" class="st8 st12 st9">H’</text>
	<text transform="matrix(1 0 0 1 181.1733 25.5217)" class="st8 st12 st9">H</text>
	<text transform="matrix(1 0 0 1 212.0429 25.5217)" class="st8 st12 st9">H’</text>
	<text transform="matrix(1 0 0 1 295.9315 25.5217)" class="st8 st12 st9">H</text>
	<text transform="matrix(1 0 0 1 328.801 25.5217)" class="st8 st12 st9">H’</text>
	<text transform="matrix(1 0 0 1 405.1999 25.5217)" class="st8 st12 st9">H</text>
	<text transform="matrix(1 0 0 1 438.0694 25.5217)" class="st8 st12 st9">H’</text>
	<text transform="matrix(1 0 0 1 66.6958 232.587)" class="st8 st12 st9">H</text>
	<text transform="matrix(1 0 0 1 57.4567 191.8261)" class="st8 st12 st11">1</text>
	<text transform="matrix(1 0 0 1 179.1735 191.8261)" class="st8 st12 st11">2</text>
	<text transform="matrix(1 0 0 1 443.9316 191.8261)" class="st8 st12 st11">4</text>
	<text transform="matrix(1 0 0 1 295.9314 191.8261)" class="st8 st12 st11">3</text>
	<text transform="matrix(1 0 0 1 57.4567 398.3478)" class="st8 st12 st11">5</text>
	<text transform="matrix(1 0 0 1 179.1735 398.3478)" class="st8 st12 st11">6</text>
	<text transform="matrix(1 0 0 1 443.9316 398.3478)" class="st8 st12 st11">8</text>
	<text transform="matrix(1 0 0 1 301.9314 398.3478)" class="st8 st12 st11">7</text>
	<text transform="matrix(1 0 0 1 98.5654 232.587)" class="st8 st12 st9">H’</text>
	<text transform="matrix(1 0 0 1 191.1733 232.587)" class="st8 st12 st9">H</text>
	<text transform="matrix(1 0 0 1 223.0429 232.587)" class="st8 st12 st9">H’</text>
	<text transform="matrix(1 0 0 1 318.9315 232.587)" class="st8 st12 st9">H</text>
	<text transform="matrix(1 0 0 1 349.801 232.587)" class="st8 st12 st9">H’</text>
	<text transform="matrix(1 0 0 1 458.1999 232.587)" class="st8 st12 st9">H</text>
	<text transform="matrix(1 0 0 1 491.0694 232.587)" class="st8 st12 st9">H’</text>
</g>
</svg>