<?xml version="1.0" encoding="UTF-8"?>
<!-- Generator: Adobe Illustrator 10.0, SVG Export Plug-In . SVG Version: 3.0.0 Build 76)  -->
<!DOCTYPE svg PUBLIC "-//W3C//DTD SVG 1.0//EN" "http://www.w3.org/TR/2001/REC-SVG-20010904/DTD/svg10.dtd">
<svg xmlns="http://www.w3.org/2000/svg" xmlns:xlink="http://www.w3.org/1999/xlink" xmlns:a="http://ns.adobe.com/AdobeSVGViewerExtensions/3.0/" width="522.399" height="345" viewBox="0 0 522.399 345" overflow="visible" enable-background="new 0 0 522.399 345" xml:space="preserve">
	<g id="Layer_1">
		<g id="Layer_1_1_">
			<path fill="#FFFCF3" d="M522.399,345H0V0h522.399V345z"/>
			<path fill="none" stroke="#000000" stroke-width="0.25" stroke-dasharray="3 3" d="M198.193,30.592     c16.665,16.863,30.275,36.751,39.934,58.766"/>
			<path fill="none" stroke="#000000" stroke-width="0.25" stroke-dasharray="3 3" d="M238.128,245.828     c-8.297,18.912-19.511,36.254-33.071,51.458"/>
			<path fill="#16627F" stroke="#000000" stroke-width="0.5" stroke-dasharray="4 2" d="M59.531,163.565v8.576"/>
			<path fill="#FFFFFF" stroke="#000000" stroke-width="0.5" stroke-dasharray="4 2" d="M364.756,164.085v8.576"/>
			<path fill="none" stroke="#000000" stroke-width="0.25" stroke-dasharray="3 3" d="M275.625,35.205     c-20.583,13.885-37.752,32.444-49.988,54.155"/>
			<path fill="none" stroke="#000000" stroke-width="0.25" stroke-dasharray="3 3" d="M225.64,245.832     c11.601,20.583,27.637,38.333,46.812,51.952"/>
			<path opacity="0.75" fill="#CCE2EF" stroke="#000000" stroke-width="0.75" enable-background="new    " d="M225.64,245.832     c-13.029-23.118-20.463-49.811-20.463-78.238c0-28.426,7.433-55.117,20.46-78.234l-0.002,0.003h12.495l-0.002-0.006     c10.507,23.947,16.338,50.411,16.338,78.236c0,27.825-5.831,54.288-16.337,78.234l0.002-0.003h-12.494L225.64,245.832z"/>
			<path fill="#FFFFFF" stroke="#000000" stroke-width="0.5" stroke-dasharray="6 3" d="M24.805,167.594h457.494"/>
			<g>
				<g>
					<path d="M205.177,23.5l7.25-2.25v4.5L205.177,23.5z"/>
					<path d="M212.427,23.5"/>
				</g>
				<path fill="none" stroke="#000000" stroke-width="0.5" stroke-linecap="square" d="M212.427,23.5h9.473"/>
			</g>
			<g>
				<g>
					<path d="M254.465,23.5l-7.25-2.25v4.5L254.465,23.5z"/>
					<path d="M247.215,23.5"/>
				</g>
				<path fill="none" stroke="#000000" stroke-width="0.5" stroke-linecap="square" d="M247.215,23.5h-9.473"/>
			</g>
			<g>
				<g>
					<path d="M235.338,260.973l4.563-6.065l2.634,3.649L235.338,260.973z"/>
					<path d="M241.217,256.73"/>
				</g>
				<path fill="none" stroke="#000000" stroke-width="0.5" stroke-linecap="square" d="M241.217,256.73l123.54-89.138"/>
			</g>
			<g>
				<g>
					<path d="M216.695,282.922l-7.176-2.477l2.663-3.627L216.695,282.922z"/>
					<path d="M210.85,278.632"/>
				</g>
				<path fill="none" stroke="#000000" stroke-width="0.5" stroke-linecap="square" d="M210.85,278.632L59.531,167.594"/>
			</g>
			<path fill="#FFFFFF" stroke="#000000" stroke-width="0.5" stroke-dasharray="4 2" d="M456.981,163.907v8.576"/>
			<g>
				<path d="M264.263,259.5l-1.901-5.781c-0.425,0.006-0.86-0.037-1.308-0.132l-1.092,3.771c-0.135,0.43-0.203,0.793-0.203,1.088      c0,0.227,0.086,0.404,0.256,0.533c0.129,0.097,0.48,0.166,1.055,0.209l-0.08,0.313h-4.596l0.097-0.313      c0.434-0.019,0.727-0.063,0.879-0.133c0.24-0.101,0.416-0.236,0.527-0.408c0.188-0.276,0.384-0.766,0.589-1.467l2.078-7.199      c0.141-0.48,0.211-0.854,0.211-1.116c0-0.271-0.109-0.498-0.329-0.687c-0.22-0.188-0.534-0.277-0.944-0.271l0.105-0.313h3.894      c1.305,0,2.244,0.246,2.819,0.737c0.574,0.492,0.863,1.138,0.863,1.939c0,0.767-0.298,1.467-0.89,2.102      s-1.403,1.037-2.436,1.207l1.146,3.484c0.281,0.86,0.563,1.422,0.844,1.682s0.734,0.406,1.361,0.441l-0.097,0.313L264.263,259.5      z M261.198,253.077c0.369,0.053,0.697,0.08,0.985,0.08c0.991,0,1.776-0.281,2.353-0.845c0.576-0.563,0.865-1.263,0.865-2.1      c0-0.654-0.182-1.154-0.541-1.502c-0.361-0.348-0.9-0.521-1.622-0.521c-0.185,0-0.403,0.023-0.657,0.07L261.198,253.077z"/>
				<path d="M269.202,256.328l1.93-0.938h0.195v6.702c0,0.447,0.019,0.726,0.055,0.835c0.037,0.109,0.113,0.194,0.23,0.254      c0.117,0.059,0.355,0.092,0.715,0.1v0.219h-2.97v-0.219c0.368-0.008,0.604-0.04,0.713-0.098      c0.106-0.057,0.183-0.133,0.224-0.229c0.043-0.096,0.063-0.383,0.063-0.861v-4.281c0-0.578-0.021-0.949-0.06-1.114      c-0.026-0.125-0.076-0.218-0.148-0.275c-0.07-0.059-0.158-0.088-0.26-0.088c-0.145,0-0.344,0.062-0.602,0.183L269.202,256.328z"/>
			</g>
			<g>
				<path d="M174.762,269l-1.901-5.781c-0.425,0.006-0.861-0.037-1.308-0.132l-1.092,3.771c-0.135,0.43-0.202,0.793-0.202,1.088      c0,0.227,0.085,0.404,0.255,0.533c0.129,0.097,0.48,0.166,1.055,0.209L171.49,269h-4.596l0.097-0.313      c0.434-0.019,0.727-0.063,0.879-0.133c0.24-0.101,0.416-0.236,0.527-0.408c0.188-0.276,0.384-0.766,0.589-1.467l2.079-7.199      c0.141-0.48,0.211-0.854,0.211-1.116c0-0.271-0.11-0.498-0.33-0.687c-0.22-0.188-0.535-0.277-0.945-0.271l0.105-0.313H174      c1.304,0,2.243,0.246,2.819,0.737c0.575,0.492,0.863,1.138,0.863,1.939c0,0.767-0.296,1.467-0.888,2.102      c-0.592,0.635-1.404,1.037-2.435,1.207l1.146,3.484c0.281,0.86,0.563,1.422,0.844,1.682c0.281,0.26,0.735,0.406,1.362,0.441      L177.614,269H174.762z M171.698,262.577c0.369,0.053,0.698,0.08,0.986,0.08c0.992,0,1.776-0.281,2.353-0.845      c0.576-0.563,0.865-1.263,0.865-2.1c0-0.654-0.181-1.154-0.541-1.502c-0.36-0.347-0.901-0.521-1.622-0.521      c-0.185,0-0.404,0.023-0.658,0.07L171.698,262.577z"/>
				<path d="M183.779,271.465L183.226,273h-4.665v-0.218c1.377-1.257,2.346-2.284,2.907-3.081c0.562-0.797,0.843-1.525,0.843-2.186      c0-0.506-0.154-0.922-0.461-1.246c-0.307-0.326-0.675-0.488-1.104-0.488c-0.389,0-0.738,0.113-1.048,0.342      c-0.31,0.229-0.538,0.563-0.687,1.002h-0.216c0.097-0.72,0.348-1.271,0.75-1.657s0.907-0.577,1.51-0.577      c0.643,0,1.179,0.207,1.609,0.62c0.43,0.414,0.646,0.902,0.646,1.466c0,0.401-0.094,0.805-0.281,1.207      c-0.289,0.633-0.758,1.303-1.407,2.01c-0.973,1.062-1.577,1.699-1.813,1.916h2.05c0.417,0,0.71-0.017,0.878-0.047      c0.168-0.031,0.319-0.096,0.454-0.19c0.135-0.097,0.253-0.231,0.354-0.407H183.779z"/>
			</g>
			<path fill="#FFFFFF" stroke="#000000" stroke-width="0.25" d="M205.177,167.594V4.5"/>
			<path fill="#FFFFFF" stroke="#000000" stroke-width="0.25" d="M254.465,167.594V4.5"/>
			<path fill="#FFFFFF" stroke="#000000" stroke-width="0.25" d="M231.467,169.291V45.797"/>
			<g>
				<path d="M235.85,16.073l-3.099,10.588c-0.168,0.574-0.252,0.951-0.252,1.13c0,0.052,0.017,0.102,0.05,0.148      c0.033,0.047,0.068,0.07,0.104,0.07c0.051,0,0.112-0.034,0.184-0.102c0.134-0.131,0.359-0.478,0.675-1.04l0.299,0.185      c-0.345,0.576-0.693,1.025-1.045,1.348c-0.352,0.323-0.681,0.484-0.987,0.484c-0.163,0-0.305-0.071-0.426-0.211      c-0.122-0.141-0.182-0.341-0.182-0.6c0-0.335,0.088-0.785,0.264-1.35l0.308-1.066c-0.935,1.306-1.786,2.21-2.553,2.711      c-0.529,0.344-1.035,0.516-1.519,0.516c-0.49,0-0.917-0.199-1.282-0.595c-0.364-0.396-0.546-0.936-0.546-1.617      c0-0.875,0.302-1.81,0.908-2.803c0.605-0.993,1.404-1.801,2.398-2.424c0.783-0.499,1.503-0.749,2.16-0.749      c0.344,0,0.64,0.065,0.888,0.195c0.248,0.13,0.494,0.346,0.736,0.647l0.833-2.886c0.09-0.321,0.165-0.577,0.222-0.769      c0.07-0.24,0.105-0.438,0.105-0.595c0-0.126-0.044-0.231-0.132-0.315c-0.125-0.101-0.286-0.152-0.482-0.152      c-0.137,0-0.363,0.021-0.679,0.062V16.57L235.85,16.073z M232.447,22.391c0-0.377-0.121-0.681-0.361-0.911      c-0.241-0.229-0.546-0.345-0.917-0.345c-0.819,0-1.672,0.613-2.56,1.839c-0.888,1.226-1.331,2.399-1.331,3.519      c0,0.442,0.113,0.78,0.34,1.012c0.227,0.233,0.498,0.349,0.814,0.349c0.715,0,1.562-0.663,2.542-1.989      C231.954,24.539,232.447,23.381,232.447,22.391z"/>
			</g>
			<g>
				<g>
					<path d="M232.865,66.701l7.251-2.25v4.5L232.865,66.701z"/>
					<path d="M240.116,66.701"/>
				</g>
				<path fill="none" stroke="#000000" stroke-width="0.5" stroke-linecap="square" d="M240.116,66.701h91.386"/>
			</g>
			<g>
				<g>
					<path d="M456.981,66.701l-7.25-2.25v4.5L456.981,66.701z"/>
					<path d="M449.731,66.701"/>
				</g>
				<path fill="none" stroke="#000000" stroke-width="0.5" stroke-linecap="square" d="M449.731,66.701h-98.787"/>
			</g>
			<g>
				<path d="M344.249,64.118l-0.158,0.594h-1.301l-1.057,3.874c-0.484,1.677-0.945,2.976-1.383,3.897      c-0.619,1.299-1.285,2.197-2,2.692c-0.543,0.379-1.086,0.568-1.631,0.568c-0.354,0-0.654-0.106-0.902-0.319      c-0.184-0.147-0.273-0.339-0.273-0.575c0-0.189,0.074-0.353,0.227-0.492c0.15-0.139,0.334-0.208,0.553-0.208      c0.158,0,0.293,0.049,0.4,0.149c0.109,0.099,0.164,0.213,0.164,0.342c0,0.128-0.061,0.248-0.178,0.359      c-0.09,0.082-0.135,0.143-0.135,0.184c0,0.053,0.02,0.093,0.061,0.123c0.053,0.041,0.135,0.062,0.242,0.062      c0.25,0,0.512-0.079,0.785-0.235c0.275-0.157,0.52-0.39,0.732-0.7c0.215-0.311,0.416-0.758,0.607-1.344      c0.086-0.245,0.32-1.053,0.699-2.423l1.688-5.955h-1.711l0.125-0.594c0.545,0,0.928-0.034,1.145-0.101s0.414-0.196,0.596-0.386      c0.18-0.19,0.395-0.545,0.643-1.067c0.332-0.702,0.648-1.247,0.953-1.633c0.416-0.521,0.854-0.912,1.313-1.172      c0.459-0.26,0.893-0.391,1.297-0.391c0.428,0,0.771,0.114,1.029,0.34c0.26,0.227,0.389,0.473,0.389,0.738      c0,0.207-0.066,0.38-0.203,0.522c-0.135,0.142-0.309,0.212-0.521,0.212c-0.182,0-0.33-0.053-0.445-0.159      c-0.115-0.105-0.172-0.232-0.172-0.379c0-0.094,0.041-0.21,0.125-0.348c0.082-0.138,0.125-0.231,0.125-0.278      c0-0.082-0.025-0.144-0.074-0.185c-0.07-0.059-0.172-0.088-0.307-0.088c-0.34,0-0.645,0.121-0.912,0.362      c-0.361,0.32-0.686,0.82-0.969,1.502c-0.146,0.356-0.432,1.193-0.857,2.511L344.249,64.118z"/>
			</g>
			<path fill="none" stroke="#000000" stroke-width="0.25" d="M456.981,167.594V44.101"/>
			<path fill="none" stroke="#FE0009" d="M30.133,100.333h189.869l23.499,2.654L509.549,183.5"/>
			<path fill="none" stroke="#FE0009" d="M30.133,234.852h189.869l23.499-2.653l266.048-80.512"/>
			<g>
				<path d="M133.329,154.865l-0.703,7.698c-0.037,0.361-0.055,0.598-0.055,0.712c0,0.183,0.034,0.322,0.103,0.418      c0.086,0.132,0.204,0.23,0.352,0.294s0.397,0.096,0.749,0.096l-0.075,0.25h-3.633l0.075-0.25h0.157      c0.296,0,0.538-0.064,0.725-0.192c0.132-0.086,0.235-0.23,0.308-0.431c0.05-0.142,0.098-0.475,0.144-1l0.114-1.175h-2.672      l-0.938,1.276c-0.215,0.288-0.349,0.495-0.403,0.62c-0.055,0.126-0.082,0.243-0.082,0.353c0,0.146,0.059,0.272,0.178,0.376      c0.118,0.105,0.314,0.162,0.588,0.171l-0.075,0.25h-2.738l0.075-0.25c0.337-0.014,0.634-0.127,0.891-0.34      c0.258-0.213,0.641-0.667,1.151-1.364l5.525-7.515h0.239V154.865z M131.996,157.097l-2.712,3.69h2.353L131.996,157.097z"/>
				<path d="M137.123,158.146c0.222,0.237,0.39,0.474,0.503,0.711c0.078,0.164,0.205,0.597,0.383,1.296l0.601-0.904      c0.159-0.219,0.353-0.428,0.581-0.627c0.228-0.198,0.428-0.334,0.601-0.407c0.109-0.046,0.229-0.069,0.361-0.069      c0.196,0,0.352,0.052,0.468,0.157c0.116,0.105,0.174,0.231,0.174,0.381c0,0.172-0.034,0.291-0.102,0.354      c-0.127,0.114-0.272,0.17-0.436,0.17c-0.095,0-0.197-0.021-0.306-0.062c-0.213-0.073-0.356-0.11-0.429-0.11      c-0.108,0-0.238,0.064-0.388,0.193c-0.281,0.238-0.617,0.699-1.007,1.382l0.557,2.349c0.086,0.358,0.159,0.572,0.218,0.643      s0.118,0.105,0.178,0.105c0.095,0,0.207-0.052,0.334-0.157c0.25-0.208,0.464-0.481,0.641-0.817l0.239,0.123      c-0.286,0.535-0.649,0.979-1.089,1.333c-0.25,0.199-0.46,0.299-0.633,0.299c-0.254,0-0.456-0.141-0.606-0.423      c-0.094-0.178-0.29-0.947-0.585-2.305c-0.715,1.235-1.288,2.031-1.718,2.386c-0.28,0.228-0.55,0.342-0.811,0.342      c-0.183,0-0.35-0.065-0.501-0.195c-0.11-0.099-0.165-0.231-0.165-0.396c0-0.148,0.05-0.271,0.151-0.37      c0.101-0.099,0.224-0.148,0.369-0.148c0.146,0,0.301,0.073,0.466,0.218c0.119,0.104,0.21,0.157,0.273,0.157      c0.055,0,0.126-0.037,0.213-0.109c0.214-0.173,0.506-0.546,0.876-1.121c0.37-0.575,0.611-0.989,0.726-1.244      c-0.277-1.108-0.427-1.694-0.449-1.759c-0.104-0.296-0.239-0.506-0.406-0.629s-0.412-0.185-0.736-0.185      c-0.104,0-0.223,0.004-0.358,0.014v-0.248L137.123,158.146z"/>
				<path d="M144.313,158.115l-1.438,4.849c-0.097,0.328-0.146,0.523-0.146,0.588c0,0.07,0.02,0.127,0.059,0.17      c0.04,0.044,0.086,0.066,0.14,0.066c0.062,0,0.137-0.035,0.224-0.105c0.236-0.201,0.474-0.491,0.714-0.87l0.239,0.157      c-0.294,0.471-0.641,0.861-1.039,1.171c-0.294,0.232-0.575,0.348-0.844,0.348c-0.178,0-0.323-0.055-0.436-0.166      c-0.112-0.11-0.168-0.248-0.168-0.415c0-0.17,0.061-0.453,0.183-0.848l0.952-3.088c0.146-0.511,0.219-0.832,0.219-0.962      c0-0.102-0.036-0.186-0.106-0.25c-0.071-0.063-0.167-0.097-0.29-0.097c-0.1,0-0.307,0.025-0.62,0.075v-0.25L144.313,158.115z       M144.011,155.412c0.192,0,0.355,0.067,0.488,0.2c0.133,0.133,0.199,0.295,0.199,0.488c0,0.188-0.067,0.35-0.203,0.485      c-0.136,0.135-0.296,0.203-0.485,0.203c-0.188,0-0.35-0.067-0.484-0.203c-0.136-0.135-0.203-0.297-0.203-0.485      c0-0.192,0.066-0.355,0.199-0.488C143.655,155.479,143.818,155.412,144.011,155.412z"/>
				<path d="M149.867,158.146l-0.422,2.094h-0.25c-0.023-0.611-0.151-1.055-0.386-1.333c-0.235-0.278-0.526-0.417-0.873-0.417      c-0.28,0-0.502,0.078-0.667,0.232c-0.164,0.155-0.247,0.341-0.247,0.56c0,0.15,0.033,0.294,0.098,0.431      c0.065,0.137,0.208,0.328,0.43,0.574c0.586,0.647,0.965,1.134,1.137,1.462s0.257,0.638,0.257,0.929      c0,0.474-0.197,0.896-0.59,1.261c-0.394,0.367-0.892,0.55-1.492,0.55c-0.328,0-0.706-0.077-1.134-0.231      c-0.15-0.054-0.266-0.082-0.348-0.082c-0.205,0-0.36,0.104-0.465,0.313h-0.252l0.422-2.219h0.25      c0.027,0.695,0.172,1.186,0.433,1.474c0.261,0.288,0.619,0.432,1.073,0.432c0.348,0,0.624-0.097,0.828-0.291      c0.204-0.193,0.306-0.431,0.306-0.714c0-0.182-0.037-0.351-0.109-0.505c-0.128-0.273-0.396-0.651-0.804-1.134      c-0.408-0.483-0.671-0.845-0.787-1.086c-0.116-0.241-0.174-0.483-0.174-0.725c0-0.441,0.16-0.814,0.479-1.12      c0.319-0.305,0.731-0.458,1.234-0.458c0.145,0,0.276,0.012,0.394,0.035c0.063,0.015,0.212,0.066,0.445,0.157      c0.233,0.091,0.389,0.136,0.466,0.136c0.194,0,0.358-0.109,0.489-0.328h0.259V158.146z"/>
			</g>
			<g>
				<path d="M430.188,182.203l-1.059,3.719h1.23c0.547,0,0.955-0.086,1.227-0.258s0.549-0.539,0.836-1.102h0.25l-0.969,3.375h-0.281      c0.068-0.272,0.104-0.498,0.104-0.676c0-0.277-0.092-0.49-0.275-0.644c-0.182-0.153-0.527-0.229-1.029-0.229h-1.234      l-0.844,2.926c-0.146,0.455-0.219,0.758-0.219,0.908c0,0.154,0.063,0.273,0.188,0.356c0.127,0.083,0.432,0.14,0.92,0.169      l-0.082,0.25h-3.611l0.09-0.25c0.355-0.009,0.594-0.041,0.711-0.096c0.184-0.078,0.316-0.184,0.402-0.315      c0.123-0.187,0.271-0.573,0.439-1.157l1.609-5.584c0.133-0.451,0.199-0.805,0.199-1.06c0-0.118-0.031-0.22-0.09-0.304      c-0.061-0.084-0.146-0.147-0.264-0.188s-0.348-0.062-0.693-0.062l0.082-0.25h7.209l-0.688,2.328h-0.25      c0.051-0.283,0.074-0.518,0.074-0.701c0-0.301-0.084-0.539-0.252-0.717c-0.168-0.176-0.383-0.301-0.645-0.373      c-0.186-0.045-0.6-0.068-1.24-0.068h-1.846V182.203z"/>
				<path d="M440.688,186.95c0,0.683-0.184,1.358-0.545,2.028s-0.867,1.199-1.514,1.59c-0.646,0.393-1.277,0.588-1.887,0.588      c-0.625,0-1.135-0.199-1.527-0.598c-0.395-0.398-0.592-0.914-0.592-1.548c0-0.669,0.191-1.34,0.578-2.014      c0.385-0.674,0.898-1.207,1.543-1.599c0.646-0.392,1.27-0.586,1.871-0.586c0.6,0,1.096,0.197,1.484,0.594      C440.491,185.802,440.688,186.316,440.688,186.95z M439.563,186.47c0-0.424-0.105-0.749-0.314-0.975      c-0.207-0.226-0.475-0.339-0.803-0.339c-0.672,0-1.289,0.479-1.854,1.438c-0.563,0.96-0.844,1.914-0.844,2.862      c0,0.434,0.109,0.768,0.328,1.002s0.494,0.352,0.828,0.352c0.643,0,1.246-0.478,1.811-1.433S439.563,187.454,439.563,186.47z"/>
				<path d="M446.629,189.508c-0.473,0.57-0.951,0.987-1.434,1.251c-0.484,0.265-0.994,0.397-1.531,0.397      c-0.646,0-1.152-0.182-1.514-0.547c-0.361-0.363-0.543-0.854-0.543-1.469c0-0.695,0.193-1.381,0.584-2.055      s0.914-1.221,1.572-1.643c0.658-0.42,1.305-0.631,1.938-0.631c0.498,0,0.869,0.104,1.115,0.312      c0.246,0.207,0.369,0.461,0.369,0.762c0,0.283-0.088,0.524-0.26,0.726c-0.127,0.154-0.283,0.231-0.469,0.231      c-0.143,0-0.258-0.045-0.352-0.136s-0.141-0.205-0.141-0.341c0-0.086,0.018-0.166,0.051-0.238      c0.033-0.073,0.104-0.16,0.207-0.263c0.105-0.104,0.17-0.176,0.193-0.223c0.021-0.045,0.033-0.093,0.033-0.144      c0-0.095-0.043-0.175-0.131-0.238c-0.133-0.091-0.32-0.137-0.564-0.137c-0.449,0-0.893,0.157-1.332,0.471      c-0.439,0.314-0.814,0.761-1.127,1.339c-0.377,0.7-0.563,1.401-0.563,2.104c0,0.464,0.133,0.832,0.396,1.104      c0.266,0.271,0.629,0.405,1.086,0.405c0.355,0,0.703-0.088,1.049-0.263c0.348-0.176,0.734-0.493,1.166-0.954L446.629,189.508z"/>
				<path d="M454.377,184.906l-1.33,4.648l-0.156,0.619c-0.016,0.055-0.023,0.102-0.023,0.141c0,0.064,0.018,0.121,0.051,0.17      c0.025,0.037,0.059,0.055,0.098,0.055c0.043,0,0.1-0.033,0.17-0.098c0.129-0.123,0.301-0.391,0.514-0.806l0.232,0.164      c-0.268,0.459-0.543,0.8-0.826,1.022c-0.283,0.221-0.547,0.332-0.787,0.332c-0.166,0-0.297-0.049-0.387-0.146      c-0.092-0.097-0.137-0.238-0.137-0.425c0-0.222,0.049-0.515,0.15-0.877l0.15-0.515c-0.658,0.776-1.266,1.319-1.816,1.629      c-0.398,0.223-0.787,0.334-1.17,0.334c-0.367,0-0.684-0.137-0.949-0.407c-0.268-0.271-0.4-0.646-0.4-1.12      c0-0.713,0.236-1.465,0.709-2.257s1.072-1.425,1.799-1.9c0.57-0.377,1.105-0.564,1.611-0.564c0.301,0,0.553,0.067,0.752,0.2      c0.201,0.135,0.354,0.355,0.457,0.666l0.221-0.694L454.377,184.906z M451.846,185.25c-0.318,0-0.656,0.134-1.016,0.402      c-0.506,0.381-0.957,0.945-1.354,1.692c-0.396,0.748-0.594,1.425-0.594,2.027c0,0.305,0.088,0.545,0.266,0.722      c0.176,0.178,0.377,0.266,0.604,0.266c0.564,0,1.178-0.36,1.842-1.082c0.807-0.957,1.195-1.939,1.168-2.946      c0-0.38-0.082-0.656-0.246-0.826C452.354,185.335,452.129,185.25,451.846,185.25z"/>
				<path d="M458.688,181.281l-2.414,8.162c-0.117,0.408-0.178,0.658-0.178,0.748c0,0.068,0.02,0.125,0.059,0.172      c0.039,0.046,0.088,0.068,0.145,0.068c0.076,0,0.16-0.039,0.25-0.117c0.213-0.19,0.436-0.491,0.666-0.9l0.203,0.211      c-0.41,0.607-0.789,1.032-1.135,1.271c-0.256,0.174-0.498,0.26-0.729,0.26c-0.164,0-0.301-0.059-0.41-0.176      c-0.111-0.115-0.166-0.252-0.166-0.404c0-0.164,0.074-0.502,0.227-1.014l1.918-6.422c0.15-0.525,0.225-0.828,0.225-0.906      c0-0.108-0.043-0.199-0.129-0.271c-0.088-0.071-0.223-0.106-0.406-0.106c-0.107,0-0.27,0.017-0.486,0.049v-0.25L458.688,181.281      z"/>
				<path d="M464.909,184.813l-0.455,1.576c0.496-0.584,0.938-0.994,1.326-1.227s0.785-0.35,1.188-0.35      c0.404,0,0.75,0.16,1.037,0.48c0.285,0.321,0.43,0.739,0.43,1.253c0,1.002-0.408,2.021-1.223,3.056      c-0.813,1.037-1.762,1.555-2.844,1.555c-0.229,0-0.428-0.024-0.605-0.073c-0.174-0.049-0.371-0.135-0.59-0.26l-0.508,1.761      c-0.1,0.35-0.15,0.577-0.15,0.684c0,0.101,0.027,0.187,0.078,0.258c0.055,0.07,0.141,0.125,0.258,0.166      c0.117,0.039,0.354,0.059,0.703,0.059l-0.061,0.25h-3.221l0.068-0.25c0.424-0.02,0.709-0.092,0.857-0.22      c0.146-0.128,0.305-0.484,0.469-1.067l1.729-5.994c0.104-0.384,0.156-0.623,0.156-0.715c0-0.125-0.035-0.222-0.105-0.292      c-0.07-0.069-0.18-0.104-0.324-0.104c-0.133,0-0.318,0.017-0.555,0.049v-0.25L464.909,184.813z M463.333,190.277      c0.285,0.336,0.668,0.504,1.15,0.504c0.238,0,0.482-0.066,0.73-0.198s0.49-0.328,0.727-0.587      c0.236-0.26,0.449-0.559,0.639-0.898c0.188-0.339,0.355-0.738,0.506-1.197c0.15-0.461,0.225-0.916,0.225-1.366      c0-0.364-0.084-0.644-0.254-0.837c-0.168-0.193-0.365-0.29-0.594-0.29c-0.498,0-0.992,0.282-1.48,0.847      s-0.842,1.227-1.061,1.984L463.333,190.277z"/>
				<path d="M475.29,186.95c0,0.683-0.182,1.358-0.543,2.028c-0.363,0.67-0.867,1.199-1.514,1.59      c-0.648,0.393-1.277,0.588-1.889,0.588c-0.623,0-1.133-0.199-1.525-0.598c-0.396-0.398-0.592-0.914-0.592-1.548      c0-0.669,0.191-1.34,0.576-2.014c0.387-0.674,0.9-1.207,1.545-1.599c0.646-0.392,1.27-0.586,1.869-0.586      c0.602,0,1.098,0.197,1.486,0.594C475.092,185.802,475.29,186.316,475.29,186.95z M474.165,186.47      c0-0.424-0.104-0.749-0.313-0.975c-0.207-0.226-0.475-0.339-0.805-0.339c-0.67,0-1.287,0.479-1.852,1.438      c-0.563,0.96-0.846,1.914-0.846,2.862c0,0.434,0.109,0.768,0.328,1.002c0.221,0.234,0.496,0.352,0.828,0.352      c0.645,0,1.248-0.478,1.813-1.433C473.881,188.423,474.165,187.454,474.165,186.47z"/>
				<path d="M479.235,184.781l-1.439,4.849c-0.098,0.327-0.145,0.522-0.145,0.588c0,0.07,0.02,0.127,0.059,0.171      c0.039,0.045,0.086,0.065,0.139,0.065c0.064,0,0.139-0.035,0.227-0.104c0.234-0.203,0.473-0.492,0.713-0.871l0.24,0.157      c-0.295,0.472-0.643,0.861-1.039,1.173c-0.295,0.23-0.576,0.348-0.844,0.348c-0.18,0-0.322-0.055-0.438-0.165      c-0.111-0.11-0.168-0.249-0.168-0.415c0-0.17,0.061-0.453,0.184-0.848l0.951-3.088c0.146-0.512,0.221-0.832,0.221-0.963      c0-0.102-0.037-0.186-0.107-0.25c-0.07-0.063-0.166-0.097-0.289-0.097c-0.1,0-0.307,0.024-0.619,0.075v-0.25L479.235,184.781z       M478.932,182.078c0.193,0,0.355,0.066,0.488,0.199s0.199,0.296,0.199,0.488c0,0.188-0.066,0.35-0.203,0.484      c-0.135,0.135-0.295,0.203-0.484,0.203c-0.188,0-0.35-0.067-0.482-0.203c-0.137-0.135-0.203-0.297-0.203-0.484      c0-0.192,0.066-0.355,0.199-0.488S478.741,182.078,478.932,182.078z"/>
				<path d="M482.782,184.813l-0.9,3.125c0.918-1.277,1.621-2.117,2.109-2.521c0.486-0.403,0.957-0.604,1.408-0.604      c0.244,0,0.445,0.084,0.605,0.25s0.24,0.381,0.24,0.646c0,0.271-0.076,0.632-0.225,1.083l-0.939,2.851      c-0.107,0.33-0.162,0.53-0.162,0.604c0,0.061,0.018,0.111,0.049,0.152c0.033,0.043,0.066,0.063,0.104,0.063      c0.049,0,0.107-0.027,0.176-0.085c0.215-0.187,0.449-0.478,0.705-0.868l0.211,0.13c-0.402,0.597-0.785,1.02-1.146,1.267      c-0.252,0.169-0.479,0.254-0.678,0.254c-0.16,0-0.289-0.051-0.385-0.151c-0.096-0.103-0.143-0.237-0.143-0.407      c0-0.219,0.088-0.594,0.266-1.125l0.91-2.742c0.115-0.342,0.172-0.606,0.172-0.799c0-0.091-0.031-0.164-0.098-0.222      c-0.064-0.058-0.145-0.085-0.238-0.085c-0.141,0-0.307,0.055-0.5,0.163c-0.369,0.205-0.752,0.542-1.15,1.012      s-0.82,1.07-1.264,1.802c-0.234,0.385-0.43,0.808-0.582,1.266L480.999,191h-1.008l1.234-4.281      c0.146-0.514,0.221-0.822,0.221-0.928c0-0.1-0.041-0.188-0.121-0.264c-0.078-0.074-0.178-0.111-0.295-0.111      c-0.055,0-0.146,0.009-0.281,0.027l-0.258,0.041l-0.063-0.25L482.782,184.813z"/>
				<path d="M490.489,183.125l-0.555,1.844h0.941l-0.109,0.438h-0.963l-1.24,4.03c-0.156,0.457-0.234,0.754-0.234,0.891      c0,0.072,0.016,0.128,0.049,0.167c0.031,0.039,0.07,0.058,0.115,0.058c0.1,0,0.232-0.074,0.398-0.225      c0.098-0.092,0.314-0.372,0.65-0.842l0.225,0.172c-0.395,0.601-0.77,1.019-1.121,1.255c-0.24,0.163-0.482,0.244-0.729,0.244      c-0.188,0-0.344-0.062-0.465-0.187c-0.119-0.123-0.18-0.283-0.18-0.477c0-0.246,0.076-0.622,0.229-1.128l1.199-3.959h-1.043      l0.066-0.271c0.502-0.139,0.928-0.343,1.277-0.612c0.348-0.27,0.744-0.735,1.184-1.397L490.489,183.125z"/>
			</g>
			<g>
				<path d="M146.128,321.76h4.709c1.234,0,2.157,0.264,2.769,0.792c0.611,0.528,0.917,1.171,0.917,1.929      c0,0.601-0.195,1.184-0.586,1.748c-0.391,0.565-0.97,1.025-1.739,1.377c-0.769,0.353-1.6,0.529-2.493,0.529      c-0.557,0-1.264-0.096-2.121-0.289l-0.994,3.442c-0.223,0.716-0.334,1.188-0.334,1.415c0,0.174,0.079,0.316,0.237,0.431      c0.158,0.114,0.536,0.188,1.134,0.22l-0.088,0.313h-4.645l0.097-0.313c0.621,0,1.053-0.106,1.296-0.322      c0.243-0.215,0.505-0.809,0.787-1.782l1.959-6.786c0.234-0.814,0.352-1.359,0.352-1.635c0-0.205-0.083-0.375-0.25-0.51      c-0.167-0.135-0.535-0.217-1.103-0.246L146.128,321.76z M147.738,327.313c0.66,0.174,1.191,0.261,1.595,0.261      c0.637,0,1.217-0.132,1.74-0.396c0.522-0.264,0.932-0.659,1.227-1.188c0.295-0.528,0.443-1.076,0.443-1.646      c0-0.592-0.181-1.062-0.542-1.407c-0.362-0.347-0.91-0.52-1.645-0.52c-0.396,0-0.878,0.05-1.443,0.148L147.738,327.313z"/>
				<path d="M162.64,328.456c0,0.882-0.233,1.754-0.698,2.618c-0.465,0.863-1.113,1.548-1.943,2.054      c-0.831,0.505-1.638,0.759-2.421,0.759c-0.802,0-1.455-0.258-1.961-0.771c-0.506-0.514-0.759-1.18-0.759-1.997      c0-0.863,0.247-1.729,0.741-2.601c0.494-0.869,1.155-1.557,1.982-2.062s1.627-0.758,2.399-0.758s1.408,0.256,1.908,0.767      C162.388,326.977,162.64,327.641,162.64,328.456z M161.202,327.833c0-0.548-0.134-0.968-0.401-1.26      c-0.268-0.292-0.612-0.438-1.035-0.438c-0.863,0-1.658,0.621-2.383,1.861c-0.726,1.24-1.088,2.475-1.088,3.699      c0,0.562,0.141,0.992,0.423,1.297c0.282,0.304,0.637,0.455,1.066,0.455c0.828,0,1.604-0.617,2.33-1.854      C160.839,330.359,161.202,329.105,161.202,327.833z"/>
				<path d="M169.827,325.698l-0.531,2.688h-0.313c-0.029-0.785-0.194-1.356-0.494-1.715c-0.3-0.357-0.673-0.535-1.117-0.535      c-0.358,0-0.643,0.1-0.854,0.299c-0.211,0.2-0.316,0.441-0.316,0.725c0,0.193,0.042,0.38,0.125,0.556      c0.083,0.177,0.265,0.425,0.545,0.741c0.744,0.836,1.224,1.465,1.442,1.889c0.217,0.424,0.326,0.824,0.326,1.2      c0,0.612-0.251,1.155-0.754,1.629c-0.503,0.474-1.138,0.71-1.906,0.71c-0.419,0-0.901-0.1-1.448-0.3      c-0.192-0.069-0.34-0.106-0.445-0.106c-0.262,0-0.459,0.137-0.593,0.406h-0.323l0.531-2.844h0.313      c0.035,0.877,0.22,1.498,0.554,1.861s0.791,0.545,1.371,0.545c0.445,0,0.798-0.124,1.059-0.373      c0.261-0.249,0.391-0.555,0.391-0.917c0-0.234-0.046-0.45-0.139-0.649c-0.162-0.351-0.501-0.837-1.019-1.457      c-0.518-0.619-0.85-1.084-0.997-1.396s-0.221-0.62-0.221-0.931c0-0.567,0.204-1.047,0.612-1.439s0.934-0.588,1.577-0.588      c0.186,0,0.354,0.015,0.504,0.043c0.081,0.018,0.271,0.082,0.569,0.193c0.298,0.112,0.497,0.168,0.595,0.168      c0.249,0,0.458-0.135,0.625-0.405h0.331V325.698z"/>
				<path d="M174.715,325.698l-1.857,6.213c-0.125,0.42-0.188,0.671-0.188,0.753c0,0.091,0.025,0.166,0.075,0.223      c0.05,0.057,0.109,0.084,0.178,0.084c0.079,0,0.174-0.045,0.285-0.136c0.301-0.26,0.604-0.634,0.91-1.12l0.308,0.202      c-0.377,0.606-0.821,1.11-1.331,1.515c-0.377,0.303-0.738,0.453-1.082,0.453c-0.228,0-0.414-0.072-0.558-0.217      c-0.145-0.145-0.216-0.327-0.216-0.546c0-0.217,0.078-0.577,0.234-1.081l1.215-3.938c0.188-0.66,0.281-1.073,0.281-1.242      c0-0.133-0.045-0.24-0.136-0.323s-0.216-0.125-0.374-0.125c-0.129,0-0.397,0.032-0.802,0.097v-0.313L174.715,325.698z       M174.331,322.229c0.245,0,0.452,0.086,0.621,0.254c0.169,0.17,0.254,0.377,0.254,0.621c0,0.239-0.086,0.445-0.258,0.617      c-0.172,0.172-0.377,0.258-0.617,0.258c-0.24,0-0.445-0.086-0.617-0.258c-0.172-0.172-0.258-0.378-0.258-0.617      c0-0.244,0.084-0.451,0.253-0.621C173.878,322.314,174.086,322.229,174.331,322.229z"/>
				<path d="M180.218,323.542l-0.711,2.375h1.21l-0.156,0.563h-1.223l-1.584,5.181c-0.207,0.588-0.31,0.969-0.31,1.144      c0,0.094,0.021,0.168,0.062,0.217c0.041,0.052,0.089,0.076,0.146,0.076c0.128,0,0.296-0.098,0.506-0.293      c0.123-0.117,0.397-0.479,0.822-1.082l0.29,0.221c-0.505,0.775-0.983,1.316-1.433,1.625c-0.308,0.211-0.618,0.318-0.93,0.318      c-0.242,0-0.44-0.082-0.593-0.244c-0.154-0.162-0.23-0.371-0.23-0.625c0-0.315,0.098-0.799,0.295-1.449l1.541-5.088h-1.34      l0.088-0.348c0.645-0.178,1.191-0.441,1.64-0.789c0.449-0.348,0.957-0.947,1.524-1.801L180.218,323.542z"/>
				<path d="M184.717,325.698l-1.857,6.213c-0.125,0.42-0.188,0.671-0.188,0.753c0,0.091,0.025,0.166,0.075,0.223      c0.05,0.057,0.109,0.084,0.178,0.084c0.079,0,0.174-0.045,0.285-0.136c0.301-0.26,0.604-0.634,0.91-1.12l0.308,0.202      c-0.377,0.606-0.821,1.11-1.331,1.515c-0.377,0.303-0.738,0.453-1.082,0.453c-0.228,0-0.414-0.072-0.558-0.217      c-0.145-0.145-0.216-0.327-0.216-0.546c0-0.217,0.078-0.577,0.234-1.081l1.215-3.938c0.188-0.66,0.281-1.073,0.281-1.242      c0-0.133-0.045-0.24-0.136-0.323s-0.216-0.125-0.374-0.125c-0.129,0-0.397,0.032-0.802,0.097v-0.313L184.717,325.698z       M184.333,322.229c0.245,0,0.452,0.086,0.621,0.254c0.169,0.17,0.254,0.377,0.254,0.621c0,0.239-0.086,0.445-0.258,0.617      c-0.172,0.172-0.377,0.258-0.617,0.258s-0.445-0.086-0.617-0.258c-0.172-0.172-0.258-0.378-0.258-0.617      c0-0.244,0.084-0.451,0.253-0.621C183.88,322.314,184.088,322.229,184.333,322.229z"/>
				<path d="M185.741,326.229l2.508-0.53c0.182,0.436,0.329,0.879,0.441,1.333c0.159,0.664,0.288,1.453,0.388,2.365      c0.047,0.459,0.112,1.43,0.194,2.912c0.735-0.813,1.173-1.314,1.314-1.51c0.776-1.053,1.223-1.67,1.341-1.854      c0.194-0.312,0.329-0.584,0.406-0.82c0.064-0.176,0.096-0.344,0.095-0.503c0-0.153-0.136-0.329-0.406-0.529      c-0.271-0.2-0.406-0.424-0.406-0.671c0-0.188,0.075-0.355,0.224-0.503s0.327-0.221,0.532-0.221c0.246,0,0.463,0.102,0.65,0.304      s0.281,0.454,0.281,0.753s-0.047,0.587-0.141,0.864c-0.153,0.447-0.438,0.992-0.854,1.635c-0.417,0.645-1.09,1.506-2.018,2.587      c-0.117,0.136-0.769,0.817-1.956,2.044h-0.313c-0.14-3.732-0.431-6.061-0.874-6.986c-0.146-0.301-0.387-0.45-0.725-0.45      c-0.146,0-0.353,0.026-0.62,0.079L185.741,326.229z"/>
				<path d="M195.355,330.323c-0.042,0.295-0.063,0.538-0.063,0.733c0,0.523,0.189,0.971,0.568,1.338      c0.379,0.369,0.839,0.553,1.38,0.553c0.433,0,0.849-0.086,1.249-0.26c0.399-0.174,0.993-0.559,1.781-1.152l0.184,0.255      c-1.397,1.397-2.73,2.095-3.998,2.095c-0.861,0-1.509-0.27-1.946-0.811c-0.437-0.541-0.654-1.137-0.654-1.79      c0-0.875,0.271-1.771,0.813-2.688c0.542-0.916,1.222-1.629,2.041-2.137c0.818-0.508,1.661-0.764,2.527-0.764      c0.624,0,1.086,0.127,1.387,0.378c0.3,0.251,0.451,0.549,0.451,0.893c0,0.485-0.198,0.949-0.592,1.394      c-0.521,0.578-1.287,1.045-2.298,1.4C197.513,330.001,196.57,330.188,195.355,330.323z M195.419,329.917      c0.893-0.101,1.619-0.271,2.18-0.511c0.741-0.323,1.297-0.709,1.668-1.159c0.371-0.449,0.557-0.877,0.557-1.282      c0-0.247-0.08-0.445-0.24-0.599s-0.388-0.229-0.683-0.229c-0.615,0-1.268,0.319-1.958,0.957      C196.253,327.732,195.744,328.671,195.419,329.917z"/>
				<path d="M209.157,337.37l-0.281,0.141c-0.693-1.329-1.191-2.504-1.494-3.522c-0.233-0.797-0.35-1.6-0.35-2.408      c0-1.887,0.437-3.576,1.312-5.07c1.074-1.826,2.813-3.607,5.22-5.342l0.188,0.309c-1.088,0.803-1.977,1.701-2.665,2.697      c-0.859,1.242-1.562,2.742-2.109,4.499s-0.82,3.356-0.82,4.797C208.157,334.568,208.49,335.87,209.157,337.37z"/>
				<path d="M218.786,331.768c-0.608,0.732-1.222,1.27-1.842,1.608c-0.62,0.339-1.275,0.509-1.965,0.509      c-0.831,0-1.478-0.234-1.943-0.705c-0.465-0.47-0.697-1.102-0.697-1.895c0-0.898,0.25-1.783,0.75-2.652s1.172-1.576,2.017-2.119      c0.845-0.545,1.674-0.815,2.487-0.815c0.637,0,1.113,0.133,1.429,0.397c0.315,0.264,0.474,0.59,0.474,0.973      c0,0.361-0.111,0.671-0.332,0.927c-0.163,0.198-0.364,0.297-0.603,0.297c-0.181,0-0.331-0.058-0.45-0.173      c-0.119-0.115-0.179-0.26-0.179-0.434c0-0.11,0.021-0.211,0.065-0.305c0.044-0.093,0.133-0.203,0.269-0.334      c0.136-0.13,0.218-0.224,0.248-0.281c0.029-0.059,0.043-0.119,0.043-0.183c0-0.122-0.056-0.224-0.168-0.304      c-0.171-0.116-0.413-0.174-0.725-0.174c-0.578,0-1.149,0.203-1.715,0.607c-0.565,0.406-1.049,0.982-1.449,1.729      c-0.483,0.904-0.725,1.81-0.725,2.715c0,0.6,0.17,1.074,0.512,1.424c0.342,0.35,0.807,0.523,1.396,0.523      c0.454,0,0.903-0.112,1.348-0.338c0.445-0.225,0.944-0.634,1.498-1.226L218.786,331.768z"/>
				<path d="M228.109,328.456c0,0.882-0.233,1.754-0.698,2.618c-0.465,0.863-1.113,1.548-1.943,2.054      c-0.831,0.505-1.638,0.759-2.421,0.759c-0.802,0-1.455-0.258-1.961-0.771s-0.759-1.18-0.759-1.997      c0-0.863,0.247-1.729,0.741-2.601c0.494-0.869,1.155-1.557,1.982-2.062c0.827-0.505,1.627-0.758,2.399-0.758      c0.772,0,1.408,0.256,1.908,0.767C227.857,326.977,228.109,327.641,228.109,328.456z M226.672,327.833      c0-0.548-0.134-0.968-0.401-1.26c-0.268-0.292-0.612-0.438-1.035-0.438c-0.863,0-1.658,0.621-2.383,1.861      c-0.726,1.24-1.088,2.475-1.088,3.699c0,0.562,0.141,0.992,0.423,1.297c0.282,0.304,0.637,0.455,1.066,0.455      c0.828,0,1.604-0.617,2.33-1.854C226.309,330.359,226.672,329.105,226.672,327.833z"/>
				<path d="M232.735,325.698l-1.154,4.005c1.178-1.637,2.081-2.714,2.708-3.23c0.627-0.516,1.23-0.774,1.811-0.774      c0.315,0,0.575,0.108,0.78,0.323s0.307,0.496,0.307,0.84c0,0.349-0.097,0.813-0.289,1.393l-1.216,3.661      c-0.14,0.423-0.209,0.681-0.209,0.774c0,0.08,0.021,0.146,0.064,0.201c0.043,0.053,0.088,0.08,0.137,0.08      c0.064,0,0.142-0.037,0.233-0.111c0.283-0.242,0.594-0.615,0.931-1.119l0.272,0.167c-0.527,0.772-1.026,1.321-1.496,1.646      c-0.329,0.223-0.624,0.334-0.884,0.334c-0.21,0-0.377-0.068-0.501-0.201c-0.125-0.133-0.187-0.313-0.187-0.537      c0-0.282,0.114-0.767,0.343-1.453l1.17-3.541c0.148-0.439,0.222-0.782,0.222-1.029c0-0.117-0.042-0.212-0.125-0.286      c-0.083-0.073-0.186-0.11-0.307-0.11c-0.179,0-0.393,0.07-0.642,0.211c-0.473,0.265-0.965,0.699-1.476,1.307      c-0.511,0.605-1.051,1.381-1.619,2.324c-0.301,0.5-0.55,1.044-0.748,1.636l-0.421,1.461h-1.299l1.597-5.53      c0.188-0.664,0.281-1.063,0.281-1.199c0-0.129-0.051-0.242-0.154-0.338s-0.229-0.146-0.378-0.146      c-0.069,0-0.19,0.012-0.362,0.035l-0.328,0.053l-0.09-0.313L232.735,325.698z"/>
				<path d="M238.203,326.229l2.508-0.53c0.182,0.436,0.329,0.879,0.441,1.333c0.159,0.664,0.288,1.453,0.388,2.365      c0.047,0.459,0.112,1.43,0.194,2.912c0.735-0.813,1.173-1.314,1.314-1.51c0.776-1.053,1.223-1.67,1.341-1.854      c0.194-0.312,0.329-0.584,0.406-0.82c0.064-0.176,0.096-0.344,0.095-0.503c0-0.153-0.136-0.329-0.406-0.529      c-0.271-0.2-0.406-0.424-0.406-0.671c0-0.188,0.075-0.355,0.224-0.503c0.149-0.147,0.327-0.221,0.532-0.221      c0.246,0,0.463,0.102,0.65,0.304s0.281,0.454,0.281,0.753s-0.047,0.587-0.141,0.864c-0.153,0.447-0.438,0.992-0.854,1.635      c-0.417,0.645-1.09,1.506-2.018,2.587c-0.117,0.136-0.769,0.817-1.956,2.044h-0.313c-0.14-3.732-0.431-6.061-0.874-6.986      c-0.146-0.301-0.387-0.45-0.725-0.45c-0.146,0-0.353,0.026-0.62,0.079L238.203,326.229z"/>
				<path d="M247.817,330.323c-0.042,0.295-0.063,0.538-0.063,0.733c0,0.523,0.189,0.971,0.568,1.338      c0.379,0.369,0.839,0.553,1.38,0.553c0.433,0,0.849-0.086,1.249-0.26c0.399-0.174,0.993-0.559,1.78-1.152l0.184,0.255      c-1.396,1.397-2.73,2.095-3.998,2.095c-0.861,0-1.509-0.27-1.946-0.811s-0.654-1.137-0.654-1.79      c0-0.875,0.271-1.771,0.813-2.688c0.542-0.916,1.222-1.629,2.041-2.137c0.818-0.508,1.661-0.764,2.527-0.764      c0.624,0,1.086,0.127,1.387,0.378s0.451,0.549,0.451,0.893c0,0.485-0.197,0.949-0.592,1.394c-0.521,0.578-1.287,1.045-2.299,1.4      C249.975,330.001,249.032,330.188,247.817,330.323z M247.881,329.917c0.893-0.101,1.619-0.271,2.18-0.511      c0.741-0.323,1.297-0.709,1.668-1.159c0.371-0.449,0.557-0.877,0.557-1.282c0-0.247-0.08-0.445-0.24-0.599      c-0.16-0.153-0.387-0.229-0.683-0.229c-0.615,0-1.268,0.319-1.958,0.957C248.715,327.732,248.206,328.671,247.881,329.917z"/>
				<path d="M254.698,326.198l2.955-0.5l-1.234,4.276c1.038-1.754,1.982-2.979,2.83-3.679c0.48-0.399,0.873-0.599,1.176-0.599      c0.195,0,0.35,0.057,0.463,0.17c0.112,0.113,0.169,0.277,0.169,0.492c0,0.385-0.101,0.752-0.3,1.101      c-0.141,0.263-0.344,0.394-0.607,0.394c-0.135,0-0.251-0.043-0.348-0.129c-0.097-0.086-0.156-0.22-0.18-0.398      c-0.012-0.109-0.039-0.182-0.08-0.217c-0.047-0.045-0.103-0.068-0.167-0.068c-0.1,0-0.194,0.023-0.282,0.07      c-0.152,0.083-0.384,0.312-0.695,0.687c-0.486,0.576-1.016,1.321-1.584,2.237c-0.247,0.388-0.459,0.825-0.635,1.313      c-0.246,0.67-0.387,1.072-0.422,1.207l-0.307,1.111h-1.3l1.579-5.469c0.188-0.637,0.281-1.09,0.281-1.361      c0-0.105-0.045-0.193-0.133-0.265c-0.115-0.095-0.264-0.142-0.443-0.142c-0.113,0-0.323,0.026-0.628,0.08L254.698,326.198z"/>
				<path d="M269.493,326.229l-0.256,0.906h-1.473c0.105,0.317,0.16,0.614,0.16,0.891c0,0.776-0.332,1.468-0.992,2.074      c-0.668,0.604-1.583,0.94-2.746,1.004c-0.598,0.188-1.045,0.412-1.344,0.672c-0.111,0.094-0.168,0.19-0.168,0.291      c0,0.119,0.051,0.226,0.154,0.322c0.103,0.098,0.362,0.196,0.779,0.295l1.691,0.392c0.936,0.221,1.551,0.483,1.846,0.788      c0.29,0.313,0.436,0.671,0.436,1.076c0,0.482-0.179,0.924-0.531,1.324c-0.354,0.398-0.873,0.711-1.555,0.938      c-0.683,0.226-1.437,0.339-2.262,0.339c-0.727,0-1.388-0.087-1.985-0.26c-0.597-0.174-1.023-0.407-1.281-0.7      c-0.258-0.294-0.387-0.597-0.387-0.907c0-0.252,0.086-0.516,0.258-0.788c0.172-0.272,0.387-0.498,0.645-0.674      c0.162-0.11,0.623-0.375,1.383-0.792c-0.273-0.211-0.41-0.443-0.41-0.695c0-0.234,0.113-0.484,0.339-0.748      c0.228-0.265,0.707-0.556,1.441-0.873c-0.623-0.123-1.117-0.392-1.482-0.807s-0.548-0.878-0.548-1.387      c0-0.831,0.366-1.574,1.1-2.229c0.731-0.655,1.707-0.983,2.926-0.983c0.44,0,0.804,0.043,1.086,0.129      c0.281,0.086,0.556,0.22,0.82,0.402H269.493z M262.247,333.648c-0.496,0.219-0.873,0.498-1.127,0.841      c-0.255,0.342-0.382,0.678-0.382,1.008c0,0.39,0.176,0.71,0.529,0.964c0.507,0.365,1.249,0.548,2.227,0.548      c0.842,0,1.563-0.144,2.16-0.43c0.598-0.287,0.896-0.657,0.896-1.112c0-0.23-0.109-0.449-0.326-0.654      c-0.219-0.207-0.641-0.375-1.268-0.504C264.613,334.239,263.709,334.02,262.247,333.648z M266.487,327.63      c0-0.463-0.136-0.828-0.406-1.095c-0.271-0.268-0.625-0.4-1.063-0.4c-0.688,0-1.256,0.329-1.703,0.986      c-0.447,0.658-0.671,1.343-0.671,2.055c0,0.446,0.144,0.813,0.431,1.096c0.284,0.283,0.633,0.426,1.039,0.426      c0.322,0,0.635-0.084,0.938-0.252c0.301-0.168,0.555-0.399,0.762-0.695c0.207-0.295,0.371-0.672,0.493-1.13      C266.426,328.163,266.487,327.833,266.487,327.63z"/>
				<path d="M273.495,325.698l-1.856,6.213c-0.125,0.42-0.188,0.671-0.188,0.753c0,0.091,0.025,0.166,0.075,0.223      c0.05,0.055,0.109,0.084,0.179,0.084c0.078,0,0.174-0.045,0.283-0.136c0.301-0.26,0.604-0.634,0.91-1.12l0.309,0.202      c-0.379,0.606-0.821,1.11-1.332,1.515c-0.377,0.303-0.737,0.453-1.082,0.453c-0.227,0-0.412-0.072-0.557-0.217      s-0.217-0.327-0.217-0.546c0-0.217,0.078-0.577,0.234-1.081l1.215-3.938c0.188-0.66,0.281-1.073,0.281-1.242      c0-0.133-0.047-0.24-0.137-0.323c-0.092-0.083-0.217-0.125-0.375-0.125c-0.13,0-0.396,0.032-0.802,0.097v-0.313L273.495,325.698      z M273.111,322.229c0.245,0,0.452,0.086,0.621,0.254c0.169,0.17,0.254,0.377,0.254,0.621c0,0.239-0.087,0.445-0.259,0.617      s-0.377,0.258-0.616,0.258s-0.444-0.086-0.616-0.258s-0.259-0.378-0.259-0.617c0-0.244,0.085-0.451,0.253-0.621      C272.659,322.314,272.866,322.229,273.111,322.229z"/>
				<path d="M278.051,325.698l-1.153,4.005c1.179-1.637,2.082-2.714,2.709-3.23c0.627-0.516,1.229-0.774,1.812-0.774      c0.313,0,0.574,0.108,0.779,0.323c0.204,0.215,0.307,0.496,0.307,0.84c0,0.349-0.096,0.813-0.289,1.393L281,331.915      c-0.142,0.423-0.211,0.681-0.211,0.774c0,0.08,0.021,0.146,0.063,0.201c0.042,0.053,0.089,0.08,0.138,0.08      c0.063,0,0.143-0.037,0.232-0.111c0.283-0.242,0.594-0.615,0.931-1.119l0.272,0.167c-0.527,0.772-1.026,1.321-1.496,1.646      c-0.329,0.223-0.624,0.334-0.885,0.334c-0.211,0-0.377-0.068-0.502-0.201s-0.188-0.313-0.188-0.537      c0-0.282,0.115-0.767,0.344-1.453l1.17-3.541c0.148-0.439,0.223-0.782,0.223-1.029c0-0.117-0.04-0.212-0.125-0.286      c-0.081-0.073-0.186-0.11-0.307-0.11c-0.179,0-0.393,0.07-0.642,0.211c-0.474,0.265-0.965,0.699-1.476,1.307      c-0.512,0.605-1.051,1.381-1.619,2.324c-0.301,0.5-0.551,1.044-0.748,1.636l-0.42,1.461h-1.301l1.598-5.53      c0.188-0.664,0.281-1.063,0.281-1.199c0-0.129-0.051-0.242-0.153-0.338s-0.229-0.146-0.378-0.146      c-0.069,0-0.189,0.012-0.362,0.035l-0.327,0.053l-0.092-0.313L278.051,325.698z"/>
				<path d="M292.493,326.229l-0.255,0.906h-1.474c0.107,0.317,0.16,0.614,0.16,0.891c0,0.776-0.33,1.468-0.991,2.074      c-0.667,0.604-1.583,0.94-2.746,1.004c-0.597,0.188-1.044,0.412-1.343,0.672c-0.113,0.094-0.17,0.19-0.17,0.291      c0,0.119,0.053,0.226,0.154,0.322c0.103,0.098,0.362,0.196,0.78,0.295l1.69,0.392c0.937,0.221,1.552,0.483,1.847,0.788      c0.289,0.313,0.435,0.671,0.435,1.076c0,0.482-0.177,0.924-0.531,1.324c-0.354,0.398-0.871,0.711-1.555,0.938      c-0.683,0.226-1.436,0.339-2.261,0.339c-0.728,0-1.388-0.087-1.983-0.26c-0.599-0.174-1.025-0.407-1.283-0.7      c-0.258-0.294-0.387-0.597-0.387-0.907c0-0.252,0.086-0.516,0.258-0.788s0.387-0.498,0.646-0.674      c0.162-0.11,0.622-0.375,1.382-0.792c-0.273-0.211-0.41-0.443-0.41-0.695c0-0.234,0.113-0.484,0.34-0.748      c0.228-0.265,0.707-0.556,1.44-0.873c-0.622-0.123-1.116-0.392-1.481-0.807s-0.549-0.878-0.549-1.387      c0-0.831,0.367-1.574,1.1-2.229s1.709-0.983,2.927-0.983c0.44,0,0.804,0.043,1.085,0.129c0.283,0.086,0.557,0.22,0.822,0.402      H292.493z M285.249,333.648c-0.498,0.219-0.873,0.498-1.129,0.841c-0.254,0.342-0.381,0.678-0.381,1.008      c0,0.39,0.176,0.71,0.529,0.964c0.506,0.365,1.248,0.548,2.227,0.548c0.842,0,1.562-0.144,2.158-0.43      c0.598-0.287,0.896-0.657,0.896-1.112c0-0.23-0.107-0.449-0.326-0.654c-0.217-0.207-0.641-0.375-1.268-0.504      C287.614,334.239,286.711,334.02,285.249,333.648z M289.488,327.63c0-0.463-0.136-0.828-0.405-1.095      c-0.271-0.268-0.627-0.4-1.063-0.4c-0.688,0-1.256,0.329-1.703,0.986c-0.446,0.658-0.671,1.343-0.671,2.055      c0,0.446,0.145,0.813,0.43,1.096c0.286,0.283,0.633,0.426,1.041,0.426c0.321,0,0.635-0.084,0.936-0.252      c0.302-0.168,0.556-0.399,0.763-0.695c0.207-0.295,0.371-0.672,0.493-1.13C289.426,328.163,289.488,327.833,289.488,327.63z"/>
				<path d="M294.738,321.333l0.281-0.167c0.692,1.324,1.188,2.496,1.485,3.516c0.238,0.797,0.357,1.6,0.357,2.407      c0,1.894-0.438,3.583-1.313,5.07c-1.079,1.833-2.819,3.616-5.219,5.351l-0.188-0.271c1.089-0.809,1.976-1.708,2.665-2.698      c0.857-1.242,1.561-2.743,2.107-4.503c0.545-1.76,0.82-3.361,0.82-4.803C295.738,324.134,295.405,322.833,294.738,321.333z"/>
				<path d="M308.116,321.167l-3.121,10.503c-0.152,0.523-0.228,0.844-0.228,0.962c0,0.089,0.024,0.161,0.073,0.22      c0.051,0.06,0.111,0.088,0.186,0.088c0.1,0,0.205-0.049,0.32-0.148c0.271-0.247,0.556-0.634,0.854-1.163l0.25,0.272      c-0.525,0.789-1.012,1.339-1.453,1.649c-0.328,0.224-0.639,0.335-0.932,0.335c-0.211,0-0.387-0.076-0.527-0.23      c-0.142-0.154-0.211-0.332-0.211-0.533c0-0.211,0.096-0.645,0.291-1.301l2.465-8.248c0.193-0.68,0.291-1.068,0.291-1.169      c0-0.142-0.057-0.259-0.168-0.349c-0.111-0.092-0.287-0.138-0.525-0.138c-0.139,0-0.348,0.021-0.628,0.062v-0.313      L308.116,321.167z"/>
				<path d="M309.639,330.323c-0.041,0.295-0.063,0.538-0.063,0.733c0,0.523,0.189,0.971,0.568,1.338      c0.379,0.369,0.838,0.553,1.379,0.553c0.434,0,0.85-0.086,1.25-0.26c0.398-0.174,0.992-0.559,1.779-1.152l0.184,0.255      c-1.396,1.397-2.73,2.095-3.998,2.095c-0.859,0-1.508-0.27-1.945-0.811c-0.436-0.541-0.654-1.137-0.654-1.79      c0-0.875,0.271-1.771,0.814-2.688c0.543-0.916,1.223-1.629,2.041-2.137c0.816-0.508,1.66-0.764,2.525-0.764      c0.625,0,1.088,0.127,1.389,0.378s0.451,0.549,0.451,0.893c0,0.485-0.197,0.949-0.594,1.394c-0.52,0.578-1.287,1.045-2.299,1.4      C311.797,330.001,310.854,330.188,309.639,330.323z M309.704,329.917c0.893-0.101,1.619-0.271,2.18-0.511      c0.74-0.323,1.297-0.709,1.668-1.159c0.371-0.449,0.559-0.877,0.559-1.282c0-0.247-0.08-0.445-0.24-0.599      s-0.387-0.229-0.684-0.229c-0.615,0-1.27,0.319-1.959,0.957C310.536,327.729,310.028,328.671,309.704,329.917z"/>
				<path d="M319.536,325.698l-1.154,4.005c1.18-1.637,2.082-2.714,2.709-3.23c0.627-0.516,1.23-0.774,1.813-0.774      c0.313,0,0.572,0.108,0.777,0.323s0.309,0.496,0.309,0.84c0,0.349-0.098,0.813-0.289,1.393l-1.215,3.661      c-0.143,0.423-0.211,0.681-0.211,0.774c0,0.08,0.021,0.146,0.063,0.201c0.043,0.053,0.09,0.08,0.137,0.08      c0.064,0,0.145-0.037,0.234-0.111c0.283-0.242,0.594-0.615,0.93-1.119l0.273,0.167c-0.527,0.772-1.027,1.321-1.496,1.646      c-0.33,0.223-0.625,0.334-0.885,0.334c-0.211,0-0.377-0.068-0.502-0.201s-0.188-0.313-0.188-0.537      c0-0.282,0.115-0.767,0.344-1.453l1.17-3.541c0.148-0.439,0.223-0.782,0.223-1.029c0-0.117-0.041-0.212-0.125-0.286      c-0.082-0.073-0.186-0.11-0.307-0.11c-0.18,0-0.393,0.07-0.643,0.211c-0.473,0.265-0.965,0.699-1.475,1.307      c-0.514,0.605-1.053,1.381-1.619,2.324c-0.301,0.5-0.551,1.044-0.748,1.636l-0.42,1.461h-1.301l1.598-5.53      c0.188-0.664,0.281-1.063,0.281-1.199c0-0.129-0.053-0.242-0.154-0.338s-0.229-0.146-0.377-0.146      c-0.07,0-0.189,0.012-0.363,0.035l-0.328,0.053l-0.09-0.313L319.536,325.698z"/>
				<path d="M331.098,325.698l-0.531,2.688h-0.313c-0.029-0.785-0.195-1.356-0.494-1.715c-0.301-0.357-0.674-0.535-1.117-0.535      c-0.357,0-0.645,0.1-0.854,0.299c-0.211,0.2-0.316,0.441-0.316,0.725c0,0.193,0.043,0.38,0.125,0.556      c0.084,0.177,0.266,0.425,0.545,0.741c0.744,0.836,1.225,1.465,1.441,1.889s0.326,0.824,0.326,1.2      c0,0.612-0.25,1.155-0.754,1.629c-0.502,0.474-1.139,0.71-1.906,0.71c-0.418,0-0.9-0.1-1.447-0.3      c-0.191-0.069-0.34-0.106-0.443-0.106c-0.264,0-0.461,0.137-0.594,0.406h-0.322l0.529-2.844h0.314      c0.035,0.877,0.219,1.498,0.553,1.861s0.791,0.545,1.371,0.545c0.445,0,0.799-0.124,1.061-0.373s0.391-0.555,0.391-0.917      c0-0.234-0.045-0.45-0.139-0.649c-0.162-0.351-0.5-0.837-1.02-1.457c-0.518-0.619-0.85-1.084-0.996-1.396      s-0.221-0.62-0.221-0.931c0-0.567,0.203-1.047,0.611-1.439s0.934-0.588,1.576-0.588c0.186,0,0.354,0.015,0.504,0.043      c0.082,0.018,0.271,0.082,0.568,0.193c0.299,0.112,0.498,0.168,0.596,0.168c0.25,0,0.457-0.135,0.625-0.405h0.33V325.698z"/>
			</g>
		</g>
	</g>
</svg>