<?xml version="1.0" encoding="UTF-8"?>
<!-- Generator: Adobe Illustrator 13.0.0, SVG Export Plug-In . SVG Version: 6.00 Build 14948)  -->
<!DOCTYPE svg PUBLIC "-//W3C//DTD SVG 1.0//EN" "http://www.w3.org/TR/2001/REC-SVG-20010904/DTD/svg10.dtd">
<svg version="1.0" id="svg2" xmlns:svg="http://www.w3.org/2000/svg" xmlns="http://www.w3.org/2000/svg" xmlns:xlink="http://www.w3.org/1999/xlink" x="0px" y="0px" width="880px" height="600px" viewBox="0 0 880 600" enable-background="new 0 0 880 600" xml:space="preserve">
<path id="path2196" fill="none" stroke="#000000" stroke-width="1.9868" d="M437.744-7.633v626.968"/>
<path id="path2192" fill="none" stroke="#000000" stroke-width="2.1817" d="M-16.718,562.751h902.433"/>
<path id="path1317" fill="none" stroke="#FF0000" stroke-width="5.9603" stroke-linecap="round" d="M7.079,239.824  c0,0,196.223,322.927,429.448,322.927c233.225,0,431.689-321.806,431.689-321.806"/>
<path id="rect8333" d="M584.42,133.019v0.542v16.217v0.542h0.542h16.217h0.542v-0.542v-16.217v-0.542h-0.542h-16.217H584.42z   M585.504,134.104h15.133v15.132h-15.133V134.104z"/>
<path id="path2194" fill="none" stroke="#000000" stroke-width="2.0719" stroke-dasharray="2.0719,4.1438" d="M-9.407,134.031  h901.315"/>
<path id="path9220" d="M656.939,133.019v0.542v16.217v0.542h0.542h16.217h0.542v-0.542v-16.217v-0.542h-0.542h-16.217H656.939z   M658.023,134.104h15.133v15.132h-15.133V134.104z"/>
<path id="path9226" d="M743.858,133.019v0.542v16.217v0.542h0.542h16.217h0.542v-0.542v-16.217v-0.542h-0.542H744.4H743.858z   M744.943,134.104h15.132v15.132h-15.132V134.104z"/>
<path id="path5708" fill="none" stroke="#009AFF" stroke-width="2.9801" stroke-linecap="round" stroke-linejoin="round" d="  M437.075,418.854l307.229-21.678v-263.27"/>
<path id="path5706" fill="none" stroke="#009AFF" stroke-width="2.9801" d="M585.083,133.906v388.105L437.075,418.106  l220.518,56.812V133.906"/>
<path id="path2198" fill="#FF0000" d="M443.753,418.107c0.003,3.304-2.675,5.984-5.979,5.984s-5.982-2.681-5.98-5.984  c-0.002-3.305,2.676-5.985,5.98-5.985S443.756,414.803,443.753,418.107z"/>
<path id="path4823" fill="#00008C" d="M664.178,474.785c0.003,3.305-2.676,5.984-5.98,5.984c-3.304,0-5.982-2.68-5.979-5.984  c-0.003-3.305,2.676-5.984,5.979-5.984C661.502,468.801,664.181,471.48,664.178,474.785z"/>
<path id="path5698" fill="#00008C" d="M591.436,521.996c0.002,3.305-2.676,5.984-5.98,5.984s-5.982-2.68-5.98-5.984  c-0.002-3.305,2.676-5.984,5.98-5.984S591.438,518.691,591.436,521.996z"/>
<path id="path5700" fill="#00008C" d="M750.376,397.558c0.002,3.304-2.676,5.984-5.98,5.984s-5.982-2.681-5.98-5.984  c-0.002-3.305,2.676-5.984,5.98-5.984S750.378,394.253,750.376,397.558z"/>
<path id="flowRoot9230" d="M464.283,379.977h-15.101v8.422h12.975v3.529h-12.975v14.379h-3.971v-29.86h19.071V379.977"/>
<path id="path9246" fill="#00008C" d="M590.671,133.573c0.003,3.305-2.676,5.984-5.979,5.984c-3.305,0-5.982-2.68-5.98-5.984  c-0.002-3.304,2.676-5.984,5.98-5.984C587.995,127.589,590.674,130.27,590.671,133.573z"/>
<path id="path9248" fill="#00008C" d="M663.414,133.573c0.002,3.305-2.676,5.984-5.98,5.984s-5.982-2.68-5.98-5.984  c-0.002-3.304,2.676-5.984,5.98-5.984S663.416,130.27,663.414,133.573z"/>
<path id="path9250" fill="#00008C" d="M749.848,133.573c0.002,3.305-2.676,5.984-5.98,5.984c-3.304,0-5.982-2.68-5.979-5.984  c-0.003-3.304,2.676-5.984,5.979-5.984C747.172,127.589,749.85,130.27,749.848,133.573z"/>
<path id="flowRoot11090" d="M595.553,115.272c-0.803,0.201-1.598,0.341-2.387,0.422c-0.775,0.093-1.571,0.14-2.387,0.14  c-2.326,0-4.197-0.642-5.614-1.925c-1.404-1.271-2.166-3.095-2.286-5.475c-0.321,0.054-0.636,0.087-0.943,0.101  c-0.294,0.026-0.581,0.04-0.862,0.04c-2.099,0-4.011-0.348-5.735-1.043c-1.711-0.695-3.168-1.705-4.371-3.028  s-2.133-2.947-2.788-4.873c-0.642-1.925-0.962-4.124-0.962-6.598c0-2.433,0.32-4.612,0.962-6.537  c0.643-1.938,1.578-3.597,2.808-4.974c1.177-1.31,2.634-2.312,4.372-3.008c1.751-0.695,3.656-1.043,5.715-1.043  c2.14,0,4.058,0.354,5.756,1.062c1.711,0.695,3.162,1.691,4.352,2.988c1.217,1.337,2.146,2.975,2.787,4.913  c0.655,1.938,0.983,4.138,0.983,6.598c0,3.65-0.749,6.725-2.246,9.225c-1.484,2.5-3.483,4.252-5.996,5.254  c0.053,1.524,0.414,2.708,1.083,3.55c0.668,0.843,1.885,1.264,3.649,1.264c0.548,0,1.196-0.087,1.945-0.261  c0.762-0.16,1.304-0.308,1.624-0.441h0.542V115.272 M590.819,93.033c0-3.877-0.868-6.865-2.606-8.964  c-1.738-2.112-4.111-3.168-7.119-3.168c-3.035,0-5.421,1.056-7.159,3.168c-1.725,2.099-2.587,5.087-2.587,8.964  c0,3.917,0.883,6.919,2.647,9.004c1.765,2.072,4.131,3.108,7.099,3.108s5.327-1.036,7.079-3.108  C589.938,99.952,590.819,96.95,590.819,93.033"/>
<path id="flowRoot11098" d="M598.705,118.696h2.454v-8.471l-2.67,0.535v-1.368l2.654-0.536h1.503v9.84h2.454v1.264h-6.396V118.696"/>
<path id="flowRoot11134" d="M671.049,115.272c-0.802,0.201-1.598,0.341-2.386,0.422c-0.775,0.093-1.571,0.14-2.387,0.14  c-2.326,0-4.198-0.642-5.615-1.925c-1.403-1.271-2.165-3.095-2.286-5.475c-0.32,0.054-0.635,0.087-0.942,0.101  c-0.294,0.026-0.581,0.04-0.862,0.04c-2.099,0-4.011-0.348-5.735-1.043c-1.711-0.695-3.168-1.705-4.371-3.028  c-1.204-1.323-2.133-2.947-2.788-4.873c-0.642-1.925-0.963-4.124-0.963-6.598c0-2.433,0.321-4.612,0.963-6.537  c0.642-1.938,1.578-3.597,2.808-4.974c1.177-1.31,2.634-2.312,4.372-3.008c1.751-0.695,3.656-1.043,5.715-1.043  c2.139,0,4.058,0.354,5.756,1.062c1.711,0.695,3.161,1.691,4.352,2.988c1.217,1.337,2.146,2.975,2.787,4.913  c0.655,1.938,0.982,4.138,0.982,6.598c0,3.65-0.748,6.725-2.246,9.225c-1.483,2.5-3.482,4.252-5.996,5.254  c0.054,1.524,0.415,2.708,1.083,3.55c0.669,0.843,1.886,1.264,3.65,1.264c0.548,0,1.196-0.087,1.945-0.261  c0.762-0.16,1.303-0.308,1.624-0.441h0.541V115.272 M666.316,93.033c0-3.877-0.869-6.865-2.606-8.964  c-1.738-2.112-4.111-3.168-7.119-3.168c-3.035,0-5.422,1.056-7.159,3.168c-1.725,2.099-2.587,5.087-2.587,8.964  c0,3.917,0.882,6.919,2.646,9.004c1.765,2.072,4.132,3.108,7.1,3.108s5.327-1.036,7.079-3.108  C665.435,99.952,666.316,96.95,666.316,93.033"/>
<path id="flowRoot11142" d="M675.235,118.696h5.243v1.264h-7.051v-1.264c0.57-0.591,1.346-1.381,2.328-2.373  c0.986-0.996,1.606-1.639,1.859-1.926c0.48-0.54,0.815-0.997,1.004-1.368c0.193-0.377,0.29-0.746,0.29-1.108  c0-0.59-0.209-1.071-0.625-1.442c-0.411-0.372-0.949-0.559-1.614-0.559c-0.471,0-0.969,0.082-1.494,0.246  c-0.521,0.163-1.078,0.411-1.674,0.743v-1.517c0.605-0.243,1.17-0.427,1.696-0.551c0.525-0.124,1.006-0.186,1.442-0.186  c1.15,0,2.067,0.287,2.752,0.862c0.684,0.575,1.026,1.344,1.026,2.306c0,0.456-0.087,0.89-0.261,1.302  c-0.169,0.406-0.479,0.887-0.93,1.442c-0.124,0.144-0.518,0.561-1.183,1.249C677.382,116.502,676.444,117.461,675.235,118.696"/>
<path id="flowRoot11152" d="M758.467,115.272c-0.803,0.201-1.598,0.341-2.387,0.422c-0.775,0.093-1.571,0.14-2.387,0.14  c-2.326,0-4.197-0.642-5.614-1.925c-1.404-1.271-2.166-3.095-2.286-5.475c-0.321,0.054-0.636,0.087-0.943,0.101  c-0.294,0.026-0.581,0.04-0.861,0.04c-2.1,0-4.012-0.348-5.736-1.043c-1.711-0.695-3.168-1.705-4.371-3.028  s-2.133-2.947-2.787-4.873c-0.643-1.925-0.963-4.124-0.963-6.598c0-2.433,0.32-4.612,0.963-6.537  c0.642-1.938,1.577-3.597,2.807-4.974c1.177-1.31,2.634-2.312,4.372-3.008c1.751-0.695,3.656-1.043,5.716-1.043  c2.139,0,4.057,0.354,5.755,1.062c1.711,0.695,3.162,1.691,4.352,2.988c1.217,1.337,2.146,2.975,2.787,4.913  c0.655,1.938,0.983,4.138,0.983,6.598c0,3.65-0.749,6.725-2.246,9.225c-1.484,2.5-3.482,4.252-5.996,5.254  c0.054,1.524,0.414,2.708,1.083,3.55c0.668,0.843,1.885,1.264,3.649,1.264c0.548,0,1.196-0.087,1.945-0.261  c0.762-0.16,1.304-0.308,1.624-0.441h0.542V115.272 M753.734,93.033c-0.001-3.877-0.869-6.865-2.607-8.964  c-1.738-2.112-4.111-3.168-7.119-3.168c-3.035,0-5.421,1.056-7.159,3.168c-1.725,2.099-2.587,5.087-2.587,8.964  c0,3.917,0.883,6.919,2.647,9.004c1.765,2.072,4.131,3.108,7.099,3.108s5.327-1.036,7.079-3.108  C752.852,99.952,753.733,96.95,753.734,93.033"/>
<path id="flowRoot11160" d="M765.91,113.974c0.719,0.153,1.278,0.474,1.681,0.959c0.406,0.486,0.609,1.086,0.609,1.8  c0,1.096-0.377,1.943-1.13,2.544c-0.754,0.6-1.825,0.899-3.213,0.899c-0.467,0-0.947-0.047-1.443-0.142  c-0.49-0.089-0.999-0.226-1.524-0.409v-1.449c0.417,0.242,0.873,0.426,1.368,0.55c0.496,0.124,1.015,0.186,1.555,0.186  c0.942,0,1.658-0.186,2.149-0.558c0.496-0.371,0.743-0.912,0.743-1.621c0-0.654-0.23-1.165-0.691-1.532  c-0.456-0.371-1.093-0.558-1.911-0.558h-1.294v-1.234h1.354c0.738,0,1.304-0.146,1.695-0.438c0.392-0.298,0.588-0.724,0.588-1.279  c0-0.57-0.203-1.007-0.61-1.309c-0.401-0.308-0.979-0.462-1.732-0.462c-0.411,0-0.853,0.045-1.323,0.135  c-0.472,0.089-0.989,0.228-1.555,0.416v-1.339c0.57-0.158,1.104-0.277,1.599-0.356c0.501-0.08,0.972-0.119,1.413-0.119  c1.141,0,2.043,0.26,2.707,0.78c0.664,0.516,0.997,1.215,0.997,2.098c0,0.614-0.177,1.136-0.528,1.562  C767.06,113.518,766.56,113.81,765.91,113.974"/>
<path id="flowRoot11070" d="M586.447,507.082h2.454v-8.471l-2.67,0.535v-1.368l2.655-0.536h1.502v9.84h2.454v1.264h-6.396V507.082"/>
<path id="flowRoot11184" d="M592.09,479.477c0,1.324-0.233,2.555-0.701,3.69c-0.455,1.123-1.097,2.099-1.926,2.928  c-1.029,1.029-2.246,1.805-3.649,2.326c-1.403,0.509-3.175,0.763-5.314,0.763h-3.971v11.129h-3.971v-29.859h8.103  c1.791,0,3.309,0.153,4.552,0.461c1.243,0.295,2.347,0.762,3.309,1.404c1.137,0.762,2.013,1.711,2.627,2.848  C591.776,476.302,592.09,477.739,592.09,479.477 M587.959,479.577c0-1.029-0.181-1.925-0.541-2.687  c-0.361-0.763-0.909-1.385-1.645-1.865c-0.642-0.414-1.377-0.709-2.206-0.883c-0.815-0.188-1.852-0.281-3.108-0.281h-3.931v11.933  h3.35c1.604,0,2.907-0.14,3.91-0.421c1.003-0.295,1.818-0.756,2.446-1.384c0.629-0.642,1.069-1.317,1.324-2.025  C587.825,481.256,587.959,480.459,587.959,479.577"/>
<path id="flowRoot11204" d="M654.758,464.474h5.243v1.265h-7.051v-1.265c0.57-0.591,1.347-1.381,2.328-2.372  c0.986-0.997,1.606-1.639,1.859-1.927c0.48-0.54,0.815-0.996,1.004-1.368c0.193-0.377,0.29-0.746,0.29-1.108  c0-0.59-0.209-1.071-0.625-1.442c-0.411-0.372-0.949-0.559-1.614-0.559c-0.471,0-0.969,0.082-1.494,0.246  c-0.521,0.164-1.078,0.412-1.674,0.744v-1.518c0.605-0.243,1.17-0.426,1.696-0.551c0.525-0.123,1.006-0.186,1.442-0.186  c1.15,0,2.067,0.287,2.752,0.863c0.684,0.574,1.026,1.344,1.026,2.305c0,0.457-0.087,0.891-0.261,1.302  c-0.169,0.406-0.479,0.888-0.93,1.442c-0.124,0.145-0.518,0.561-1.183,1.25C656.904,462.279,655.967,463.238,654.758,464.474"/>
<path id="flowRoot11212" d="M659.367,436.869c0,1.323-0.234,2.553-0.702,3.689c-0.455,1.123-1.097,2.099-1.926,2.928  c-1.029,1.029-2.245,1.805-3.649,2.326c-1.403,0.508-3.175,0.762-5.314,0.762h-3.971v11.131h-3.971v-29.86h8.103  c1.791,0,3.309,0.153,4.552,0.461c1.243,0.294,2.347,0.763,3.309,1.403c1.137,0.763,2.013,1.712,2.627,2.848  C659.053,433.693,659.367,435.131,659.367,436.869 M655.235,436.969c0-1.029-0.181-1.925-0.541-2.688  c-0.361-0.762-0.909-1.383-1.645-1.864c-0.642-0.415-1.377-0.709-2.206-0.883c-0.815-0.187-1.852-0.28-3.108-0.28h-3.931v11.932  h3.35c1.604,0,2.907-0.141,3.91-0.421c1.003-0.294,1.818-0.756,2.446-1.384c0.629-0.642,1.069-1.316,1.324-2.025  C655.102,438.646,655.235,437.852,655.235,436.969"/>
<path id="flowRoot11222" d="M737.999,383.504c0.719,0.154,1.279,0.475,1.681,0.96c0.406,0.485,0.609,1.086,0.609,1.8  c0,1.096-0.376,1.943-1.13,2.543s-1.824,0.9-3.213,0.9c-0.466,0-0.947-0.047-1.442-0.142c-0.491-0.089-0.999-0.226-1.524-0.409  v-1.45c0.416,0.243,0.872,0.427,1.368,0.551s1.014,0.186,1.554,0.186c0.942,0,1.659-0.186,2.149-0.558  c0.496-0.372,0.744-0.912,0.744-1.621c0-0.654-0.23-1.165-0.691-1.532c-0.457-0.372-1.094-0.558-1.912-0.558h-1.294v-1.234h1.354  c0.739,0,1.305-0.146,1.696-0.439c0.392-0.297,0.587-0.724,0.587-1.279c0-0.569-0.203-1.006-0.609-1.309  c-0.401-0.307-0.979-0.461-1.733-0.461c-0.411,0-0.853,0.045-1.323,0.134s-0.989,0.229-1.555,0.417v-1.339  c0.57-0.159,1.104-0.278,1.6-0.356c0.5-0.08,0.972-0.119,1.413-0.119c1.14,0,2.042,0.26,2.707,0.78  c0.664,0.516,0.996,1.215,0.996,2.098c0,0.614-0.176,1.136-0.528,1.562C739.149,383.049,738.648,383.341,737.999,383.504"/>
<path id="flowRoot11230" d="M739.351,360.622c0,1.323-0.233,2.554-0.701,3.69c-0.455,1.123-1.097,2.099-1.926,2.928  c-1.029,1.029-2.246,1.805-3.649,2.326c-1.404,0.508-3.176,0.762-5.314,0.762h-3.971v11.13h-3.971v-29.86h8.102  c1.792,0,3.31,0.154,4.553,0.461c1.243,0.295,2.346,0.763,3.309,1.404c1.137,0.762,2.012,1.711,2.627,2.848  C739.037,357.447,739.351,358.885,739.351,360.622 M735.22,360.723c0-1.029-0.181-1.926-0.541-2.688  c-0.361-0.762-0.909-1.384-1.645-1.865c-0.642-0.414-1.377-0.709-2.206-0.883c-0.815-0.187-1.852-0.28-3.108-0.28h-3.931v11.933  h3.35c1.604,0,2.907-0.141,3.91-0.422c1.003-0.294,1.818-0.755,2.446-1.383c0.629-0.643,1.069-1.317,1.323-2.025  C735.086,362.4,735.22,361.604,735.22,360.723"/>
<path id="flowRoot1373" d="M10.717,93.547h3.766v24.664h13.553v3.169H10.717V93.547"/>
<path id="path2198_1_" fill="#020202" d="M442.753,564.107c0.003,3.304-2.675,5.984-5.979,5.984s-5.982-2.681-5.98-5.984  c-0.002-3.305,2.676-5.985,5.98-5.985S442.756,560.803,442.753,564.107z"/>
<g>
	<path d="M453.593,556.016l-11.908-30.734h4.402l7.988,22.327c0.643,1.789,1.181,3.467,1.614,5.032   c0.475-1.678,1.027-3.354,1.656-5.032l8.302-22.327h4.151l-12.034,30.734H453.593z"/>
</g>
</svg>