<?xml version="1.0" encoding="UTF-8" standalone="no"?>
<svg xmlns:dc="http://purl.org/dc/elements/1.1/" xmlns:cc="http://creativecommons.org/ns#" xmlns:rdf="http://www.w3.org/1999/02/22-rdf-syntax-ns#" xmlns:svg="http://www.w3.org/2000/svg" xmlns="http://www.w3.org/2000/svg" xmlns:sodipodi="http://sodipodi.sourceforge.net/DTD/sodipodi-0.dtd" xmlns:inkscape="http://www.inkscape.org/namespaces/inkscape" version="1.0" width="500" height="400" id="svg45702" sodipodi:version="0.32" inkscape:version="0.46" sodipodi:docname="Refraction_-_Huygens-Fresnel_principle.svg" inkscape:output_extension="org.inkscape.output.svg.inkscape">
  <metadata id="metadata59">
    <rdf:RDF>
      <cc:Work rdf:about="">
        <dc:format>image/svg+xml</dc:format>
        <dc:type rdf:resource="http://purl.org/dc/dcmitype/StillImage"/>
      </cc:Work>
    </rdf:RDF>
  </metadata>
  <sodipodi:namedview inkscape:window-height="713" inkscape:window-width="640" inkscape:pageshadow="2" inkscape:pageopacity="0.0" guidetolerance="10.0" gridtolerance="10.0" objecttolerance="10.0" borderopacity="1.0" bordercolor="#666666" pagecolor="#ffffff" id="base" showgrid="false" inkscape:zoom="2.172" inkscape:cx="250" inkscape:cy="115.6123" inkscape:window-x="20" inkscape:window-y="20" inkscape:current-layer="svg45702"/>
  <defs id="defs45704">
    <inkscape:perspective sodipodi:type="inkscape:persp3d" inkscape:vp_x="0 : 200 : 1" inkscape:vp_y="0 : 1000 : 0" inkscape:vp_z="500 : 200 : 1" inkscape:persp3d-origin="250 : 133.33333 : 1" id="perspective61"/>
  </defs>
  <path id="path2283" style="fill:none;fill-opacity:0.75;fill-rule:evenodd;stroke:#000000;stroke-width:1.03604996px;stroke-linecap:butt;stroke-linejoin:miter;stroke-opacity:1" d="M 101.56011,131.97767 L 212.33547,47.461549"/>
  <g id="g24984" transform="matrix(1.03605,0,0,1.03605,14.3699,11.3044)">
    <path id="path2289" style="fill:#204a87;fill-opacity:1;fill-rule:evenodd;stroke:none;stroke-width:3;stroke-linecap:butt;stroke-linejoin:miter;stroke-miterlimit:4;stroke-dasharray:none;stroke-opacity:1" d="M 202.15504,49.720617 L 95.248791,131.28312 L 97.061291,133.65812 L 203.99879,52.095617 L 202.15504,49.720617 z"/>
    <path id="path2301" style="fill:#204a87;fill-opacity:1;fill-rule:evenodd;stroke:none;stroke-width:3;stroke-linecap:butt;stroke-linejoin:miter;stroke-miterlimit:4;stroke-dasharray:none;stroke-opacity:1" d="M 214.15504,65.720617 L 107.24879,147.28312 L 109.06129,149.65812 L 215.99879,68.095617 L 214.15504,65.720617 z"/>
    <path id="path2303" style="fill:#204a87;fill-opacity:1;fill-rule:evenodd;stroke:none;stroke-width:3;stroke-linecap:butt;stroke-linejoin:miter;stroke-miterlimit:4;stroke-dasharray:none;stroke-opacity:1" d="M 226.15504,81.720617 L 119.24879,163.28312 L 121.06129,165.65812 L 227.99879,84.095617 L 226.15504,81.720617 z"/>
    <path id="path2305" style="fill:#204a87;fill-opacity:1;fill-rule:evenodd;stroke:none;stroke-width:3;stroke-linecap:butt;stroke-linejoin:miter;stroke-miterlimit:4;stroke-dasharray:none;stroke-opacity:1" d="M 238.15504,97.720617 L 131.24879,179.28312 L 133.06129,181.65812 L 239.99879,100.09562 L 238.15504,97.720617 z"/>
    <path id="path2307" style="fill:#204a87;fill-opacity:1;fill-rule:evenodd;stroke:none;stroke-width:3;stroke-linecap:butt;stroke-linejoin:miter;stroke-miterlimit:4;stroke-dasharray:none;stroke-opacity:1" d="M 250.15504,113.72062 L 143.53004,195.06437 L 148.46754,195.06437 L 251.99879,116.09562 L 250.15504,113.72062 z"/>
    <path id="path2309" style="fill:#204a87;fill-opacity:1;fill-rule:evenodd;stroke:none;stroke-width:3;stroke-linecap:butt;stroke-linejoin:miter;stroke-miterlimit:4;stroke-dasharray:none;stroke-opacity:1" d="M 262.15504,129.72062 L 176.49879,195.06437 L 181.43629,195.06437 L 263.99879,132.09562 L 262.15504,129.72062 z"/>
    <path id="path2311" style="fill:#204a87;fill-opacity:1;fill-rule:evenodd;stroke:none;stroke-width:3;stroke-linecap:butt;stroke-linejoin:miter;stroke-miterlimit:4;stroke-dasharray:none;stroke-opacity:1" d="M 274.15504,145.72062 L 209.46754,195.06437 L 214.40504,195.06437 L 275.99879,148.09562 L 274.15504,145.72062 z"/>
    <path id="path2313" style="fill:#204a87;fill-opacity:1;fill-rule:evenodd;stroke:none;stroke-width:3;stroke-linecap:butt;stroke-linejoin:miter;stroke-miterlimit:4;stroke-dasharray:none;stroke-opacity:1" d="M 286.15504,161.72062 L 242.43629,195.06437 L 247.40504,195.06437 L 287.99879,164.09562 L 286.15504,161.72062 z"/>
    <path id="path2315" style="fill:#204a87;fill-opacity:1;fill-rule:evenodd;stroke:none;stroke-width:3;stroke-linecap:butt;stroke-linejoin:miter;stroke-miterlimit:4;stroke-dasharray:none;stroke-opacity:1" d="M 298.15504,177.72062 L 275.43629,195.06437 L 280.37379,195.06437 L 299.99879,180.09562 L 298.15504,177.72062 z"/>
    <path id="path3302" style="fill:#204a87;fill-opacity:1;fill-rule:evenodd;stroke:none;stroke-width:3;stroke-linecap:butt;stroke-linejoin:miter;stroke-miterlimit:4;stroke-dasharray:none;stroke-opacity:1" d="M 190.15504,33.720617 L 83.248791,115.28312 L 85.061291,117.65812 L 191.99879,36.095617 L 190.15504,33.720617 z"/>
  </g>
  <path d="M 192.30238,286.18152 L 343.10526,227.81672" style="fill:none;fill-opacity:0.75;fill-rule:evenodd;stroke:#4e9a06;stroke-width:3.10815001;stroke-linecap:butt;stroke-linejoin:miter;stroke-miterlimit:4;stroke-dasharray:none;stroke-opacity:1" id="path3346"/>
  <path d="M 197.775,299.57033 L 348.41509,241.20553" style="fill:none;fill-opacity:0.75;fill-rule:evenodd;stroke:#4e9a06;stroke-width:3.10815001;stroke-linecap:butt;stroke-linejoin:miter;stroke-miterlimit:4;stroke-dasharray:none;stroke-opacity:1" id="path3348"/>
  <path d="M 203.24761,312.79636 L 353.8877,254.59436" style="fill:none;fill-opacity:0.75;fill-rule:evenodd;stroke:#4e9a06;stroke-width:3.10815001;stroke-linecap:butt;stroke-linejoin:miter;stroke-miterlimit:4;stroke-dasharray:none;stroke-opacity:1" id="path3350"/>
  <path d="M 208.55744,326.18519 L 359.36031,267.98317" style="fill:none;fill-opacity:0.75;fill-rule:evenodd;stroke:#4e9a06;stroke-width:3.10815001;stroke-linecap:butt;stroke-linejoin:miter;stroke-miterlimit:4;stroke-dasharray:none;stroke-opacity:1" id="path3352"/>
  <path d="M 187.15533,272.7927 L 337.79542,214.42792" style="fill:none;fill-opacity:0.75;fill-rule:evenodd;stroke:#4e9a06;stroke-width:3.10815001;stroke-linecap:butt;stroke-linejoin:miter;stroke-miterlimit:4;stroke-dasharray:none;stroke-opacity:1" id="path3354"/>
  <path id="path2496" style="fill:none;fill-opacity:0.75;fill-rule:evenodd;stroke:#4e9a06;stroke-width:3.10815001;stroke-linecap:butt;stroke-linejoin:miter;stroke-miterlimit:4;stroke-dasharray:none;stroke-opacity:1" d="M 213.16149,340.91816 L 363.96436,282.71614"/>
  <g id="g25003" transform="matrix(1.03605,0,0,1.03605,14.3699,11.3044)">
    <path id="path3306" style="fill:none;fill-opacity:0.75;fill-rule:evenodd;stroke:#babdb6;stroke-width:3;stroke-linecap:round;stroke-linejoin:miter;stroke-miterlimit:4;stroke-dasharray:none;stroke-opacity:1" d="M 82.642848,7.7163219 L 225.404,195.85107"/>
    <path id="path3336" style="fill:none;fill-opacity:0.75;fill-rule:evenodd;stroke:#babdb6;stroke-width:3;stroke-linecap:round;stroke-linejoin:miter;stroke-miterlimit:4;stroke-dasharray:none;stroke-opacity:1" d="M 225.06536,195.29543 L 285.05187,351.54778"/>
    <path id="path2281" style="fill:none;fill-opacity:0.75;fill-rule:evenodd;stroke:#2e3436;stroke-width:2;stroke-linecap:butt;stroke-linejoin:miter;stroke-miterlimit:4;stroke-dasharray:none;stroke-opacity:1" d="M 6.2826985,195.55566 L 448.07819,195.55566"/>
    <path id="path3294" style="fill:none;fill-opacity:0.75;fill-rule:evenodd;stroke:#babdb6;stroke-width:3;stroke-linecap:round;stroke-linejoin:miter;stroke-miterlimit:4;stroke-dasharray:none;stroke-opacity:1" d="M 65.235927,92.255657 L 144.52432,196.17903"/>
    <path id="path3298" style="fill:none;fill-opacity:0.75;fill-rule:evenodd;stroke:#babdb6;stroke-width:3;stroke-linecap:round;stroke-linejoin:miter;stroke-miterlimit:4;stroke-dasharray:none;stroke-opacity:1" d="M 171.66407,11.156962 L 312.49859,195.29027"/>
    <path id="path3330" style="fill:none;fill-opacity:0.75;fill-rule:evenodd;stroke:#babdb6;stroke-width:3;stroke-linecap:round;stroke-linejoin:miter;stroke-miterlimit:4;stroke-dasharray:none;stroke-opacity:1" d="M 144.52647,195.88525 L 203.90031,349.86409"/>
    <path id="path3340" style="fill:none;fill-opacity:0.75;fill-rule:evenodd;stroke:#babdb6;stroke-width:3;stroke-linecap:round;stroke-linejoin:miter;stroke-miterlimit:4;stroke-dasharray:none;stroke-opacity:1" d="M 312.09945,194.8603 L 349.73153,292.53116"/>
  </g>
  <g id="g24980" transform="matrix(1.03605,0,0,1.03605,2.64834,-8.47573)">
    <path id="path2285" style="fill:none;fill-opacity:0.75;fill-rule:evenodd;stroke:#204a87;stroke-width:3;stroke-linecap:butt;stroke-linejoin:miter;stroke-miterlimit:4;stroke-dasharray:6, 3;stroke-dashoffset:0;stroke-opacity:1" d="M 96.627441,30.893082 L 175.91584,134.81645"/>
    <path id="path11266" style="fill:#204a87;fill-opacity:1;fill-rule:evenodd;stroke:none;stroke-width:1px;stroke-linecap:butt;stroke-linejoin:miter;stroke-opacity:1" d="M 170.77941,135.46371 L 178.16362,129.96483 L 180.67739,141.11969 L 170.77941,135.46371 z"/>
  </g>
  <g id="g24976" transform="matrix(0.9172667,0,0,0.9150393,27.638603,9.6448447)">
    <path id="path9326" style="fill:none;fill-opacity:0.75;fill-rule:evenodd;stroke:#4e9a06;stroke-width:3;stroke-linecap:butt;stroke-linejoin:miter;stroke-miterlimit:4;stroke-dasharray:6, 3;stroke-dashoffset:0;stroke-opacity:1" d="M 258.59789,272.60062 L 301.13855,383.36758"/>
    <path id="path14178" style="fill:#4e9a06;fill-opacity:1;fill-rule:evenodd;stroke:none;stroke-width:1px;stroke-linecap:butt;stroke-linejoin:miter;stroke-opacity:1" d="M 295.08587,379.91343 L 303.70623,376.68023 L 303.02501,388.09451 L 295.08587,379.91343 z"/>
  </g>
  <g id="g25012" transform="matrix(1.03605,0,0,1.03605,14.3699,11.3044)">
    <path id="path14180" style="opacity:1;fill:#888a85;fill-opacity:0.53472188;fill-rule:evenodd;stroke:none;stroke-width:3;stroke-linecap:butt;stroke-linejoin:miter;stroke-miterlimit:4;stroke-dasharray:none;stroke-dashoffset:0;stroke-opacity:1" d="M 265.59254,196.03312 C 265.7598,202.77222 271.31455,208.22061 278.09254,208.22062 C 284.87053,208.22062 290.42527,202.77222 290.59254,196.03312 L 287.56129,196.03312 C 287.39465,201.14468 283.24574,205.22062 278.09254,205.22062 C 272.93934,205.22061 268.79042,201.14468 268.62379,196.03312 L 265.59254,196.03312 z"/>
    <path id="path15151" style="opacity:1;fill:#babdb6;fill-opacity:0.53472188;fill-rule:evenodd;stroke:none;stroke-width:3;stroke-linecap:butt;stroke-linejoin:miter;stroke-miterlimit:4;stroke-dasharray:none;stroke-dashoffset:0;stroke-opacity:1" d="M 232.37379,196.03312 C 232.54105,202.77222 238.0958,208.22061 244.87379,208.22062 C 251.65179,208.22062 257.20652,202.77222 257.37379,196.03312 L 254.34254,196.03312 C 254.17591,201.14468 250.02699,205.22062 244.87379,205.22062 C 239.72025,205.22061 235.53988,201.14517 235.37379,196.03312 L 232.37379,196.03312 z"/>
    <path id="path15153" style="opacity:1;fill:#babdb6;fill-opacity:0.53472188;fill-rule:evenodd;stroke:none;stroke-width:3;stroke-linecap:butt;stroke-linejoin:miter;stroke-miterlimit:4;stroke-dasharray:none;stroke-dashoffset:0;stroke-opacity:1" d="M 199.37379,196.03312 C 199.54105,202.77222 205.0958,208.22061 211.87379,208.22062 C 218.65177,208.22062 224.20652,202.77222 224.37379,196.03312 L 221.34254,196.03312 C 221.1759,201.14468 217.02699,205.22062 211.87379,205.22062 C 206.72023,205.22061 202.53988,201.14517 202.37379,196.03312 L 199.37379,196.03312 z"/>
    <path id="path15155" style="opacity:1;fill:#babdb6;fill-opacity:0.53472188;fill-rule:evenodd;stroke:none;stroke-width:3;stroke-linecap:butt;stroke-linejoin:miter;stroke-miterlimit:4;stroke-dasharray:none;stroke-dashoffset:0;stroke-opacity:1" d="M 166.24879,196.03312 C 166.41605,202.77222 171.97081,208.22061 178.74879,208.22062 C 185.52678,208.22062 191.08153,202.77222 191.24879,196.03312 L 188.24879,196.03312 C 188.0827,201.14517 183.90234,205.22062 178.74879,205.22062 C 173.59558,205.22061 169.44667,201.14468 169.28004,196.03312 L 166.24879,196.03312 z"/>
    <path id="path15157" style="opacity:1;fill:#babdb6;fill-opacity:0.53472188;fill-rule:evenodd;stroke:none;stroke-width:3;stroke-linecap:butt;stroke-linejoin:miter;stroke-miterlimit:4;stroke-dasharray:none;stroke-dashoffset:0;stroke-opacity:1" d="M 133.59254,196.03312 C 133.7598,202.77222 139.31455,208.22061 146.09254,208.22062 C 152.87053,208.22062 158.42527,202.77222 158.59254,196.03312 L 155.56129,196.03312 C 155.39465,201.14468 151.24574,205.22062 146.09254,205.22062 C 140.93934,205.22061 136.79042,201.14468 136.62379,196.03312 L 133.59254,196.03312 z"/>
    <path id="path15159" style="opacity:1;fill:#888a85;fill-opacity:0.53472188;fill-rule:evenodd;stroke:none;stroke-width:1.45509005;stroke-linecap:butt;stroke-linejoin:miter;stroke-miterlimit:4;stroke-dasharray:none;stroke-dashoffset:0;stroke-opacity:1" d="M 220.90504,196.03312 C 220.98916,209.29054 231.78482,220.0956 245.06129,220.09562 C 258.33774,220.09561 269.1334,209.29054 269.21754,196.03312 L 266.18629,196.03312 C 266.10269,207.6664 256.71437,217.09562 245.06129,217.09562 C 233.4082,217.0956 223.9267,207.66639 223.84254,196.03312 L 220.90504,196.03312 z"/>
    <path id="path17099" style="opacity:1;fill:#babdb6;fill-opacity:0.53472188;fill-rule:evenodd;stroke:none;stroke-width:1.45509005;stroke-linecap:butt;stroke-linejoin:miter;stroke-miterlimit:4;stroke-dasharray:none;stroke-dashoffset:0;stroke-opacity:1" d="M 188.90504,196.03312 C 188.98916,209.29054 199.78482,220.0956 213.06129,220.09562 C 226.33774,220.09561 237.1334,209.29054 237.21754,196.03312 L 234.18629,196.03312 C 234.10268,207.6664 224.71437,217.09562 213.06129,217.09562 C 201.4082,217.0956 191.9267,207.66639 191.84254,196.03312 L 188.90504,196.03312 z"/>
    <path id="path17101" style="opacity:1;fill:#babdb6;fill-opacity:0.53472188;fill-rule:evenodd;stroke:none;stroke-width:1.45509005;stroke-linecap:butt;stroke-linejoin:miter;stroke-miterlimit:4;stroke-dasharray:none;stroke-dashoffset:0;stroke-opacity:1" d="M 154.90504,196.03312 C 154.98916,209.29054 165.78482,220.0956 179.06129,220.09562 C 192.33774,220.09561 203.1334,209.29054 203.21754,196.03312 L 200.18629,196.03312 C 200.10268,207.6664 190.71437,217.09562 179.06129,217.09562 C 167.4082,217.0956 157.9267,207.66639 157.84254,196.03312 L 154.90504,196.03312 z"/>
    <path id="path17103" style="opacity:1;fill:#babdb6;fill-opacity:0.53472188;fill-rule:evenodd;stroke:none;stroke-width:1.45509005;stroke-linecap:butt;stroke-linejoin:miter;stroke-miterlimit:4;stroke-dasharray:none;stroke-dashoffset:0;stroke-opacity:1" d="M 120.90504,196.03312 C 120.98916,209.29054 131.78482,220.0956 145.06129,220.09562 C 158.33774,220.09561 169.1334,209.29054 169.21754,196.03312 L 166.18629,196.03312 C 166.10268,207.6664 156.71437,217.09562 145.06129,217.09562 C 133.4082,217.0956 123.9267,207.66639 123.84254,196.03312 L 120.90504,196.03312 z"/>
    <path id="path17105" style="opacity:1;fill:#888a85;fill-opacity:0.53472188;fill-rule:evenodd;stroke:none;stroke-width:0.94428802;stroke-linecap:butt;stroke-linejoin:miter;stroke-miterlimit:4;stroke-dasharray:none;stroke-dashoffset:0;stroke-opacity:1" d="M 176.43629,196.03312 C 176.62179,215.97423 192.88944,232.12684 212.87379,232.12687 C 232.85804,232.12686 249.1256,215.97411 249.31129,196.03312 L 246.34254,196.03312 C 246.15692,214.35002 231.23454,229.15812 212.87379,229.15812 C 194.51304,229.15808 179.62188,214.35002 179.43629,196.03312 L 176.43629,196.03312 z"/>
    <path id="path19045" style="opacity:1;fill:#babdb6;fill-opacity:0.53472188;fill-rule:evenodd;stroke:none;stroke-width:0.94428802;stroke-linecap:butt;stroke-linejoin:miter;stroke-miterlimit:4;stroke-dasharray:none;stroke-dashoffset:0;stroke-opacity:1" d="M 142.43629,196.03312 C 142.62179,215.97423 158.88944,232.12684 178.87379,232.12687 C 198.85804,232.12686 215.1256,215.97411 215.31129,196.03312 L 212.34254,196.03312 C 212.15692,214.35002 197.23454,229.15812 178.87379,229.15812 C 160.51304,229.15808 145.62188,214.35002 145.43629,196.03312 L 142.43629,196.03312 z"/>
    <path id="path19047" style="opacity:1;fill:#babdb6;fill-opacity:0.53472188;fill-rule:evenodd;stroke:none;stroke-width:0.94428802;stroke-linecap:butt;stroke-linejoin:miter;stroke-miterlimit:4;stroke-dasharray:none;stroke-dashoffset:0;stroke-opacity:1" d="M 108.43629,196.03312 C 108.62179,215.97423 124.88944,232.12684 144.87379,232.12687 C 164.85804,232.12686 181.1256,215.97411 181.31129,196.03312 L 178.34254,196.03312 C 178.15692,214.35002 163.23454,229.15812 144.87379,229.15812 C 126.51304,229.15808 111.62188,214.35002 111.43629,196.03312 L 108.43629,196.03312 z"/>
    <path id="path20018" style="opacity:1;fill:#888a85;fill-opacity:0.53472188;fill-rule:evenodd;stroke:none;stroke-width:0.699907;stroke-linecap:butt;stroke-linejoin:miter;stroke-miterlimit:4;stroke-dasharray:none;stroke-dashoffset:0;stroke-opacity:1" d="M 130.28004,196.03312 C 130.46606,222.70953 152.18632,244.43933 178.90504,244.43937 C 205.62377,244.43936 227.31273,222.70953 227.49879,196.03312 L 224.56129,196.03312 C 224.37497,221.08479 204.0003,241.34562 178.90504,241.34562 C 153.80978,241.34558 133.40382,221.08478 133.21754,196.03312 L 130.28004,196.03312 z"/>
    <path id="path21958" style="opacity:1;fill:#babdb6;fill-opacity:0.53472188;fill-rule:evenodd;stroke:none;stroke-width:0.699907;stroke-linecap:butt;stroke-linejoin:miter;stroke-miterlimit:4;stroke-dasharray:none;stroke-dashoffset:0;stroke-opacity:1" d="M 96.280041,196.03312 C 96.466061,222.70953 118.18632,244.43933 144.90504,244.43937 C 171.62377,244.43936 193.31273,222.70953 193.49879,196.03312 L 190.56129,196.03312 C 190.37497,221.08479 170.0003,241.34562 144.90504,241.34562 C 119.80978,241.34558 99.403821,221.08478 99.217541,196.03312 L 96.280041,196.03312 z"/>
    <path id="path21960" style="opacity:1;fill:#888a85;fill-opacity:0.53472188;fill-rule:evenodd;stroke:none;stroke-width:0.55635101;stroke-linecap:butt;stroke-linejoin:miter;stroke-miterlimit:4;stroke-dasharray:none;stroke-dashoffset:0;stroke-opacity:1" d="M 84.061291,196.03312 C 84.264674,229.40888 111.48221,256.50181 144.90504,256.50187 C 178.3278,256.50188 205.51401,229.40879 205.71754,196.03312 L 202.68629,196.03312 C 202.48528,227.78641 176.70572,253.47062 144.90504,253.47062 C 113.1043,253.47055 87.293389,227.78651 87.092541,196.03312 L 84.061291,196.03312 z"/>
  </g>
  <path id="path29892" style="fill:#edd400;fill-opacity:1;fill-rule:evenodd;stroke:none;stroke-width:3;stroke-linecap:butt;stroke-linejoin:miter;stroke-miterlimit:4;stroke-dasharray:none;stroke-dashoffset:0;stroke-opacity:1" d="M 170.87085,213.69494 C 170.87259,216.52838 168.57611,218.82626 165.74267,218.82626 C 162.90923,218.82626 160.61276,216.52838 160.6145,213.69494 C 160.61276,210.8615 162.90923,208.56362 165.74267,208.56362 C 168.57611,208.56362 170.87259,210.8615 170.87085,213.69494 z"/>
  <path id="path30863" style="fill:#edd400;fill-opacity:1;fill-rule:evenodd;stroke:none;stroke-width:3;stroke-linecap:butt;stroke-linejoin:miter;stroke-miterlimit:4;stroke-dasharray:none;stroke-dashoffset:0;stroke-opacity:1" d="M 204.84855,213.69494 C 204.85029,216.52838 202.55381,218.82626 199.72037,218.82626 C 196.88693,218.82626 194.59046,216.52838 194.5922,213.69494 C 194.59046,210.8615 196.88693,208.56362 199.72037,208.56362 C 202.55381,208.56362 204.85029,210.8615 204.84855,213.69494 z"/>
  <path id="path30865" style="fill:#edd400;fill-opacity:1;fill-rule:evenodd;stroke:none;stroke-width:3;stroke-linecap:butt;stroke-linejoin:miter;stroke-miterlimit:4;stroke-dasharray:none;stroke-dashoffset:0;stroke-opacity:1" d="M 239.15839,213.69494 C 239.16014,216.52838 236.86366,218.82626 234.03022,218.82626 C 231.19678,218.82626 228.90031,216.52838 228.90205,213.69494 C 228.90031,210.8615 231.19678,208.56362 234.03022,208.56362 C 236.86366,208.56362 239.16014,210.8615 239.15839,213.69494 z"/>
  <path id="path30867" style="fill:#edd400;fill-opacity:1;fill-rule:evenodd;stroke:none;stroke-width:3;stroke-linecap:butt;stroke-linejoin:miter;stroke-miterlimit:4;stroke-dasharray:none;stroke-dashoffset:0;stroke-opacity:1" d="M 273.28515,213.69494 C 273.28689,216.52838 270.99041,218.82626 268.15697,218.82626 C 265.32353,218.82626 263.02706,216.52838 263.0288,213.69494 C 263.02706,210.8615 265.32353,208.56362 268.15697,208.56362 C 270.99041,208.56362 273.28689,210.8615 273.28515,213.69494 z"/>
  <path id="path30869" style="fill:#edd400;fill-opacity:1;fill-rule:evenodd;stroke:none;stroke-width:3;stroke-linecap:butt;stroke-linejoin:miter;stroke-miterlimit:4;stroke-dasharray:none;stroke-dashoffset:0;stroke-opacity:1" d="M 307.72065,213.69494 C 307.72239,216.52838 305.42591,218.82626 302.59247,218.82626 C 299.75903,218.82626 297.46256,216.52838 297.4643,213.69494 C 297.46256,210.8615 299.75903,208.56362 302.59247,208.56362 C 305.42591,208.56362 307.72239,210.8615 307.72065,213.69494 z"/>
</svg>