<?xml version="1.0" encoding="UTF-8" standalone="no"?>
<!DOCTYPE svg PUBLIC "-//W3C//DTD SVG 1.1//EN" "http://www.w3.org/Graphics/SVG/1.1/DTD/svg11.dtd">
<svg width="600" height="480" viewBox="0 0 600 480" xmlns="http://www.w3.org/2000/svg" xmlns:xlink="http://www.w3.org/1999/xlink">

<desc>Produced by GNUPLOT 4.4 patchlevel 2 (Gentoo revision r1) </desc>
Authored by Charles A. Barr phancyphysicist@gmail.com
<defs>

	<circle id="gpDot" r="0.5" stroke-width="0.5"/>
	<path id="gpPt0" stroke-width="0.222" stroke="currentColor" d="M-1,0 h2 M0,-1 v2"/>
	<path id="gpPt1" stroke-width="0.222" stroke="currentColor" d="M-1,-1 L1,1 M1,-1 L-1,1"/>
	<path id="gpPt2" stroke-width="0.222" stroke="currentColor" d="M-1,0 L1,0 M0,-1 L0,1 M-1,-1 L1,1 M-1,1 L1,-1"/>
	<rect id="gpPt3" stroke-width="0.222" stroke="currentColor" x="-1" y="-1" width="2" height="2"/>
	<rect id="gpPt4" stroke-width="0.222" stroke="currentColor" fill="currentColor" x="-1" y="-1" width="2" height="2"/>
	<circle id="gpPt5" stroke-width="0.222" stroke="currentColor" cx="0" cy="0" r="1"/>
	<use xlink:href="#gpPt5" id="gpPt6" fill="currentColor" stroke="none"/>
	<path id="gpPt7" stroke-width="0.222" stroke="currentColor" d="M0,-1.33 L-1.33,0.67 L1.33,0.67 z"/>
	<use xlink:href="#gpPt7" id="gpPt8" fill="currentColor" stroke="none"/>
	<use xlink:href="#gpPt7" id="gpPt9" stroke="currentColor" transform="rotate(180)"/>
	<use xlink:href="#gpPt9" id="gpPt10" fill="currentColor" stroke="none"/>
	<use xlink:href="#gpPt3" id="gpPt11" stroke="currentColor" transform="rotate(45)"/>
	<use xlink:href="#gpPt11" id="gpPt12" fill="currentColor" stroke="none"/>
</defs>
<g style="fill:none; color:white; stroke:currentColor; stroke-width:1.00; stroke-linecap:butt; stroke-linejoin:miter">
</g>
<g style="fill:none; color:black; stroke:currentColor; stroke-width:1.00; stroke-linecap:butt; stroke-linejoin:miter">
	<path d="M80.2,422.4 L89.2,422.4 M575.0,422.4 L566.0,422.4 "/>
	<g transform="translate(71.9,426.9)" style="stroke:none; fill:black; font-family:Arial; font-size:12.00pt; text-anchor:end">
		<text><tspan> 0</tspan>
		</text>
	</g>
	<path d="M80.2,376.4 L89.2,376.4 M575.0,376.4 L566.0,376.4 "/>
	<g transform="translate(71.9,380.9)" style="stroke:none; fill:black; font-family:Arial; font-size:12.00pt; text-anchor:end">
		<text><tspan> 0.05</tspan>
		</text>
	</g>
	<path d="M80.2,330.3 L89.2,330.3 M575.0,330.3 L566.0,330.3 "/>
	<g transform="translate(71.9,334.8)" style="stroke:none; fill:black; font-family:Arial; font-size:12.00pt; text-anchor:end">
		<text><tspan> 0.1</tspan>
		</text>
	</g>
	<path d="M80.2,284.3 L89.2,284.3 M575.0,284.3 L566.0,284.3 "/>
	<g transform="translate(71.9,288.8)" style="stroke:none; fill:black; font-family:Arial; font-size:12.00pt; text-anchor:end">
		<text><tspan> 0.15</tspan>
		</text>
	</g>
	<path d="M80.2,238.2 L89.2,238.2 M575.0,238.2 L566.0,238.2 "/>
	<g transform="translate(71.9,242.7)" style="stroke:none; fill:black; font-family:Arial; font-size:12.00pt; text-anchor:end">
		<text><tspan> 0.2</tspan>
		</text>
	</g>
	<path d="M80.2,192.2 L89.2,192.2 M575.0,192.2 L566.0,192.2 "/>
	<g transform="translate(71.9,196.7)" style="stroke:none; fill:black; font-family:Arial; font-size:12.00pt; text-anchor:end">
		<text><tspan> 0.25</tspan>
		</text>
	</g>
	<path d="M80.2,146.2 L89.2,146.2 M575.0,146.2 L566.0,146.2 "/>
	<g transform="translate(71.9,150.7)" style="stroke:none; fill:black; font-family:Arial; font-size:12.00pt; text-anchor:end">
		<text><tspan> 0.3</tspan>
		</text>
	</g>
	<path d="M80.2,100.1 L89.2,100.1 M575.0,100.1 L566.0,100.1 "/>
	<g transform="translate(71.9,104.6)" style="stroke:none; fill:black; font-family:Arial; font-size:12.00pt; text-anchor:end">
		<text><tspan> 0.35</tspan>
		</text>
	</g>
	<path d="M80.2,54.1 L89.2,54.1 M575.0,54.1 L566.0,54.1 "/>
	<g transform="translate(71.9,58.6)" style="stroke:none; fill:black; font-family:Arial; font-size:12.00pt; text-anchor:end">
		<text><tspan> 0.4</tspan>
		</text>
	</g>
	<path d="M80.2,422.4 L80.2,413.4 M80.2,54.1 L80.2,63.1 "/>
	<g transform="translate(80.2,444.9)" style="stroke:none; fill:black; font-family:Arial; font-size:12.00pt; text-anchor:middle">
		<text><tspan> 0</tspan>
		</text>
	</g>
	<path d="M179.2,422.4 L179.2,413.4 M179.2,54.1 L179.2,63.1 "/>
	<g transform="translate(179.2,444.9)" style="stroke:none; fill:black; font-family:Arial; font-size:12.00pt; text-anchor:middle">
		<text><tspan> 0.2</tspan>
		</text>
	</g>
	<path d="M278.1,422.4 L278.1,413.4 M278.1,54.1 L278.1,63.1 "/>
	<g transform="translate(278.1,444.9)" style="stroke:none; fill:black; font-family:Arial; font-size:12.00pt; text-anchor:middle">
		<text><tspan> 0.4</tspan>
		</text>
	</g>
	<path d="M377.1,422.4 L377.1,413.4 M377.1,54.1 L377.1,63.1 "/>
	<g transform="translate(377.1,444.9)" style="stroke:none; fill:black; font-family:Arial; font-size:12.00pt; text-anchor:middle">
		<text><tspan> 0.6</tspan>
		</text>
	</g>
	<path d="M476.0,422.4 L476.0,413.4 M476.0,54.1 L476.0,63.1 "/>
	<g transform="translate(476.0,444.9)" style="stroke:none; fill:black; font-family:Arial; font-size:12.00pt; text-anchor:middle">
		<text><tspan> 0.8</tspan>
		</text>
	</g>
	<path d="M575.0,422.4 L575.0,413.4 M575.0,54.1 L575.0,63.1 "/>
	<g transform="translate(575.0,444.9)" style="stroke:none; fill:black; font-family:Arial; font-size:12.00pt; text-anchor:middle">
		<text><tspan> 1</tspan>
		</text>
	</g>
	<path d="M80.2,54.1 L80.2,422.4 L575.0,422.4 L575.0,54.1 L80.2,54.1 Z "/>
	<g transform="translate(17.6,238.3) rotate(270)" style="stroke:none; fill:black; font-family:Arial; font-size:12.00pt; text-anchor:middle">
		<text><tspan>Relative Error</tspan>
		</text>
	</g>
	<g transform="translate(327.6,471.9)" style="stroke:none; fill:black; font-family:Arial; font-size:12.00pt; text-anchor:middle">
		<text><tspan>Angle in Radians</tspan>
		</text>
	</g>
	<g transform="translate(327.6,31.6)" style="stroke:none; fill:black; font-family:Arial; font-size:12.00pt; text-anchor:middle">
		<text><tspan>A Comparison of Approximation Errors</tspan>
		</text>
	</g>
</g>
	<a xlink:title="Plot #1">
<g style="fill:none; color:red; stroke:currentColor; stroke-width:1.00; stroke-linecap:butt; stroke-linejoin:miter">
	<g transform="translate(254.5,76.6)" style="stroke:none; fill:black; font-family:Arial; font-size:12.00pt; text-anchor:end">
		<text><tspan>cos(x) Approx. Error</tspan>
		</text>
	</g>
	<path d="M262.8,72.1 L305.0,72.1 M80.2,422.4 L80.7,422.4 L81.2,422.4 L81.7,422.4 L82.2,422.4 L82.7,422.4    L83.2,422.4 L83.7,422.4 L84.2,422.4 L84.7,422.4 L85.2,422.4 L85.6,422.4 L86.1,422.4 L86.6,422.4    L87.1,422.4 L87.6,422.4 L88.1,422.4 L88.6,422.4 L89.1,422.4 L89.6,422.4 L90.1,422.4 L90.6,422.4    L91.1,422.4 L91.6,422.4 L92.1,422.4 L92.6,422.4 L93.1,422.4 L93.6,422.4 L94.1,422.4 L94.6,422.4    L95.1,422.4 L95.6,422.4 L96.0,422.4 L96.5,422.4 L97.0,422.4 L97.5,422.4 L98.0,422.4 L98.5,422.4    L99.0,422.4 L99.5,422.4 L100.0,422.4 L100.5,422.4 L101.0,422.4 L101.5,422.4 L102.0,422.4 L102.5,422.4    L103.0,422.4 L103.5,422.4 L104.0,422.4 L104.5,422.4 L105.0,422.4 L105.5,422.4 L106.0,422.4 L106.5,422.4    L106.9,422.4 L107.4,422.4 L107.9,422.4 L108.4,422.4 L108.9,422.4 L109.4,422.4 L109.9,422.4 L110.4,422.4    L110.9,422.4 L111.4,422.4 L111.9,422.4 L112.4,422.4 L112.9,422.4 L113.4,422.4 L113.9,422.4 L114.4,422.4    L114.9,422.4 L115.4,422.4 L115.9,422.4 L116.4,422.4 L116.9,422.4 L117.3,422.4 L117.8,422.4 L118.3,422.4    L118.8,422.4 L119.3,422.4 L119.8,422.4 L120.3,422.4 L120.8,422.4 L121.3,422.4 L121.8,422.4 L122.3,422.4    L122.8,422.4 L123.3,422.4 L123.8,422.4 L124.3,422.4 L124.8,422.4 L125.3,422.4 L125.8,422.4 L126.3,422.4    L126.8,422.4 L127.3,422.4 L127.7,422.4 L128.2,422.4 L128.7,422.4 L129.2,422.4 L129.7,422.4 L130.2,422.4    L130.7,422.4 L131.2,422.4 L131.7,422.4 L132.2,422.4 L132.7,422.4 L133.2,422.4 L133.7,422.4 L134.2,422.4    L134.7,422.4 L135.2,422.4 L135.7,422.4 L136.2,422.4 L136.7,422.4 L137.2,422.4 L137.7,422.4 L138.1,422.4    L138.6,422.4 L139.1,422.4 L139.6,422.4 L140.1,422.4 L140.6,422.4 L141.1,422.4 L141.6,422.4 L142.1,422.4    L142.6,422.4 L143.1,422.4 L143.6,422.4 L144.1,422.4 L144.6,422.4 L145.1,422.4 L145.6,422.4 L146.1,422.4    L146.6,422.4 L147.1,422.4 L147.6,422.4 L148.1,422.4 L148.6,422.4 L149.0,422.4 L149.5,422.4 L150.0,422.4    L150.5,422.4 L151.0,422.4 L151.5,422.4 L152.0,422.4 L152.5,422.4 L153.0,422.4 L153.5,422.4 L154.0,422.4    L154.5,422.4 L155.0,422.4 L155.5,422.4 L156.0,422.4 L156.5,422.4 L157.0,422.4 L157.5,422.4 L158.0,422.4    L158.5,422.4 L159.0,422.4 L159.4,422.4 L159.9,422.4 L160.4,422.4 L160.9,422.4 L161.4,422.4 L161.9,422.4    L162.4,422.4 L162.9,422.4 L163.4,422.4 L163.9,422.4 L164.4,422.4 L164.9,422.4 L165.4,422.4 L165.9,422.4    L166.4,422.4 L166.9,422.4 L167.4,422.4 L167.9,422.4 L168.4,422.4 L168.9,422.4 L169.4,422.4 L169.8,422.4    L170.3,422.4 L170.8,422.4 L171.3,422.4 L171.8,422.4 L172.3,422.4 L172.8,422.4 L173.3,422.4 L173.8,422.4    L174.3,422.3 L174.8,422.3 L175.3,422.3 L175.8,422.3 L176.3,422.3 L176.8,422.3 L177.3,422.3 L177.8,422.3    L178.3,422.3 L178.8,422.3 L179.3,422.3 L179.8,422.3 L180.2,422.3 L180.7,422.3 L181.2,422.3 L181.7,422.3    L182.2,422.3 L182.7,422.3 L183.2,422.3 L183.7,422.3 L184.2,422.3 L184.7,422.3 L185.2,422.3 L185.7,422.3    L186.2,422.3 L186.7,422.3 L187.2,422.3 L187.7,422.3 L188.2,422.3 L188.7,422.3 L189.2,422.3 L189.7,422.3    L190.2,422.3 L190.7,422.3 L191.1,422.3 L191.6,422.3 L192.1,422.3 L192.6,422.3 L193.1,422.3 L193.6,422.3    L194.1,422.3 L194.6,422.3 L195.1,422.3 L195.6,422.3 L196.1,422.3 L196.6,422.3 L197.1,422.3 L197.6,422.3    L198.1,422.3 L198.6,422.3 L199.1,422.3 L199.6,422.3 L200.1,422.3 L200.6,422.3 L201.1,422.3 L201.5,422.3    L202.0,422.3 L202.5,422.3 L203.0,422.2 L203.5,422.2 L204.0,422.2 L204.5,422.2 L205.0,422.2 L205.5,422.2    L206.0,422.2 L206.5,422.2 L207.0,422.2 L207.5,422.2 L208.0,422.2 L208.5,422.2 L209.0,422.2 L209.5,422.2    L210.0,422.2 L210.5,422.2 L211.0,422.2 L211.5,422.2 L211.9,422.2 L212.4,422.2 L212.9,422.2 L213.4,422.2    L213.9,422.2 L214.4,422.2 L214.9,422.2 L215.4,422.2 L215.9,422.2 L216.4,422.2 L216.9,422.2 L217.4,422.2    L217.9,422.2 L218.4,422.2 L218.9,422.2 L219.4,422.2 L219.9,422.1 L220.4,422.1 L220.9,422.1 L221.4,422.1    L221.9,422.1 L222.3,422.1 L222.8,422.1 L223.3,422.1 L223.8,422.1 L224.3,422.1 L224.8,422.1 L225.3,422.1    L225.8,422.1 L226.3,422.1 L226.8,422.1 L227.3,422.1 L227.8,422.1 L228.3,422.1 L228.8,422.1 L229.3,422.1    L229.8,422.1 L230.3,422.1 L230.8,422.1 L231.3,422.1 L231.8,422.0 L232.3,422.0 L232.8,422.0 L233.2,422.0    L233.7,422.0 L234.2,422.0 L234.7,422.0 L235.2,422.0 L235.7,422.0 L236.2,422.0 L236.7,422.0 L237.2,422.0    L237.7,422.0 L238.2,422.0 L238.7,422.0 L239.2,422.0 L239.7,422.0 L240.2,422.0 L240.7,422.0 L241.2,421.9    L241.7,421.9 L242.2,421.9 L242.7,421.9 L243.2,421.9 L243.6,421.9 L244.1,421.9 L244.6,421.9 L245.1,421.9    L245.6,421.9 L246.1,421.9 L246.6,421.9 L247.1,421.9 L247.6,421.9 L248.1,421.9 L248.6,421.9 L249.1,421.8    L249.6,421.8 L250.1,421.8 L250.6,421.8 L251.1,421.8 L251.6,421.8 L252.1,421.8 L252.6,421.8 L253.1,421.8    L253.6,421.8 L254.0,421.8 L254.5,421.8 L255.0,421.8 L255.5,421.8 L256.0,421.8 L256.5,421.7 L257.0,421.7    L257.5,421.7 L258.0,421.7 L258.5,421.7 L259.0,421.7 L259.5,421.7 L260.0,421.7 L260.5,421.7 L261.0,421.7    L261.5,421.7 L262.0,421.7 L262.5,421.6 L263.0,421.6 L263.5,421.6 L264.0,421.6 L264.4,421.6 L264.9,421.6    L265.4,421.6 L265.9,421.6 L266.4,421.6 L266.9,421.6 L267.4,421.6 L267.9,421.5 L268.4,421.5 L268.9,421.5    L269.4,421.5 L269.9,421.5 L270.4,421.5 L270.9,421.5 L271.4,421.5 L271.9,421.5 L272.4,421.5 L272.9,421.5    L273.4,421.4 L273.9,421.4 L274.4,421.4 L274.9,421.4 L275.3,421.4 L275.8,421.4 L276.3,421.4 L276.8,421.4    L277.3,421.4 L277.8,421.3 L278.3,421.3 L278.8,421.3 L279.3,421.3 L279.8,421.3 L280.3,421.3 L280.8,421.3    L281.3,421.3 L281.8,421.3 L282.3,421.2 L282.8,421.2 L283.3,421.2 L283.8,421.2 L284.3,421.2 L284.8,421.2    L285.3,421.2 L285.7,421.2 L286.2,421.1 L286.7,421.1 L287.2,421.1 L287.7,421.1 L288.2,421.1 L288.7,421.1    L289.2,421.1 L289.7,421.1 L290.2,421.0 L290.7,421.0 L291.2,421.0 L291.7,421.0 L292.2,421.0 L292.7,421.0    L293.2,421.0 L293.7,420.9 L294.2,420.9 L294.7,420.9 L295.2,420.9 L295.7,420.9 L296.1,420.9 L296.6,420.9    L297.1,420.8 L297.6,420.8 L298.1,420.8 L298.6,420.8 L299.1,420.8 L299.6,420.8 L300.1,420.8 L300.6,420.7    L301.1,420.7 L301.6,420.7 L302.1,420.7 L302.6,420.7 L303.1,420.7 L303.6,420.6 L304.1,420.6 L304.6,420.6    L305.1,420.6 L305.6,420.6 L306.1,420.6 L306.5,420.5 L307.0,420.5 L307.5,420.5 L308.0,420.5 L308.5,420.5    L309.0,420.5 L309.5,420.4 L310.0,420.4 L310.5,420.4 L311.0,420.4 L311.5,420.4 L312.0,420.3 L312.5,420.3    L313.0,420.3 L313.5,420.3 L314.0,420.3 L314.5,420.2 L315.0,420.2 L315.5,420.2 L316.0,420.2 L316.5,420.2    L317.0,420.2 L317.4,420.1 L317.9,420.1 L318.4,420.1 L318.9,420.1 L319.4,420.1 L319.9,420.0 L320.4,420.0    L320.9,420.0 L321.4,420.0 L321.9,419.9 L322.4,419.9 L322.9,419.9 L323.4,419.9 L323.9,419.9 L324.4,419.8    L324.9,419.8 L325.4,419.8 L325.9,419.8 L326.4,419.7 L326.9,419.7 L327.4,419.7 L327.8,419.7 L328.3,419.7    L328.8,419.6 L329.3,419.6 L329.8,419.6 L330.3,419.6 L330.8,419.5 L331.3,419.5 L331.8,419.5 L332.3,419.5    L332.8,419.4 L333.3,419.4 L333.8,419.4 L334.3,419.4 L334.8,419.3 L335.3,419.3 L335.8,419.3 L336.3,419.3    L336.8,419.2 L337.3,419.2 L337.8,419.2 L338.2,419.2 L338.7,419.1 L339.2,419.1 L339.7,419.1 L340.2,419.0    L340.7,419.0 L341.2,419.0 L341.7,419.0 L342.2,418.9 L342.7,418.9 L343.2,418.9 L343.7,418.9 L344.2,418.8    L344.7,418.8 L345.2,418.8 L345.7,418.7 L346.2,418.7 L346.7,418.7 L347.2,418.6 L347.7,418.6 L348.2,418.6    L348.7,418.6 L349.1,418.5 L349.6,418.5 L350.1,418.5 L350.6,418.4 L351.1,418.4 L351.6,418.4 L352.1,418.3    L352.6,418.3 L353.1,418.3 L353.6,418.2 L354.1,418.2 L354.6,418.2 L355.1,418.1 L355.6,418.1 L356.1,418.1    L356.6,418.0 L357.1,418.0 L357.6,418.0 L358.1,417.9 L358.6,417.9 L359.1,417.9 L359.5,417.8 L360.0,417.8    L360.5,417.8 L361.0,417.7 L361.5,417.7 L362.0,417.7 L362.5,417.6 L363.0,417.6 L363.5,417.5 L364.0,417.5    L364.5,417.5 L365.0,417.4 L365.5,417.4 L366.0,417.4 L366.5,417.3 L367.0,417.3 L367.5,417.2 L368.0,417.2    L368.5,417.2 L369.0,417.1 L369.5,417.1 L369.9,417.0 L370.4,417.0 L370.9,417.0 L371.4,416.9 L371.9,416.9    L372.4,416.8 L372.9,416.8 L373.4,416.8 L373.9,416.7 L374.4,416.7 L374.9,416.6 L375.4,416.6 L375.9,416.6    L376.4,416.5 L376.9,416.5 L377.4,416.4 L377.9,416.4 L378.4,416.3 L378.9,416.3 L379.4,416.2 L379.9,416.2    L380.3,416.2 L380.8,416.1 L381.3,416.1 L381.8,416.0 L382.3,416.0 L382.8,415.9 L383.3,415.9 L383.8,415.8    L384.3,415.8 L384.8,415.7 L385.3,415.7 L385.8,415.6 L386.3,415.6 L386.8,415.5 L387.3,415.5 L387.8,415.4    L388.3,415.4 L388.8,415.3 L389.3,415.3 L389.8,415.2 L390.3,415.2 L390.8,415.1 L391.2,415.1 L391.7,415.0    L392.2,415.0 L392.7,414.9 L393.2,414.9 L393.7,414.8 L394.2,414.8 L394.7,414.7 L395.2,414.7 L395.7,414.6    L396.2,414.6 L396.7,414.5 L397.2,414.4 L397.7,414.4 L398.2,414.3 L398.7,414.3 L399.2,414.2 L399.7,414.2    L400.2,414.1 L400.7,414.1 L401.2,414.0 L401.6,413.9 L402.1,413.9 L402.6,413.8 L403.1,413.8 L403.6,413.7    L404.1,413.6 L404.6,413.6 L405.1,413.5 L405.6,413.5 L406.1,413.4 L406.6,413.3 L407.1,413.3 L407.6,413.2    L408.1,413.2 L408.6,413.1 L409.1,413.0 L409.6,413.0 L410.1,412.9 L410.6,412.8 L411.1,412.8 L411.6,412.7    L412.0,412.6 L412.5,412.6 L413.0,412.5 L413.5,412.4 L414.0,412.4 L414.5,412.3 L415.0,412.2 L415.5,412.2    L416.0,412.1 L416.5,412.0 L417.0,412.0 L417.5,411.9 L418.0,411.8 L418.5,411.8 L419.0,411.7 L419.5,411.6    L420.0,411.5 L420.5,411.5 L421.0,411.4 L421.5,411.3 L422.0,411.3 L422.4,411.2 L422.9,411.1 L423.4,411.0    L423.9,411.0 L424.4,410.9 L424.9,410.8 L425.4,410.7 L425.9,410.7 L426.4,410.6 L426.9,410.5 L427.4,410.4    L427.9,410.3 L428.4,410.3 L428.9,410.2 L429.4,410.1 L429.9,410.0 L430.4,409.9 L430.9,409.9 L431.4,409.8    L431.9,409.7 L432.4,409.6 L432.9,409.5 L433.3,409.5 L433.8,409.4 L434.3,409.3 L434.8,409.2 L435.3,409.1    L435.8,409.0 L436.3,408.9 L436.8,408.9 L437.3,408.8 L437.8,408.7 L438.3,408.6 L438.8,408.5 L439.3,408.4    L439.8,408.3 L440.3,408.2 L440.8,408.2 L441.3,408.1 L441.8,408.0 L442.3,407.9 L442.8,407.8 L443.3,407.7    L443.7,407.6 L444.2,407.5 L444.7,407.4 L445.2,407.3 L445.7,407.2 L446.2,407.1 L446.7,407.0 L447.2,406.9    L447.7,406.8 L448.2,406.7 L448.7,406.6 L449.2,406.5 L449.7,406.4 L450.2,406.3 L450.7,406.2 L451.2,406.1    L451.7,406.0 L452.2,405.9 L452.7,405.8 L453.2,405.7 L453.7,405.6 L454.1,405.5 L454.6,405.4 L455.1,405.3    L455.6,405.2 L456.1,405.1 L456.6,405.0 L457.1,404.9 L457.6,404.8 L458.1,404.7 L458.6,404.6 L459.1,404.5    L459.6,404.3 L460.1,404.2 L460.6,404.1 L461.1,404.0 L461.6,403.9 L462.1,403.8 L462.6,403.7 L463.1,403.6    L463.6,403.4 L464.1,403.3 L464.5,403.2 L465.0,403.1 L465.5,403.0 L466.0,402.9 L466.5,402.7 L467.0,402.6    L467.5,402.5 L468.0,402.4 L468.5,402.3 L469.0,402.1 L469.5,402.0 L470.0,401.9 L470.5,401.8 L471.0,401.6    L471.5,401.5 L472.0,401.4 L472.5,401.3 L473.0,401.1 L473.5,401.0 L474.0,400.9 L474.5,400.7 L475.0,400.6    L475.4,400.5 L475.9,400.3 L476.4,400.2 L476.9,400.1 L477.4,399.9 L477.9,399.8 L478.4,399.7 L478.9,399.5    L479.4,399.4 L479.9,399.3 L480.4,399.1 L480.9,399.0 L481.4,398.9 L481.9,398.7 L482.4,398.6 L482.9,398.4    L483.4,398.3 L483.9,398.1 L484.4,398.0 L484.9,397.9 L485.4,397.7 L485.8,397.6 L486.3,397.4 L486.8,397.3    L487.3,397.1 L487.8,397.0 L488.3,396.8 L488.8,396.7 L489.3,396.5 L489.8,396.4 L490.3,396.2 L490.8,396.1    L491.3,395.9 L491.8,395.7 L492.3,395.6 L492.8,395.4 L493.3,395.3 L493.8,395.1 L494.3,395.0 L494.8,394.8    L495.3,394.6 L495.8,394.5 L496.2,394.3 L496.7,394.1 L497.2,394.0 L497.7,393.8 L498.2,393.6 L498.7,393.5    L499.2,393.3 L499.7,393.1 L500.2,393.0 L500.7,392.8 L501.2,392.6 L501.7,392.5 L502.2,392.3 L502.7,392.1    L503.2,391.9 L503.7,391.8 L504.2,391.6 L504.7,391.4 L505.2,391.2 L505.7,391.0 L506.2,390.9 L506.6,390.7    L507.1,390.5 L507.6,390.3 L508.1,390.1 L508.6,389.9 L509.1,389.8 L509.6,389.6 L510.1,389.4 L510.6,389.2    L511.1,389.0 L511.6,388.8 L512.1,388.6 L512.6,388.4 L513.1,388.2 L513.6,388.0 L514.1,387.8 L514.6,387.6    L515.1,387.4 L515.6,387.2 L516.1,387.0 L516.6,386.8 L517.1,386.6 L517.5,386.4 L518.0,386.2 L518.5,386.0    L519.0,385.8 L519.5,385.6 L520.0,385.4 L520.5,385.2 L521.0,385.0 L521.5,384.8 L522.0,384.5 L522.5,384.3    L523.0,384.1 L523.5,383.9 L524.0,383.7 L524.5,383.4 L525.0,383.2 L525.5,383.0 L526.0,382.8 L526.5,382.6    L527.0,382.3 L527.5,382.1 L527.9,381.9 L528.4,381.6 L528.9,381.4 L529.4,381.2 L529.9,381.0 L530.4,380.7    L530.9,380.5 L531.4,380.3 L531.9,380.0 L532.4,379.8 L532.9,379.5 L533.4,379.3 L533.9,379.0 L534.4,378.8    L534.9,378.6 L535.4,378.3 L535.9,378.1 L536.4,377.8 L536.9,377.6 L537.4,377.3 L537.9,377.1 L538.3,376.8    L538.8,376.6 L539.3,376.3 L539.8,376.0 L540.3,375.8 L540.8,375.5 L541.3,375.3 L541.8,375.0 L542.3,374.7    L542.8,374.5 L543.3,374.2 L543.8,373.9 L544.3,373.6 L544.8,373.4 L545.3,373.1 L545.8,372.8 L546.3,372.6    L546.8,372.3 L547.3,372.0 L547.8,371.7 L548.3,371.4 L548.7,371.1 L549.2,370.9 L549.7,370.6 L550.2,370.3    L550.7,370.0 L551.2,369.7 L551.7,369.4 L552.2,369.1 L552.7,368.8 L553.2,368.5 L553.7,368.2 L554.2,367.9    L554.7,367.6 L555.2,367.3 L555.7,367.0 L556.2,366.7 L556.7,366.4 L557.2,366.1 L557.7,365.8 L558.2,365.5    L558.7,365.1 L559.2,364.8 L559.6,364.5 L560.1,364.2 L560.6,363.9 L561.1,363.5 L561.6,363.2 L562.1,362.9    L562.6,362.6 L563.1,362.2 L563.6,361.9 L564.1,361.6 L564.6,361.2 L565.1,360.9 L565.6,360.5 L566.1,360.2    L566.6,359.9 L567.1,359.5 L567.6,359.2 L568.1,358.8 L568.6,358.5 L569.1,358.1 L569.6,357.8 L570.0,357.4    L570.5,357.0 L571.0,356.7 L571.5,356.3 L572.0,355.9 L572.5,355.6 L573.0,355.2 L573.5,354.8 L574.0,354.5    L574.5,354.1 L575.0,353.7 "/>
</g>
	</a>
	<a xlink:title="Plot #2">
<g style="fill:none; color:green; stroke:currentColor; stroke-width:1.00; stroke-linecap:butt; stroke-linejoin:miter">
	<g transform="translate(254.5,94.6)" style="stroke:none; fill:black; font-family:Arial; font-size:12.00pt; text-anchor:end">
		<text><tspan>sin(x) Approx. Error</tspan>
		</text>
	</g>
	<path d="M262.8,90.1 L305.0,90.1 M80.7,422.4 L81.2,422.4 L81.7,422.4 L82.2,422.4 L82.7,422.4 L83.2,422.4    L83.7,422.4 L84.2,422.4 L84.7,422.4 L85.2,422.4 L85.6,422.4 L86.1,422.4 L86.6,422.4 L87.1,422.4    L87.6,422.4 L88.1,422.4 L88.6,422.4 L89.1,422.4 L89.6,422.3 L90.1,422.3 L90.6,422.3 L91.1,422.3    L91.6,422.3 L92.1,422.3 L92.6,422.3 L93.1,422.3 L93.6,422.3 L94.1,422.3 L94.6,422.3 L95.1,422.3    L95.6,422.3 L96.0,422.2 L96.5,422.2 L97.0,422.2 L97.5,422.2 L98.0,422.2 L98.5,422.2 L99.0,422.2    L99.5,422.2 L100.0,422.2 L100.5,422.1 L101.0,422.1 L101.5,422.1 L102.0,422.1 L102.5,422.1 L103.0,422.1    L103.5,422.1 L104.0,422.0 L104.5,422.0 L105.0,422.0 L105.5,422.0 L106.0,422.0 L106.5,422.0 L106.9,422.0    L107.4,421.9 L107.9,421.9 L108.4,421.9 L108.9,421.9 L109.4,421.9 L109.9,421.8 L110.4,421.8 L110.9,421.8    L111.4,421.8 L111.9,421.8 L112.4,421.8 L112.9,421.7 L113.4,421.7 L113.9,421.7 L114.4,421.7 L114.9,421.6    L115.4,421.6 L115.9,421.6 L116.4,421.6 L116.9,421.6 L117.3,421.5 L117.8,421.5 L118.3,421.5 L118.8,421.5    L119.3,421.4 L119.8,421.4 L120.3,421.4 L120.8,421.4 L121.3,421.3 L121.8,421.3 L122.3,421.3 L122.8,421.3    L123.3,421.2 L123.8,421.2 L124.3,421.2 L124.8,421.2 L125.3,421.1 L125.8,421.1 L126.3,421.1 L126.8,421.0    L127.3,421.0 L127.7,421.0 L128.2,421.0 L128.7,420.9 L129.2,420.9 L129.7,420.9 L130.2,420.8 L130.7,420.8    L131.2,420.8 L131.7,420.7 L132.2,420.7 L132.7,420.7 L133.2,420.6 L133.7,420.6 L134.2,420.6 L134.7,420.5    L135.2,420.5 L135.7,420.5 L136.2,420.4 L136.7,420.4 L137.2,420.4 L137.7,420.3 L138.1,420.3 L138.6,420.3    L139.1,420.2 L139.6,420.2 L140.1,420.1 L140.6,420.1 L141.1,420.1 L141.6,420.0 L142.1,420.0 L142.6,420.0    L143.1,419.9 L143.6,419.9 L144.1,419.8 L144.6,419.8 L145.1,419.8 L145.6,419.7 L146.1,419.7 L146.6,419.6    L147.1,419.6 L147.6,419.5 L148.1,419.5 L148.6,419.5 L149.0,419.4 L149.5,419.4 L150.0,419.3 L150.5,419.3    L151.0,419.2 L151.5,419.2 L152.0,419.2 L152.5,419.1 L153.0,419.1 L153.5,419.0 L154.0,419.0 L154.5,418.9    L155.0,418.9 L155.5,418.8 L156.0,418.8 L156.5,418.7 L157.0,418.7 L157.5,418.6 L158.0,418.6 L158.5,418.6    L159.0,418.5 L159.4,418.5 L159.9,418.4 L160.4,418.4 L160.9,418.3 L161.4,418.3 L161.9,418.2 L162.4,418.1    L162.9,418.1 L163.4,418.0 L163.9,418.0 L164.4,417.9 L164.9,417.9 L165.4,417.8 L165.9,417.8 L166.4,417.7    L166.9,417.7 L167.4,417.6 L167.9,417.6 L168.4,417.5 L168.9,417.5 L169.4,417.4 L169.8,417.3 L170.3,417.3    L170.8,417.2 L171.3,417.2 L171.8,417.1 L172.3,417.1 L172.8,417.0 L173.3,416.9 L173.8,416.9 L174.3,416.8    L174.8,416.8 L175.3,416.7 L175.8,416.6 L176.3,416.6 L176.8,416.5 L177.3,416.5 L177.8,416.4 L178.3,416.3    L178.8,416.3 L179.3,416.2 L179.8,416.2 L180.2,416.1 L180.7,416.0 L181.2,416.0 L181.7,415.9 L182.2,415.8    L182.7,415.8 L183.2,415.7 L183.7,415.6 L184.2,415.6 L184.7,415.5 L185.2,415.5 L185.7,415.4 L186.2,415.3    L186.7,415.3 L187.2,415.2 L187.7,415.1 L188.2,415.1 L188.7,415.0 L189.2,414.9 L189.7,414.8 L190.2,414.8    L190.7,414.7 L191.1,414.6 L191.6,414.6 L192.1,414.5 L192.6,414.4 L193.1,414.4 L193.6,414.3 L194.1,414.2    L194.6,414.1 L195.1,414.1 L195.6,414.0 L196.1,413.9 L196.6,413.9 L197.1,413.8 L197.6,413.7 L198.1,413.6    L198.6,413.6 L199.1,413.5 L199.6,413.4 L200.1,413.3 L200.6,413.3 L201.1,413.2 L201.5,413.1 L202.0,413.0    L202.5,413.0 L203.0,412.9 L203.5,412.8 L204.0,412.7 L204.5,412.6 L205.0,412.6 L205.5,412.5 L206.0,412.4    L206.5,412.3 L207.0,412.2 L207.5,412.2 L208.0,412.1 L208.5,412.0 L209.0,411.9 L209.5,411.8 L210.0,411.8    L210.5,411.7 L211.0,411.6 L211.5,411.5 L211.9,411.4 L212.4,411.3 L212.9,411.3 L213.4,411.2 L213.9,411.1    L214.4,411.0 L214.9,410.9 L215.4,410.8 L215.9,410.8 L216.4,410.7 L216.9,410.6 L217.4,410.5 L217.9,410.4    L218.4,410.3 L218.9,410.2 L219.4,410.1 L219.9,410.1 L220.4,410.0 L220.9,409.9 L221.4,409.8 L221.9,409.7    L222.3,409.6 L222.8,409.5 L223.3,409.4 L223.8,409.3 L224.3,409.2 L224.8,409.2 L225.3,409.1 L225.8,409.0    L226.3,408.9 L226.8,408.8 L227.3,408.7 L227.8,408.6 L228.3,408.5 L228.8,408.4 L229.3,408.3 L229.8,408.2    L230.3,408.1 L230.8,408.0 L231.3,407.9 L231.8,407.8 L232.3,407.7 L232.8,407.6 L233.2,407.6 L233.7,407.5    L234.2,407.4 L234.7,407.3 L235.2,407.2 L235.7,407.1 L236.2,407.0 L236.7,406.9 L237.2,406.8 L237.7,406.7    L238.2,406.6 L238.7,406.5 L239.2,406.4 L239.7,406.3 L240.2,406.2 L240.7,406.1 L241.2,406.0 L241.7,405.9    L242.2,405.8 L242.7,405.6 L243.2,405.5 L243.6,405.4 L244.1,405.3 L244.6,405.2 L245.1,405.1 L245.6,405.0    L246.1,404.9 L246.6,404.8 L247.1,404.7 L247.6,404.6 L248.1,404.5 L248.6,404.4 L249.1,404.3 L249.6,404.2    L250.1,404.1 L250.6,403.9 L251.1,403.8 L251.6,403.7 L252.1,403.6 L252.6,403.5 L253.1,403.4 L253.6,403.3    L254.0,403.2 L254.5,403.1 L255.0,403.0 L255.5,402.8 L256.0,402.7 L256.5,402.6 L257.0,402.5 L257.5,402.4    L258.0,402.3 L258.5,402.2 L259.0,402.1 L259.5,401.9 L260.0,401.8 L260.5,401.7 L261.0,401.6 L261.5,401.5    L262.0,401.4 L262.5,401.2 L263.0,401.1 L263.5,401.0 L264.0,400.9 L264.4,400.8 L264.9,400.7 L265.4,400.5    L265.9,400.4 L266.4,400.3 L266.9,400.2 L267.4,400.1 L267.9,399.9 L268.4,399.8 L268.9,399.7 L269.4,399.6    L269.9,399.5 L270.4,399.3 L270.9,399.2 L271.4,399.1 L271.9,399.0 L272.4,398.8 L272.9,398.7 L273.4,398.6    L273.9,398.5 L274.4,398.3 L274.9,398.2 L275.3,398.1 L275.8,398.0 L276.3,397.8 L276.8,397.7 L277.3,397.6    L277.8,397.5 L278.3,397.3 L278.8,397.2 L279.3,397.1 L279.8,396.9 L280.3,396.8 L280.8,396.7 L281.3,396.6    L281.8,396.4 L282.3,396.3 L282.8,396.2 L283.3,396.0 L283.8,395.9 L284.3,395.8 L284.8,395.6 L285.3,395.5    L285.7,395.4 L286.2,395.2 L286.7,395.1 L287.2,395.0 L287.7,394.8 L288.2,394.7 L288.7,394.6 L289.2,394.4    L289.7,394.3 L290.2,394.2 L290.7,394.0 L291.2,393.9 L291.7,393.8 L292.2,393.6 L292.7,393.5 L293.2,393.3    L293.7,393.2 L294.2,393.1 L294.7,392.9 L295.2,392.8 L295.7,392.6 L296.1,392.5 L296.6,392.4 L297.1,392.2    L297.6,392.1 L298.1,391.9 L298.6,391.8 L299.1,391.7 L299.6,391.5 L300.1,391.4 L300.6,391.2 L301.1,391.1    L301.6,390.9 L302.1,390.8 L302.6,390.7 L303.1,390.5 L303.6,390.4 L304.1,390.2 L304.6,390.1 L305.1,389.9    L305.6,389.8 L306.1,389.6 L306.5,389.5 L307.0,389.3 L307.5,389.2 L308.0,389.0 L308.5,388.9 L309.0,388.7    L309.5,388.6 L310.0,388.4 L310.5,388.3 L311.0,388.1 L311.5,388.0 L312.0,387.8 L312.5,387.7 L313.0,387.5    L313.5,387.4 L314.0,387.2 L314.5,387.1 L315.0,386.9 L315.5,386.8 L316.0,386.6 L316.5,386.5 L317.0,386.3    L317.4,386.2 L317.9,386.0 L318.4,385.8 L318.9,385.7 L319.4,385.5 L319.9,385.4 L320.4,385.2 L320.9,385.1    L321.4,384.9 L321.9,384.7 L322.4,384.6 L322.9,384.4 L323.4,384.3 L323.9,384.1 L324.4,383.9 L324.9,383.8    L325.4,383.6 L325.9,383.5 L326.4,383.3 L326.9,383.1 L327.4,383.0 L327.8,382.8 L328.3,382.6 L328.8,382.5    L329.3,382.3 L329.8,382.1 L330.3,382.0 L330.8,381.8 L331.3,381.7 L331.8,381.5 L332.3,381.3 L332.8,381.2    L333.3,381.0 L333.8,380.8 L334.3,380.7 L334.8,380.5 L335.3,380.3 L335.8,380.1 L336.3,380.0 L336.8,379.8    L337.3,379.6 L337.8,379.5 L338.2,379.3 L338.7,379.1 L339.2,379.0 L339.7,378.8 L340.2,378.6 L340.7,378.4    L341.2,378.3 L341.7,378.1 L342.2,377.9 L342.7,377.7 L343.2,377.6 L343.7,377.4 L344.2,377.2 L344.7,377.0    L345.2,376.9 L345.7,376.7 L346.2,376.5 L346.7,376.3 L347.2,376.2 L347.7,376.0 L348.2,375.8 L348.7,375.6    L349.1,375.4 L349.6,375.3 L350.1,375.1 L350.6,374.9 L351.1,374.7 L351.6,374.5 L352.1,374.4 L352.6,374.2    L353.1,374.0 L353.6,373.8 L354.1,373.6 L354.6,373.5 L355.1,373.3 L355.6,373.1 L356.1,372.9 L356.6,372.7    L357.1,372.5 L357.6,372.4 L358.1,372.2 L358.6,372.0 L359.1,371.8 L359.5,371.6 L360.0,371.4 L360.5,371.2    L361.0,371.0 L361.5,370.9 L362.0,370.7 L362.5,370.5 L363.0,370.3 L363.5,370.1 L364.0,369.9 L364.5,369.7    L365.0,369.5 L365.5,369.3 L366.0,369.1 L366.5,368.9 L367.0,368.8 L367.5,368.6 L368.0,368.4 L368.5,368.2    L369.0,368.0 L369.5,367.8 L369.9,367.6 L370.4,367.4 L370.9,367.2 L371.4,367.0 L371.9,366.8 L372.4,366.6    L372.9,366.4 L373.4,366.2 L373.9,366.0 L374.4,365.8 L374.9,365.6 L375.4,365.4 L375.9,365.2 L376.4,365.0    L376.9,364.8 L377.4,364.6 L377.9,364.4 L378.4,364.2 L378.9,364.0 L379.4,363.8 L379.9,363.6 L380.3,363.4    L380.8,363.2 L381.3,363.0 L381.8,362.8 L382.3,362.6 L382.8,362.4 L383.3,362.2 L383.8,362.0 L384.3,361.8    L384.8,361.6 L385.3,361.4 L385.8,361.1 L386.3,360.9 L386.8,360.7 L387.3,360.5 L387.8,360.3 L388.3,360.1    L388.8,359.9 L389.3,359.7 L389.8,359.5 L390.3,359.3 L390.8,359.1 L391.2,358.8 L391.7,358.6 L392.2,358.4    L392.7,358.2 L393.2,358.0 L393.7,357.8 L394.2,357.6 L394.7,357.3 L395.2,357.1 L395.7,356.9 L396.2,356.7    L396.7,356.5 L397.2,356.3 L397.7,356.0 L398.2,355.8 L398.7,355.6 L399.2,355.4 L399.7,355.2 L400.2,355.0    L400.7,354.7 L401.2,354.5 L401.6,354.3 L402.1,354.1 L402.6,353.9 L403.1,353.6 L403.6,353.4 L404.1,353.2    L404.6,353.0 L405.1,352.7 L405.6,352.5 L406.1,352.3 L406.6,352.1 L407.1,351.8 L407.6,351.6 L408.1,351.4    L408.6,351.2 L409.1,350.9 L409.6,350.7 L410.1,350.5 L410.6,350.3 L411.1,350.0 L411.6,349.8 L412.0,349.6    L412.5,349.3 L413.0,349.1 L413.5,348.9 L414.0,348.7 L414.5,348.4 L415.0,348.2 L415.5,348.0 L416.0,347.7    L416.5,347.5 L417.0,347.3 L417.5,347.0 L418.0,346.8 L418.5,346.6 L419.0,346.3 L419.5,346.1 L420.0,345.8    L420.5,345.6 L421.0,345.4 L421.5,345.1 L422.0,344.9 L422.4,344.7 L422.9,344.4 L423.4,344.2 L423.9,343.9    L424.4,343.7 L424.9,343.5 L425.4,343.2 L425.9,343.0 L426.4,342.7 L426.9,342.5 L427.4,342.3 L427.9,342.0    L428.4,341.8 L428.9,341.5 L429.4,341.3 L429.9,341.0 L430.4,340.8 L430.9,340.6 L431.4,340.3 L431.9,340.1    L432.4,339.8 L432.9,339.6 L433.3,339.3 L433.8,339.1 L434.3,338.8 L434.8,338.6 L435.3,338.3 L435.8,338.1    L436.3,337.8 L436.8,337.6 L437.3,337.3 L437.8,337.1 L438.3,336.8 L438.8,336.6 L439.3,336.3 L439.8,336.1    L440.3,335.8 L440.8,335.6 L441.3,335.3 L441.8,335.0 L442.3,334.8 L442.8,334.5 L443.3,334.3 L443.7,334.0    L444.2,333.8 L444.7,333.5 L445.2,333.3 L445.7,333.0 L446.2,332.7 L446.7,332.5 L447.2,332.2 L447.7,332.0    L448.2,331.7 L448.7,331.4 L449.2,331.2 L449.7,330.9 L450.2,330.7 L450.7,330.4 L451.2,330.1 L451.7,329.9    L452.2,329.6 L452.7,329.3 L453.2,329.1 L453.7,328.8 L454.1,328.5 L454.6,328.3 L455.1,328.0 L455.6,327.7    L456.1,327.5 L456.6,327.2 L457.1,326.9 L457.6,326.7 L458.1,326.4 L458.6,326.1 L459.1,325.9 L459.6,325.6    L460.1,325.3 L460.6,325.0 L461.1,324.8 L461.6,324.5 L462.1,324.2 L462.6,323.9 L463.1,323.7 L463.6,323.4    L464.1,323.1 L464.5,322.8 L465.0,322.6 L465.5,322.3 L466.0,322.0 L466.5,321.7 L467.0,321.5 L467.5,321.2    L468.0,320.9 L468.5,320.6 L469.0,320.3 L469.5,320.1 L470.0,319.8 L470.5,319.5 L471.0,319.2 L471.5,318.9    L472.0,318.7 L472.5,318.4 L473.0,318.1 L473.5,317.8 L474.0,317.5 L474.5,317.2 L475.0,317.0 L475.4,316.7    L475.9,316.4 L476.4,316.1 L476.9,315.8 L477.4,315.5 L477.9,315.2 L478.4,314.9 L478.9,314.7 L479.4,314.4    L479.9,314.1 L480.4,313.8 L480.9,313.5 L481.4,313.2 L481.9,312.9 L482.4,312.6 L482.9,312.3 L483.4,312.0    L483.9,311.7 L484.4,311.4 L484.9,311.1 L485.4,310.9 L485.8,310.6 L486.3,310.3 L486.8,310.0 L487.3,309.7    L487.8,309.4 L488.3,309.1 L488.8,308.8 L489.3,308.5 L489.8,308.2 L490.3,307.9 L490.8,307.6 L491.3,307.3    L491.8,307.0 L492.3,306.7 L492.8,306.4 L493.3,306.1 L493.8,305.8 L494.3,305.5 L494.8,305.2 L495.3,304.8    L495.8,304.5 L496.2,304.2 L496.7,303.9 L497.2,303.6 L497.7,303.3 L498.2,303.0 L498.7,302.7 L499.2,302.4    L499.7,302.1 L500.2,301.8 L500.7,301.5 L501.2,301.1 L501.7,300.8 L502.2,300.5 L502.7,300.2 L503.2,299.9    L503.7,299.6 L504.2,299.3 L504.7,299.0 L505.2,298.6 L505.7,298.3 L506.2,298.0 L506.6,297.7 L507.1,297.4    L507.6,297.1 L508.1,296.7 L508.6,296.4 L509.1,296.1 L509.6,295.8 L510.1,295.5 L510.6,295.1 L511.1,294.8    L511.6,294.5 L512.1,294.2 L512.6,293.9 L513.1,293.5 L513.6,293.2 L514.1,292.9 L514.6,292.6 L515.1,292.2    L515.6,291.9 L516.1,291.6 L516.6,291.3 L517.1,290.9 L517.5,290.6 L518.0,290.3 L518.5,289.9 L519.0,289.6    L519.5,289.3 L520.0,289.0 L520.5,288.6 L521.0,288.3 L521.5,288.0 L522.0,287.6 L522.5,287.3 L523.0,287.0    L523.5,286.6 L524.0,286.3 L524.5,286.0 L525.0,285.6 L525.5,285.3 L526.0,285.0 L526.5,284.6 L527.0,284.3    L527.5,283.9 L527.9,283.6 L528.4,283.3 L528.9,282.9 L529.4,282.6 L529.9,282.2 L530.4,281.9 L530.9,281.6    L531.4,281.2 L531.9,280.9 L532.4,280.5 L532.9,280.2 L533.4,279.8 L533.9,279.5 L534.4,279.2 L534.9,278.8    L535.4,278.5 L535.9,278.1 L536.4,277.8 L536.9,277.4 L537.4,277.1 L537.9,276.7 L538.3,276.4 L538.8,276.0    L539.3,275.7 L539.8,275.3 L540.3,275.0 L540.8,274.6 L541.3,274.3 L541.8,273.9 L542.3,273.6 L542.8,273.2    L543.3,272.8 L543.8,272.5 L544.3,272.1 L544.8,271.8 L545.3,271.4 L545.8,271.1 L546.3,270.7 L546.8,270.3    L547.3,270.0 L547.8,269.6 L548.3,269.3 L548.7,268.9 L549.2,268.5 L549.7,268.2 L550.2,267.8 L550.7,267.4    L551.2,267.1 L551.7,266.7 L552.2,266.4 L552.7,266.0 L553.2,265.6 L553.7,265.3 L554.2,264.9 L554.7,264.5    L555.2,264.1 L555.7,263.8 L556.2,263.4 L556.7,263.0 L557.2,262.7 L557.7,262.3 L558.2,261.9 L558.7,261.6    L559.2,261.2 L559.6,260.8 L560.1,260.4 L560.6,260.1 L561.1,259.7 L561.6,259.3 L562.1,258.9 L562.6,258.6    L563.1,258.2 L563.6,257.8 L564.1,257.4 L564.6,257.0 L565.1,256.7 L565.6,256.3 L566.1,255.9 L566.6,255.5    L567.1,255.1 L567.6,254.7 L568.1,254.4 L568.6,254.0 L569.1,253.6 L569.6,253.2 L570.0,252.8 L570.5,252.4    L571.0,252.1 L571.5,251.7 L572.0,251.3 L572.5,250.9 L573.0,250.5 L573.5,250.1 L574.0,249.7 L574.5,249.3    L575.0,248.9 "/>
</g>
	</a>
	<a xlink:title="Plot #3">
<g style="fill:none; color:blue; stroke:currentColor; stroke-width:1.00; stroke-linecap:butt; stroke-linejoin:miter">
	<g transform="translate(254.5,112.6)" style="stroke:none; fill:black; font-family:Arial; font-size:12.00pt; text-anchor:end">
		<text><tspan>tan(x) Approx. Error</tspan>
		</text>
	</g>
	<path d="M262.8,108.1 L305.0,108.1 M80.7,422.4 L81.2,422.4 L81.7,422.4 L82.2,422.4 L82.7,422.4 L83.2,422.4    L83.7,422.4 L84.2,422.4 L84.7,422.4 L85.2,422.4 L85.6,422.4 L86.1,422.4 L86.6,422.3 L87.1,422.3    L87.6,422.3 L88.1,422.3 L88.6,422.3 L89.1,422.3 L89.6,422.3 L90.1,422.3 L90.6,422.3 L91.1,422.3    L91.6,422.2 L92.1,422.2 L92.6,422.2 L93.1,422.2 L93.6,422.2 L94.1,422.2 L94.6,422.1 L95.1,422.1    L95.6,422.1 L96.0,422.1 L96.5,422.1 L97.0,422.0 L97.5,422.0 L98.0,422.0 L98.5,422.0 L99.0,422.0    L99.5,421.9 L100.0,421.9 L100.5,421.9 L101.0,421.9 L101.5,421.8 L102.0,421.8 L102.5,421.8 L103.0,421.7    L103.5,421.7 L104.0,421.7 L104.5,421.7 L105.0,421.6 L105.5,421.6 L106.0,421.6 L106.5,421.5 L106.9,421.5    L107.4,421.5 L107.9,421.4 L108.4,421.4 L108.9,421.4 L109.4,421.3 L109.9,421.3 L110.4,421.3 L110.9,421.2    L111.4,421.2 L111.9,421.1 L112.4,421.1 L112.9,421.1 L113.4,421.0 L113.9,421.0 L114.4,420.9 L114.9,420.9    L115.4,420.8 L115.9,420.8 L116.4,420.8 L116.9,420.7 L117.3,420.7 L117.8,420.6 L118.3,420.6 L118.8,420.5    L119.3,420.5 L119.8,420.4 L120.3,420.4 L120.8,420.3 L121.3,420.3 L121.8,420.2 L122.3,420.2 L122.8,420.1    L123.3,420.1 L123.8,420.0 L124.3,420.0 L124.8,419.9 L125.3,419.9 L125.8,419.8 L126.3,419.7 L126.8,419.7    L127.3,419.6 L127.7,419.6 L128.2,419.5 L128.7,419.4 L129.2,419.4 L129.7,419.3 L130.2,419.3 L130.7,419.2    L131.2,419.1 L131.7,419.1 L132.2,419.0 L132.7,418.9 L133.2,418.9 L133.7,418.8 L134.2,418.7 L134.7,418.7    L135.2,418.6 L135.7,418.5 L136.2,418.5 L136.7,418.4 L137.2,418.3 L137.7,418.3 L138.1,418.2 L138.6,418.1    L139.1,418.0 L139.6,418.0 L140.1,417.9 L140.6,417.8 L141.1,417.7 L141.6,417.7 L142.1,417.6 L142.6,417.5    L143.1,417.4 L143.6,417.4 L144.1,417.3 L144.6,417.2 L145.1,417.1 L145.6,417.0 L146.1,417.0 L146.6,416.9    L147.1,416.8 L147.6,416.7 L148.1,416.6 L148.6,416.5 L149.0,416.5 L149.5,416.4 L150.0,416.3 L150.5,416.2    L151.0,416.1 L151.5,416.0 L152.0,415.9 L152.5,415.8 L153.0,415.7 L153.5,415.7 L154.0,415.6 L154.5,415.5    L155.0,415.4 L155.5,415.3 L156.0,415.2 L156.5,415.1 L157.0,415.0 L157.5,414.9 L158.0,414.8 L158.5,414.7    L159.0,414.6 L159.4,414.5 L159.9,414.4 L160.4,414.3 L160.9,414.2 L161.4,414.1 L161.9,414.0 L162.4,413.9    L162.9,413.8 L163.4,413.7 L163.9,413.6 L164.4,413.5 L164.9,413.4 L165.4,413.3 L165.9,413.2 L166.4,413.1    L166.9,413.0 L167.4,412.9 L167.9,412.7 L168.4,412.6 L168.9,412.5 L169.4,412.4 L169.8,412.3 L170.3,412.2    L170.8,412.1 L171.3,412.0 L171.8,411.9 L172.3,411.7 L172.8,411.6 L173.3,411.5 L173.8,411.4 L174.3,411.3    L174.8,411.2 L175.3,411.0 L175.8,410.9 L176.3,410.8 L176.8,410.7 L177.3,410.6 L177.8,410.4 L178.3,410.3    L178.8,410.2 L179.3,410.1 L179.8,409.9 L180.2,409.8 L180.7,409.7 L181.2,409.6 L181.7,409.4 L182.2,409.3    L182.7,409.2 L183.2,409.1 L183.7,408.9 L184.2,408.8 L184.7,408.7 L185.2,408.5 L185.7,408.4 L186.2,408.3    L186.7,408.1 L187.2,408.0 L187.7,407.9 L188.2,407.7 L188.7,407.6 L189.2,407.5 L189.7,407.3 L190.2,407.2    L190.7,407.1 L191.1,406.9 L191.6,406.8 L192.1,406.6 L192.6,406.5 L193.1,406.4 L193.6,406.2 L194.1,406.1    L194.6,405.9 L195.1,405.8 L195.6,405.6 L196.1,405.5 L196.6,405.4 L197.1,405.2 L197.6,405.1 L198.1,404.9    L198.6,404.8 L199.1,404.6 L199.6,404.5 L200.1,404.3 L200.6,404.2 L201.1,404.0 L201.5,403.9 L202.0,403.7    L202.5,403.6 L203.0,403.4 L203.5,403.3 L204.0,403.1 L204.5,402.9 L205.0,402.8 L205.5,402.6 L206.0,402.5    L206.5,402.3 L207.0,402.2 L207.5,402.0 L208.0,401.8 L208.5,401.7 L209.0,401.5 L209.5,401.4 L210.0,401.2    L210.5,401.0 L211.0,400.9 L211.5,400.7 L211.9,400.5 L212.4,400.4 L212.9,400.2 L213.4,400.0 L213.9,399.9    L214.4,399.7 L214.9,399.5 L215.4,399.4 L215.9,399.2 L216.4,399.0 L216.9,398.9 L217.4,398.7 L217.9,398.5    L218.4,398.3 L218.9,398.2 L219.4,398.0 L219.9,397.8 L220.4,397.6 L220.9,397.5 L221.4,397.3 L221.9,397.1    L222.3,396.9 L222.8,396.7 L223.3,396.6 L223.8,396.4 L224.3,396.2 L224.8,396.0 L225.3,395.8 L225.8,395.7    L226.3,395.5 L226.8,395.3 L227.3,395.1 L227.8,394.9 L228.3,394.7 L228.8,394.6 L229.3,394.4 L229.8,394.2    L230.3,394.0 L230.8,393.8 L231.3,393.6 L231.8,393.4 L232.3,393.2 L232.8,393.0 L233.2,392.8 L233.7,392.7    L234.2,392.5 L234.7,392.3 L235.2,392.1 L235.7,391.9 L236.2,391.7 L236.7,391.5 L237.2,391.3 L237.7,391.1    L238.2,390.9 L238.7,390.7 L239.2,390.5 L239.7,390.3 L240.2,390.1 L240.7,389.9 L241.2,389.7 L241.7,389.5    L242.2,389.3 L242.7,389.1 L243.2,388.9 L243.6,388.7 L244.1,388.5 L244.6,388.3 L245.1,388.0 L245.6,387.8    L246.1,387.6 L246.6,387.4 L247.1,387.2 L247.6,387.0 L248.1,386.8 L248.6,386.6 L249.1,386.4 L249.6,386.1    L250.1,385.9 L250.6,385.7 L251.1,385.5 L251.6,385.3 L252.1,385.1 L252.6,384.9 L253.1,384.6 L253.6,384.4    L254.0,384.2 L254.5,384.0 L255.0,383.8 L255.5,383.5 L256.0,383.3 L256.5,383.1 L257.0,382.9 L257.5,382.6    L258.0,382.4 L258.5,382.2 L259.0,382.0 L259.5,381.7 L260.0,381.5 L260.5,381.3 L261.0,381.1 L261.5,380.8    L262.0,380.6 L262.5,380.4 L263.0,380.1 L263.5,379.9 L264.0,379.7 L264.4,379.4 L264.9,379.2 L265.4,379.0    L265.9,378.7 L266.4,378.5 L266.9,378.3 L267.4,378.0 L267.9,377.8 L268.4,377.6 L268.9,377.3 L269.4,377.1    L269.9,376.8 L270.4,376.6 L270.9,376.4 L271.4,376.1 L271.9,375.9 L272.4,375.6 L272.9,375.4 L273.4,375.1    L273.9,374.9 L274.4,374.7 L274.9,374.4 L275.3,374.2 L275.8,373.9 L276.3,373.7 L276.8,373.4 L277.3,373.2    L277.8,372.9 L278.3,372.7 L278.8,372.4 L279.3,372.2 L279.8,371.9 L280.3,371.7 L280.8,371.4 L281.3,371.1    L281.8,370.9 L282.3,370.6 L282.8,370.4 L283.3,370.1 L283.8,369.9 L284.3,369.6 L284.8,369.3 L285.3,369.1    L285.7,368.8 L286.2,368.6 L286.7,368.3 L287.2,368.0 L287.7,367.8 L288.2,367.5 L288.7,367.2 L289.2,367.0    L289.7,366.7 L290.2,366.4 L290.7,366.2 L291.2,365.9 L291.7,365.6 L292.2,365.4 L292.7,365.1 L293.2,364.8    L293.7,364.6 L294.2,364.3 L294.7,364.0 L295.2,363.7 L295.7,363.5 L296.1,363.2 L296.6,362.9 L297.1,362.6    L297.6,362.4 L298.1,362.1 L298.6,361.8 L299.1,361.5 L299.6,361.2 L300.1,361.0 L300.6,360.7 L301.1,360.4    L301.6,360.1 L302.1,359.8 L302.6,359.6 L303.1,359.3 L303.6,359.0 L304.1,358.7 L304.6,358.4 L305.1,358.1    L305.6,357.8 L306.1,357.5 L306.5,357.3 L307.0,357.0 L307.5,356.7 L308.0,356.4 L308.5,356.1 L309.0,355.8    L309.5,355.5 L310.0,355.2 L310.5,354.9 L311.0,354.6 L311.5,354.3 L312.0,354.0 L312.5,353.7 L313.0,353.4    L313.5,353.1 L314.0,352.8 L314.5,352.5 L315.0,352.2 L315.5,351.9 L316.0,351.6 L316.5,351.3 L317.0,351.0    L317.4,350.7 L317.9,350.4 L318.4,350.1 L318.9,349.8 L319.4,349.5 L319.9,349.2 L320.4,348.9 L320.9,348.6    L321.4,348.3 L321.9,348.0 L322.4,347.7 L322.9,347.3 L323.4,347.0 L323.9,346.7 L324.4,346.4 L324.9,346.1    L325.4,345.8 L325.9,345.5 L326.4,345.2 L326.9,344.8 L327.4,344.5 L327.8,344.2 L328.3,343.9 L328.8,343.6    L329.3,343.2 L329.8,342.9 L330.3,342.6 L330.8,342.3 L331.3,342.0 L331.8,341.6 L332.3,341.3 L332.8,341.0    L333.3,340.7 L333.8,340.3 L334.3,340.0 L334.8,339.7 L335.3,339.4 L335.8,339.0 L336.3,338.7 L336.8,338.4    L337.3,338.0 L337.8,337.7 L338.2,337.4 L338.7,337.0 L339.2,336.7 L339.7,336.4 L340.2,336.0 L340.7,335.7    L341.2,335.4 L341.7,335.0 L342.2,334.7 L342.7,334.3 L343.2,334.0 L343.7,333.7 L344.2,333.3 L344.7,333.0    L345.2,332.6 L345.7,332.3 L346.2,332.0 L346.7,331.6 L347.2,331.3 L347.7,330.9 L348.2,330.6 L348.7,330.2    L349.1,329.9 L349.6,329.5 L350.1,329.2 L350.6,328.8 L351.1,328.5 L351.6,328.1 L352.1,327.8 L352.6,327.4    L353.1,327.1 L353.6,326.7 L354.1,326.4 L354.6,326.0 L355.1,325.7 L355.6,325.3 L356.1,325.0 L356.6,324.6    L357.1,324.2 L357.6,323.9 L358.1,323.5 L358.6,323.2 L359.1,322.8 L359.5,322.4 L360.0,322.1 L360.5,321.7    L361.0,321.3 L361.5,321.0 L362.0,320.6 L362.5,320.2 L363.0,319.9 L363.5,319.5 L364.0,319.1 L364.5,318.8    L365.0,318.4 L365.5,318.0 L366.0,317.7 L366.5,317.3 L367.0,316.9 L367.5,316.5 L368.0,316.2 L368.5,315.8    L369.0,315.4 L369.5,315.0 L369.9,314.7 L370.4,314.3 L370.9,313.9 L371.4,313.5 L371.9,313.2 L372.4,312.8    L372.9,312.4 L373.4,312.0 L373.9,311.6 L374.4,311.2 L374.9,310.9 L375.4,310.5 L375.9,310.1 L376.4,309.7    L376.9,309.3 L377.4,308.9 L377.9,308.5 L378.4,308.2 L378.9,307.8 L379.4,307.4 L379.9,307.0 L380.3,306.6    L380.8,306.2 L381.3,305.8 L381.8,305.4 L382.3,305.0 L382.8,304.6 L383.3,304.2 L383.8,303.8 L384.3,303.4    L384.8,303.0 L385.3,302.6 L385.8,302.2 L386.3,301.8 L386.8,301.4 L387.3,301.0 L387.8,300.6 L388.3,300.2    L388.8,299.8 L389.3,299.4 L389.8,299.0 L390.3,298.6 L390.8,298.2 L391.2,297.8 L391.7,297.4 L392.2,297.0    L392.7,296.6 L393.2,296.2 L393.7,295.7 L394.2,295.3 L394.7,294.9 L395.2,294.5 L395.7,294.1 L396.2,293.7    L396.7,293.3 L397.2,292.8 L397.7,292.4 L398.2,292.0 L398.7,291.6 L399.2,291.2 L399.7,290.8 L400.2,290.3    L400.7,289.9 L401.2,289.5 L401.6,289.1 L402.1,288.6 L402.6,288.2 L403.1,287.8 L403.6,287.4 L404.1,286.9    L404.6,286.5 L405.1,286.1 L405.6,285.7 L406.1,285.2 L406.6,284.8 L407.1,284.4 L407.6,283.9 L408.1,283.5    L408.6,283.1 L409.1,282.6 L409.6,282.2 L410.1,281.8 L410.6,281.3 L411.1,280.9 L411.6,280.5 L412.0,280.0    L412.5,279.6 L413.0,279.1 L413.5,278.7 L414.0,278.3 L414.5,277.8 L415.0,277.4 L415.5,276.9 L416.0,276.5    L416.5,276.0 L417.0,275.6 L417.5,275.2 L418.0,274.7 L418.5,274.3 L419.0,273.8 L419.5,273.4 L420.0,272.9    L420.5,272.5 L421.0,272.0 L421.5,271.6 L422.0,271.1 L422.4,270.7 L422.9,270.2 L423.4,269.7 L423.9,269.3    L424.4,268.8 L424.9,268.4 L425.4,267.9 L425.9,267.5 L426.4,267.0 L426.9,266.5 L427.4,266.1 L427.9,265.6    L428.4,265.1 L428.9,264.7 L429.4,264.2 L429.9,263.8 L430.4,263.3 L430.9,262.8 L431.4,262.4 L431.9,261.9    L432.4,261.4 L432.9,261.0 L433.3,260.5 L433.8,260.0 L434.3,259.5 L434.8,259.1 L435.3,258.6 L435.8,258.1    L436.3,257.6 L436.8,257.2 L437.3,256.7 L437.8,256.2 L438.3,255.7 L438.8,255.3 L439.3,254.8 L439.8,254.3    L440.3,253.8 L440.8,253.3 L441.3,252.9 L441.8,252.4 L442.3,251.9 L442.8,251.4 L443.3,250.9 L443.7,250.4    L444.2,249.9 L444.7,249.5 L445.2,249.0 L445.7,248.5 L446.2,248.0 L446.7,247.5 L447.2,247.0 L447.7,246.5    L448.2,246.0 L448.7,245.5 L449.2,245.0 L449.7,244.5 L450.2,244.0 L450.7,243.5 L451.2,243.0 L451.7,242.5    L452.2,242.0 L452.7,241.5 L453.2,241.0 L453.7,240.5 L454.1,240.0 L454.6,239.5 L455.1,239.0 L455.6,238.5    L456.1,238.0 L456.6,237.5 L457.1,237.0 L457.6,236.5 L458.1,236.0 L458.6,235.5 L459.1,235.0 L459.6,234.5    L460.1,233.9 L460.6,233.4 L461.1,232.9 L461.6,232.4 L462.1,231.9 L462.6,231.4 L463.1,230.9 L463.6,230.3    L464.1,229.8 L464.5,229.3 L465.0,228.8 L465.5,228.3 L466.0,227.7 L466.5,227.2 L467.0,226.7 L467.5,226.2    L468.0,225.7 L468.5,225.1 L469.0,224.6 L469.5,224.1 L470.0,223.5 L470.5,223.0 L471.0,222.5 L471.5,222.0    L472.0,221.4 L472.5,220.9 L473.0,220.4 L473.5,219.8 L474.0,219.3 L474.5,218.8 L475.0,218.2 L475.4,217.7    L475.9,217.2 L476.4,216.6 L476.9,216.1 L477.4,215.5 L477.9,215.0 L478.4,214.5 L478.9,213.9 L479.4,213.4    L479.9,212.8 L480.4,212.3 L480.9,211.7 L481.4,211.2 L481.9,210.6 L482.4,210.1 L482.9,209.6 L483.4,209.0    L483.9,208.5 L484.4,207.9 L484.9,207.3 L485.4,206.8 L485.8,206.2 L486.3,205.7 L486.8,205.1 L487.3,204.6    L487.8,204.0 L488.3,203.5 L488.8,202.9 L489.3,202.3 L489.8,201.8 L490.3,201.2 L490.8,200.7 L491.3,200.1    L491.8,199.5 L492.3,199.0 L492.8,198.4 L493.3,197.8 L493.8,197.3 L494.3,196.7 L494.8,196.1 L495.3,195.6    L495.8,195.0 L496.2,194.4 L496.7,193.9 L497.2,193.3 L497.7,192.7 L498.2,192.1 L498.7,191.6 L499.2,191.0    L499.7,190.4 L500.2,189.8 L500.7,189.3 L501.2,188.7 L501.7,188.1 L502.2,187.5 L502.7,186.9 L503.2,186.4    L503.7,185.8 L504.2,185.2 L504.7,184.6 L505.2,184.0 L505.7,183.4 L506.2,182.9 L506.6,182.3 L507.1,181.7    L507.6,181.1 L508.1,180.5 L508.6,179.9 L509.1,179.3 L509.6,178.7 L510.1,178.1 L510.6,177.5 L511.1,176.9    L511.6,176.3 L512.1,175.7 L512.6,175.1 L513.1,174.6 L513.6,174.0 L514.1,173.4 L514.6,172.7 L515.1,172.1    L515.6,171.5 L516.1,170.9 L516.6,170.3 L517.1,169.7 L517.5,169.1 L518.0,168.5 L518.5,167.9 L519.0,167.3    L519.5,166.7 L520.0,166.1 L520.5,165.5 L521.0,164.9 L521.5,164.2 L522.0,163.6 L522.5,163.0 L523.0,162.4    L523.5,161.8 L524.0,161.2 L524.5,160.5 L525.0,159.9 L525.5,159.3 L526.0,158.7 L526.5,158.1 L527.0,157.4    L527.5,156.8 L527.9,156.2 L528.4,155.6 L528.9,154.9 L529.4,154.3 L529.9,153.7 L530.4,153.1 L530.9,152.4    L531.4,151.8 L531.9,151.2 L532.4,150.5 L532.9,149.9 L533.4,149.3 L533.9,148.6 L534.4,148.0 L534.9,147.4    L535.4,146.7 L535.9,146.1 L536.4,145.5 L536.9,144.8 L537.4,144.2 L537.9,143.5 L538.3,142.9 L538.8,142.2    L539.3,141.6 L539.8,141.0 L540.3,140.3 L540.8,139.7 L541.3,139.0 L541.8,138.4 L542.3,137.7 L542.8,137.1    L543.3,136.4 L543.8,135.8 L544.3,135.1 L544.8,134.5 L545.3,133.8 L545.8,133.1 L546.3,132.5 L546.8,131.8    L547.3,131.2 L547.8,130.5 L548.3,129.9 L548.7,129.2 L549.2,128.5 L549.7,127.9 L550.2,127.2 L550.7,126.5    L551.2,125.9 L551.7,125.2 L552.2,124.5 L552.7,123.9 L553.2,123.2 L553.7,122.5 L554.2,121.9 L554.7,121.2    L555.2,120.5 L555.7,119.8 L556.2,119.2 L556.7,118.5 L557.2,117.8 L557.7,117.1 L558.2,116.5 L558.7,115.8    L559.2,115.1 L559.6,114.4 L560.1,113.7 L560.6,113.1 L561.1,112.4 L561.6,111.7 L562.1,111.0 L562.6,110.3    L563.1,109.6 L563.6,108.9 L564.1,108.2 L564.6,107.6 L565.1,106.9 L565.6,106.2 L566.1,105.5 L566.6,104.8    L567.1,104.1 L567.6,103.4 L568.1,102.7 L568.6,102.0 L569.1,101.3 L569.6,100.6 L570.0,99.9 L570.5,99.2    L571.0,98.5 L571.5,97.8 L572.0,97.1 L572.5,96.4 L573.0,95.7 L573.5,95.0 L574.0,94.3 L574.5,93.6    L575.0,92.9 "/>
</g>
	</a>
<g style="fill:none; color:black; stroke:currentColor; stroke-width:1.00; stroke-linecap:butt; stroke-linejoin:miter">
	<path d="M80.2,54.1 L80.2,422.4 L575.0,422.4 L575.0,54.1 L80.2,54.1 Z "/>
</g>
</svg>