<?xml version="1.0" encoding="UTF-8" standalone="no"?>
<!-- Created with Inkscape (http://www.inkscape.org/) -->

<svg
   xmlns:osb="http://www.openswatchbook.org/uri/2009/osb"
   xmlns:dc="http://purl.org/dc/elements/1.1/"
   xmlns:cc="http://creativecommons.org/ns#"
   xmlns:rdf="http://www.w3.org/1999/02/22-rdf-syntax-ns#"
   xmlns:svg="http://www.w3.org/2000/svg"
   xmlns="http://www.w3.org/2000/svg"
   xmlns:xlink="http://www.w3.org/1999/xlink"
   xmlns:sodipodi="http://sodipodi.sourceforge.net/DTD/sodipodi-0.dtd"
   xmlns:inkscape="http://www.inkscape.org/namespaces/inkscape"
   id="svg2"
   version="1.1"
   inkscape:version="0.92.2 5c3e80d, 2017-08-06"
   width="54.243553mm"
   height="33.076885mm"
   viewBox="0 0 192.20157 117.20156"
   sodipodi:docname="saologo.svg">
  <metadata
     id="metadata8">
    <rdf:RDF>
      <cc:Work
         rdf:about="">
        <dc:format>image/svg+xml</dc:format>
        <dc:type
           rdf:resource="http://purl.org/dc/dcmitype/StillImage" />
        <dc:title></dc:title>
      </cc:Work>
    </rdf:RDF>
  </metadata>
  <defs
     id="defs6">
    <linearGradient
       inkscape:collect="always"
       id="b_k">
      <stop
         style="stop-color:#0000ff;stop-opacity:1"
         offset="0"
         id="stop5605" />
      <stop
         style="stop-color:#000000;stop-opacity:1"
         offset="1"
         id="stop5607" />
    </linearGradient>
    <linearGradient
       id="linearGradient5583"
       osb:paint="solid">
      <stop
         style="stop-color:#0000ff;stop-opacity:1;"
         offset="0"
         id="stop5585" />
    </linearGradient>
    <linearGradient
       id="linearGradient5623"
       osb:paint="solid">
      <stop
         style="stop-color:#8588ab;stop-opacity:1;"
         offset="0"
         id="stop5625" />
    </linearGradient>
    <inkscape:path-effect
       effect="spiro"
       id="path-effect3349"
       is_visible="true" />
    <radialGradient
       inkscape:collect="always"
       xlink:href="#b_k"
       id="radialGradient5609"
       cx="105.37059"
       cy="83.037598"
       fx="105.37059"
       fy="83.037598"
       r="82.24295"
       gradientTransform="matrix(0.56343609,-0.28202566,0.33056186,0.66040262,19.493307,44.014725)"
       gradientUnits="userSpaceOnUse" />
  </defs>
  <sodipodi:namedview
     pagecolor="#ffffff"
     bordercolor="#666666"
     borderopacity="1"
     objecttolerance="10"
     gridtolerance="10"
     guidetolerance="10"
     inkscape:pageopacity="0"
     inkscape:pageshadow="2"
     inkscape:window-width="1680"
     inkscape:window-height="1050"
     id="namedview4"
     showgrid="true"
     units="mm"
     inkscape:zoom="4"
     inkscape:cx="114.18632"
     inkscape:cy="45.464061"
     inkscape:window-x="0"
     inkscape:window-y="1080"
     inkscape:window-maximized="0"
     inkscape:current-layer="layer1"
     showguides="true"
     fit-margin-top="0"
     fit-margin-left="0"
     fit-margin-right="0"
     fit-margin-bottom="0" />
  <g
     inkscape:groupmode="layer"
     id="layer2"
     inkscape:label="back"
     style="display:inline"
     transform="translate(7.6534829,0.09641504)" />
  <g
     inkscape:groupmode="layer"
     id="layer1"
     inkscape:label="Layer 1"
     style="display:inline"
     transform="translate(7.6534829,0.09641504)">
    <ellipse
       style="opacity:1;fill:#ffffff;fill-opacity:1;fill-rule:evenodd;stroke:#ffffff;stroke-width:5.81526661;stroke-miterlimit:4;stroke-dasharray:none;stroke-dashoffset:0;stroke-opacity:1"
       id="path836"
       cx="88.447304"
       cy="58.504368"
       rx="93.193153"
       ry="55.69315" />
    <path
       sodipodi:nodetypes="sscccssscsscsccscczzzzzzzzzzzzzzccsszzzzzzzzzccsccccccccccssccczzzccccsssszczzcccccccscccccscccccccccccccczczcccccczsscssscccccccccccccccccccccccc"
       inkscape:connector-curvature="0"
       id="path5615"
       d="M 77.617685,2.4090097 C 75.8491,2.3643117 74.047129,3.6792128 72.232919,6.3777597 67.929439,12.77897 62.984752,34.761646 61.391122,54.580885 L 60.57112,62.627152 50.317524,63.766134 C 38.195991,65.28247 28.696303,67.618173 21.351656,70.164268 12.985489,73.064482 7.649776,77.398438 7.9516695,81.475416 8.5176398,89.11867 25.876029,96.50237 48.951669,98.372005 c 5.225,0.423335 11.366489,0.535965 11.971299,0.615965 0,0 -0.02949,-3.518115 0.606308,-10.533832 0.953493,-10.521333 2.411043,-21.684804 2.886008,-22.080388 0.406404,-0.338481 24.847418,-3.262244 25.134042,-2.889901 0,0 3.188017,23.740567 3.188017,29.272727 0,2.497279 0.174312,6.342884 0.174312,6.342884 l 1.92487,-0.0527 c 0,0 0.601351,-4.564479 -0.04964,-17.528489 -0.850211,-16.931341 -0.769609,-17.553036 -0.740683,-18.225819 1.21527,-0.12695 2.64655,-0.201693 3.769903,-0.171362 0.06756,0.64029 0.145877,5.948088 2.240035,12.106224 2.09415,6.158137 5.03375,9.934311 9.37917,14.327329 4.34543,4.393019 4.83234,4.037845 8.30693,6.02736 3.4746,1.989516 9.33929,4.293507 17.19914,4.289547 7.85984,-0.004 9.64697,-0.540775 15.98295,-3.523405 6.33599,-2.982629 12.75553,-8.163305 17.18625,-16.43296 4.43073,-8.269655 4.24185,-11.220559 4.24886,-17.244258 0.007,-6.023699 -1.59324,-11.601634 -3.53319,-15.78998 -1.93994,-4.188346 -4.14839,-7.435183 -7.38215,-10.640658 -3.23376,-3.205475 -6.45819,-5.284928 -10.2522,-7.18285 -3.79401,-1.897922 -9.7599,-3.790735 -16.91709,-3.60048 -7.1572,0.190254 -13.23757,2.350117 -17.85966,5.027753 -4.62208,2.677635 -7.97705,5.677898 -11.52723,10.514679 -3.55018,4.836781 -5.100418,9.463154 -5.916717,12.89008 -0.8163,3.426926 -0.914173,4.930808 -0.978479,6.846857 -1.323718,-0.05618 -2.943706,0.03489 -3.996859,0.112295 0,-5.734757 -3.673949,-31.599181 -5.460209,-38.640797 C 85.233185,9.1891127 81.508571,2.5073443 77.617685,2.4090097 Z M 134.70729,27.604363 c 9.47178,-0.406783 19.4392,3.969285 26.00677,11.066141 6.56758,7.096856 9.90103,16.948516 9.55965,24.260718 -0.34138,7.312201 -1.57752,14.746827 -8.52067,22.582058 -6.94315,7.835232 -15.84528,12.40257 -26.94163,12.224201 -11.09636,-0.178369 -18.06486,-4.522407 -24.02692,-9.871984 -5.96206,-5.349577 -10.26553,-14.512451 -10.67484,-25.4252 -0.409312,-10.912748 5.51724,-20.178927 11.43322,-25.702815 5.91597,-5.523889 13.69264,-8.726335 23.16442,-9.133119 z m 1.10979,32.590764 c 4.94055,-8.636511 4.94055,-8.636511 11.12043,-19.478491 0.2502,0.124456 0.9789,0.647452 0.9789,0.647452 -4.67841,8.422875 -4.67846,8.777205 -11.226,19.68873 5.48454,-4.179241 5.48454,-4.179241 10.42047,-7.903209 0.20114,0.04609 0.61696,0.59326 0.67606,0.652362 -6.0768,4.61124 -6.10104,4.69746 -10.93,8.397638 8.86132,-0.01107 18.78258,-0.01107 27.98615,-0.0091 l 0.0109,1.454846 c -9.21451,-0.03952 -18.78144,-0.03952 -27.9985,-0.04589 5.67376,4.612675 5.67376,4.612675 11.04197,8.869528 -0.0908,0.188828 -0.6631,0.743535 -0.6631,0.743535 -5.41378,-4.291727 -5.41378,-4.291727 -10.52625,-8.352567 1.06659,2.026518 6.52989,12.919128 11.37625,22.084697 0,0 -0.33589,0.211423 -0.34379,0.218959 -0.13159,0.125376 -0.71769,0.272537 -0.81788,0.267585 -5.36728,-10.050658 -5.10211,-10.006464 -11.12617,-21.332848 4.4e-4,9.909061 0.0292,20.159881 0.0192,30.078991 10.98256,-0.127318 19.72712,-4.181254 27.1039,-14.840043 7.37678,-10.65879 6.79922,-20.030576 4.09127,-28.779226 -2.70794,-8.748651 -7.12025,-13.692184 -13.43322,-17.870002 -6.31298,-4.177819 -12.96223,-5.365552 -17.83656,-5.517633 0.0423,10.565992 0.0845,21.356521 0.076,31.024686 z m -1.97848,-30.10026 c -0.30523,0.06853 -3.06092,-0.130693 -8.111,1.350127 -5.05009,1.48082 -9.80795,4.203973 -13.84613,8.367394 -4.03819,4.163422 -5.26264,6.567259 -6.76506,10.126396 -0.67716,1.604142 -1.22839,3.272078 -1.59461,4.774358 -0.44633,1.830855 -0.41822,1.740794 -0.58793,2.879854 -0.1697,1.139061 -0.35379,2.559528 -0.36439,3.913652 0,0 3.42069,-0.03749 10.63219,-0.05271 l 10.3982,0.01032 c 0.12505,-0.702651 0.20268,-1.774448 0.98242,-3.455969 0.77974,-1.681522 2.37672,-3.736122 4.09728,-4.70754 1.72057,-0.971417 4.24396,-1.72343 5.35783,-1.796497 -0.0441,-9.188363 -0.0461,-9.176863 -0.1988,-21.409385 z m -8.35909,11.144451 c 0.39628,1.337311 0.49386,1.729855 1.78449,2.193187 -1.23911,0.591142 -1.36268,1.368612 -1.75135,3.155024 -0.28196,-1.724601 -0.83645,-2.55186 -2.10907,-3.165957 1.30222,-0.432984 1.76355,-0.890995 2.07593,-2.182254 z m -48.484872,1.241958 c 1.809265,-0.103121 3.622119,1.000726 5.40625,3.339843 2.39167,3.135639 6.47817,14.587422 6.232318,15.004735 -0.20088,0.20087 -5.696586,0.178085 -12.162006,0.524575 l -11.241476,0.628907 0.231711,-1.593764 c 3.59172,-11.608566 7.552821,-17.677431 11.533203,-17.904296 z m 75.053752,-3.267548 c 0.56236,-0.223517 0.85029,-0.235236 1.47687,-0.01307 -0.0117,3.145359 -0.0117,18.027249 0.004,21.201106 -0.10772,0.17891 -1.29231,0.117874 -1.43224,0.02303 -10e-4,-4.614207 -10e-4,-15.95279 -0.049,-21.211064 z m -36.11966,9.681908 c 0.64873,3.456178 1.94293,3.882065 4.31,4.478764 -2.64538,0.533543 -3.60165,1.471842 -4.28774,4.934615 -0.58025,-3.311858 -0.77602,-3.990329 -4.2608,-4.942936 3.46205,-0.710301 3.69716,-1.047037 4.23854,-4.470443 z m 18.10075,4.086829 c -1.11733,0.03172 -2.0338,0.189656 -3.47967,0.92716 -1.44588,0.737504 -1.67603,0.894205 -3.28251,2.608494 -1.15621,1.23381 -1.33347,2.026654 -1.83563,3.525423 -0.50216,1.498769 -0.42978,3.452351 0.0157,5.242975 0.49268,1.980182 2.06297,4.163435 3.56863,5.211297 1.50566,1.047862 3.28658,1.806879 5.02009,1.90059 -0.0218,-2.491931 -0.0108,-14.461835 -0.007,-19.415939 z m -31.46294,10.973044 c 0.0496,1.700687 0.0511,2.180444 0.54636,4.810309 0.49523,2.629865 0.60578,3.959767 3.66041,10.022328 3.05463,6.062561 7.89909,9.983354 13.74631,13.00341 5.84721,3.020056 11.87164,3.491743 13.28656,3.482421 0,0 0.11745,-4.514579 0.14553,-10.279029 0.0312,-6.412493 0.0348,-9.40084 0.0666,-11.171466 -1.24006,-0.0561 -3.01916,-0.536677 -3.76501,-0.901263 -1.25,-0.611018 -2.79622,-1.48512 -3.98856,-2.96791 -1.24257,-1.545239 -1.82043,-2.801693 -2.10208,-3.60194 -0.18802,-0.534223 -0.5581,-2.409987 -0.5581,-2.409987 -1.15607,-0.04691 -4.04173,0.01865 -10.2213,0.01865 -3.21713,0.01038 -8.29003,-0.0372 -10.81672,-0.0055 z m -42.500659,2.818218 -0.248977,14.494658 c -0.139063,8.095809 -0.75,15.414166 -0.75,15.414166 -1.498697,0.0504 -7.580665,-0.484216 -12.843195,-1.903146 -10.81856,-2.917 -15.632393,-9.672785 -14.109413,-15.740855 1.12476,-4.4814 11.286433,-8.441415 25.837373,-11.887352 z m 60.432429,2.446784 c 1.47984,6.078263 1.83417,6.432593 7.9732,8.473449 -6.13903,1.502452 -6.49336,1.856782 -7.90135,10.107979 -1.78098,-8.251197 -2.13531,-8.605527 -6.99605,-10.135427 4.86074,-2.013408 5.21507,-2.367738 6.9242,-8.446001 z m 33.01343,-3.820842 c 0.0253,5.283855 0.002,16.985719 -0.0144,21.582935 -0.24823,0.197279 -1.23672,0.144827 -1.38045,0.02489 -0.0209,-4.622103 0.0122,-16.319764 -0.0106,-21.609553 0.39931,-0.0648 1.14695,-0.06711 1.40554,0.0017 z"
       style="display:inline;opacity:1;fill:url(#radialGradient5609);fill-opacity:1;fill-rule:nonzero;stroke:#000000;stroke-opacity:1" />
    <path
       style="opacity:1;fill:#000000;fill-opacity:0.51481479;fill-rule:nonzero;stroke:#00ca3c;stroke-width:0;stroke-miterlimit:4;stroke-dasharray:none;stroke-dashoffset:0;stroke-opacity:1"
       id="path5645"
       sodipodi:type="arc"
       sodipodi:cx="134.46875"
       sodipodi:cy="68.642914"
       sodipodi:rx="0.15625"
       sodipodi:ry="0.84375"
       sodipodi:start="0"
       sodipodi:end="0.0056288614"
       d="m 134.625,68.642914 a 0.15625,0.84375 0 0 1 0,0.0047 l -0.15625,-0.0047 z" />
  </g>
</svg>
