<?xml version="1.0" encoding="UTF-8" standalone="no"?>
<!-- Created with Inkscape (http://www.inkscape.org/) -->

<svg
   xmlns:dc="http://purl.org/dc/elements/1.1/"
   xmlns:cc="http://creativecommons.org/ns#"
   xmlns:rdf="http://www.w3.org/1999/02/22-rdf-syntax-ns#"
   xmlns:svg="http://www.w3.org/2000/svg"
   xmlns="http://www.w3.org/2000/svg"
   xmlns:sodipodi="http://sodipodi.sourceforge.net/DTD/sodipodi-0.dtd"
   xmlns:inkscape="http://www.inkscape.org/namespaces/inkscape"
   version="1.1"
   id="svg2"
   xml:space="preserve"
   width="56.907135"
   height="77.030006"
   viewBox="0 0 56.907135 77.030005"
   sodipodi:docname="traektory_AFSH.svg"
   inkscape:version="0.92.2 5c3e80d, 2017-08-06"><metadata
     id="metadata8"><rdf:RDF><cc:Work
         rdf:about=""><dc:format>image/svg+xml</dc:format><dc:type
           rdf:resource="http://purl.org/dc/dcmitype/StillImage" /><dc:title></dc:title></cc:Work></rdf:RDF></metadata><defs
     id="defs6"><clipPath
       clipPathUnits="userSpaceOnUse"
       id="clipPath22"><path
         d="M 0,841.89 H 595.28 V 0 H 0 Z"
         id="path20"
         inkscape:connector-curvature="0" /></clipPath></defs><sodipodi:namedview
     pagecolor="#ffffff"
     bordercolor="#666666"
     borderopacity="1"
     objecttolerance="10"
     gridtolerance="10"
     guidetolerance="10"
     inkscape:pageopacity="0"
     inkscape:pageshadow="2"
     inkscape:window-width="1509"
     inkscape:window-height="906"
     id="namedview4"
     showgrid="false"
     fit-margin-top="0"
     fit-margin-left="0"
     fit-margin-right="0"
     fit-margin-bottom="0"
     inkscape:zoom="1.6819299"
     inkscape:cx="-3.6225622"
     inkscape:cy="-9.7838999"
     inkscape:window-x="59"
     inkscape:window-y="1216"
     inkscape:window-maximized="0"
     inkscape:current-layer="g10" /><g
     id="g10"
     inkscape:groupmode="layer"
     inkscape:label="polnyi_774_logotip_astroshkoly"
     transform="matrix(1.3333333,0,0,-1.3333333,-369.42626,628.06733)"><g
       id="g140"
       transform="translate(312.8467,431.938)"><path
         d="m 0,0 c -3.207,-3.641 -8.82,-6.071 -14.354,-6.491 0.032,5.391 0.336,10.41 1.159,13.301 1.388,4.862 4.851,6.721 7.73,6.86 0.088,0.004 0.178,0.007 0.268,0.007 2.705,0.029 6.054,-1.43 7.347,-5.613 C 3.213,4.622 1.566,1.778 0,0 m -25.881,27.433 3.824,-0.907 0.721,0.831 c 1.275,1.475 2.744,2.9 4.363,4.24 3.032,2.511 5.92,3.441 8.03,3.749 -0.43,-2.084 -1.528,-4.915 -4.209,-7.798 -1.424,-1.528 -2.934,-2.912 -4.487,-4.113 l -0.865,-0.671 0.678,-3.869 -3.498,-3.301 c -0.873,1.957 -2.094,4.468 -3.024,5.468 -0.961,1.034 -3.177,2.242 -4.974,3.122 z M 6.367,9.366 c -1.654,5.36 -6.215,8.783 -11.611,8.726 -5.686,-0.091 -10.467,-4.016 -12.195,-10.071 -0.913,-3.203 -1.26,-8.626 -1.309,-14.401 -0.231,0.033 -0.463,0.069 -0.693,0.109 -6.276,1.098 -10.17,3.887 -11.264,8.066 -1.149,4.391 0.873,9.877 5.1,14.378 0.648,-1.313 1.369,-2.932 1.949,-4.368 l 0.994,-2.465 8.754,8.261 -0.645,3.651 c 1.403,1.151 2.764,2.435 4.057,3.823 4.502,4.839 5.334,9.689 5.428,12.151 l 0.07,1.848 -1.85,0.036 c -2.463,0.046 -7.351,-0.504 -12.441,-4.717 -1.469,-1.218 -2.83,-2.504 -4.053,-3.834 l -3.607,0.854 -8.828,-8.331 2.541,-1.09 c 1.618,-0.695 3.495,-1.625 4.795,-2.393 -5.5,-5.669 -8.096,-12.952 -6.534,-18.921 0.893,-3.409 3.996,-9.411 14.772,-11.296 0.488,-0.086 0.978,-0.155 1.474,-0.209 0.04,-2.704 0.133,-5.37 0.247,-7.833 h 4.418 c -0.116,2.424 -0.215,5.065 -0.262,7.745 6.771,0.436 13.599,3.412 17.639,7.998 3.271,3.711 4.355,8.074 3.054,12.283"
         style="fill:#355898;fill-opacity:1;fill-rule:nonzero;stroke:none"
         id="path142"
         inkscape:connector-curvature="0" /></g></g></svg>