<?xml version="1.0" encoding="UTF-8"?>
<!-- Generator: Adobe Illustrator 10.0, SVG Export Plug-In . SVG Version: 3.0.0 Build 76)  -->
<!DOCTYPE svg PUBLIC "-//W3C//DTD SVG 1.0//EN" "http://www.w3.org/TR/2001/REC-SVG-20010904/DTD/svg10.dtd">
<svg xmlns="http://www.w3.org/2000/svg" xmlns:xlink="http://www.w3.org/1999/xlink" xmlns:a="http://ns.adobe.com/AdobeSVGViewerExtensions/3.0/" width="160.914" height="251" viewBox="0 0 160.914 251" style="overflow:visible;enable-background:new 0 0 160.914 251" xml:space="preserve">
	<style type="text/css">
	<![CDATA[
		.st0{fill:none;stroke:#FF0000;stroke-width:0.75;}
		.st1{fill:none;stroke:#000000;stroke-width:0.5;}
		.st2{opacity:0.5;fill:#CCE2EF;}
		.st3{fill:none;stroke:#000000;stroke-width:0.75;}
		.st4{fill:#FF0000;}
		.st5{fill:#FFFCF3;}
		.st6{fill:none;stroke:#FF0000;stroke-width:0.75;stroke-dasharray:1 1;}
		.st7{stroke:#000000;stroke-width:0.75;}
		.st8{fill:none;stroke:#000000;stroke-width:0.5;stroke-dasharray:4 2;}
	]]>
	</style>
	<metadata>
<?xpacket begin='' id='W5M0MpCehiHzreSzNTczkc9d' bytes='824'?><?adobe-xap-filters esc="CR"?>
<x:xapmeta xmlns:x="adobe:ns:meta/">
<rdf:RDF xmlns:rdf="http://www.w3.org/1999/02/22-rdf-syntax-ns#" xmlns:iX="http://ns.adobe.com/iX/1.0/">

 <rdf:Description about="" xmlns="http://ns.adobe.com/pdf/1.3/" xmlns:pdf="http://ns.adobe.com/pdf/1.3/">
  <pdf:CreationDate>2006-03-10T01:03:51Z</pdf:CreationDate>
  <pdf:ModDate>2006-03-10T01:04:35Z</pdf:ModDate>
 </rdf:Description>

 <rdf:Description about="" xmlns="http://ns.adobe.com/xap/1.0/" xmlns:xap="http://ns.adobe.com/xap/1.0/">
  <xap:CreateDate>2006-03-10T01:03:51Z</xap:CreateDate>
  <xap:ModifyDate>2006-03-10T01:04:35Z</xap:ModifyDate>
  <xap:CreatorTool>Adobe Illustrator 10.0</xap:CreatorTool>
 </rdf:Description>

</rdf:RDF>
</x:xapmeta>
<?xpacket end='r'?>
			</metadata>
		<g id="Layer_1">
			<path class="st5" d="M160.914,251H0V0h160.914V251z"/>
			<path class="st2" d="M60.076,229.858c11.054-13.064,17.72-29.963,17.72-48.418s-6.666-35.354-17.723-48.42l-19.795,0.004     c-7.953,14.346-12.482,30.852-12.482,48.416s4.527,34.07,12.479,48.415L60.076,229.858z"/>
			<path class="st2" d="M118.903,101.524c11.054-13.064,17.72-29.963,17.72-48.418s-6.666-35.354-17.723-48.42L99.105,4.69     c-7.953,14.346-12.482,30.852-12.482,48.416s4.527,34.07,12.479,48.415L118.903,101.524z"/>
			<path class="st3" d="M40.278,133.024c-7.953,14.346-12.482,30.852-12.482,48.416s4.527,34.07,12.479,48.415"/>
			<path class="st3" d="M60.076,229.858c11.054-13.064,17.72-29.963,17.72-48.418s-6.666-35.354-17.723-48.42"/>
			<g>
				<path class="st4" d="M110.914,165.493l-7.539-0.888l1.826-4.111L110.914,165.493z"/>
				<path d="M104.289,162.548"/>
			</g>
			<g>
				<path class="st4" d="M108.468,172.923l-7.564,0.625l0.976-4.393L108.468,172.923z"/>
				<path d="M101.392,171.351"/>
			</g>
			<g>
				<path class="st4" d="M110.914,197.387l-7.539,0.888l1.826,4.111L110.914,197.387z"/>
				<path d="M104.289,200.332"/>
			</g>
			<g>
				<path class="st4" d="M108.468,189.957l-7.564-0.625l0.976,4.393L108.468,189.957z"/>
				<path d="M101.392,191.529"/>
			</g>
			<g>
				<path class="st4" d="M18.796,141.441l-7.25,2.25v-4.5L18.796,141.441z"/>
				<path d="M11.546,141.441"/>
			</g>
			<g>
				<path class="st4" d="M18.796,161.441l-7.25,2.25v-4.5L18.796,161.441z"/>
				<path d="M11.546,161.441"/>
			</g>
			<g>
				<path class="st4" d="M18.796,201.441l-7.25,2.25v-4.5L18.796,201.441z"/>
				<path d="M11.546,201.441"/>
			</g>
			<g>
				<path class="st4" d="M18.796,221.441l-7.25,2.25v-4.5L18.796,221.441z"/>
				<path d="M11.546,221.441"/>
			</g>
			<g>
				<path d="M69.519,201.174"/>
			</g>
			<g>
				<path d="M77.796,226.774l5.438,1.688v-3.375L77.796,226.774z"/>
				<path d="M83.234,226.774"/>
			</g>
			<path class="st7" d="M104.38,226.774H83.234"/>
			<g>
				<path d="M146.796,226.774l-5.438-1.688v3.375L146.796,226.774z"/>
				<path d="M141.359,226.774"/>
			</g>
			<path class="st7" d="M141.359,226.774H120.63"/>
			<g>
				<path d="M110.306,226.74c0.321,0.068,0.562,0.178,0.721,0.328c0.221,0.21,0.332,0.467,0.332,0.77      c0,0.23-0.073,0.451-0.219,0.662c-0.146,0.211-0.345,0.365-0.599,0.462c-0.254,0.097-0.641,0.146-1.162,0.146h-2.185v-0.125      h0.173c0.192,0,0.33-0.062,0.413-0.185c0.052-0.08,0.078-0.25,0.078-0.51v-2.992c0-0.288-0.033-0.469-0.098-0.544      c-0.088-0.101-0.219-0.151-0.393-0.151h-0.173v-0.125h1.998c0.373,0,0.672,0.027,0.897,0.082      c0.341,0.082,0.601,0.227,0.781,0.435c0.18,0.208,0.27,0.447,0.27,0.718c0,0.232-0.07,0.44-0.211,0.623      C110.789,226.515,110.581,226.651,110.306,226.74z M108.515,226.551c0.084,0.016,0.181,0.028,0.289,0.036      c0.108,0.008,0.227,0.012,0.357,0.012c0.333,0,0.583-0.036,0.75-0.107c0.167-0.071,0.295-0.181,0.384-0.329      c0.089-0.147,0.133-0.309,0.133-0.484c0-0.27-0.11-0.5-0.332-0.692c-0.221-0.19-0.543-0.286-0.967-0.286      c-0.228,0-0.433,0.025-0.615,0.075V226.551z M108.515,228.772c0.266,0.062,0.528,0.092,0.787,0.092      c0.415,0,0.731-0.093,0.949-0.278c0.218-0.186,0.327-0.416,0.327-0.689c0-0.18-0.051-0.353-0.153-0.52s-0.263-0.297-0.484-0.393      s-0.495-0.144-0.82-0.144c-0.141,0-0.262,0.002-0.362,0.007c-0.1,0.005-0.181,0.013-0.243,0.024V228.772z"/>
				<path d="M113.168,224.724v1.828h0.844c0.195,0,0.338-0.043,0.429-0.129c0.09-0.086,0.151-0.254,0.181-0.503h0.125v1.563h-0.125      c-0.002-0.18-0.026-0.312-0.07-0.396c-0.045-0.084-0.107-0.147-0.186-0.189c-0.08-0.042-0.197-0.063-0.353-0.063h-0.844v1.453      c0,0.235,0.015,0.391,0.044,0.466c0.022,0.057,0.07,0.106,0.143,0.147c0.099,0.055,0.203,0.082,0.312,0.082h0.166v0.125h-1.984      v-0.125h0.164c0.192,0,0.331-0.056,0.418-0.168c0.055-0.073,0.082-0.249,0.082-0.527v-2.992c0-0.235-0.015-0.391-0.044-0.466      c-0.023-0.057-0.07-0.106-0.14-0.147c-0.099-0.055-0.203-0.082-0.315-0.082h-0.164v-0.125h3.445l0.047,1.016h-0.117      c-0.06-0.216-0.128-0.375-0.207-0.477c-0.078-0.102-0.175-0.175-0.291-0.221c-0.115-0.045-0.293-0.068-0.535-0.068H113.168z"/>
				<path d="M119.647,227.826l0.109,0.024l-0.398,1.257h-3.586v-0.125h0.174c0.195,0,0.334-0.063,0.418-0.191      c0.048-0.073,0.072-0.241,0.072-0.504v-2.992c0-0.29-0.032-0.472-0.095-0.544c-0.089-0.101-0.22-0.151-0.395-0.151h-0.174      v-0.125h2.086v0.125c-0.243-0.002-0.413,0.021-0.511,0.068c-0.098,0.047-0.165,0.107-0.2,0.179      c-0.036,0.072-0.054,0.245-0.054,0.519v2.915c0,0.189,0.018,0.319,0.055,0.39c0.027,0.048,0.07,0.083,0.127,0.106      s0.235,0.034,0.534,0.034h0.339c0.356,0,0.606-0.026,0.75-0.078c0.144-0.053,0.275-0.145,0.394-0.278      C119.41,228.321,119.529,228.112,119.647,227.826z"/>
			</g>
			<g>
				<path d="M56.796,242.607l5.438,1.688v-3.375L56.796,242.607z"/>
				<path d="M62.233,242.607"/>
			</g>
			<path class="st7" d="M96.38,242.607H62.233"/>
			<g>
				<path d="M146.796,242.607l-5.438-1.688v3.375L146.796,242.607z"/>
				<path d="M141.359,242.607"/>
			</g>
			<path class="st7" d="M141.359,242.607H113.63"/>
			<g>
				<path d="M101.025,240.557v1.836h1.016c0.264,0,0.44-0.039,0.529-0.118c0.118-0.103,0.184-0.285,0.198-0.546h0.125v1.602h-0.125      c-0.032-0.225-0.063-0.369-0.096-0.432c-0.041-0.08-0.108-0.142-0.201-0.187c-0.093-0.046-0.236-0.068-0.43-0.068h-1.016v1.527      c0,0.205,0.009,0.33,0.027,0.374c0.018,0.045,0.05,0.08,0.095,0.106c0.045,0.026,0.131,0.039,0.258,0.039h0.781      c0.26,0,0.45-0.019,0.567-0.055c0.118-0.037,0.231-0.109,0.339-0.217c0.141-0.142,0.284-0.356,0.432-0.643h0.148l-0.399,1.164      h-3.569v-0.125h0.164c0.11,0,0.214-0.026,0.312-0.079c0.073-0.037,0.123-0.092,0.149-0.165c0.026-0.074,0.04-0.224,0.04-0.451      v-3.008c0-0.294-0.03-0.475-0.089-0.543c-0.083-0.091-0.219-0.137-0.411-0.137h-0.164v-0.125h3.57l0.047,1.016h-0.133      c-0.048-0.245-0.101-0.413-0.158-0.505c-0.058-0.091-0.144-0.161-0.258-0.209c-0.091-0.035-0.251-0.052-0.48-0.052H101.025z"/>
				<path d="M105.27,240.557v1.828h0.844c0.195,0,0.338-0.043,0.429-0.129c0.09-0.086,0.151-0.254,0.181-0.503h0.125v1.563h-0.125      c-0.002-0.18-0.026-0.312-0.071-0.396c-0.044-0.084-0.106-0.147-0.186-0.189s-0.197-0.063-0.353-0.063h-0.844v1.453      c0,0.235,0.015,0.391,0.044,0.466c0.022,0.057,0.07,0.106,0.143,0.147c0.099,0.055,0.203,0.082,0.312,0.082h0.166v0.125h-1.984      v-0.125h0.165c0.191,0,0.331-0.056,0.417-0.168c0.055-0.073,0.082-0.249,0.082-0.527v-2.992c0-0.235-0.015-0.391-0.044-0.466      c-0.023-0.057-0.07-0.106-0.141-0.147c-0.098-0.055-0.203-0.082-0.314-0.082h-0.165v-0.125h3.445l0.047,1.016h-0.117      c-0.059-0.216-0.128-0.375-0.207-0.477c-0.079-0.102-0.176-0.175-0.291-0.221c-0.115-0.045-0.293-0.068-0.535-0.068H105.27z"/>
				<path d="M111.749,243.659l0.109,0.024l-0.398,1.257h-3.586v-0.125h0.174c0.195,0,0.335-0.063,0.419-0.191      c0.047-0.073,0.071-0.241,0.071-0.504v-2.992c0-0.29-0.032-0.472-0.095-0.544c-0.089-0.101-0.22-0.151-0.395-0.151h-0.174      v-0.125h2.086v0.125c-0.243-0.002-0.413,0.021-0.511,0.068c-0.098,0.047-0.165,0.107-0.201,0.179      c-0.036,0.072-0.054,0.245-0.054,0.519v2.915c0,0.189,0.018,0.319,0.055,0.39c0.027,0.048,0.07,0.083,0.127,0.106      c0.057,0.023,0.235,0.034,0.534,0.034h0.339c0.356,0,0.606-0.026,0.75-0.078c0.144-0.053,0.275-0.145,0.394-0.278      C111.511,244.154,111.63,243.945,111.749,243.659z"/>
			</g>
			<g>
				<path d="M150.984,174.455v2.156h0.172c0.232,0,0.421-0.035,0.568-0.105c0.147-0.071,0.271-0.189,0.373-0.357      s0.168-0.393,0.199-0.678h0.141v2.688h-0.141c-0.049-0.509-0.183-0.845-0.4-1.007s-0.464-0.243-0.74-0.243h-0.172v1.625      c0,0.272,0.015,0.442,0.045,0.511c0.03,0.068,0.088,0.127,0.176,0.179c0.087,0.051,0.205,0.076,0.354,0.076h0.176v0.141h-2.781      v-0.141h0.177c0.154,0,0.279-0.027,0.373-0.083c0.068-0.037,0.12-0.099,0.157-0.188c0.028-0.063,0.043-0.228,0.043-0.495v-3.484      c0-0.272-0.015-0.442-0.043-0.511c-0.029-0.067-0.087-0.127-0.175-0.178c-0.088-0.051-0.206-0.077-0.355-0.077h-0.177v-0.141      h4.5v1.531h-0.156c-0.037-0.358-0.13-0.623-0.279-0.795c-0.15-0.172-0.367-0.294-0.65-0.365      c-0.156-0.039-0.445-0.059-0.867-0.059H150.984z"/>
				<path d="M154.899,176.611h-0.186l-0.406-1.49c-0.052-0.185-0.077-0.354-0.077-0.511c0-0.169,0.055-0.31,0.164-0.423      s0.244-0.17,0.404-0.17c0.183,0,0.324,0.06,0.423,0.18c0.099,0.119,0.149,0.25,0.149,0.39c0,0.117-0.03,0.294-0.089,0.53      L154.899,176.611z"/>
			</g>
			<g>
				<path d="M60.953,177.034v1.469c0,0.291,0.018,0.474,0.054,0.549c0.036,0.076,0.1,0.136,0.192,0.181s0.26,0.067,0.504,0.067      v0.141h-2.719v-0.141c0.25,0,0.419-0.023,0.508-0.069c0.089-0.046,0.152-0.106,0.188-0.181c0.036-0.074,0.054-0.256,0.054-0.547      v-3.422c0-0.291-0.018-0.474-0.054-0.549c-0.036-0.075-0.099-0.136-0.189-0.181c-0.09-0.045-0.259-0.067-0.506-0.067v-0.141      h2.313c0.762,0,1.308,0.135,1.639,0.405s0.497,0.607,0.497,1.013c0,0.343-0.107,0.637-0.32,0.881      c-0.213,0.244-0.507,0.41-0.881,0.498C61.98,177.002,61.554,177.034,60.953,177.034z M60.953,174.44v2.297      c0.085,0.005,0.15,0.008,0.195,0.008c0.316,0,0.561-0.095,0.731-0.284c0.172-0.189,0.257-0.482,0.257-0.88      c0-0.395-0.085-0.683-0.257-0.866c-0.171-0.183-0.427-0.274-0.767-0.274H60.953z"/>
				<path d="M64.899,176.612h-0.186l-0.406-1.49c-0.052-0.185-0.078-0.354-0.078-0.511c0-0.169,0.055-0.31,0.165-0.423      c0.109-0.113,0.244-0.17,0.404-0.17c0.183,0,0.324,0.06,0.423,0.18c0.099,0.119,0.149,0.25,0.149,0.39      c0,0.117-0.03,0.294-0.089,0.53L64.899,176.612z"/>
			</g>
			<path class="st1" d="M77.796,232.483v-71.709"/>
			<path class="st8" d="M56.796,248.191V129.107"/>
			<path class="st1" d="M146.796,248.191v-76.417"/>
			<path class="st0" d="M6.63,141.441h29.489l33.356,5.636l77.321,34.364"/>
			<path class="st6" d="M36.119,141.441h20.677l12.859,5.715"/>
			<path class="st0" d="M6.63,161.441h23.168l46.351,4.301l70.648,15.698"/>
			<path class="st8" d="M4.123,181.44H159.13"/>
			<path class="st6" d="M29.798,161.441h26.998l19.352,4.301"/>
			<path class="st0" d="M6.63,201.441h23.168l46.351-4.301l70.647-15.7"/>
			<path class="st6" d="M29.798,201.441h26.998l19.352-4.301"/>
			<path class="st0" d="M6.63,221.441h29.489l33.357-5.636l77.32-34.365"/>
			<path class="st6" d="M36.119,221.441h20.677l12.698-5.645"/>
			<path d="M58.296,181.441c0,0.828-0.672,1.5-1.5,1.5s-1.5-0.672-1.5-1.5s0.672-1.5,1.5-1.5S58.296,180.613,58.296,181.441z"/>
			<path d="M148.296,181.44c0,0.828-0.672,1.5-1.5,1.5s-1.5-0.672-1.5-1.5s0.672-1.5,1.5-1.5S148.296,180.612,148.296,181.44z"/>
			<path class="st3" d="M99.105,4.69c-7.953,14.346-12.482,30.852-12.482,48.416s4.527,34.07,12.479,48.415"/>
			<path class="st3" d="M118.903,101.524c11.054-13.064,17.72-29.963,17.72-48.418s-6.666-35.354-17.723-48.42"/>
			<path class="st8" d="M4.123,53.106h151.833"/>
			<g>
				<path class="st4" d="M154.291,13.107l-7.25,2.25v-4.5L154.291,13.107z"/>
				<path d="M147.041,13.107"/>
			</g>
			<path class="st8" d="M104.623,119.857V0.773"/>
			<g>
				<path class="st4" d="M154.291,33.107l-7.25,2.25v-4.5L154.291,33.107z"/>
				<path d="M147.041,33.107"/>
			</g>
			<g>
				<path class="st4" d="M154.291,73.107l-7.25,2.25v-4.5L154.291,73.107z"/>
				<path d="M147.041,73.107"/>
			</g>
			<g>
				<path class="st4" d="M154.291,93.107l-7.25,2.25v-4.5L154.291,93.107z"/>
				<path d="M147.041,93.107"/>
			</g>
			<g>
				<path class="st4" d="M59.976,73.263l-7.539-0.888l1.828-4.112L59.976,73.263z"/>
				<path d="M53.35,70.319"/>
			</g>
			<g>
				<path class="st4" d="M63.072,63.873l-7.565,0.625l0.976-4.394L63.072,63.873z"/>
				<path d="M55.994,62.3"/>
			</g>
			<g>
				<path class="st4" d="M59.976,32.949l-7.539,0.888l1.828,4.112L59.976,32.949z"/>
				<path d="M53.35,35.893"/>
			</g>
			<g>
				<path class="st4" d="M63.072,42.339l-7.565-0.625l0.976,4.394L63.072,42.339z"/>
				<path d="M55.994,43.912"/>
			</g>
			<g>
				<path d="M128.345,72.84"/>
			</g>
			<g>
				<path d="M14.623,98.44l5.438,1.688v-3.375L14.623,98.44z"/>
				<path d="M20.06,98.44"/>
			</g>
			<path class="st7" d="M43.207,98.44H20.06"/>
			<g>
				<path d="M86.623,98.44l-5.437-1.688v3.375L86.623,98.44z"/>
				<path d="M81.186,98.44"/>
			</g>
			<path class="st7" d="M81.186,98.44H59.457"/>
			<g>
				<path d="M47.327,96.39v1.828h0.844c0.195,0,0.338-0.043,0.429-0.129c0.09-0.086,0.151-0.254,0.181-0.503h0.125v1.563H48.78      c-0.002-0.18-0.026-0.312-0.071-0.396c-0.044-0.084-0.106-0.147-0.186-0.189S48.327,98.5,48.171,98.5h-0.844v1.453      c0,0.235,0.015,0.391,0.044,0.466c0.022,0.057,0.07,0.106,0.143,0.147c0.099,0.055,0.203,0.082,0.312,0.082h0.166v0.125h-1.984      v-0.125h0.165c0.191,0,0.331-0.056,0.417-0.168c0.055-0.073,0.082-0.249,0.082-0.527V96.96c0-0.235-0.015-0.391-0.044-0.466      c-0.023-0.057-0.07-0.106-0.141-0.147c-0.098-0.055-0.203-0.082-0.314-0.082h-0.165V96.14h3.445l0.047,1.016h-0.117      c-0.059-0.216-0.128-0.375-0.207-0.477c-0.079-0.102-0.176-0.175-0.291-0.221c-0.115-0.045-0.293-0.068-0.535-0.068H47.327z"/>
				<path d="M51.22,96.39v1.828h0.844c0.195,0,0.338-0.043,0.429-0.129c0.09-0.086,0.151-0.254,0.181-0.503h0.125v1.563h-0.125      c-0.002-0.18-0.026-0.312-0.07-0.396c-0.045-0.084-0.107-0.147-0.186-0.189c-0.08-0.042-0.197-0.063-0.353-0.063H51.22v1.453      c0,0.235,0.015,0.391,0.044,0.466c0.022,0.057,0.07,0.106,0.143,0.147c0.099,0.055,0.203,0.082,0.312,0.082h0.166v0.125H49.9      v-0.125h0.164c0.192,0,0.331-0.056,0.418-0.168c0.055-0.073,0.082-0.249,0.082-0.527V96.96c0-0.235-0.015-0.391-0.044-0.466      c-0.023-0.057-0.07-0.106-0.14-0.147c-0.099-0.055-0.203-0.082-0.315-0.082H49.9V96.14h3.445l0.047,1.016h-0.117      c-0.06-0.216-0.128-0.375-0.207-0.477c-0.078-0.102-0.175-0.175-0.291-0.221c-0.115-0.045-0.293-0.068-0.535-0.068H51.22z"/>
				<path d="M57.699,99.492l0.109,0.024l-0.398,1.257h-3.586v-0.125h0.174c0.195,0,0.334-0.063,0.418-0.191      c0.048-0.073,0.072-0.241,0.072-0.504V96.96c0-0.29-0.032-0.472-0.095-0.544c-0.089-0.101-0.22-0.151-0.395-0.151h-0.174V96.14      h2.086v0.125c-0.243-0.002-0.413,0.021-0.511,0.068c-0.098,0.047-0.165,0.107-0.2,0.179c-0.036,0.072-0.054,0.245-0.054,0.519      v2.915c0,0.189,0.018,0.319,0.055,0.39c0.027,0.048,0.07,0.083,0.127,0.106s0.235,0.034,0.534,0.034h0.339      c0.356,0,0.606-0.026,0.75-0.078c0.144-0.053,0.275-0.145,0.394-0.278C57.461,99.987,57.581,99.778,57.699,99.492z"/>
			</g>
			<g>
				<path d="M85.485,174.142v0.141c-0.193,0.031-0.365,0.135-0.516,0.31c-0.109,0.13-0.272,0.437-0.488,0.92l-1.819,4.052h-0.134      l-1.81-4.217c-0.219-0.508-0.365-0.807-0.439-0.896c-0.074-0.088-0.214-0.145-0.42-0.168v-0.141h2.534v0.141h-0.086      c-0.229,0-0.385,0.029-0.469,0.087c-0.06,0.039-0.09,0.097-0.09,0.173c0,0.048,0.011,0.104,0.031,0.168      c0.021,0.064,0.091,0.236,0.211,0.515l1.132,2.638l1.045-2.351c0.126-0.283,0.203-0.473,0.232-0.57s0.043-0.18,0.043-0.248      c0-0.079-0.021-0.148-0.063-0.208c-0.042-0.06-0.103-0.105-0.184-0.137c-0.112-0.044-0.26-0.067-0.445-0.067v-0.141H85.485z"/>
				<path d="M86.79,176.611h-0.186l-0.406-1.49c-0.052-0.185-0.078-0.354-0.078-0.511c0-0.169,0.055-0.31,0.165-0.423      c0.109-0.113,0.244-0.17,0.404-0.17c0.183,0,0.324,0.06,0.423,0.18c0.099,0.119,0.149,0.25,0.149,0.39      c0,0.117-0.03,0.294-0.089,0.53L86.79,176.611z"/>
			</g>
			<path d="M79.296,181.44c0,0.828-0.672,1.5-1.5,1.5s-1.5-0.672-1.5-1.5s0.672-1.5,1.5-1.5S79.296,180.612,79.296,181.44z"/>
			<g>
				<path d="M120.5,48.7v1.469c0,0.291,0.018,0.474,0.054,0.549c0.036,0.076,0.1,0.136,0.191,0.181s0.26,0.067,0.505,0.067v0.141      h-2.719v-0.141c0.25,0,0.419-0.023,0.509-0.069c0.089-0.046,0.151-0.106,0.188-0.181c0.036-0.074,0.054-0.256,0.054-0.547      v-3.422c0-0.291-0.018-0.474-0.054-0.549c-0.036-0.075-0.1-0.136-0.189-0.181c-0.091-0.045-0.26-0.067-0.507-0.067v-0.141h2.313      c0.762,0,1.309,0.135,1.64,0.405s0.497,0.607,0.497,1.013c0,0.343-0.106,0.637-0.32,0.881s-0.507,0.41-0.881,0.498      C121.526,48.668,121.1,48.7,120.5,48.7z M120.5,46.106v2.297c0.085,0.005,0.15,0.008,0.194,0.008      c0.317,0,0.561-0.095,0.732-0.284c0.171-0.189,0.257-0.482,0.257-0.88c0-0.395-0.086-0.683-0.257-0.866      c-0.172-0.183-0.427-0.274-0.767-0.274H120.5z"/>
				<path d="M124.446,48.278h-0.186l-0.406-1.49c-0.052-0.185-0.077-0.354-0.077-0.511c0-0.169,0.055-0.31,0.164-0.423      s0.244-0.17,0.404-0.17c0.183,0,0.324,0.06,0.423,0.18c0.099,0.119,0.149,0.25,0.149,0.39c0,0.117-0.03,0.294-0.089,0.53      L124.446,48.278z"/>
			</g>
			<path d="M117.123,53.107c0,0.828-0.672,1.5-1.5,1.5s-1.5-0.672-1.5-1.5s0.672-1.5,1.5-1.5S117.123,52.279,117.123,53.107z"/>
			<g>
				<path d="M144.312,45.808v0.141c-0.193,0.031-0.365,0.135-0.516,0.31c-0.109,0.13-0.272,0.437-0.488,0.92l-1.819,4.052h-0.134      l-1.81-4.217c-0.219-0.508-0.365-0.807-0.439-0.896c-0.074-0.088-0.214-0.145-0.42-0.168v-0.141h2.534v0.141h-0.086      c-0.229,0-0.386,0.029-0.469,0.087c-0.061,0.039-0.09,0.097-0.09,0.173c0,0.048,0.01,0.104,0.031,0.168      c0.021,0.064,0.091,0.236,0.211,0.515l1.132,2.638l1.046-2.351c0.125-0.283,0.203-0.473,0.231-0.57      c0.028-0.097,0.043-0.18,0.043-0.248c0-0.079-0.021-0.148-0.063-0.208c-0.042-0.06-0.103-0.105-0.184-0.137      c-0.112-0.044-0.261-0.067-0.445-0.067v-0.141H144.312z"/>
				<path d="M145.617,48.277h-0.186l-0.406-1.49c-0.052-0.185-0.077-0.354-0.077-0.511c0-0.169,0.055-0.31,0.164-0.423      s0.244-0.17,0.404-0.17c0.183,0,0.324,0.06,0.423,0.18c0.099,0.119,0.149,0.25,0.149,0.39c0,0.117-0.03,0.294-0.089,0.53      L145.617,48.277z"/>
			</g>
			<path d="M138.123,53.106c0,0.828-0.672,1.5-1.5,1.5s-1.5-0.672-1.5-1.5s0.672-1.5,1.5-1.5S138.123,52.278,138.123,53.106z"/>
			<g>
				<path d="M14.623,114.273l5.438,1.688v-3.375L14.623,114.273z"/>
				<path d="M20.06,114.273"/>
			</g>
			<path class="st7" d="M54.207,114.273H20.06"/>
			<g>
				<path d="M104.623,114.273l-5.438-1.688v3.375L104.623,114.273z"/>
				<path d="M99.185,114.273"/>
			</g>
			<path class="st7" d="M99.185,114.273H71.457"/>
			<g>
				<path d="M58.851,112.223v1.836h1.016c0.264,0,0.44-0.039,0.529-0.118c0.118-0.103,0.184-0.285,0.198-0.546h0.125v1.602h-0.125      c-0.032-0.225-0.063-0.369-0.096-0.432c-0.041-0.08-0.108-0.142-0.201-0.187c-0.093-0.046-0.236-0.068-0.43-0.068h-1.016v1.527      c0,0.205,0.009,0.33,0.027,0.374c0.018,0.045,0.05,0.08,0.095,0.106c0.045,0.026,0.131,0.039,0.258,0.039h0.781      c0.26,0,0.45-0.019,0.567-0.055c0.118-0.037,0.231-0.109,0.339-0.217c0.141-0.142,0.284-0.356,0.432-0.643H61.5l-0.399,1.164      h-3.569v-0.125h0.164c0.11,0,0.214-0.026,0.312-0.079c0.073-0.037,0.123-0.092,0.149-0.165c0.026-0.074,0.04-0.224,0.04-0.451      v-3.008c0-0.294-0.03-0.475-0.089-0.543c-0.083-0.091-0.219-0.137-0.411-0.137h-0.164v-0.125h3.57l0.047,1.016h-0.133      c-0.048-0.245-0.101-0.413-0.158-0.505c-0.058-0.091-0.144-0.161-0.258-0.209c-0.091-0.035-0.251-0.052-0.48-0.052H58.851z"/>
				<path d="M63.096,112.223v1.828h0.844c0.195,0,0.338-0.043,0.429-0.129c0.09-0.086,0.151-0.254,0.181-0.503h0.125v1.563h-0.125      c-0.002-0.18-0.026-0.312-0.071-0.396c-0.044-0.084-0.106-0.147-0.186-0.189s-0.197-0.063-0.353-0.063h-0.844v1.453      c0,0.235,0.015,0.391,0.044,0.466c0.022,0.057,0.07,0.106,0.143,0.147c0.099,0.055,0.203,0.082,0.312,0.082h0.166v0.125h-1.984      v-0.125h0.165c0.191,0,0.331-0.056,0.417-0.168c0.055-0.073,0.082-0.249,0.082-0.527v-2.992c0-0.235-0.015-0.391-0.044-0.466      c-0.023-0.057-0.07-0.106-0.141-0.147c-0.098-0.055-0.203-0.082-0.314-0.082h-0.165v-0.125h3.445l0.047,1.016H65.15      c-0.059-0.216-0.128-0.375-0.207-0.477c-0.079-0.102-0.176-0.175-0.291-0.221c-0.115-0.045-0.293-0.068-0.535-0.068H63.096z"/>
				<path d="M69.575,115.325l0.109,0.024l-0.398,1.257H65.7v-0.125h0.174c0.195,0,0.335-0.063,0.419-0.191      c0.047-0.073,0.071-0.241,0.071-0.504v-2.992c0-0.29-0.032-0.472-0.095-0.544c-0.089-0.101-0.22-0.151-0.395-0.151H65.7v-0.125      h2.086v0.125c-0.243-0.002-0.413,0.021-0.511,0.068c-0.098,0.047-0.165,0.107-0.201,0.179c-0.036,0.072-0.054,0.245-0.054,0.519      v2.915c0,0.189,0.018,0.319,0.055,0.39c0.027,0.048,0.07,0.083,0.127,0.106c0.057,0.023,0.235,0.034,0.534,0.034h0.339      c0.356,0,0.606-0.026,0.75-0.078c0.144-0.053,0.275-0.145,0.394-0.278C69.337,115.82,69.456,115.611,69.575,115.325z"/>
			</g>
			<g>
				<path d="M8.644,46.119v2.156h0.172c0.232,0,0.421-0.035,0.568-0.105c0.147-0.071,0.271-0.189,0.373-0.357      s0.168-0.393,0.199-0.678h0.141v2.688H9.957c-0.049-0.509-0.183-0.845-0.4-1.007s-0.464-0.243-0.74-0.243H8.644v1.625      c0,0.272,0.015,0.442,0.045,0.511c0.03,0.068,0.088,0.127,0.176,0.179c0.087,0.051,0.205,0.076,0.354,0.076h0.176v0.141H6.613      v-0.141H6.79c0.154,0,0.279-0.027,0.373-0.083c0.068-0.037,0.12-0.099,0.157-0.188c0.028-0.063,0.043-0.228,0.043-0.495v-3.484      c0-0.272-0.015-0.442-0.043-0.511c-0.029-0.067-0.087-0.127-0.175-0.178c-0.088-0.051-0.206-0.077-0.355-0.077H6.613v-0.141h4.5      v1.531h-0.156c-0.037-0.358-0.13-0.623-0.279-0.795c-0.15-0.172-0.367-0.294-0.65-0.365c-0.156-0.039-0.445-0.059-0.867-0.059      H8.644z"/>
			</g>
			<g>
				<path d="M99.642,48.7v1.469c0,0.291,0.018,0.474,0.054,0.549c0.036,0.076,0.1,0.136,0.191,0.181s0.26,0.067,0.505,0.067v0.141      h-2.719v-0.141c0.25,0,0.419-0.023,0.509-0.069c0.089-0.046,0.151-0.106,0.188-0.181c0.036-0.074,0.054-0.256,0.054-0.547      v-3.422c0-0.291-0.018-0.474-0.054-0.549c-0.036-0.075-0.1-0.136-0.189-0.181c-0.091-0.045-0.26-0.067-0.507-0.067v-0.141h2.313      c0.762,0,1.309,0.135,1.64,0.405s0.497,0.607,0.497,1.013c0,0.343-0.106,0.637-0.32,0.881s-0.507,0.41-0.881,0.498      C100.669,48.668,100.243,48.7,99.642,48.7z M99.642,46.106v2.297c0.085,0.005,0.15,0.008,0.194,0.008      c0.317,0,0.561-0.095,0.732-0.284c0.171-0.189,0.257-0.482,0.257-0.88c0-0.395-0.086-0.683-0.257-0.866      c-0.172-0.183-0.427-0.274-0.767-0.274H99.642z"/>
			</g>
			<path class="st1" d="M86.623,104.149V32.44"/>
			<path class="st1" d="M14.623,119.857V43.44"/>
			<path class="st0" d="M151.624,13.107h-26.551l-32.241,5.24l-78.209,34.76"/>
			<path class="st6" d="M125.073,13.107h-20.45l-11.791,5.24"/>
			<path class="st0" d="M151.624,33.107h-17.696l-45.982,3.706L14.623,53.106"/>
			<path class="st6" d="M133.927,33.107h-29.305l-16.678,3.706"/>
			<path class="st0" d="M151.624,73.107h-17.697l-45.981-3.706L14.623,53.106"/>
			<path class="st6" d="M133.926,73.107h-29.304l-16.676-3.706"/>
			<path class="st0" d="M151.624,93.107h-26.551l-32.241-5.24L14.623,53.106"/>
			<path class="st6" d="M125.073,93.107h-20.45l-11.789-5.239"/>
			<path d="M106.123,53.107c0,0.828-0.672,1.5-1.5,1.5s-1.5-0.672-1.5-1.5s0.672-1.5,1.5-1.5S106.123,52.279,106.123,53.107z"/>
			<g>
				<path d="M84.622,45.806v0.141c-0.193,0.031-0.365,0.135-0.516,0.31c-0.109,0.13-0.272,0.437-0.488,0.92l-1.819,4.052h-0.134      l-1.81-4.217c-0.219-0.508-0.365-0.807-0.439-0.896c-0.074-0.088-0.214-0.145-0.42-0.168v-0.141h2.534v0.141h-0.086      c-0.229,0-0.385,0.029-0.469,0.087c-0.06,0.039-0.09,0.097-0.09,0.173c0,0.048,0.011,0.104,0.031,0.168      c0.021,0.064,0.091,0.236,0.211,0.515l1.132,2.638l1.045-2.351c0.126-0.283,0.203-0.473,0.232-0.57s0.043-0.18,0.043-0.248      c0-0.079-0.021-0.148-0.063-0.208c-0.042-0.06-0.103-0.105-0.184-0.137c-0.112-0.044-0.26-0.067-0.445-0.067v-0.141H84.622z"/>
			</g>
			<path d="M88.123,53.106c0,0.828-0.672,1.5-1.5,1.5s-1.5-0.672-1.5-1.5s0.672-1.5,1.5-1.5S88.123,52.278,88.123,53.106z"/>
			<g>
				<path d="M40.816,177.034v1.469c0,0.291,0.018,0.474,0.054,0.549c0.036,0.076,0.1,0.136,0.191,0.181s0.26,0.067,0.505,0.067      v0.141h-2.719v-0.141c0.25,0,0.419-0.023,0.509-0.069c0.089-0.046,0.151-0.106,0.188-0.181c0.036-0.074,0.054-0.256,0.054-0.547      v-3.422c0-0.291-0.018-0.474-0.054-0.549c-0.036-0.075-0.1-0.136-0.189-0.181c-0.091-0.045-0.26-0.067-0.507-0.067v-0.141h2.313      c0.762,0,1.309,0.135,1.64,0.405s0.497,0.607,0.497,1.013c0,0.343-0.106,0.637-0.32,0.881s-0.507,0.41-0.881,0.498      C41.843,177.002,41.417,177.034,40.816,177.034z M40.816,174.44v2.297c0.085,0.005,0.15,0.008,0.194,0.008      c0.317,0,0.561-0.095,0.732-0.284c0.171-0.189,0.257-0.482,0.257-0.88c0-0.395-0.086-0.683-0.257-0.866      c-0.172-0.183-0.427-0.274-0.767-0.274H40.816z"/>
			</g>
			<path d="M47.296,181.441c0,0.828-0.672,1.5-1.5,1.5s-1.5-0.672-1.5-1.5s0.672-1.5,1.5-1.5S47.296,180.613,47.296,181.441z"/>
			<g>
				<path d="M25.795,174.14v0.141c-0.193,0.031-0.365,0.135-0.516,0.31c-0.109,0.13-0.272,0.437-0.488,0.92l-1.819,4.052h-0.134      l-1.81-4.217c-0.219-0.508-0.365-0.807-0.439-0.896c-0.074-0.088-0.214-0.145-0.42-0.168v-0.141h2.534v0.141h-0.086      c-0.229,0-0.386,0.029-0.469,0.087c-0.061,0.039-0.09,0.097-0.09,0.173c0,0.048,0.01,0.104,0.031,0.168      c0.021,0.064,0.091,0.236,0.211,0.515l1.132,2.638l1.046-2.351c0.125-0.283,0.203-0.473,0.231-0.57      c0.028-0.097,0.043-0.18,0.043-0.248c0-0.079-0.021-0.148-0.063-0.208c-0.042-0.06-0.103-0.105-0.184-0.137      c-0.112-0.044-0.261-0.067-0.445-0.067v-0.141H25.795z"/>
			</g>
			<path d="M29.296,181.44c0,0.828-0.672,1.5-1.5,1.5s-1.5-0.672-1.5-1.5s0.672-1.5,1.5-1.5S29.296,180.612,29.296,181.44z"/>
			<path d="M16.123,53.106c0,0.828-0.672,1.5-1.5,1.5s-1.5-0.672-1.5-1.5s0.672-1.5,1.5-1.5S16.123,52.278,16.123,53.106z"/>
		</g>
	</svg>