<?xml version="1.0" encoding="UTF-8"?>
<!-- Generator: Adobe Illustrator 10.0, SVG Export Plug-In . SVG Version: 3.0.0 Build 76)  -->
<!DOCTYPE svg PUBLIC "-//W3C//DTD SVG 1.0//EN" "http://www.w3.org/TR/2001/REC-SVG-20010904/DTD/svg10.dtd">
<svg xmlns="http://www.w3.org/2000/svg" xmlns:xlink="http://www.w3.org/1999/xlink" xmlns:a="http://ns.adobe.com/AdobeSVGViewerExtensions/3.0/" width="414.997" height="250" viewBox="0 0 414.997 250" overflow="visible" enable-background="new 0 0 414.997 250" xml:space="preserve">
	<g id="Layer_1">
		<path fill="#FFFCF3" d="M414.997,250H0V0h414.997V250z"/>
		<path fill="#FFFFFF" stroke="#000000" stroke-width="0.5" stroke-dasharray="6 3" d="M29.036,125.31h370.326"/>
		<path opacity="0.75" fill="#CCE2EF" stroke="#000000" stroke-width="0.75" d="M115.488,123.037    c0,29.423,4.329,57.828,12.342,84.645h8.656c7.582-26.147,11.666-53.781,11.666-82.373c0-28.593-4.088-56.225-11.674-82.372    h-8.617C120.697,68.412,115.488,95.273,115.488,123.037z"/>
		<path fill="none" stroke="#FF0000" d="M545.961,125.242"/>
		<path fill="none" stroke="#FF0000" d="M262.336,124.953"/>
		<path fill="#FFFFFF" stroke="#000000" stroke-width="0.25" d="M131.958,27.051v199.926"/>
		<g>
			<path d="M175.017,192.403l-0.875,3.844h-0.313l-0.036-0.97c-0.029-0.353-0.097-0.667-0.204-0.944s-0.266-0.516-0.479-0.719     c-0.213-0.203-0.482-0.361-0.807-0.476s-0.686-0.172-1.082-0.172c-1.059,0-1.984,0.287-2.776,0.86     c-1.011,0.731-1.803,1.764-2.376,3.098c-0.473,1.1-0.709,2.215-0.709,3.344c0,1.153,0.339,2.073,1.019,2.76     s1.563,1.031,2.649,1.031c0.821,0,1.552-0.181,2.193-0.543c0.641-0.362,1.236-0.921,1.785-1.675h0.417     c-0.644,1.019-1.358,1.768-2.143,2.249c-0.785,0.48-1.724,0.72-2.819,0.72c-0.972,0-1.833-0.203-2.582-0.608     c-0.75-0.405-1.32-0.976-1.712-1.71c-0.393-0.735-0.588-1.525-0.588-2.371c0-1.295,0.348-2.555,1.045-3.78     c0.697-1.225,1.653-2.187,2.869-2.887c1.216-0.7,2.441-1.05,3.678-1.05c0.58,0,1.23,0.139,1.951,0.417     c0.316,0.118,0.544,0.177,0.685,0.177s0.264-0.029,0.369-0.088s0.281-0.228,0.527-0.505H175.017z"/>
			<path d="M179.616,192.06l-2.475,8.577c1.151-1.628,2.05-2.709,2.695-3.244s1.262-0.802,1.851-0.802     c0.304,0,0.557,0.108,0.759,0.324c0.202,0.216,0.304,0.504,0.304,0.865c0,0.384-0.092,0.849-0.275,1.395l-1.2,3.652     c-0.151,0.441-0.226,0.686-0.226,0.732c0,0.079,0.021,0.143,0.064,0.194s0.092,0.076,0.147,0.076c0.065,0,0.142-0.037,0.228-0.11     c0.288-0.253,0.573-0.608,0.855-1.065l0.272,0.167c-0.189,0.311-0.452,0.646-0.789,1.006c-0.337,0.36-0.626,0.609-0.868,0.746     s-0.458,0.206-0.646,0.206c-0.206,0-0.374-0.07-0.505-0.208c-0.131-0.139-0.196-0.318-0.196-0.538     c0-0.259,0.117-0.742,0.352-1.448l1.158-3.532c0.147-0.441,0.221-0.789,0.221-1.042c0-0.118-0.041-0.212-0.122-0.283     c-0.081-0.07-0.186-0.106-0.315-0.106c-0.188,0-0.402,0.065-0.641,0.194c-0.44,0.247-0.949,0.705-1.525,1.374     c-0.156,0.182-0.674,0.916-1.554,2.202c-0.272,0.411-0.479,0.862-0.621,1.354l-0.556,1.814h-1.299l2.915-10.094l0.308-1.092     c0-0.152-0.063-0.288-0.19-0.405s-0.282-0.176-0.467-0.176c-0.108,0-0.272,0.018-0.493,0.053l-0.188,0.026v-0.313L179.616,192.06     z"/>
			<path d="M184.289,197.091l2.955-0.5l-1.234,4.277c1.039-1.754,1.982-2.98,2.831-3.679c0.48-0.399,0.873-0.599,1.175-0.599     c0.195,0,0.35,0.057,0.462,0.17s0.169,0.278,0.169,0.493c0,0.384-0.1,0.751-0.299,1.1c-0.141,0.262-0.344,0.393-0.607,0.393     c-0.135,0-0.251-0.043-0.348-0.129s-0.157-0.219-0.18-0.398c-0.012-0.109-0.038-0.181-0.079-0.216     c-0.047-0.046-0.103-0.069-0.167-0.069c-0.1,0-0.194,0.023-0.282,0.07c-0.152,0.083-0.384,0.312-0.695,0.687     c-0.487,0.576-1.016,1.321-1.584,2.237c-0.247,0.388-0.458,0.825-0.634,1.313c-0.247,0.669-0.387,1.072-0.422,1.207l-0.307,1.111     h-1.299l1.579-5.469c0.188-0.636,0.281-1.089,0.281-1.361c0-0.105-0.044-0.194-0.132-0.265c-0.116-0.094-0.264-0.141-0.443-0.141     c-0.114,0-0.324,0.026-0.628,0.079L184.289,197.091z"/>
			<path d="M198.016,199.349c0,0.882-0.233,1.754-0.698,2.618c-0.465,0.864-1.113,1.548-1.943,2.054     c-0.831,0.505-1.638,0.758-2.421,0.758c-0.802,0-1.455-0.257-1.961-0.771s-0.759-1.18-0.759-1.997c0-0.863,0.247-1.73,0.741-2.6     c0.494-0.869,1.155-1.557,1.982-2.062s1.627-0.758,2.399-0.758s1.408,0.256,1.908,0.767S198.016,198.533,198.016,199.349z      M196.579,198.726c0-0.548-0.134-0.968-0.401-1.26c-0.268-0.292-0.612-0.438-1.035-0.438c-0.863,0-1.658,0.621-2.383,1.861     c-0.726,1.241-1.088,2.475-1.088,3.7c0,0.561,0.141,0.992,0.423,1.296c0.282,0.304,0.637,0.455,1.066,0.455     c0.828,0,1.604-0.617,2.33-1.853C196.216,201.253,196.579,200,196.579,198.726z"/>
			<path d="M202.646,196.591l-1.131,3.977c0.517-0.935,0.956-1.637,1.318-2.107c0.564-0.729,1.114-1.258,1.648-1.587     c0.314-0.188,0.644-0.282,0.989-0.282c0.297,0,0.543,0.098,0.74,0.292c0.196,0.195,0.294,0.444,0.294,0.748     c0,0.285-0.073,0.656-0.218,1.115l-0.673,2.212c1.014-1.79,1.976-3.046,2.885-3.769c0.504-0.399,1.001-0.599,1.494-0.599     c0.286,0,0.521,0.103,0.705,0.308c0.184,0.206,0.275,0.523,0.275,0.954c0,0.336-0.06,0.692-0.18,1.068l-1.098,3.379     c-0.24,0.735-0.359,1.144-0.359,1.225c0,0.08,0.023,0.148,0.07,0.205c0.031,0.04,0.073,0.06,0.125,0.06s0.143-0.054,0.272-0.162     c0.295-0.256,0.573-0.595,0.832-1.017l0.29,0.185c-0.14,0.234-0.388,0.553-0.743,0.954c-0.355,0.402-0.659,0.674-0.911,0.816     c-0.252,0.142-0.484,0.213-0.696,0.213c-0.196,0-0.359-0.071-0.491-0.213c-0.132-0.142-0.197-0.317-0.197-0.524     c0-0.282,0.139-0.851,0.417-1.704l0.926-2.834c0.21-0.653,0.322-1.016,0.335-1.086c0.021-0.111,0.031-0.22,0.031-0.327     c0-0.147-0.035-0.262-0.105-0.344c-0.077-0.082-0.163-0.124-0.258-0.124c-0.268,0-0.551,0.126-0.851,0.379     c-0.879,0.748-1.701,1.795-2.464,3.142c-0.503,0.889-0.975,2.027-1.414,3.416h-1.299l1.605-5.32     c0.175-0.574,0.263-0.958,0.263-1.152c0-0.158-0.033-0.275-0.099-0.352s-0.146-0.114-0.241-0.114     c-0.197,0-0.406,0.07-0.626,0.211c-0.358,0.229-0.819,0.718-1.383,1.468c-0.563,0.75-1,1.469-1.311,2.154     c-0.149,0.323-0.504,1.357-1.065,3.104h-1.299l1.645-5.699l0.213-0.739c0.041-0.114,0.062-0.198,0.062-0.252     c0-0.132-0.059-0.25-0.177-0.354s-0.268-0.156-0.451-0.156c-0.077,0-0.289,0.035-0.636,0.105l-0.079-0.313L202.646,196.591z"/>
			<path d="M220.659,196.716l-1.708,5.993l-0.191,0.8c-0.031,0.066-0.047,0.123-0.047,0.168c0,0.085,0.021,0.16,0.063,0.223     c0.034,0.048,0.076,0.072,0.127,0.072c0.055,0,0.127-0.042,0.216-0.127c0.165-0.158,0.384-0.504,0.66-1.038l0.299,0.211     c-0.344,0.594-0.698,1.036-1.063,1.325s-0.701,0.435-1.01,0.435c-0.215,0-0.38-0.063-0.497-0.189     c-0.117-0.126-0.175-0.311-0.175-0.552c0-0.288,0.064-0.668,0.193-1.139l0.192-0.653c-0.848,1.003-1.627,1.704-2.338,2.102     c-0.511,0.287-1.013,0.431-1.504,0.431c-0.472,0-0.879-0.175-1.222-0.525c-0.343-0.35-0.514-0.832-0.514-1.445     c0-0.92,0.305-1.89,0.914-2.912c0.609-1.021,1.383-1.838,2.322-2.452c0.734-0.486,1.426-0.729,2.078-0.729     c0.389,0,0.713,0.087,0.972,0.262c0.258,0.175,0.455,0.463,0.589,0.867l0.268-0.91L220.659,196.716z M217.397,197.153     c-0.411,0-0.847,0.173-1.309,0.52c-0.654,0.491-1.237,1.219-1.747,2.184s-0.765,1.837-0.765,2.616     c0,0.393,0.113,0.704,0.34,0.932c0.227,0.229,0.488,0.342,0.782,0.342c0.728,0,1.52-0.465,2.375-1.395     c1.038-1.236,1.541-2.504,1.506-3.804c0-0.491-0.106-0.846-0.318-1.065S217.763,197.153,217.397,197.153z"/>
			<path d="M225.587,194.435l-0.711,2.375h1.21l-0.156,0.563h-1.223l-1.584,5.181c-0.207,0.588-0.31,0.969-0.31,1.143     c0,0.095,0.021,0.168,0.062,0.218c0.041,0.051,0.089,0.076,0.146,0.076c0.128,0,0.296-0.098,0.506-0.294     c0.123-0.117,0.397-0.478,0.822-1.081l0.29,0.22c-0.505,0.776-0.983,1.317-1.433,1.625c-0.308,0.212-0.618,0.319-0.93,0.319     c-0.242,0-0.44-0.082-0.593-0.244c-0.154-0.163-0.23-0.371-0.23-0.625c0-0.316,0.098-0.799,0.295-1.45l1.541-5.087h-1.34     l0.088-0.348c0.645-0.178,1.191-0.441,1.64-0.789s0.957-0.948,1.524-1.801H225.587z"/>
			<path d="M230.086,196.591l-1.857,6.213c-0.125,0.42-0.188,0.671-0.188,0.753c0,0.091,0.025,0.166,0.075,0.222     c0.05,0.057,0.109,0.085,0.178,0.085c0.079,0,0.174-0.045,0.285-0.136c0.301-0.26,0.604-0.634,0.91-1.12l0.308,0.202     c-0.377,0.606-0.821,1.111-1.331,1.515c-0.377,0.302-0.738,0.453-1.082,0.453c-0.228,0-0.414-0.073-0.558-0.217     c-0.145-0.145-0.216-0.327-0.216-0.546c0-0.217,0.078-0.577,0.234-1.081l1.215-3.937c0.188-0.66,0.281-1.074,0.281-1.243     c0-0.132-0.045-0.24-0.136-0.323s-0.216-0.125-0.374-0.125c-0.129,0-0.397,0.032-0.802,0.097v-0.313L230.086,196.591z      M229.703,193.122c0.245,0,0.452,0.085,0.621,0.254s0.254,0.376,0.254,0.621c0,0.239-0.086,0.445-0.258,0.617     s-0.377,0.258-0.617,0.258s-0.445-0.086-0.617-0.258s-0.258-0.378-0.258-0.617c0-0.245,0.084-0.452,0.253-0.621     S229.458,193.122,229.703,193.122z"/>
			<path d="M237.683,202.661c-0.609,0.732-1.223,1.269-1.842,1.608c-0.62,0.339-1.275,0.509-1.965,0.509     c-0.831,0-1.478-0.235-1.943-0.705c-0.465-0.47-0.697-1.102-0.697-1.895c0-0.898,0.25-1.783,0.75-2.652s1.172-1.576,2.017-2.12     s1.674-0.815,2.487-0.815c0.637,0,1.114,0.133,1.429,0.397c0.315,0.265,0.474,0.59,0.474,0.974c0,0.361-0.111,0.67-0.332,0.926     c-0.162,0.198-0.363,0.297-0.602,0.297c-0.181,0-0.331-0.058-0.45-0.173s-0.179-0.26-0.179-0.434c0-0.11,0.021-0.211,0.065-0.304     s0.133-0.204,0.269-0.334c0.136-0.13,0.219-0.224,0.248-0.282c0.028-0.058,0.043-0.119,0.043-0.182     c0-0.122-0.057-0.223-0.168-0.304c-0.171-0.116-0.413-0.174-0.725-0.174c-0.578,0-1.149,0.203-1.715,0.608     c-0.565,0.406-1.049,0.982-1.449,1.728c-0.483,0.905-0.725,1.81-0.725,2.715c0,0.6,0.17,1.074,0.512,1.424     s0.807,0.524,1.396,0.524c0.454,0,0.903-0.113,1.348-0.338s0.944-0.634,1.498-1.226L237.683,202.661z"/>
			<path d="M252.15,196.716l-1.707,5.993l-0.191,0.8c-0.031,0.066-0.047,0.123-0.047,0.168c0,0.085,0.021,0.16,0.063,0.223     c0.034,0.048,0.076,0.072,0.127,0.072c0.055,0,0.127-0.042,0.217-0.127c0.164-0.158,0.384-0.504,0.659-1.038l0.299,0.211     c-0.345,0.594-0.698,1.036-1.063,1.325s-0.701,0.435-1.011,0.435c-0.215,0-0.38-0.063-0.496-0.189     c-0.117-0.126-0.176-0.311-0.176-0.552c0-0.288,0.064-0.668,0.193-1.139l0.192-0.653c-0.848,1.003-1.627,1.704-2.338,2.102     c-0.511,0.287-1.013,0.431-1.504,0.431c-0.472,0-0.88-0.175-1.222-0.525c-0.344-0.35-0.515-0.832-0.515-1.445     c0-0.92,0.305-1.89,0.914-2.912c0.609-1.021,1.384-1.838,2.321-2.452c0.734-0.486,1.427-0.729,2.078-0.729     c0.389,0,0.713,0.087,0.972,0.262c0.259,0.175,0.454,0.463,0.589,0.867l0.268-0.91L252.15,196.716z M248.888,197.153     c-0.41,0-0.846,0.173-1.309,0.52c-0.654,0.491-1.236,1.219-1.746,2.184s-0.765,1.837-0.765,2.616     c0,0.393,0.113,0.704,0.341,0.932c0.227,0.229,0.487,0.342,0.781,0.342c0.729,0,1.52-0.465,2.375-1.395     c1.038-1.236,1.541-2.504,1.506-3.804c0-0.491-0.105-0.846-0.317-1.065S249.253,197.153,248.888,197.153z"/>
			<path d="M257.609,192.06l-1.76,6.066c0.539-0.588,1.01-0.99,1.41-1.208c0.402-0.218,0.821-0.327,1.26-0.327     c0.617,0,1.122,0.215,1.516,0.644c0.393,0.429,0.59,1.01,0.59,1.745c0,0.946-0.263,1.888-0.786,2.825     c-0.523,0.938-1.181,1.667-1.972,2.19s-1.57,0.784-2.339,0.784c-0.859,0-1.741-0.333-2.646-1l2.661-9.219     c0.205-0.709,0.307-1.125,0.307-1.248c0-0.152-0.047-0.267-0.141-0.343c-0.135-0.105-0.34-0.158-0.613-0.158     c-0.129,0-0.322,0.021-0.584,0.062v-0.313L257.609,192.06z M254.181,203.872c0.564,0.313,1.06,0.469,1.488,0.469     c0.496,0,1.01-0.188,1.543-0.566c0.532-0.377,0.994-1.013,1.387-1.909c0.391-0.895,0.588-1.799,0.588-2.711     c0-0.538-0.127-0.959-0.38-1.264s-0.552-0.457-0.896-0.457c-0.517,0-1.022,0.229-1.518,0.686     c-0.495,0.458-0.854,1.075-1.081,1.854L254.181,203.872z"/>
			<path d="M263.225,201.216c-0.042,0.295-0.063,0.539-0.063,0.733c0,0.524,0.188,0.971,0.567,1.339s0.84,0.552,1.381,0.552     c0.432,0,0.848-0.086,1.248-0.26c0.399-0.174,0.993-0.558,1.781-1.152l0.184,0.255c-1.398,1.397-2.73,2.095-3.998,2.095     c-0.861,0-1.51-0.27-1.946-0.811s-0.654-1.137-0.654-1.79c0-0.875,0.271-1.771,0.813-2.688c0.541-0.917,1.222-1.629,2.041-2.137     c0.818-0.508,1.66-0.763,2.526-0.763c0.624,0,1.087,0.126,1.388,0.377c0.3,0.251,0.45,0.549,0.45,0.893     c0,0.485-0.198,0.949-0.593,1.393c-0.521,0.578-1.287,1.045-2.298,1.401C265.382,200.895,264.44,201.082,263.225,201.216z      M263.289,200.81c0.893-0.1,1.619-0.27,2.18-0.511c0.742-0.323,1.298-0.709,1.669-1.159c0.371-0.449,0.557-0.877,0.557-1.282     c0-0.247-0.08-0.446-0.239-0.599c-0.16-0.153-0.389-0.229-0.684-0.229c-0.615,0-1.268,0.319-1.959,0.957     C264.123,198.623,263.614,199.564,263.289,200.81z"/>
			<path d="M270.105,197.091l2.955-0.5l-1.234,4.277c1.039-1.754,1.982-2.98,2.832-3.679c0.48-0.399,0.872-0.599,1.175-0.599     c0.195,0,0.35,0.057,0.462,0.17c0.113,0.113,0.17,0.278,0.17,0.493c0,0.384-0.1,0.751-0.299,1.1     c-0.142,0.262-0.344,0.393-0.607,0.393c-0.136,0-0.252-0.043-0.349-0.129s-0.157-0.219-0.181-0.398     c-0.012-0.109-0.037-0.181-0.078-0.216c-0.047-0.046-0.104-0.069-0.168-0.069c-0.1,0-0.193,0.023-0.281,0.07     c-0.152,0.083-0.385,0.312-0.695,0.687c-0.488,0.576-1.016,1.321-1.585,2.237c-0.247,0.388-0.458,0.825-0.634,1.313     c-0.247,0.669-0.388,1.072-0.423,1.207l-0.308,1.111h-1.299l1.578-5.469c0.188-0.636,0.281-1.089,0.281-1.361     c0-0.105-0.043-0.194-0.131-0.265c-0.117-0.094-0.264-0.141-0.443-0.141c-0.115,0-0.324,0.026-0.629,0.079L270.105,197.091z"/>
			<path d="M277.111,197.091l2.955-0.5l-1.234,4.277c1.038-1.754,1.982-2.98,2.83-3.679c0.48-0.399,0.873-0.599,1.176-0.599     c0.195,0,0.35,0.057,0.463,0.17c0.112,0.113,0.169,0.278,0.169,0.493c0,0.384-0.101,0.751-0.3,1.1     c-0.141,0.262-0.344,0.393-0.607,0.393c-0.135,0-0.251-0.043-0.348-0.129s-0.156-0.219-0.18-0.398     c-0.012-0.109-0.039-0.181-0.08-0.216c-0.047-0.046-0.103-0.069-0.167-0.069c-0.1,0-0.194,0.023-0.282,0.07     c-0.152,0.083-0.384,0.312-0.695,0.687c-0.486,0.576-1.016,1.321-1.584,2.237c-0.247,0.388-0.459,0.825-0.635,1.313     c-0.246,0.669-0.387,1.072-0.422,1.207l-0.307,1.111h-1.3l1.579-5.469c0.188-0.636,0.281-1.089,0.281-1.361     c0-0.105-0.045-0.194-0.133-0.265c-0.115-0.094-0.264-0.141-0.443-0.141c-0.113,0-0.323,0.026-0.628,0.079L277.111,197.091z"/>
			<path d="M292.149,196.716l-1.708,5.993l-0.191,0.8c-0.031,0.066-0.047,0.123-0.047,0.168c0,0.085,0.021,0.16,0.064,0.223     c0.033,0.048,0.076,0.072,0.127,0.072c0.055,0,0.127-0.042,0.215-0.127c0.165-0.158,0.385-0.504,0.66-1.038l0.299,0.211     c-0.344,0.594-0.698,1.036-1.063,1.325s-0.701,0.435-1.01,0.435c-0.215,0-0.381-0.063-0.498-0.189     c-0.117-0.126-0.175-0.311-0.175-0.552c0-0.288,0.064-0.668,0.193-1.139l0.192-0.653c-0.848,1.003-1.627,1.704-2.338,2.102     c-0.512,0.287-1.013,0.431-1.504,0.431c-0.473,0-0.879-0.175-1.223-0.525c-0.342-0.35-0.514-0.832-0.514-1.445     c0-0.92,0.305-1.89,0.914-2.912c0.609-1.021,1.383-1.838,2.322-2.452c0.733-0.486,1.426-0.729,2.077-0.729     c0.39,0,0.713,0.087,0.972,0.262c0.258,0.175,0.455,0.463,0.589,0.867l0.269-0.91L292.149,196.716z M288.888,197.153     c-0.411,0-0.848,0.173-1.309,0.52c-0.654,0.491-1.237,1.219-1.747,2.184s-0.765,1.837-0.765,2.616     c0,0.393,0.113,0.704,0.34,0.932c0.228,0.229,0.488,0.342,0.782,0.342c0.728,0,1.52-0.465,2.375-1.395     c1.038-1.236,1.54-2.504,1.507-3.804c0-0.491-0.106-0.846-0.318-1.065S289.253,197.153,288.888,197.153z"/>
			<path d="M297.078,194.435l-0.711,2.375h1.211l-0.156,0.563h-1.224l-1.584,5.181c-0.206,0.588-0.31,0.969-0.31,1.143     c0,0.095,0.021,0.168,0.062,0.218c0.041,0.051,0.089,0.076,0.146,0.076c0.129,0,0.297-0.098,0.507-0.294     c0.123-0.117,0.397-0.478,0.821-1.081l0.291,0.22c-0.506,0.776-0.983,1.317-1.434,1.625c-0.308,0.212-0.617,0.319-0.93,0.319     c-0.242,0-0.44-0.082-0.594-0.244c-0.154-0.163-0.23-0.371-0.23-0.625c0-0.316,0.098-0.799,0.295-1.45l1.541-5.087h-1.34     l0.088-0.348c0.645-0.178,1.191-0.441,1.641-0.789s0.957-0.948,1.523-1.801H297.078z"/>
			<path d="M301.577,196.591l-1.857,6.213c-0.125,0.42-0.188,0.671-0.188,0.753c0,0.091,0.024,0.166,0.075,0.222     c0.05,0.057,0.109,0.085,0.178,0.085c0.079,0,0.174-0.045,0.285-0.136c0.301-0.26,0.604-0.634,0.909-1.12l0.308,0.202     c-0.377,0.606-0.821,1.111-1.331,1.515c-0.378,0.302-0.737,0.453-1.081,0.453c-0.229,0-0.414-0.073-0.559-0.217     c-0.145-0.145-0.216-0.327-0.216-0.546c0-0.217,0.077-0.577,0.233-1.081l1.215-3.937c0.188-0.66,0.281-1.074,0.281-1.243     c0-0.132-0.045-0.24-0.136-0.323s-0.216-0.125-0.374-0.125c-0.129,0-0.396,0.032-0.803,0.097v-0.313L301.577,196.591z      M301.193,193.122c0.245,0,0.452,0.085,0.621,0.254s0.254,0.376,0.254,0.621c0,0.239-0.086,0.445-0.258,0.617     s-0.378,0.258-0.617,0.258s-0.445-0.086-0.617-0.258s-0.258-0.378-0.258-0.617c0-0.245,0.084-0.452,0.254-0.621     C300.74,193.207,300.948,193.122,301.193,193.122z"/>
			<path d="M310.507,199.349c0,0.882-0.232,1.754-0.697,2.618c-0.465,0.864-1.113,1.548-1.943,2.054s-1.638,0.758-2.421,0.758     c-0.802,0-1.455-0.257-1.961-0.771s-0.759-1.18-0.759-1.997c0-0.863,0.247-1.73,0.741-2.6c0.494-0.869,1.155-1.557,1.982-2.062     s1.628-0.758,2.399-0.758s1.408,0.256,1.908,0.767S310.507,198.533,310.507,199.349z M309.07,198.726     c0-0.548-0.134-0.968-0.4-1.26c-0.268-0.292-0.613-0.438-1.035-0.438c-0.863,0-1.658,0.621-2.383,1.861     c-0.726,1.241-1.088,2.475-1.088,3.7c0,0.561,0.141,0.992,0.423,1.296s0.638,0.455,1.065,0.455c0.828,0,1.604-0.617,2.33-1.853     C308.707,201.253,309.07,200,309.07,198.726z"/>
			<path d="M315.133,196.591l-1.153,4.005c1.178-1.637,2.08-2.714,2.707-3.23s1.23-0.775,1.811-0.775     c0.316,0,0.576,0.108,0.781,0.323c0.204,0.215,0.307,0.496,0.307,0.841c0,0.348-0.097,0.812-0.289,1.392l-1.217,3.661     c-0.139,0.423-0.209,0.681-0.209,0.774c0,0.08,0.021,0.147,0.064,0.201s0.088,0.081,0.137,0.081c0.063,0,0.141-0.037,0.232-0.111     c0.283-0.243,0.594-0.616,0.931-1.12l0.272,0.167c-0.527,0.772-1.025,1.321-1.496,1.646c-0.329,0.222-0.623,0.333-0.885,0.333     c-0.209,0-0.377-0.067-0.501-0.2c-0.125-0.133-0.187-0.313-0.187-0.538c0-0.282,0.113-0.766,0.343-1.453l1.171-3.54     c0.147-0.44,0.222-0.783,0.222-1.03c0-0.117-0.042-0.212-0.124-0.286c-0.084-0.073-0.186-0.11-0.307-0.11     c-0.18,0-0.394,0.07-0.643,0.211c-0.473,0.264-0.965,0.699-1.476,1.306s-1.051,1.381-1.619,2.325     c-0.301,0.499-0.55,1.043-0.747,1.635l-0.422,1.461h-1.299l1.598-5.531c0.188-0.663,0.281-1.063,0.281-1.198     c0-0.129-0.052-0.242-0.154-0.338s-0.229-0.146-0.378-0.146c-0.069,0-0.19,0.012-0.362,0.035l-0.328,0.053l-0.09-0.313     L315.133,196.591z"/>
		</g>
		<path fill="none" stroke="#FF0000" d="M333.652,89.729L140.179,193.667l-14.333,4.416H60.444"/>
		<path fill="none" stroke="#008837" d="M59.736,197.362h65.213l15.623-5.375L328.861,76.307"/>
		<path fill="none" stroke="#0A55A3" d="M59.736,196.642h65.027l16.195-6.347l181.07-125.821"/>
		<path fill="none" stroke="#FF0000" d="M333.652,160.891L140.179,56.953l-14.333-4.416H60.444"/>
		<path fill="none" stroke="#008837" d="M59.736,53.257h65.213l15.623,5.375l188.289,115.681"/>
		<path fill="none" stroke="#0A55A3" d="M59.736,53.977h65.027l16.195,6.347l181.07,125.821"/>
	</g>
</svg>