<?xml version="1.0" encoding="UTF-8"?>
<!-- Generator: Adobe Illustrator 10.0, SVG Export Plug-In . SVG Version: 3.0.0 Build 76)  -->
<!DOCTYPE svg PUBLIC "-//W3C//DTD SVG 1.0//EN" "http://www.w3.org/TR/2001/REC-SVG-20010904/DTD/svg10.dtd">
<svg xmlns="http://www.w3.org/2000/svg" xmlns:xlink="http://www.w3.org/1999/xlink" xmlns:a="http://ns.adobe.com/AdobeSVGViewerExtensions/3.0/" width="414.997" height="250" viewBox="0 0 414.997 250" overflow="visible" enable-background="new 0 0 414.997 250" xml:space="preserve">
	<g id="Layer_1">
		<path fill="#FFFCF3" d="M414.997,250H0V0h414.997V250z"/>
		<path fill="#FFFFFF" stroke="#000000" stroke-width="0.5" stroke-dasharray="6 3" d="M29.036,125.31h370.326"/>
		<path opacity="0.75" fill="#CCE2EF" stroke="#000000" stroke-width="0.75" d="M145.488,123.037    c0,29.423,4.329,57.828,12.342,84.645h8.656c7.582-26.147,11.666-53.781,11.666-82.373c0-28.593-4.088-56.225-11.674-82.372H156.5    C149.335,68.412,145.488,95.273,145.488,123.037z"/>
		<path fill="none" stroke="#FF0000" d="M52.706,159.807l109.253-34.497"/>
		<path fill="#FFFFFF" stroke="#000000" stroke-width="0.25" d="M161.958,27.051v199.926"/>
		<path fill="#FFFFFF" stroke="#000000" stroke-width="0.5" d="M326.861,27.051v199.926"/>
		<path fill="#FFFFFF" stroke="#000000" stroke-width="0.25" d="M368.361,65.226v41.333"/>
		<g>
			<path d="M235.017,215.903l-0.875,3.844h-0.313l-0.036-0.97c-0.029-0.353-0.097-0.667-0.204-0.944s-0.266-0.516-0.479-0.719     c-0.213-0.203-0.482-0.361-0.807-0.476s-0.686-0.172-1.082-0.172c-1.059,0-1.984,0.287-2.776,0.86     c-1.011,0.731-1.803,1.764-2.376,3.098c-0.473,1.1-0.709,2.215-0.709,3.344c0,1.153,0.339,2.073,1.019,2.76     s1.563,1.031,2.649,1.031c0.821,0,1.552-0.181,2.193-0.543c0.641-0.362,1.236-0.921,1.785-1.675h0.417     c-0.644,1.019-1.358,1.768-2.143,2.249c-0.785,0.48-1.724,0.72-2.819,0.72c-0.972,0-1.833-0.203-2.582-0.608     c-0.75-0.405-1.32-0.976-1.712-1.71c-0.393-0.735-0.588-1.525-0.588-2.371c0-1.295,0.348-2.555,1.045-3.78     c0.697-1.225,1.653-2.187,2.869-2.887c1.216-0.7,2.441-1.05,3.678-1.05c0.58,0,1.23,0.139,1.951,0.417     c0.316,0.118,0.544,0.177,0.685,0.177s0.264-0.029,0.369-0.088s0.281-0.228,0.527-0.505H235.017z"/>
			<path d="M242.679,222.849c0,0.882-0.232,1.754-0.697,2.618c-0.465,0.864-1.113,1.548-1.943,2.054s-1.638,0.758-2.421,0.758     c-0.802,0-1.455-0.257-1.961-0.771s-0.759-1.18-0.759-1.997c0-0.863,0.247-1.73,0.741-2.6c0.494-0.869,1.155-1.557,1.982-2.062     c0.827-0.505,1.628-0.758,2.399-0.758s1.408,0.256,1.908,0.767S242.679,222.033,242.679,222.849z M241.242,222.226     c0-0.548-0.134-0.968-0.4-1.26c-0.268-0.292-0.613-0.438-1.035-0.438c-0.863,0-1.658,0.621-2.383,1.861     c-0.726,1.241-1.088,2.475-1.088,3.7c0,0.561,0.141,0.992,0.423,1.296c0.282,0.304,0.638,0.455,1.065,0.455     c0.828,0,1.604-0.617,2.33-1.853C240.878,224.753,241.242,223.5,241.242,222.226z"/>
			<path d="M247.308,220.091l-1.131,3.977c0.517-0.935,0.956-1.637,1.318-2.107c0.564-0.729,1.113-1.258,1.648-1.587     c0.314-0.188,0.645-0.282,0.988-0.282c0.297,0,0.544,0.098,0.74,0.292c0.195,0.195,0.294,0.444,0.294,0.748     c0,0.285-0.073,0.656-0.218,1.115l-0.674,2.212c1.015-1.79,1.977-3.046,2.885-3.769c0.504-0.399,1.002-0.599,1.494-0.599     c0.286,0,0.521,0.103,0.705,0.308c0.184,0.206,0.275,0.523,0.275,0.954c0,0.336-0.061,0.692-0.18,1.068l-1.099,3.379     c-0.239,0.735-0.359,1.144-0.359,1.225c0,0.08,0.022,0.148,0.069,0.205c0.031,0.04,0.073,0.06,0.125,0.06     s0.143-0.054,0.272-0.162c0.296-0.256,0.573-0.595,0.832-1.017l0.29,0.185c-0.141,0.234-0.388,0.553-0.742,0.954     c-0.355,0.402-0.659,0.674-0.911,0.816c-0.252,0.142-0.483,0.213-0.696,0.213c-0.195,0-0.359-0.071-0.49-0.213     c-0.133-0.142-0.197-0.317-0.197-0.524c0-0.282,0.139-0.851,0.417-1.704l0.927-2.834c0.209-0.653,0.321-1.016,0.335-1.086     c0.021-0.111,0.03-0.22,0.03-0.327c0-0.147-0.035-0.262-0.104-0.344c-0.077-0.082-0.163-0.124-0.258-0.124     c-0.268,0-0.552,0.126-0.851,0.379c-0.879,0.748-1.701,1.795-2.465,3.142c-0.503,0.889-0.975,2.027-1.414,3.416h-1.299     l1.605-5.32c0.174-0.574,0.262-0.958,0.262-1.152c0-0.158-0.033-0.275-0.098-0.352c-0.066-0.076-0.146-0.114-0.242-0.114     c-0.197,0-0.405,0.07-0.626,0.211c-0.358,0.229-0.819,0.718-1.383,1.468c-0.563,0.75-1.001,1.469-1.311,2.154     c-0.149,0.323-0.505,1.357-1.065,3.104h-1.299l1.645-5.699l0.214-0.739c0.041-0.114,0.062-0.198,0.062-0.252     c0-0.132-0.059-0.25-0.177-0.354s-0.269-0.156-0.45-0.156c-0.077,0-0.289,0.035-0.637,0.105l-0.079-0.313L247.308,220.091z"/>
			<path d="M265.322,220.216l-1.707,5.993l-0.191,0.8c-0.031,0.066-0.047,0.123-0.047,0.168c0,0.085,0.021,0.16,0.063,0.223     c0.034,0.048,0.076,0.072,0.127,0.072c0.055,0,0.127-0.042,0.217-0.127c0.164-0.158,0.384-0.504,0.659-1.038l0.299,0.211     c-0.345,0.594-0.698,1.036-1.063,1.325s-0.701,0.435-1.011,0.435c-0.215,0-0.38-0.063-0.496-0.189     c-0.117-0.126-0.176-0.311-0.176-0.552c0-0.288,0.064-0.668,0.193-1.139l0.192-0.653c-0.848,1.003-1.627,1.704-2.338,2.102     c-0.511,0.287-1.013,0.431-1.504,0.431c-0.472,0-0.88-0.175-1.222-0.525c-0.344-0.35-0.515-0.832-0.515-1.445     c0-0.92,0.305-1.89,0.914-2.912c0.609-1.021,1.384-1.838,2.321-2.452c0.734-0.486,1.427-0.729,2.078-0.729     c0.389,0,0.713,0.087,0.972,0.262c0.259,0.175,0.454,0.463,0.589,0.867l0.268-0.91L265.322,220.216z M262.06,220.653     c-0.41,0-0.846,0.173-1.309,0.52c-0.654,0.491-1.236,1.219-1.746,2.184s-0.765,1.837-0.765,2.616     c0,0.393,0.113,0.704,0.341,0.932c0.227,0.229,0.487,0.342,0.781,0.342c0.729,0,1.52-0.465,2.375-1.395     c1.038-1.236,1.541-2.504,1.506-3.804c0-0.491-0.105-0.846-0.317-1.065S262.425,220.653,262.06,220.653z"/>
		</g>
		<g>
			<path d="M354.278,58.977l-0.075,0.25h-3.772l0.096-0.25c0.383-0.009,0.636-0.041,0.759-0.096c0.2-0.078,0.349-0.185,0.444-0.322     c0.15-0.214,0.306-0.598,0.465-1.15l1.612-5.591c0.137-0.465,0.205-0.816,0.205-1.053c0-0.118-0.029-0.219-0.089-0.301     s-0.149-0.145-0.27-0.188c-0.121-0.043-0.356-0.065-0.708-0.065l0.082-0.25h3.546l-0.075,0.25     c-0.292-0.004-0.508,0.03-0.649,0.104c-0.205,0.1-0.361,0.241-0.468,0.426c-0.107,0.184-0.246,0.592-0.414,1.224l-1.611,5.587     c-0.146,0.469-0.219,0.768-0.219,0.896c0,0.104,0.028,0.192,0.086,0.264c0.057,0.073,0.147,0.129,0.273,0.168     C353.621,58.92,353.881,58.952,354.278,58.977z"/>
			<path d="M358.572,53.039l-0.887,3.095c0.404-0.728,0.748-1.274,1.031-1.64c0.441-0.567,0.871-0.979,1.289-1.235     c0.246-0.146,0.504-0.22,0.773-0.22c0.231,0,0.424,0.076,0.578,0.228c0.152,0.151,0.229,0.346,0.229,0.583     c0,0.221-0.057,0.509-0.169,0.865l-0.521,1.716c0.785-1.39,1.529-2.366,2.232-2.926c0.391-0.31,0.775-0.465,1.156-0.465     c0.222,0,0.404,0.079,0.546,0.235s0.213,0.399,0.213,0.728c0,0.262-0.046,0.539-0.14,0.832l-0.854,2.631     c-0.188,0.573-0.28,0.891-0.28,0.954c0,0.062,0.019,0.114,0.056,0.157c0.023,0.031,0.057,0.046,0.097,0.046     c0.041,0,0.112-0.041,0.214-0.125c0.231-0.198,0.449-0.461,0.652-0.79l0.226,0.144c-0.109,0.183-0.302,0.429-0.579,0.738     c-0.277,0.311-0.514,0.52-0.71,0.629s-0.377,0.164-0.543,0.164c-0.152,0-0.28-0.054-0.383-0.162s-0.153-0.241-0.153-0.398     c0-0.219,0.107-0.659,0.324-1.32l0.72-2.195c0.163-0.506,0.25-0.787,0.261-0.841c0.016-0.086,0.023-0.171,0.023-0.253     c0-0.114-0.026-0.203-0.081-0.267c-0.059-0.063-0.126-0.096-0.199-0.096c-0.207,0-0.427,0.098-0.657,0.294     c-0.681,0.579-1.316,1.391-1.907,2.435c-0.39,0.688-0.754,1.571-1.094,2.646h-1.037l1.247-4.122     c0.136-0.445,0.204-0.743,0.204-0.892c0-0.123-0.026-0.214-0.077-0.272c-0.051-0.06-0.113-0.089-0.188-0.089     c-0.153,0-0.316,0.055-0.488,0.164c-0.278,0.177-0.637,0.556-1.076,1.138c-0.438,0.582-0.778,1.138-1.02,1.669     c-0.117,0.25-0.393,1.051-0.829,2.405h-1.008l1.276-4.426l0.165-0.574c0.032-0.087,0.048-0.15,0.048-0.192     c0-0.1-0.046-0.19-0.138-0.27c-0.093-0.08-0.21-0.12-0.353-0.12c-0.061,0-0.227,0.027-0.499,0.082l-0.043-0.25L358.572,53.039z"/>
			<path d="M372.587,53.133l-1.331,4.648l-0.157,0.62c-0.016,0.055-0.022,0.102-0.022,0.14c0,0.065,0.017,0.122,0.05,0.17     c0.025,0.037,0.059,0.055,0.099,0.055c0.043,0,0.099-0.033,0.168-0.098c0.129-0.122,0.3-0.39,0.515-0.805l0.232,0.164     c-0.268,0.459-0.544,0.8-0.827,1.022c-0.284,0.221-0.546,0.332-0.787,0.332c-0.167,0-0.296-0.049-0.387-0.146     c-0.091-0.097-0.136-0.239-0.136-0.425c0-0.222,0.05-0.514,0.15-0.877l0.151-0.515c-0.659,0.777-1.265,1.32-1.817,1.629     c-0.397,0.223-0.787,0.334-1.17,0.334c-0.367,0-0.684-0.136-0.95-0.407c-0.267-0.271-0.399-0.645-0.399-1.12     c0-0.713,0.236-1.465,0.709-2.257s1.072-1.425,1.799-1.9c0.569-0.377,1.105-0.565,1.611-0.565c0.301,0,0.553,0.067,0.753,0.201     s0.353,0.355,0.456,0.665l0.221-0.694L372.587,53.133z M370.055,53.477c-0.318,0-0.657,0.134-1.015,0.403     c-0.508,0.38-0.959,0.945-1.354,1.692c-0.396,0.748-0.593,1.424-0.593,2.027c0,0.305,0.088,0.545,0.264,0.722     s0.378,0.265,0.606,0.265c0.563,0,1.178-0.36,1.841-1.081c0.806-0.958,1.195-1.94,1.168-2.947c0-0.38-0.082-0.656-0.246-0.826     C370.562,53.562,370.338,53.477,370.055,53.477z"/>
			<path d="M379.948,53.461l-0.198,0.703h-1.142c0.084,0.248,0.126,0.479,0.126,0.694c0,0.605-0.258,1.144-0.772,1.616     c-0.521,0.472-1.233,0.733-2.139,0.784c-0.474,0.146-0.828,0.32-1.064,0.522c-0.089,0.073-0.134,0.148-0.134,0.227     c0,0.092,0.04,0.175,0.121,0.251c0.081,0.075,0.285,0.152,0.614,0.229l1.337,0.309c0.74,0.173,1.227,0.378,1.46,0.615     c0.229,0.241,0.343,0.519,0.343,0.833c0,0.373-0.139,0.714-0.414,1.024c-0.276,0.309-0.68,0.551-1.211,0.727     c-0.532,0.175-1.119,0.263-1.763,0.263c-0.565,0-1.081-0.067-1.546-0.202c-0.466-0.135-0.799-0.316-1-0.544     c-0.2-0.228-0.301-0.463-0.301-0.705c0-0.196,0.065-0.4,0.195-0.612c0.131-0.212,0.294-0.386,0.491-0.523     c0.123-0.087,0.474-0.292,1.05-0.616c-0.21-0.164-0.314-0.344-0.314-0.54c0-0.183,0.089-0.376,0.268-0.582     c0.178-0.205,0.555-0.431,1.131-0.677c-0.486-0.096-0.873-0.306-1.158-0.63s-0.428-0.685-0.428-1.082     c0-0.648,0.285-1.229,0.855-1.74s1.33-0.767,2.279-0.767c0.343,0,0.625,0.034,0.845,0.102s0.433,0.175,0.64,0.32H379.948z      M374.296,59.234c-0.371,0.169-0.65,0.386-0.84,0.65c-0.19,0.265-0.285,0.525-0.285,0.78c0,0.302,0.137,0.55,0.412,0.747     c0.393,0.283,0.97,0.424,1.729,0.424c0.654,0,1.214-0.111,1.679-0.332c0.464-0.222,0.696-0.508,0.696-0.859     c0-0.179-0.086-0.348-0.258-0.507c-0.172-0.16-0.504-0.29-0.998-0.39C376.161,59.693,375.449,59.521,374.296,59.234z      M377.609,54.55c0-0.361-0.105-0.646-0.315-0.854s-0.485-0.313-0.826-0.313c-0.534,0-0.975,0.257-1.321,0.771     c-0.348,0.513-0.521,1.048-0.521,1.604c0,0.349,0.111,0.633,0.333,0.855s0.491,0.333,0.809,0.333c0.25,0,0.492-0.065,0.727-0.197     c0.233-0.131,0.431-0.312,0.592-0.542c0.16-0.231,0.288-0.525,0.383-0.883S377.609,54.708,377.609,54.55z"/>
			<path d="M381.25,56.633c-0.031,0.227-0.047,0.414-0.047,0.563c0,0.402,0.146,0.745,0.438,1.028     c0.293,0.282,0.648,0.424,1.066,0.424c0.334,0,0.655-0.066,0.965-0.2c0.309-0.134,0.768-0.43,1.376-0.887l0.143,0.198     c-1.084,1.083-2.116,1.624-3.099,1.624c-0.667,0-1.169-0.209-1.508-0.628c-0.338-0.419-0.507-0.881-0.507-1.387     c0-0.678,0.21-1.372,0.63-2.083c0.42-0.71,0.947-1.262,1.581-1.656c0.635-0.394,1.287-0.591,1.959-0.591     c0.483,0,0.842,0.098,1.074,0.293c0.233,0.195,0.35,0.426,0.35,0.694c0,0.376-0.152,0.738-0.458,1.083     c-0.403,0.449-0.995,0.812-1.777,1.089C382.917,56.383,382.189,56.528,381.25,56.633z M381.298,56.305     c0.689-0.077,1.251-0.209,1.685-0.395c0.573-0.25,1.003-0.548,1.29-0.896c0.286-0.347,0.43-0.678,0.43-0.991     c0-0.19-0.062-0.345-0.186-0.463c-0.123-0.118-0.299-0.177-0.527-0.177c-0.476,0-0.98,0.246-1.514,0.739     C381.943,54.614,381.55,55.342,381.298,56.305z"/>
		</g>
		<path fill="none" stroke="#FF0000" d="M161.958,125.31l164.902-52.069"/>
		<path fill="none" stroke="#FF0000" d="M46.963,141.62l98.792-31.194l31.533-7.812L326.861,76.31"/>
		<path fill="none" stroke="#FF0000" d="M41.221,123.433l106.111-33.505l28.079-4.924l151.449-3.444"/>
		<path fill="none" stroke="#FF0000" d="M35.479,105.247l114.969-36.302l21.893-2.108l154.52,22.723"/>
		<path fill="none" stroke="#FF0000" d="M29.736,87.06l125.542-39.641l12.441-0.074l159.141,56.215"/>
		<path fill="none" stroke="#FF0000" d="M58.448,177.994l88.274-27.873l31.132-11.462L326.861,76.31"/>
		<path fill="none" stroke="#FF0000" d="M64.191,196.18l84.928-26.816l27.237-11.366L326.861,81.56"/>
		<path fill="none" stroke="#FF0000" d="M69.933,214.367l82.801-26.145l20.585-9.509L326.861,89.56"/>
		<path fill="none" stroke="#FF0000" d="M75.676,232.554l81.866-25.849l10.679-5.259l158.641-97.886"/>
		<path fill="#FF0000" d="M369.081,73.241c0,0.397-0.322,0.72-0.72,0.72c-0.398,0-0.721-0.322-0.721-0.72    c0-0.398,0.322-0.72,0.721-0.72C368.758,72.521,369.081,72.843,369.081,73.241z"/>
		<path fill="none" stroke="#FF0000" stroke-width="0.75" d="M378.467,93.453c0-5.582-4.525-10.106-10.106-10.106    s-10.106,4.524-10.106,10.106s4.525,10.106,10.106,10.106S378.467,99.035,378.467,93.453z"/>
		<path fill="none" stroke="#FF0000" stroke-width="0.75" d="M373.8,84.12c0-3.004-2.436-5.439-5.439-5.439    s-5.439,2.435-5.439,5.439c0,3.004,2.436,5.439,5.439,5.439S373.8,87.124,373.8,84.12z"/>
		<path fill="none" stroke="#FF0000" stroke-width="0.75" d="M369.383,75.287c0-0.565-0.457-1.023-1.022-1.023    s-1.022,0.458-1.022,1.023s0.457,1.023,1.022,1.023S369.383,75.852,369.383,75.287z"/>
		<path fill="none" stroke="#FF0000" stroke-width="0.75" d="M368.361,73.241l-9.412,16.538L368.361,73.241z"/>
		<path fill="none" stroke="#FF0000" stroke-width="0.75" d="M377.39,88.92l-9.029-15.679"/>
		<path fill="none" stroke="#FF0000" stroke-width="0.75" d="M371.133,78.787c0-1.532-1.24-2.773-2.772-2.773    c-1.531,0-2.772,1.241-2.772,2.773c0,1.531,1.241,2.773,2.772,2.773C369.893,81.56,371.133,80.318,371.133,78.787z"/>
		<path fill="none" stroke="#000000" stroke-width="0.5" d="M121.361,125.31c0,4.259,0.656,8.364,1.872,12.221"/>
		<g>
			<path d="M113.876,132.468c0-1.537,0.313-2.72,0.939-3.551c0.473-0.624,1.041-0.936,1.702-0.936c0.642,0,1.189,0.3,1.643,0.901     c0.634,0.838,0.951,1.979,0.951,3.422c0,1.373-0.311,2.457-0.933,3.252c-0.485,0.616-1.056,0.924-1.713,0.924     c-0.356,0-0.681-0.086-0.974-0.257s-0.554-0.419-0.781-0.743c-0.227-0.324-0.401-0.667-0.522-1.03     C113.98,133.828,113.876,133.167,113.876,132.468z M117.986,132.044c-0.004-1.01-0.102-1.82-0.294-2.432     c-0.148-0.468-0.347-0.803-0.593-1.004c-0.18-0.147-0.388-0.221-0.623-0.221c-0.267,0-0.511,0.103-0.734,0.308     c-0.224,0.205-0.393,0.548-0.508,1.027s-0.193,1.253-0.232,2.321H117.986z M115.001,132.435c0.016,0.693,0.068,1.317,0.158,1.87     c0.066,0.421,0.182,0.787,0.347,1.099c0.098,0.187,0.24,0.346,0.428,0.476c0.188,0.13,0.39,0.196,0.604,0.196     c0.25,0,0.488-0.117,0.713-0.351c0.225-0.233,0.395-0.609,0.511-1.128c0.115-0.518,0.185-1.239,0.208-2.162H115.001z"/>
		</g>
	</g>
</svg>