<?xml version="1.0" encoding="UTF-8"?>
<svg xmlns="http://www.w3.org/2000/svg" xmlns:xlink="http://www.w3.org/1999/xlink" width="876px" height="396px" viewBox="-251 -81 292 132" version="1.1">
<title>Newtonian telescope</title>
<desc>Diagram of the lightpath through a Newtonian telescope.</desc>
<g style="stroke:#000;stroke-width:.7;fill:none">
    <path d="M-230,-45 h30 v-20 M-170,-65 v20 H30 v90 H-230" stroke-width="1"/> <!-- scope body -->
    <path d="M25,-40 V40 h-20 a9,40 0 0,0 0,-80 z" fill="cyan"/>  <!-- primary mirror -->
    <path d="M-200,-2 h30 v4 h-30 z" fill="cyan" transform="rotate(45,-185,0)"/> <!-- secondary mirror -->
    <path d="M-243.535,-3.535 l7.07,7.07 M-243.535,3.535 l7.07,-7.07" stroke="gray"/>  <!-- gray focus -->
    <path d="M5.5,-40 a9,40 0 0,1 0,80 M-194.19,-12.02 L-172.98,9.19         M-195,-75 h20 v-5 v10 v-5 h-20 v5 v-10         M-188.535,-78.535 l7.07,7.07 M-188.535,-71.465 l7.07,-7.07" stroke="#F00" stroke-width="1"/> <!-- red part of lens, eyepiece, cross --> 
    <g stroke="#7F00FF">    <!-- purple color -->
        <path d="M-250,-35 h260 L-190,-7 L-185,-75             M-250,35 h260 L-173,9.38 L-185,-75"/> <!-- purple rays: top, bottom -->
        <path d="M-215,-37.5 l4.33,2.5 l-4.33,2.5 M-215,37.5 l4.33,-2.5 l-4.33,-2.5"/> <!-- arrow marks -->
    </g>
    <path d="M-190,-7 L-240,0 M-174,9.24 L-240,0" stroke="#AAA"/>  <!-- extended rays -->
    <path d="M-250,-30 l260,-5 L-192,-9 L-195,-75          M-250,40 l260,-5 L-175,7.38 L-195,-75" stroke="#00A700"/>  <!-- green rays -->
    <path d="M35,0 H-185 v-75" stroke-dasharray="10,2,5,2"/> <!-- scope axis -->
    <path d="M-185,0 H-240" stroke="gray" stroke-dasharray="10,2,5,2"/> <!-- axis extended -->
</g>
</svg>