<?xml version="1.0" encoding="UTF-8"?>
<!-- Generator: Adobe Illustrator 17.1.0, SVG Export Plug-In . SVG Version: 6.00 Build 0)  -->
<!DOCTYPE svg PUBLIC "-//W3C//DTD SVG 1.1//EN" "http://www.w3.org/Graphics/SVG/1.1/DTD/svg11.dtd">
<svg version="1.1" xmlns="http://www.w3.org/2000/svg" xmlns:xlink="http://www.w3.org/1999/xlink" x="0px" y="0px" viewBox="0 0 840 300" style="enable-background:new 0 0 840 300;" width="840" height="300" xml:space="preserve">
<style type="text/css">
	.st0{fill:none;stroke:#000;stroke-width:3;}
	.st1{opacity:0.3;fill:#36A9E1;}
	.st2{fill:none;stroke:#E52420;stroke-width:3;}
	.st3{fill:#E52420;}
	.st4{fill:#36A9E1;fill-opacity:0.2;stroke:#000;}
</style>
<g id="diagram">
	<g>
		<g>
			<line class="st0" x1="72.4" y1="169.2" x2="72.4" y2="193.3"/>
			<g>
				<polygon points="68,172.2 72.4,155.9 76.8,172.2     "/>
			</g>
			<g>
				<polygon points="68,190.3 72.4,206.6 76.8,190.3     "/>
			</g>
		</g>
	</g>
	<polygon class="st1" points="640.1,71.7 223.7,246.8 216.6,246.8 215.2,243.5 631.5,68.4 638.8,68.4  "/>
	<g>
		<g>
			<line class="st0" x1="117" y1="169.2" x2="117" y2="193.3"/>
			<g>
				<polygon points="112.7,172.2 117,155.9 121.4,172.2     "/>
			</g>
			<g>
				<polygon points="112.7,190.3 117,206.6 121.4,190.3     "/>
			</g>
		</g>
	</g>
	<g>
		<g>
			<line class="st0" x1="222.7" y1="166.4" x2="224.3" y2="190.5"/>
			<g>
				<polygon points="218.6,169.7 221.9,153.2 227.3,169.1     "/>
			</g>
			<g>
				<polygon points="219.8,187.8 225.2,203.8 228.5,187.2     "/>
			</g>
		</g>
	</g>
	<g>
		<g>
			<line class="st0" x1="537.9" y1="147.9" x2="539.6" y2="172"/>
			<g>
				<polygon points="533.8,151.2 537,134.7 542.5,150.6     "/>
			</g>
			<g>
				<polygon points="535,169.3 540.5,185.2 543.7,168.7     "/>
			</g>
		</g>
	</g>
	<g>
		<g>
			<line class="st0" x1="590.4" y1="144.7" x2="592.1" y2="168.8"/>
			<g>
				<polygon points="586.3,148 589.5,131.5 595,147.4     "/>
			</g>
			<g>
				<polygon points="587.5,166.1 593,182.1 596.2,165.5     "/>
			</g>
		</g>
	</g>
	<g>
		<g>
			<line class="st0" x1="643.1" y1="140.3" x2="644.7" y2="164.3"/>
			<g>
				<polygon points="638.9,143.5 642.2,127 647.6,142.9     "/>
			</g>
			<g>
				<polygon points="640.2,161.7 645.6,177.6 648.9,161.1     "/>
			</g>
		</g>
	</g>
	<g>
		<g>
			<line class="st0" x1="702.2" y1="139.2" x2="702.3" y2="163.3"/>
			<g>
				<polygon points="697.9,142.2 702.2,125.9 706.6,142.2     "/>
			</g>
			<g>
				<polygon points="697.9,160.4 702.4,176.6 706.7,160.3     "/>
			</g>
		</g>
	</g>
	<g>
		<g>
			<line class="st0" x1="748" y1="139.2" x2="748.1" y2="163.3"/>
			<g>
				<polygon points="743.7,142.2 748,125.9 752.4,142.2     "/>
			</g>
			<g>
				<polygon points="743.7,160.4 748.2,176.6 752.5,160.3     "/>
			</g>
		</g>
	</g>
	<g id="lightpath">
		<g>
			<line class="st2" x1="26.7" y1="182.5" x2="162.1" y2="182.5"/>
			<g>
				<polygon class="st3" points="156.2,191.2 188.7,182.5 156.2,173.7     "/>
			</g>
		</g>
	</g>
	<g id="lightpath_o">
		<g>
			<polyline class="st2" points="181.5,182.5 440.2,152.2 526.7,84.7    "/>
			<g>
				<polygon class="st3" points="527.3,95.2 547.6,68.4 516.6,81.5     "/>
			</g>
		</g>
	</g>
	<g>
		<g>
			<line class="st0" x1="276.2" y1="166.4" x2="277.4" y2="190.5"/>
			<g>
				<polygon points="271.9,169.6 275.5,153.2 280.7,169.2     "/>
			</g>
			<g>
				<polygon points="272.9,187.8 278,203.8 281.6,187.3     "/>
			</g>
		</g>
	</g>
	<g>
		<g>
			<line class="st0" x1="328.3" y1="161.9" x2="329.5" y2="186"/>
			<g>
				<polygon points="324.1,165.1 327.7,148.7 332.8,164.7     "/>
			</g>
			<g>
				<polygon points="325,183.3 330.2,199.3 333.7,182.8     "/>
			</g>
		</g>
	</g>
	<g>
		<g>
			<line class="st0" x1="381" y1="158.9" x2="382.2" y2="183"/>
			<g>
				<polygon points="376.8,162.1 380.3,145.6 385.5,161.7     "/>
			</g>
			<g>
				<polygon points="377.7,180.2 382.9,196.3 386.4,179.8     "/>
			</g>
		</g>
	</g>
	<g>
		<g>
			<line class="st0" x1="485.5" y1="151.5" x2="487" y2="175.6"/>
			<g>
				<polygon points="481.3,154.8 484.7,138.3 490,154.2     "/>
			</g>
			<g>
				<polygon points="482.4,172.9 487.8,188.9 491.1,172.4     "/>
			</g>
		</g>
	</g>
	<g>
		<g>
			<line class="st0" x1="433.8" y1="154.9" x2="435" y2="179"/>
			<g>
				<polygon points="429.6,158.1 433.2,141.6 438.3,157.6     "/>
			</g>
			<g>
				<polygon points="430.5,176.2 435.7,192.2 439.2,175.8     "/>
			</g>
		</g>
	</g>
	<g id="black_balls">
		<circle cx="270.7" cy="172.2" r="5"/>
		<circle cx="72.4" cy="182" r="5"/>
		<circle cx="117" cy="182.5" r="5"/>
		<circle cx="319" cy="166.7" r="5"/>
		<circle cx="368.6" cy="160.1" r="5"/>
		<circle cx="417.9" cy="154.6" r="5"/>
		<circle cx="462.3" cy="134.7" r="5"/>
		<circle cx="492.6" cy="111.4" r="5"/>
		<circle cx="518" cy="91.9" r="5"/>
	</g>
	<g id="lightpath_e">
		<g>
			<polyline class="st2" points="177.1,182.5 672.8,149.8 780.6,149.8    "/>
			<g>
				<polygon class="st3" points="774.7,158.5 807.2,149.8 774.7,141.1     "/>
			</g>
		</g>
	</g>
	<polygon id="XMLID_1_" class="st4" points="709.8,246.8 216.6,246.8 142.4,68.4 638.8,68.4  "/>
</g>
<g id="outlines">
	<g id="_x36_8_deg">
		<path d="M180.6,91.3c0,1.7-0.5,3.1-1.4,4.1s-2.3,1.5-3.9,1.5c-1.9,0-3.3-0.7-4.3-2.1s-1.5-3.4-1.5-6c0-2.9,0.5-5.1,1.5-6.6    s2.5-2.3,4.4-2.3c2.5,0,4.1,1.1,4.7,3.4l-2,0.4c-0.4-1.3-1.3-2-2.7-2c-1.2,0-2.1,0.6-2.8,1.7s-1,2.7-1,4.9    c0.4-0.7,0.9-1.3,1.6-1.6s1.5-0.6,2.4-0.6c1.5,0,2.7,0.5,3.6,1.4S180.6,89.7,180.6,91.3z M178.5,91.4c0-1.2-0.3-2.1-0.9-2.8    s-1.4-1-2.4-1c-1,0-1.8,0.3-2.4,0.9s-0.9,1.4-0.9,2.4c0,1.3,0.3,2.3,0.9,3.1s1.4,1.2,2.4,1.2c1,0,1.8-0.3,2.4-1    S178.5,92.6,178.5,91.4z"/>
		<path d="M194,92.1c0,1.5-0.5,2.7-1.5,3.6s-2.4,1.3-4.2,1.3c-1.8,0-3.1-0.4-4.1-1.3s-1.5-2-1.5-3.6c0-1.1,0.3-2,0.9-2.7    s1.4-1.2,2.4-1.3v0c-0.9-0.2-1.6-0.7-2.1-1.4s-0.8-1.5-0.8-2.5c0-1.3,0.5-2.3,1.4-3.1s2.2-1.2,3.8-1.2c1.6,0,2.9,0.4,3.8,1.1    s1.4,1.8,1.4,3.1c0,0.9-0.3,1.8-0.8,2.5s-1.2,1.1-2.1,1.3v0c1.1,0.2,1.9,0.6,2.5,1.3S194,91,194,92.1z M191.8,91.9    c0-1-0.3-1.8-0.9-2.3s-1.5-0.8-2.6-0.8c-1.1,0-1.9,0.3-2.5,0.8s-0.9,1.3-0.9,2.3c0,2.3,1.2,3.4,3.5,3.4c1.1,0,2-0.3,2.6-0.8    S191.8,93.1,191.8,91.9z M191.4,84.3c0-1.9-1-2.8-3.1-2.8c-1,0-1.7,0.2-2.3,0.7s-0.8,1.2-0.8,2.1c0,0.9,0.3,1.7,0.8,2.2    s1.3,0.7,2.3,0.7c1,0,1.7-0.2,2.3-0.7S191.4,85.3,191.4,84.3z"/>
		<path d="M201.3,80.2c0,0.8-0.3,1.4-0.8,2s-1.2,0.8-2,0.8s-1.4-0.3-2-0.8s-0.8-1.2-0.8-2c0-0.8,0.3-1.5,0.8-2s1.2-0.8,2-0.8    c0.8,0,1.4,0.3,2,0.8S201.3,79.4,201.3,80.2z M200,80.2c0-0.4-0.2-0.8-0.5-1.1s-0.7-0.5-1.1-0.5c-0.4,0-0.8,0.2-1.1,0.5    s-0.5,0.7-0.5,1.1c0,0.4,0.1,0.8,0.4,1.1s0.7,0.5,1.1,0.5c0.5,0,0.8-0.2,1.1-0.5S200,80.6,200,80.2z"/>
	</g>
	<g id="o-ray">
		<path d="M518.3,52.7c-1.3,0-2.3-0.4-3.1-1.2s-1.2-2-1.2-3.4c0-1.3,0.3-2.4,0.8-3.5s1.3-1.9,2.2-2.5s2-0.9,3.2-0.9    c1.3,0,2.3,0.4,3.1,1.2s1.2,2,1.2,3.4c0,1.3-0.3,2.4-0.8,3.5s-1.3,1.9-2.2,2.5S519.5,52.7,518.3,52.7z M516,48.5    c0,1.1,0.2,1.9,0.6,2.4s1,0.8,1.7,0.8c0.7,0,1.4-0.3,2-0.9s1.2-1.3,1.5-2.3s0.6-2,0.6-3.2c0-1.1-0.2-1.9-0.6-2.5s-1-0.8-1.8-0.8    c-0.7,0-1.4,0.3-2,0.9s-1.1,1.3-1.5,2.3S516,47.3,516,48.5z"/>
		<path d="M526.3,47v-1.9h5.9V47H526.3z"/>
		<path d="M534.9,52.5v-9.7c0-0.9,0-1.9-0.1-3h2c0.1,1.4,0.1,2.3,0.1,2.6h0c0.3-1.1,0.7-1.8,1.2-2.2s1.1-0.6,1.9-0.6    c0.3,0,0.6,0,0.9,0.1v1.9c-0.3-0.1-0.7-0.1-1.1-0.1c-0.9,0-1.5,0.4-2,1.1s-0.7,1.8-0.7,3.2v6.6H534.9z"/>
		<path d="M546.1,52.7c-1.3,0-2.2-0.3-2.9-1s-1-1.6-1-2.8c0-1.3,0.4-2.3,1.3-3s2.3-1.1,4.2-1.1l2.8,0V44c0-1-0.2-1.8-0.7-2.2    s-1.1-0.7-2.1-0.7c-0.9,0-1.6,0.2-2.1,0.5s-0.7,0.8-0.8,1.5l-2.2-0.2c0.4-2.3,2.1-3.4,5.1-3.4c1.6,0,2.8,0.4,3.6,1.1    s1.2,1.8,1.2,3.2v5.5c0,0.6,0.1,1.1,0.2,1.4s0.5,0.5,0.9,0.5c0.2,0,0.4,0,0.7-0.1v1.3c-0.5,0.1-1.1,0.2-1.6,0.2    c-0.8,0-1.3-0.2-1.7-0.6s-0.6-1.1-0.6-1.9h-0.1c-0.5,1-1.2,1.7-1.9,2.1S547.1,52.7,546.1,52.7z M546.6,51.1c0.8,0,1.5-0.2,2.1-0.5    s1.1-0.8,1.4-1.4s0.5-1.2,0.5-1.9v-1l-2.3,0c-1,0-1.7,0.1-2.3,0.3s-0.9,0.5-1.2,0.9s-0.4,0.9-0.4,1.5c0,0.7,0.2,1.2,0.6,1.6    S545.9,51.1,546.6,51.1z"/>
		<path d="M556.8,57.4c-0.6,0-1.1,0-1.5-0.1v-1.6c0.3,0,0.6,0.1,1,0.1c1.3,0,2.4-1,3.1-2.9l0.2-0.5l-5-12.6h2.3l2.7,7    c0,0.1,0.1,0.2,0.1,0.4s0.2,0.7,0.5,1.5s0.5,1.4,0.5,1.5l0.8-2.3l2.8-8.1h2.2l-4.9,12.7c-0.5,1.4-1,2.4-1.5,3s-1,1.2-1.5,1.5    S557.5,57.4,556.8,57.4z"/>
	</g>
	<g id="e-ray">
		<path d="M731.3,190.4c0,1.1-0.7,2-2,2.7s-3.1,1.2-5.3,1.3l0,0.9c0,1,0.2,1.7,0.6,2.2s1,0.8,1.9,0.8c0.7,0,1.4-0.1,1.9-0.4    s1.1-0.5,1.7-0.8l0.3,0.5c-0.7,0.6-1.5,1.1-2.3,1.4s-1.6,0.5-2.3,0.5c-1.3,0-2.2-0.4-2.9-1.1s-1-1.7-1-3c0-1.3,0.3-2.5,0.8-3.7    s1.3-2,2.3-2.7s2-1,3.1-1c1,0,1.7,0.2,2.3,0.7S731.3,189.7,731.3,190.4z M724.2,193.7c1.5-0.1,2.8-0.5,3.7-1.1s1.4-1.4,1.4-2.2    c0-0.4-0.1-0.8-0.4-1.1s-0.6-0.4-1-0.4c-0.5,0-1.1,0.2-1.6,0.7s-1,1-1.3,1.8S724.3,192.9,724.2,193.7z"/>
		<path d="M732.9,193.9V192h5.9v1.9H732.9z"/>
		<path d="M741.5,199.3v-9.7c0-0.9,0-1.9-0.1-3h2c0.1,1.4,0.1,2.3,0.1,2.6h0c0.3-1.1,0.7-1.8,1.2-2.2s1.1-0.6,1.9-0.6    c0.3,0,0.6,0,0.9,0.1v1.9c-0.3-0.1-0.7-0.1-1.1-0.1c-0.9,0-1.5,0.4-2,1.1s-0.7,1.8-0.7,3.2v6.6H741.5z"/>
		<path d="M752.7,199.5c-1.3,0-2.2-0.3-2.9-1s-1-1.6-1-2.8c0-1.3,0.4-2.3,1.3-3s2.3-1.1,4.2-1.1l2.8,0v-0.7c0-1-0.2-1.8-0.7-2.2    s-1.1-0.7-2.1-0.7c-0.9,0-1.6,0.2-2.1,0.5s-0.7,0.8-0.8,1.5l-2.2-0.2c0.4-2.3,2.1-3.4,5.1-3.4c1.6,0,2.8,0.4,3.6,1.1    s1.2,1.8,1.2,3.2v5.5c0,0.6,0.1,1.1,0.2,1.4s0.5,0.5,0.9,0.5c0.2,0,0.4,0,0.7-0.1v1.3c-0.5,0.1-1.1,0.2-1.6,0.2    c-0.8,0-1.3-0.2-1.7-0.6s-0.6-1.1-0.6-1.9h-0.1c-0.5,1-1.2,1.7-1.9,2.1S753.7,199.5,752.7,199.5z M753.2,197.9    c0.8,0,1.5-0.2,2.1-0.5s1.1-0.8,1.4-1.4s0.5-1.2,0.5-1.9v-1l-2.3,0c-1,0-1.7,0.1-2.3,0.3s-0.9,0.5-1.2,0.9s-0.4,0.9-0.4,1.5    c0,0.7,0.2,1.2,0.6,1.6S752.5,197.9,753.2,197.9z"/>
		<path d="M763.5,204.3c-0.6,0-1.1,0-1.5-0.1v-1.6c0.3,0,0.6,0.1,1,0.1c1.3,0,2.4-1,3.1-2.9l0.2-0.5l-5-12.6h2.3l2.7,7    c0,0.1,0.1,0.2,0.1,0.4s0.2,0.7,0.5,1.5s0.5,1.4,0.5,1.5l0.8-2.3l2.8-8.1h2.2l-4.9,12.7c-0.5,1.4-1,2.4-1.5,3s-1,1.2-1.5,1.5    S764.1,204.3,763.5,204.3z"/>
	</g>
</g>
</svg>